<svg width="32" height="32" viewBox="0 0 32 32" fill="none" xmlns="http://www.w3.org/2000/svg">
<g clip-path="url(#clip0_757_2795)">
<path d="M20.0001 25C18.9601 25 17.9251 24 17.1651 22.265L16.2451 22.665C17.1901 24.815 18.5001 26 20.0001 26H26.0001C28.8051 26 31.0001 21.605 31.0001 16C31.0001 10.395 28.8051 6 26.0001 6H20.0001C18.5001 6 17.1901 7.185 16.2451 9.335L17.1651 9.735C17.9251 8 18.9601 7 20.0001 7C22.1701 7 24.0001 11.12 24.0001 16C24.0001 20.88 22.1701 25 20.0001 25ZM25.0001 16C25.0001 12 23.8701 8.605 22.2001 7H26.0001C28.1701 7 30.0001 11.12 30.0001 16C30.0001 20.88 28.1701 25 26.0001 25H22.2001C23.8701 23.395 25.0001 20 25.0001 16Z" fill="black"/>
<path d="M31 28.5H16.715C15.1862 27.9285 13.868 26.9044 12.9362 25.5644C12.0045 24.2244 11.5034 22.6321 11.5 21C11.5029 20.6655 11.5263 20.3316 11.57 20H20C20.1326 20 20.2598 19.9473 20.3536 19.8536C20.4473 19.7598 20.5 19.6326 20.5 19.5V17.5C20.5 17.3674 20.4473 17.2402 20.3536 17.1464C20.2598 17.0527 20.1326 17 20 17H4C3.86739 17 3.74021 17.0527 3.64645 17.1464C3.55268 17.2402 3.5 17.3674 3.5 17.5V19.5C3.5 19.6326 3.55268 19.7598 3.64645 19.8536C3.74021 19.9473 3.86739 20 4 20H8.55C8.52 20.325 8.5 20.66 8.5 21C8.50047 23.7839 9.55645 26.464 11.455 28.5H1C0.867392 28.5 0.740215 28.5527 0.646447 28.6464C0.552678 28.7402 0.5 28.8674 0.5 29V31C0.5 31.1326 0.552678 31.2598 0.646447 31.3536C0.740215 31.4473 0.867392 31.5 1 31.5H31C31.1326 31.5 31.2598 31.4473 31.3536 31.3536C31.4473 31.2598 31.5 31.1326 31.5 31V29C31.5 28.8674 31.4473 28.7402 31.3536 28.6464C31.2598 28.5527 31.1326 28.5 31 28.5ZM4.5 19V18H19.5V19H4.5ZM9.5 21C9.5 20.66 9.525 20.325 9.555 20H10.555C10.5189 20.3321 10.5006 20.6659 10.5 21C10.5032 22.4851 10.8726 23.9465 11.5756 25.2548C12.2785 26.563 13.2933 27.6777 14.53 28.5H12.89C11.8251 27.562 10.9721 26.4081 10.3876 25.1149C9.80312 23.8218 9.50055 22.4191 9.5 21ZM30.5 30.5H1.5V29.5H30.5V30.5Z" fill="black"/>
<path d="M4.5 11.5C4.36739 11.5 4.24021 11.5527 4.14645 11.6464C4.05268 11.7402 4 11.8674 4 12V16C4 16.1326 4.05268 16.2598 4.14645 16.3536C4.24021 16.4473 4.36739 16.5 4.5 16.5H11.5C12.163 16.5 12.7989 16.2366 13.2678 15.7678C13.7366 15.2989 14 14.663 14 14C14 13.337 13.7366 12.7011 13.2678 12.2322C12.7989 11.7634 12.163 11.5 11.5 11.5H4.5ZM13 14C13 14.3978 12.842 14.7794 12.5607 15.0607C12.2794 15.342 11.8978 15.5 11.5 15.5H5V12.5H11.5C11.8978 12.5 12.2794 12.658 12.5607 12.9393C12.842 13.2206 13 13.6022 13 14Z" fill="black"/>
<path d="M14.5 14C14.5 14.4945 14.6466 14.9778 14.9213 15.3889C15.196 15.8 15.5865 16.1205 16.0433 16.3097C16.5001 16.4989 17.0028 16.5484 17.4877 16.452C17.9727 16.3555 18.4181 16.1174 18.7678 15.7678C19.1174 15.4181 19.3555 14.9727 19.452 14.4877C19.5484 14.0028 19.4989 13.5001 19.3097 13.0433C19.1205 12.5865 18.8 12.196 18.3889 11.9213C17.9778 11.6466 17.4945 11.5 17 11.5C16.337 11.5 15.7011 11.7634 15.2322 12.2322C14.7634 12.7011 14.5 13.337 14.5 14ZM17 12.5C17.2967 12.5 17.5867 12.588 17.8334 12.7528C18.08 12.9176 18.2723 13.1519 18.3858 13.426C18.4993 13.7001 18.5291 14.0017 18.4712 14.2926C18.4133 14.5836 18.2704 14.8509 18.0607 15.0607C17.8509 15.2704 17.5836 15.4133 17.2926 15.4712C17.0017 15.5291 16.7001 15.4994 16.426 15.3858C16.1519 15.2723 15.9176 15.08 15.7528 14.8334C15.588 14.5867 15.5 14.2967 15.5 14C15.5 13.6022 15.658 13.2206 15.9393 12.9393C16.2206 12.658 16.6022 12.5 17 12.5Z" fill="black"/>
<path d="M1 8.5H14C14.1326 8.5 14.2598 8.44732 14.3536 8.35355C14.4473 8.25979 14.5 8.13261 14.5 8V1C14.5 0.867392 14.4473 0.740215 14.3536 0.646447C14.2598 0.552678 14.1326 0.5 14 0.5H1C0.867392 0.5 0.740215 0.552678 0.646447 0.646447C0.552678 0.740215 0.5 0.867392 0.5 1V8C0.5 8.13261 0.552678 8.25979 0.646447 8.35355C0.740215 8.44732 0.867392 8.5 1 8.5ZM1.5 1.5H13.5V7.5H1.5V1.5Z" fill="black"/>
<path d="M9.055 4.27495L8.5 5.37995L6.945 2.27495C6.90717 2.19891 6.85059 2.13377 6.78061 2.08565C6.71063 2.03754 6.62954 2.00804 6.545 1.99995C6.45992 1.99251 6.37435 2.00698 6.29645 2.04199C6.21855 2.077 6.15092 2.13138 6.1 2.19995L4.75 3.99995H2.5V4.99995H5C5.07762 4.99995 5.15418 4.98188 5.22361 4.94716C5.29303 4.91245 5.35343 4.86205 5.4 4.79995L6.4 3.44495L8.04 6.72495C8.08196 6.80685 8.14571 6.87558 8.22422 6.92358C8.30274 6.97157 8.39298 6.99697 8.485 6.99697C8.57702 6.99697 8.66726 6.97157 8.74578 6.92358C8.82429 6.87558 8.88804 6.80685 8.93 6.72495L9.81 4.99995H12.5V3.99995H9.5C9.40767 4.00023 9.31721 4.02607 9.23867 4.07461C9.16012 4.12315 9.09655 4.19249 9.055 4.27495Z" fill="black"/>
</g>
<defs>
<clipPath id="clip0_757_2795">
<rect width="32" height="32" fill="white"/>
</clipPath>
</defs>
</svg>
