<svg width="32" height="32" viewBox="0 0 32 32" fill="none" xmlns="http://www.w3.org/2000/svg">
<path d="M14.5 9H13V7.95C14.4 7.7 15.5 6.5 15.5 5C15.5 3.35 14.15 2 12.5 2C12 2 11.45 2.15 11.05 2.4C10.5 1.55 9.55 1 8.5 1C7.45 1 6.5 1.55 5.95 2.4C5.55 2.15 5 2 4.5 2C2.85 2 1.5 3.35 1.5 5C1.5 6.5 2.6 7.7 4 7.95V9H2.5C1.65 9 1 9.65 1 10.5V29.5C1 30.35 1.65 31 2.5 31H14.5C15.35 31 16 30.35 16 29.5V10.5C16 9.65 15.35 9 14.5 9ZM5 11H12V11.5C12 11.8 11.8 12 11.5 12H5.5C5.2 12 5 11.8 5 11.5V11ZM2.5 5C2.5 3.9 3.4 3 4.5 3C5 3 5.45 3.15 5.8 3.5C5.8 3.5 5.85 3.55 5.9 3.55C5.95 3.55 5.95 3.6 6 3.6H6.1H6.15H6.2C6.25 3.6 6.3 3.6 6.3 3.55C6.3 3.55 6.35 3.55 6.35 3.5C6.45 3.5 6.5 3.5 6.5 3.45C6.5 3.4 6.55 3.4 6.55 3.35C6.55 3.3 6.6 3.3 6.6 3.25C6.9 2.5 7.65 2 8.5 2C9.35 2 10.1 2.5 10.4 3.3C10.4 3.35 10.45 3.4 10.5 3.45C10.55 3.5 10.55 3.5 10.6 3.55H10.65C10.7 3.55 10.75 3.6 10.8 3.6H10.85H10.95H11C11.05 3.6 11.05 3.55 11.1 3.55C11.15 3.55 11.15 3.5 11.2 3.5C11.55 3.15 12 3 12.5 3C13.6 3 14.5 3.9 14.5 5C14.5 6.1 13.6 7 12.5 7C12.2 7 12 7.2 12 7.5V10H11V6.5C11 6.2 10.8 6 10.5 6C10.2 6 10 6.2 10 6.5V10H9V6.5C9 6.2 8.8 6 8.5 6C8.2 6 8 6.2 8 6.5V10H7V6.5C7 6.2 6.8 6 6.5 6C6.2 6 6 6.2 6 6.5V10H5V7.5C5 7.2 4.8 7 4.5 7C3.4 7 2.5 6.1 2.5 5ZM2.5 10H4V11.5C4 12.35 4.65 13 5.5 13H11.5C12.35 13 13 12.35 13 11.5V10H14.5C14.8 10 15 10.2 15 10.5V26H2V10.5C2 10.2 2.2 10 2.5 10ZM14.5 30H2.5C2.2 30 2 29.8 2 29.5V27H15V29.5C15 29.8 14.8 30 14.5 30Z" fill="black"/>
<path d="M10 29H7C6.7 29 6.5 28.8 6.5 28.5C6.5 28.2 6.7 28 7 28H10C10.3 28 10.5 28.2 10.5 28.5C10.5 28.8 10.3 29 10 29Z" fill="black"/>
<path d="M5.5 17H3.5C3.2 17 3 16.8 3 16.5V14.5C3 14.2 3.2 14 3.5 14H5.5C5.8 14 6 14.2 6 14.5V16.5C6 16.8 5.8 17 5.5 17ZM4 16H5V15H4V16Z" fill="black"/>
<path d="M9.5 17H7.5C7.2 17 7 16.8 7 16.5V14.5C7 14.2 7.2 14 7.5 14H9.5C9.8 14 10 14.2 10 14.5V16.5C10 16.8 9.8 17 9.5 17ZM8 16H9V15H8V16Z" fill="black"/>
<path d="M13.5 17H11.5C11.2 17 11 16.8 11 16.5V14.5C11 14.2 11.2 14 11.5 14H13.5C13.8 14 14 14.2 14 14.5V16.5C14 16.8 13.8 17 13.5 17ZM12 16H13V15H12V16Z" fill="black"/>
<path d="M5.5 19H3.5C3.2 19 3 18.8 3 18.5C3 18.2 3.2 18 3.5 18H5.5C5.8 18 6 18.2 6 18.5C6 18.8 5.8 19 5.5 19Z" fill="black"/>
<path d="M9.5 19H7.5C7.2 19 7 18.8 7 18.5C7 18.2 7.2 18 7.5 18H9.5C9.8 18 10 18.2 10 18.5C10 18.8 9.8 19 9.5 19Z" fill="black"/>
<path d="M13.5 19H11.5C11.2 19 11 18.8 11 18.5C11 18.2 11.2 18 11.5 18H13.5C13.8 18 14 18.2 14 18.5C14 18.8 13.8 19 13.5 19Z" fill="black"/>
<path d="M5.5 23H3.5C3.2 23 3 22.8 3 22.5V20.5C3 20.2 3.2 20 3.5 20H5.5C5.8 20 6 20.2 6 20.5V22.5C6 22.8 5.8 23 5.5 23ZM4 22H5V21H4V22Z" fill="black"/>
<path d="M9.5 23H7.5C7.2 23 7 22.8 7 22.5V20.5C7 20.2 7.2 20 7.5 20H9.5C9.8 20 10 20.2 10 20.5V22.5C10 22.8 9.8 23 9.5 23ZM8 22H9V21H8V22Z" fill="black"/>
<path d="M13.5 23H11.5C11.2 23 11 22.8 11 22.5V20.5C11 20.2 11.2 20 11.5 20H13.5C13.8 20 14 20.2 14 20.5V22.5C14 22.8 13.8 23 13.5 23ZM12 22H13V21H12V22Z" fill="black"/>
<path d="M5.5 25H3.5C3.2 25 3 24.8 3 24.5C3 24.2 3.2 24 3.5 24H5.5C5.8 24 6 24.2 6 24.5C6 24.8 5.8 25 5.5 25Z" fill="black"/>
<path d="M9.5 25H7.5C7.2 25 7 24.8 7 24.5C7 24.2 7.2 24 7.5 24H9.5C9.8 24 10 24.2 10 24.5C10 24.8 9.8 25 9.5 25Z" fill="black"/>
<path d="M13.5 25H11.5C11.2 25 11 24.8 11 24.5C11 24.2 11.2 24 11.5 24H13.5C13.8 24 14 24.2 14 24.5C14 24.8 13.8 25 13.5 25Z" fill="black"/>
<path d="M25.2501 9.5C25.1501 9.5 25.1001 9.5 25.0001 9.45L24.0001 8.9L23.0001 9.45C22.8501 9.55 22.6501 9.55 22.4501 9.4C22.3001 9.3 22.2001 9.1 22.2501 8.9L22.4501 7.7L21.6501 6.85C21.5001 6.7 21.4501 6.5 21.5501 6.35C21.6501 6.2 21.7501 6.05 21.9501 6L23.0501 5.85L23.5501 4.75C23.6501 4.6 23.8001 4.5 24.0001 4.5C24.2001 4.5 24.3501 4.6 24.4501 4.8L24.9501 5.9L26.0501 6.05C26.2501 6.1 26.4001 6.2 26.4501 6.4C26.5001 6.6 26.4501 6.75 26.3501 6.9L25.5501 7.75L25.7501 8.95C25.8001 9.15 25.7001 9.35 25.5501 9.45C25.4501 9.45 25.3501 9.5 25.2501 9.5ZM24.0001 7.8C24.1001 7.8 24.1501 7.8 24.2501 7.85L24.6001 8.05L24.5001 7.65C24.4501 7.5 24.5001 7.35 24.6501 7.2L24.9501 6.85L24.5501 6.8C24.4001 6.75 24.2501 6.65 24.1501 6.5L24.0001 6.2L23.8501 6.55C23.8001 6.7 23.6501 6.8 23.4501 6.85L23.0501 6.9L23.3501 7.25C23.4501 7.35 23.5001 7.5 23.5001 7.7L23.4501 8.15L23.8001 7.95C23.8501 7.85 23.9001 7.8 24.0001 7.8Z" fill="black"/>
<path d="M29.7501 6C29.6501 6 29.6001 6 29.5001 5.95L28.5001 5.4L27.5001 5.95C27.3501 6.05 27.1501 6.05 26.9501 5.9C26.8001 5.8 26.7001 5.6 26.7501 5.4L26.9501 4.2L26.1501 3.35C26.0001 3.2 25.9501 3 26.0501 2.85C26.1501 2.7 26.2501 2.55 26.4501 2.5L27.5501 2.35L28.0501 1.25C28.1501 1.1 28.3001 1 28.5001 1C28.7001 1 28.8501 1.1 28.9501 1.3L29.4501 2.4L30.5501 2.55C30.7501 2.6 30.9001 2.7 30.9501 2.9C31.0001 3.1 30.9501 3.25 30.8501 3.4L30.0501 4.25L30.2501 5.45C30.3001 5.65 30.2001 5.85 30.0501 5.95C29.9501 5.95 29.8501 6 29.7501 6ZM28.5001 4.3C28.6001 4.3 28.6501 4.3 28.7501 4.35L29.1001 4.55L29.0001 4.15C28.9501 4 29.0001 3.85 29.1501 3.7L29.4501 3.35L29.0501 3.3C28.9001 3.25 28.7501 3.15 28.6501 3L28.5001 2.7L28.3501 3.05C28.3001 3.2 28.1501 3.3 27.9501 3.35L27.5501 3.4L27.8501 3.75C27.9501 3.8 28.0001 4 28.0001 4.15L27.9501 4.6L28.3001 4.4C28.3501 4.35 28.4001 4.3 28.5001 4.3Z" fill="black"/>
<path d="M20.7501 6C20.6501 6 20.6001 6 20.5001 5.95L19.5001 5.4L18.5001 5.95C18.3501 6.05 18.1501 6.05 17.9501 5.9C17.7501 5.75 17.7001 5.6 17.7501 5.4L17.9501 4.2L17.1501 3.35C17.0001 3.2 16.9501 3 17.0501 2.85C17.1501 2.7 17.2501 2.55 17.4501 2.5L18.5501 2.35L19.0501 1.25C19.1501 1.1 19.3001 1 19.5001 1C19.7001 1 19.8501 1.1 19.9501 1.3L20.4501 2.4L21.5501 2.55C21.7501 2.6 21.9001 2.7 21.9501 2.9C22.0001 3.1 21.9501 3.25 21.8501 3.4L21.0501 4.25L21.2501 5.45C21.3001 5.65 21.2001 5.85 21.0501 5.95C20.9501 5.95 20.8501 6 20.7501 6ZM19.5001 4.3C19.6001 4.3 19.6501 4.3 19.7501 4.35L20.1001 4.55L20.0001 4.15C19.9501 4 20.0001 3.85 20.1501 3.7L20.4501 3.35L20.0501 3.3C19.9001 3.25 19.7501 3.15 19.6501 3L19.5001 2.7L19.3501 3.05C19.3001 3.2 19.1501 3.3 18.9501 3.35L18.5501 3.4L18.8501 3.75C18.9501 3.8 19.0001 4 19.0001 4.15L18.9501 4.6L19.3001 4.4C19.3501 4.35 19.4001 4.3 19.5001 4.3Z" fill="black"/>
<path d="M30.5 21H29.9C29.95 20.85 30 20.7 30 20.5C30 19.85 29.6 19.3 29 19.1V17.5C29 14.9 27 12.8 24.5 12.55V11.5H25.5C25.8 11.5 26 11.3 26 11C26 10.7 25.8 10.5 25.5 10.5H22.5C22.2 10.5 22 10.7 22 11C22 11.3 22.2 11.5 22.5 11.5H23.5V12.55C21 12.8 19 14.95 19 17.5V19.1C18.4 19.3 18 19.85 18 20.5C18 20.7 18.05 20.85 18.1 21H17.5C17.2 21 17 21.2 17 21.5V23.5V26C17 26.3 17.2 26.5 17.5 26.5C17.7 26.5 17.85 26.5 18 26.45V28.1C17.4 28.3 17 28.85 17 29.5C17 30.35 17.65 31 18.5 31C19.35 31 20 30.35 20 29.5C20 28.85 19.6 28.3 19 28.1V25.8C19.2 25.6 19.35 25.5 19.65 25.5C20 25.5 20.15 25.65 20.4 25.85C20.7 26.1 21.1 26.5 21.8 26.5C22.55 26.5 22.95 26.15 23.2 25.85C23.5 25.65 23.65 25.5 24 25.5C24.35 25.5 24.5 25.65 24.75 25.85C25.05 26.1 25.45 26.5 26.15 26.5C26.85 26.5 27.3 26.15 27.55 25.85C27.8 25.6 27.95 25.5 28.3 25.5C28.6 25.5 28.75 25.6 28.95 25.8V28.1C28.35 28.3 27.95 28.85 27.95 29.5C27.95 30.35 28.6 31 29.45 31C30.3 31 30.95 30.35 30.95 29.5C30.95 28.85 30.55 28.3 29.95 28.1V26.45C30.1 26.5 30.25 26.5 30.45 26.5C30.75 26.5 30.95 26.3 30.95 26V23.5V21.5C31 21.2 30.8 21 30.5 21ZM20 17.5C20 15.3 21.8 13.5 24 13.5C26.2 13.5 28 15.3 28 17.5V19H20V17.5ZM19 20.5C19 20.2 19.2 20 19.5 20H28.5C28.8 20 29 20.2 29 20.5C29 20.8 28.8 21 28.5 21H19.5C19.2 21 19 20.8 19 20.5ZM18.5 30C18.2 30 18 29.8 18 29.5C18 29.2 18.2 29 18.5 29C18.8 29 19 29.2 19 29.5C19 29.8 18.8 30 18.5 30ZM29.5 30C29.2 30 29 29.8 29 29.5C29 29.2 29.2 29 29.5 29C29.8 29 30 29.2 30 29.5C30 29.8 29.8 30 29.5 30ZM30 25.35C29.9 25.3 29.85 25.2 29.75 25.15C29.45 24.9 29.05 24.5 28.35 24.5C27.65 24.5 27.2 24.85 26.95 25.15C26.65 25.35 26.5 25.5 26.15 25.5C25.8 25.5 25.65 25.35 25.4 25.15C25.15 24.85 24.75 24.5 24 24.5C23.25 24.5 22.85 24.85 22.6 25.15C22.35 25.4 22.2 25.5 21.85 25.5C21.5 25.5 21.35 25.35 21.1 25.15C20.8 24.9 20.4 24.5 19.7 24.5C18.95 24.5 18.55 24.85 18.3 25.15C18.2 25.25 18.15 25.3 18.05 25.35V23.5V22H19.55H28.55H30.05V23.5V25.35H30Z" fill="black"/>
</svg>
