<svg width="33" height="32" viewBox="0 0 33 32" fill="none" xmlns="http://www.w3.org/2000/svg">
<path d="M24.4541 25H19.4541C19.1781 25 18.9541 24.776 18.9541 24.5C18.9541 24.224 19.1781 24 19.4541 24H24.4541C24.7301 24 24.9541 24.224 24.9541 24.5C24.9541 24.776 24.7301 25 24.4541 25Z" fill="black"/>
<path d="M25.4541 25H24.4541C23.0761 25 21.9541 23.878 21.9541 22.5V19.5C21.9541 19.224 22.1781 19 22.4541 19C22.7301 19 22.9541 19.224 22.9541 19.5V22.5C22.9541 23.327 23.6271 24 24.4541 24H25.4541C25.7301 24 25.9541 24.224 25.9541 24.5C25.9541 24.776 25.7301 25 25.4541 25Z" fill="black"/>
<path d="M12.4541 28.5C9.9731 28.5 7.9541 26.481 7.9541 24C7.9541 23.724 8.1781 23.5 8.4541 23.5C8.7301 23.5 8.9541 23.724 8.9541 24C8.9541 25.93 10.5241 27.5 12.4541 27.5C12.7301 27.5 12.9541 27.724 12.9541 28C12.9541 28.276 12.7301 28.5 12.4541 28.5Z" fill="black"/>
<path d="M12.4541 26.5C11.0761 26.5 9.9541 25.378 9.9541 24C9.9541 23.724 10.1781 23.5 10.4541 23.5C10.7301 23.5 10.9541 23.724 10.9541 24C10.9541 24.827 11.6271 25.5 12.4541 25.5C12.7301 25.5 12.9541 25.724 12.9541 26C12.9541 26.276 12.7301 26.5 12.4541 26.5Z" fill="black"/>
<path d="M30.4541 20H20.9541C20.6781 20 20.4541 19.776 20.4541 19.5C20.4541 19.224 20.6781 19 20.9541 19H30.4541C30.7301 19 30.9541 18.776 30.9541 18.5V2.5C30.9541 2.224 30.7301 2 30.4541 2H9.4541C9.1781 2 8.9541 2.224 8.9541 2.5V3.5C8.9541 3.776 8.7301 4 8.4541 4C8.1781 4 7.9541 3.776 7.9541 3.5V2.5C7.9541 1.673 8.6271 1 9.4541 1H30.4541C31.2811 1 31.9541 1.673 31.9541 2.5V18.5C31.9541 19.327 31.2811 20 30.4541 20Z" fill="black"/>
<path d="M23.9541 13C22.8791 13 21.8761 12.581 21.1281 11.82C20.3731 11.078 19.9541 10.075 19.9541 9C19.9541 8.416 20.0781 7.854 20.3211 7.328C20.4371 7.078 20.7351 6.967 20.9851 7.084C21.2351 7.2 21.3451 7.497 21.2291 7.748C21.0461 8.141 20.9541 8.563 20.9541 9C20.9541 9.804 21.2671 10.555 21.8351 11.113C22.3991 11.687 23.1501 12 23.9541 12C25.6081 12 26.9541 10.654 26.9541 9C26.9541 8.196 26.6411 7.445 26.0731 6.887C25.5091 6.313 24.7581 6 23.9541 6C23.6781 6 23.4541 5.776 23.4541 5.5C23.4541 5.224 23.6781 5 23.9541 5C25.0291 5 26.0321 5.419 26.7801 6.18C27.5351 6.922 27.9541 7.925 27.9541 9C27.9541 11.206 26.1601 13 23.9541 13Z" fill="black"/>
<path d="M22.5539 6C22.2779 6 22.0039 5.776 22.0039 5.5C22.0039 5.224 22.1779 5 22.4539 5H22.5539C22.8299 5 23.0539 5.224 23.0539 5.5C23.0539 5.776 22.8299 6 22.5539 6Z" fill="black"/>
<path d="M20.5539 6C20.2779 6 20.0039 5.776 20.0039 5.5C20.0039 5.224 20.1779 5 20.4539 5H20.5539C20.8299 5 21.0539 5.224 21.0539 5.5C21.0539 5.776 20.8299 6 20.5539 6Z" fill="black"/>
<path d="M18.5539 6C18.2779 6 18.0039 5.776 18.0039 5.5C18.0039 5.224 18.1779 5 18.4539 5H18.5539C18.8299 5 19.0539 5.224 19.0539 5.5C19.0539 5.776 18.8299 6 18.5539 6Z" fill="black"/>
<path d="M16.5539 6C16.2779 6 16.0039 5.776 16.0039 5.5C16.0039 5.224 16.1779 5 16.4539 5H16.5539C16.8299 5 17.0539 5.224 17.0539 5.5C17.0539 5.776 16.8299 6 16.5539 6Z" fill="black"/>
<path d="M14.5539 6C14.2779 6 14.0039 5.776 14.0039 5.5C14.0039 5.224 14.1779 5 14.4539 5H14.5539C14.8299 5 15.0539 5.224 15.0539 5.5C15.0539 5.776 14.8299 6 14.5539 6Z" fill="black"/>
<path d="M12.4541 24.5C12.3261 24.5 12.1981 24.451 12.1001 24.354C11.9051 24.159 11.9051 23.842 12.1001 23.647L13.0501 22.697C14.2781 21.469 14.9541 19.837 14.9541 18.101V17.5C14.9541 16.122 13.8321 15 12.4541 15H10.4541C7.9731 15 5.9541 12.981 5.9541 10.5V7.5C5.9541 6.122 7.0761 5 8.4541 5H12.4541C12.7301 5 12.9541 5.224 12.9541 5.5C12.9541 5.776 12.7301 6 12.4541 6H8.4541C7.6271 6 6.9541 6.673 6.9541 7.5V10.5C6.9541 12.43 8.5241 14 10.4541 14H12.4541C14.3841 14 15.9541 15.57 15.9541 17.5V18.101C15.9541 20.104 15.1741 21.988 13.7581 23.404L12.8081 24.354C12.7101 24.451 12.5821 24.5 12.4541 24.5Z" fill="black"/>
<path d="M27.4545 18H27.3535C27.0775 18 26.8535 17.776 26.8535 17.5C26.8535 17.224 27.0775 17 27.3535 17H27.4545C27.7305 17 27.9545 17.224 27.9545 17.5C27.9545 17.776 27.7305 18 27.4545 18Z" fill="black"/>
<path d="M25.4545 18H25.3535C25.0775 18 24.8535 17.776 24.8535 17.5C24.8535 17.224 25.0775 17 25.3535 17H25.4545C25.7305 17 25.9545 17.224 25.9545 17.5C25.9545 17.776 25.7305 18 25.4545 18Z" fill="black"/>
<path d="M29.4545 18H29.3535C29.0775 18 28.8535 17.776 28.8535 17.5C28.8535 17.224 29.0775 17 29.3535 17H29.4545C29.7305 17 29.9545 17.224 29.9545 17.5C29.9545 17.776 29.7305 18 29.4545 18Z" fill="black"/>
<path d="M9.0541 31.4C9.0031 31.4 3.9541 31.34 3.9541 26.2C3.9541 25.845 4.0301 25.445 4.1751 25.024C3.5681 24.889 2.9541 25.374 2.9541 26V26.5C2.9541 26.776 2.7301 27 2.4541 27C2.1781 27 1.9541 26.776 1.9541 26.5V26C1.9541 24.897 2.8511 24 3.9541 24C4.3711 24 4.7691 24.125 5.1031 24.361C5.2981 24.499 5.3691 24.757 5.2701 24.974C5.0631 25.435 4.9541 25.858 4.9541 26.2C4.9541 30.352 8.8861 30.4 9.0541 30.4C18.1721 30.4 20.6051 21.587 20.6051 16.379C20.6051 13.586 18.5781 11.559 15.7851 11.559C14.5771 11.559 13.4151 12.022 12.5161 12.865C12.4231 12.952 12.3011 13 12.1741 13H10.4541C9.0761 13 7.9541 11.878 7.9541 10.5V7.5C7.9541 7.224 8.1781 7 8.4541 7C8.7301 7 8.9541 7.224 8.9541 7.5V10.5C8.9541 11.327 9.6271 12 10.4541 12H11.9811C13.0441 11.07 14.3861 10.56 15.7841 10.56C19.1021 10.56 21.6041 13.062 21.6041 16.38C21.6041 21.959 18.9611 31.4 9.0541 31.4Z" fill="black"/>
<path d="M6.00418 23.6799C5.90018 23.6799 5.79618 23.6479 5.70718 23.5819C4.82118 22.9289 3.63118 22.8289 2.66818 23.2899C2.41818 23.4079 2.12018 23.3039 2.00118 23.0549C1.88218 22.8059 1.98718 22.5069 2.23618 22.3879C3.41418 21.8239 4.84718 21.8849 5.97718 22.5619C6.42418 22.2339 6.88618 22.0159 7.35518 21.9119C8.89418 21.5449 9.97418 20.1779 9.97418 18.5899V16.3799C9.97418 16.1039 10.1982 15.8799 10.4742 15.8799C10.7502 15.8799 10.9742 16.1039 10.9742 16.3799V18.5899C10.9742 20.6429 9.57818 22.4099 7.58018 22.8869C7.15918 22.9799 6.74118 23.2049 6.33018 23.5589C6.23618 23.6389 6.12018 23.6799 6.00418 23.6799Z" fill="black"/>
</svg>
