<svg width="33" height="33" viewBox="0 0 33 33" fill="none" xmlns="http://www.w3.org/2000/svg">
<path d="M26.4886 22.5114C25.7806 22.515 25.0867 22.7098 24.4801 23.0751L20.6888 19.2828C21.229 18.4721 21.5172 17.5197 21.5172 16.5455C21.5172 15.5713 21.229 14.6188 20.6888 13.8081L23.2213 11.2756C23.862 11.5842 24.5911 11.656 25.2797 11.4785C25.9683 11.3009 26.5718 10.8853 26.9833 10.3054C27.3948 9.72549 27.5878 9.01863 27.528 8.31005C27.4683 7.60147 27.1596 6.93691 26.6568 6.43409C26.154 5.93127 25.4894 5.62265 24.7809 5.5629C24.0723 5.50315 23.3654 5.69612 22.7855 6.10763C22.2056 6.51914 21.79 7.12264 21.6125 7.8112C21.4349 8.49976 21.5068 9.22896 21.8153 9.86961L19.2828 12.4021C18.4721 11.862 17.5197 11.5737 16.5455 11.5737C15.5713 11.5737 14.6188 11.862 13.8081 12.4021L10.0158 8.6098C10.3809 8.00355 10.5757 7.30999 10.5795 6.60228C10.5795 5.81564 10.3463 5.04668 9.90926 4.39262C9.47223 3.73856 8.85106 3.22878 8.12431 2.92775C7.39756 2.62672 6.59786 2.54796 5.82635 2.70142C5.05483 2.85489 4.34615 3.23369 3.78992 3.78992C3.23369 4.34615 2.85489 5.05483 2.70142 5.82635C2.54796 6.59786 2.62672 7.39756 2.92775 8.12431C3.22878 8.85106 3.73856 9.47223 4.39262 9.90926C5.04668 10.3463 5.81564 10.5795 6.60227 10.5795C7.31033 10.5759 8.00425 10.3811 8.6108 10.0158L12.4021 13.8081C11.862 14.6188 11.5737 15.5713 11.5737 16.5455C11.5737 17.5197 11.862 18.4721 12.4021 19.2828L8.6098 23.0751C8.00353 22.71 7.30998 22.5153 6.60227 22.5114C5.81564 22.5114 5.04668 22.7446 4.39262 23.1817C3.73856 23.6187 3.22878 24.2399 2.92775 24.9666C2.62672 25.6934 2.54796 26.4931 2.70142 27.2646C2.85489 28.0361 3.23369 28.7448 3.78992 29.301C4.34615 29.8572 5.05483 30.236 5.82635 30.3895C6.59786 30.543 7.39756 30.4642 8.12431 30.1632C8.85106 29.8621 9.47223 29.3524 9.90926 28.6983C10.3463 28.0442 10.5795 27.2753 10.5795 26.4886C10.5759 25.7806 10.3811 25.0867 10.0158 24.4801L13.8081 20.6888C14.3369 21.0412 14.9287 21.2884 15.5511 21.4166V24.683C14.8877 24.9175 14.3286 25.3791 13.9725 25.986C13.6165 26.5929 13.4865 27.3062 13.6055 27.9997C13.7245 28.6933 14.0848 29.3224 14.6228 29.776C15.1608 30.2295 15.8418 30.4783 16.5455 30.4783C17.2491 30.4783 17.9301 30.2295 18.4681 29.776C19.0061 29.3224 19.3665 28.6933 19.4855 27.9997C19.6044 27.3062 19.4744 26.5929 19.1184 25.986C18.7623 25.3791 18.2032 24.9175 17.5398 24.683V21.4166C18.1622 21.2884 18.754 21.0412 19.2828 20.6888L23.0751 24.4811C22.71 25.0874 22.5152 25.7809 22.5114 26.4886C22.5114 27.2753 22.7446 28.0442 23.1817 28.6983C23.6187 29.3524 24.2399 29.8621 24.9666 30.1632C25.6934 30.4642 26.493 30.543 27.2646 30.3895C28.0361 30.236 28.7448 29.8572 29.301 29.301C29.8572 28.7448 30.236 28.0361 30.3895 27.2646C30.543 26.4931 30.4642 25.6934 30.1632 24.9666C29.8621 24.2399 29.3524 23.6187 28.6983 23.1817C28.0442 22.7446 27.2753 22.5114 26.4886 22.5114ZM16.5455 13.5625C17.1354 13.5625 17.7122 13.7375 18.2027 14.0652C18.6932 14.393 19.0756 14.8589 19.3013 15.4039C19.5271 15.949 19.5862 16.5488 19.4711 17.1274C19.356 17.706 19.0719 18.2376 18.6547 18.6547C18.2376 19.0719 17.706 19.356 17.1274 19.4711C16.5488 19.5862 15.949 19.5271 15.4039 19.3013C14.8589 19.0756 14.393 18.6932 14.0652 18.2027C13.7374 17.7122 13.5625 17.1354 13.5625 16.5455C13.5633 15.7546 13.8778 14.9963 14.4371 14.4371C14.9963 13.8778 15.7546 13.5633 16.5455 13.5625ZM4.61364 6.60228C4.61364 6.20896 4.73027 5.82448 4.94878 5.49745C5.1673 5.17042 5.47788 4.91553 5.84126 4.76501C6.20463 4.6145 6.60448 4.57512 6.99024 4.65185C7.376 4.72858 7.73034 4.91798 8.00845 5.1961C8.28657 5.47421 8.47597 5.82855 8.5527 6.21431C8.62943 6.60007 8.59005 6.99992 8.43954 7.36329C8.28902 7.72667 8.03413 8.03725 7.7071 8.25577C7.38007 8.47428 6.99559 8.59091 6.60227 8.59091C6.07502 8.59039 5.56951 8.3807 5.19668 8.00787C4.82385 7.63504 4.61416 7.12953 4.61364 6.60228ZM6.60227 28.4773C6.20896 28.4773 5.82448 28.3606 5.49745 28.1421C5.17042 27.9236 4.91553 27.613 4.76501 27.2497C4.6145 26.8863 4.57512 26.4864 4.65185 26.1007C4.72858 25.7149 4.91798 25.3606 5.1961 25.0825C5.47421 24.8043 5.82855 24.6149 6.21431 24.5382C6.60007 24.4615 6.99992 24.5009 7.36329 24.6514C7.72667 24.8019 8.03725 25.0568 8.25577 25.3838C8.47428 25.7108 8.59091 26.0953 8.59091 26.4886C8.59038 27.0159 8.3807 27.5214 8.00787 27.8942C7.63504 28.2671 7.12953 28.4768 6.60227 28.4773ZM26.4886 28.4773C26.0953 28.4773 25.7108 28.3606 25.3838 28.1421C25.0568 27.9236 24.8019 27.613 24.6514 27.2497C24.5009 26.8863 24.4615 26.4864 24.5382 26.1007C24.6149 25.7149 24.8043 25.3606 25.0825 25.0825C25.3606 24.8043 25.7149 24.6149 26.1007 24.5382C26.4864 24.4615 26.8863 24.5009 27.2497 24.6514C27.613 24.8019 27.9236 25.0568 28.1421 25.3838C28.3606 25.7108 28.4773 26.0953 28.4773 26.4886C28.4765 27.0158 28.2667 27.5212 27.8939 27.8939C27.5212 28.2667 27.0158 28.4765 26.4886 28.4773Z" fill="#12141D"/>
</svg>
