<svg width="32" height="32" viewBox="0 0 32 32" fill="none" xmlns="http://www.w3.org/2000/svg">
<g clip-path="url(#clip0_757_2679)">
<path d="M30.2253 10.5711C29.2741 10.5711 28.4988 11.337 28.4826 12.2845H25.8507V9.03979H30.2889C30.5301 9.03979 30.7257 8.84423 30.7257 8.60304V0.883039C30.7257 0.641789 30.5301 0.446289 30.2889 0.446289H18.6205C18.3793 0.446289 18.1838 0.641852 18.1838 0.883039V2.68485H17.5702C15.7908 2.68485 14.3432 4.13248 14.3432 5.91185V12.2909C13.9499 12.3164 13.5793 12.4268 13.2502 12.6047C13.1602 11.0548 11.8705 9.82135 10.2975 9.82135C8.93675 9.82135 7.78844 10.7458 7.44581 11.9994L7.18188 11.5411C6.9235 11.0932 6.49462 10.8039 6.02375 10.7069V1.31985H10.9482V3.28429H9.8555C9.44894 3.28429 9.11819 3.61504 9.11819 4.0216V7.7366C9.11819 8.54004 9.77256 9.19366 10.5769 9.19366H12.1913C12.9957 9.19366 13.6501 8.54004 13.6501 7.7366V4.0216C13.6501 3.61504 13.3193 3.28429 12.9128 3.28429H11.8217V0.883039C11.8217 0.641789 11.6262 0.446289 11.385 0.446289H5.58694C5.34575 0.446289 5.15019 0.641852 5.15019 0.883039V10.7506C5.03094 10.7881 4.91388 10.8385 4.80119 10.9035C3.97031 11.3827 3.68331 12.4503 4.16175 13.284L7.56319 19.1875H3.51813V11.8265C3.51813 10.8652 2.736 10.0831 1.77469 10.0831C0.813375 10.0831 0.03125 10.8652 0.03125 11.8265V20.9311C0.03125 21.8924 0.813375 22.6746 1.77469 22.6746H2.64469V24.4913C2.64469 24.4917 2.64462 24.492 2.64462 24.4924V27.8765C1.80312 28.0543 1.17 28.8028 1.17 29.6961C1.17 30.721 2.00462 31.5544 3.03012 31.5544C4.055 31.5544 4.88837 30.721 4.88837 29.6961C4.88837 28.8396 4.307 28.116 3.51794 27.9015V25.5285H28.4819V27.8765C27.6416 28.0543 27.0091 28.8028 27.0091 29.6961C27.0091 30.721 27.8425 31.5544 28.8674 31.5544C29.8929 31.5544 30.7275 30.721 30.7275 29.6961C30.7275 28.839 30.1449 28.1154 29.3552 27.9015V25.0944C29.3552 25.0935 29.3553 25.0927 29.3553 25.0918V22.6747H30.2253C31.1866 22.6747 31.9687 21.8925 31.9687 20.9312V12.3146C31.9687 11.3532 31.1866 10.5711 30.2253 10.5711ZM12.1912 8.32016H10.5769C10.2541 8.32016 9.99156 8.05841 9.99156 7.73666V5.85704H12.7765V7.7366C12.7765 8.05841 12.514 8.32016 12.1912 8.32016ZM12.7765 4.98348H9.99156V4.15785H12.7765V4.98348ZM24.0772 14.5814H16.0513C15.8101 14.5814 15.6145 14.777 15.6145 15.0182C15.6145 15.2594 15.8101 15.4549 16.0513 15.4549H24.0772C24.436 15.4549 24.7279 15.7468 24.7279 16.1055C24.7279 16.4644 24.4359 16.7562 24.0772 16.7562H16.0513H14.5182C13.5256 16.7562 12.7181 15.9487 12.7181 14.9562C12.7181 14.7 12.7724 14.4564 12.8695 14.2356C12.9084 14.1673 12.9447 14.0975 12.9782 14.026C13.2941 13.5061 13.8663 13.158 14.5183 13.158H23.4955H25.414H28.4819V16.7562H25.4552C25.5488 16.5588 25.6014 16.3382 25.6014 16.1056C25.6014 15.2652 24.9176 14.5814 24.0772 14.5814ZM18.6205 9.03979H23.0588V12.2845H16.8381V5.91185C16.8381 5.50823 17.1665 5.17979 17.5702 5.17979H18.1838V8.60298C18.1838 8.84429 18.3793 9.03979 18.6205 9.03979ZM24.9772 12.2845H23.9322V9.03979H24.9772V12.2845ZM19.0572 1.31985H29.8522V8.16629H25.414H23.4955H19.0572V1.31985ZM17.5702 3.55841H18.1838V4.30629H17.5702C16.6849 4.30629 15.9647 5.02654 15.9647 5.91185V12.2845H15.2168V5.91185C15.2167 4.61416 16.2724 3.55841 17.5702 3.55841ZM10.2975 10.6949C11.447 10.6949 12.3822 11.6293 12.3822 12.7779C12.3822 13.0807 12.3167 13.3684 12.1998 13.6283C12.1607 13.6963 12.1244 13.766 12.0912 13.8376C11.7276 14.4495 11.0599 14.8608 10.2974 14.8608C9.14888 14.8608 8.2145 13.9264 8.2145 12.7779C8.2145 11.6293 9.14894 10.6949 10.2975 10.6949ZM10.2975 15.7344C10.8731 15.7344 11.4104 15.5686 11.8654 15.2832C11.9344 15.8469 12.1789 16.3569 12.5432 16.7563H10.1857L9.54019 15.6356C9.78206 15.6997 10.0357 15.7344 10.2975 15.7344ZM4.919 12.8487C4.68013 12.4324 4.823 11.8994 5.23756 11.6603C5.31638 11.6148 5.39944 11.5832 5.48387 11.5645C5.517 11.5725 5.55137 11.5772 5.587 11.5772C5.64275 11.5772 5.69581 11.5664 5.74487 11.5474C6.01906 11.5704 6.27788 11.722 6.42506 11.9773L9.55481 17.411C9.63275 17.5464 9.77706 17.6298 9.93325 17.6298H14.5183H16.0513H24.0772H28.4819V19.1875H8.57125L4.919 12.8487ZM4.01506 29.696C4.01506 30.2394 3.57344 30.681 3.03012 30.681C2.48619 30.681 2.04331 30.2394 2.04331 29.696C2.04331 29.2887 2.29156 28.9381 2.64462 28.7872C2.76312 28.7373 2.8935 28.7092 3.03012 28.7092C3.20794 28.7092 3.37444 28.7566 3.51794 28.8389C3.81481 29.0092 4.01506 29.3299 4.01506 29.696ZM29.8542 29.696C29.8542 30.2394 29.4114 30.681 28.8674 30.681C28.3241 30.681 27.8825 30.2394 27.8825 29.696C27.8825 29.2894 28.1295 28.9387 28.4819 28.7878C28.6004 28.7372 28.7302 28.7092 28.8674 28.7092C29.0446 28.7092 29.2111 28.756 29.3552 28.8383C29.6527 29.0086 29.8542 29.3292 29.8542 29.696ZM28.4819 24.6549H3.51813V22.6746H28.4819V24.6549ZM31.0952 20.9311C31.0952 21.4109 30.705 21.801 30.2253 21.801H1.77469C1.295 21.801 0.90475 21.4108 0.90475 20.9311V11.8265C0.90475 11.3469 1.295 10.9567 1.77469 10.9567C2.25444 10.9567 2.64469 11.3469 2.64469 11.8265V19.6244C2.64469 19.8656 2.84025 20.0611 3.08144 20.0611H8.31831C8.31863 20.0611 8.31894 20.0612 8.31925 20.0612C8.31956 20.0612 8.31988 20.0611 8.32019 20.0611H28.9186C29.1597 20.0611 29.3553 19.8655 29.3553 19.6244V12.3146C29.3553 11.8349 29.7456 11.4447 30.2253 11.4447C30.705 11.4447 31.0952 11.8349 31.0952 12.3146V20.9311ZM20.3021 4.99948C20.3021 4.75823 20.4976 4.56273 20.7388 4.56273H22.3624L23.3391 2.32123C23.4099 2.15879 23.5715 2.05541 23.7488 2.05904C23.9259 2.06279 24.0832 2.17329 24.1469 2.33854L25.4815 5.79891L25.8701 4.83604C25.9367 4.67091 26.097 4.56273 26.2751 4.56273H28.1688C28.41 4.56273 28.6056 4.75829 28.6056 4.99948C28.6056 5.24066 28.41 5.43623 28.1688 5.43623H26.5697L25.8773 7.1521C25.8106 7.31735 25.6502 7.42541 25.4722 7.42541C25.4711 7.42541 25.4699 7.42541 25.4688 7.42535C25.2895 7.42404 25.1293 7.31316 25.0647 7.14579L23.7147 3.64548L23.0487 5.17385C22.9793 5.33316 22.8221 5.43616 22.6483 5.43616H20.7386C20.4976 5.43623 20.3021 5.24066 20.3021 4.99948Z" fill="black"/>
</g>
<defs>
<clipPath id="clip0_757_2679">
<rect width="32" height="32" fill="white"/>
</clipPath>
</defs>
</svg>
