<svg width="32" height="32" viewBox="0 0 32 32" fill="none" xmlns="http://www.w3.org/2000/svg">
<path d="M15.2984 17.1738V20.0738H10.8184V17.1738" stroke="black" stroke-width="0.9375" stroke-miterlimit="10" stroke-linecap="round" stroke-linejoin="round"/>
<path d="M19.186 8.12207V12.8846C19.186 14.5214 18.1948 15.9952 16.6785 16.6127L14.576 17.4683C13.6035 17.8646 12.5148 17.8646 11.5423 17.4683L9.43914 16.6127C7.92289 15.9952 6.93164 14.5214 6.93164 12.8846V8.12207" stroke="black" stroke-width="0.9375" stroke-miterlimit="10" stroke-linecap="round" stroke-linejoin="round"/>
<path d="M5.58458 11.9692H6.93133V8.12207H5.58458C5.07727 8.12207 4.66602 8.53332 4.66602 9.04063V11.0506C4.66595 11.5579 5.07727 11.9692 5.58458 11.9692Z" stroke="black" stroke-width="0.9375" stroke-miterlimit="10" stroke-linecap="round" stroke-linejoin="round"/>
<path d="M20.5323 11.9692H19.1855V8.12207H20.5323C21.0396 8.12207 21.4509 8.53332 21.4509 9.04063V11.0506C21.4509 11.5579 21.0396 11.9692 20.5323 11.9692Z" stroke="black" stroke-width="0.9375" stroke-miterlimit="10" stroke-linecap="round" stroke-linejoin="round"/>
<path d="M15.2984 20.0742H10.8184" stroke="black" stroke-width="0.9375" stroke-miterlimit="10" stroke-linecap="round" stroke-linejoin="round"/>
<path d="M20.4683 31.5317V20.9867L17.9039 20.5342H17.9033" stroke="black" stroke-width="0.9375" stroke-miterlimit="10" stroke-linecap="round" stroke-linejoin="round"/>
<path d="M5.64844 26.957V31.5315" stroke="black" stroke-width="0.9375" stroke-miterlimit="10" stroke-linecap="round" stroke-linejoin="round"/>
<path d="M8.21406 20.5342H8.21344L5.64844 20.9867V24.7665" stroke="black" stroke-width="0.9375" stroke-miterlimit="10" stroke-linecap="round" stroke-linejoin="round"/>
<path d="M0.567383 31.5312L1.48088 24.52C1.69263 22.895 2.90376 21.5789 4.50557 21.2331L5.64907 20.9863" stroke="black" stroke-width="0.9375" stroke-miterlimit="10" stroke-linecap="round" stroke-linejoin="round"/>
<path d="M25.5504 31.5312L24.6369 24.52C24.4252 22.895 23.2141 21.5789 21.6123 21.2331L20.4688 20.9863V31.5312" stroke="black" stroke-width="0.9375" stroke-miterlimit="10" stroke-linecap="round" stroke-linejoin="round"/>
<path d="M10.8184 20.0742L13.0582 25.8029L15.298 20.0742H10.8184Z" stroke="black" stroke-width="0.9375" stroke-miterlimit="10" stroke-linecap="round" stroke-linejoin="round"/>
<path d="M10.8191 18.7871V20.0739L13.0589 25.8026V31.5314L9.8378 27.6912V25.2845L8.64549 24.9584C8.39062 24.8886 8.21387 24.657 8.21387 24.3928V20.5338L10.8191 18.7871Z" stroke="black" stroke-width="0.9375" stroke-miterlimit="10" stroke-linecap="round" stroke-linejoin="round"/>
<path d="M15.2985 18.7871V20.0739L13.0586 25.8026V31.5314L16.2797 27.6912V25.2845L17.472 24.9584C17.7269 24.8886 17.9037 24.657 17.9037 24.3928V20.5338L15.2985 18.7871Z" stroke="black" stroke-width="0.9375" stroke-miterlimit="10" stroke-linecap="round" stroke-linejoin="round"/>
<path d="M5.58463 8.12212H6.93138L7.59395 6.77825C7.89932 6.15888 8.65088 5.90688 9.26795 6.217L12.3059 7.74381C12.7795 7.98181 13.3378 7.98181 13.8114 7.74381L16.8493 6.217C17.4664 5.90688 18.2179 6.15888 18.5233 6.77825L19.1859 8.12212H20.5326L20.8303 4.37844C20.9978 2.27119 19.3329 0.46875 17.219 0.46875H8.89826C6.78438 0.46875 5.11951 2.27119 5.28701 4.37844L5.58463 8.12212Z" stroke="black" stroke-width="0.9375" stroke-miterlimit="10" stroke-linecap="round" stroke-linejoin="round"/>
<path d="M13.0586 11.7461V12.7432" stroke="black" stroke-width="0.9375" stroke-miterlimit="10" stroke-linecap="round" stroke-linejoin="round"/>
<path d="M12.5273 14.8359C12.5273 14.8359 12.9997 15.0915 13.5901 14.8359" stroke="black" stroke-width="0.9375" stroke-miterlimit="10" stroke-linecap="round" stroke-linejoin="round"/>
<path d="M28.9625 8.02539H29.531C30.5814 8.02539 31.4328 8.87689 31.4328 9.9272V16.5521C31.4328 17.6025 30.5813 18.454 29.531 18.454H23.353C22.3026 18.454 21.4512 17.6025 21.4512 16.5521V9.92727C21.4512 8.87689 22.3027 8.02545 23.353 8.02545H26.7741" stroke="black" stroke-width="0.9375" stroke-miterlimit="10" stroke-linecap="round" stroke-linejoin="round"/>
<path d="M25.0166 16.2054V15.4157C25.0166 15.0126 25.275 14.6549 25.6576 14.5281L27.3375 13.9718C28.0432 13.7381 28.0432 12.7398 27.3375 12.5061L25.6576 11.9497C25.2749 11.823 25.0166 11.4653 25.0166 11.0621V10.2725" stroke="black" stroke-width="0.9375" stroke-miterlimit="10" stroke-linecap="round" stroke-linejoin="round"/>
<path d="M27.8668 16.2054V15.4157C27.8668 15.0126 27.6084 14.6549 27.2258 14.5281L25.5459 13.9718C24.8402 13.7381 24.8402 12.7398 25.5459 12.5061L27.2258 11.9497C27.6085 11.823 27.8668 11.4653 27.8668 11.0621V10.2725" stroke="black" stroke-width="0.9375" stroke-miterlimit="10" stroke-linecap="round" stroke-linejoin="round"/>
<path d="M26.5169 18.4531V24.1602C26.5169 24.7117 26.0698 25.1587 25.5183 25.1587H22.6104" stroke="black" stroke-width="0.9375" stroke-miterlimit="10" stroke-linecap="round" stroke-linejoin="round"/>
<path d="M13.0586 2.59961V4.8273" stroke="black" stroke-width="0.9375" stroke-miterlimit="10" stroke-linecap="round" stroke-linejoin="round"/>
<path d="M10.6055 3.0293L10.9894 4.48311" stroke="black" stroke-width="0.9375" stroke-miterlimit="10" stroke-linecap="round" stroke-linejoin="round"/>
<path d="M15.5109 3.0293L15.127 4.48311" stroke="black" stroke-width="0.9375" stroke-miterlimit="10" stroke-linecap="round" stroke-linejoin="round"/>
<path d="M15.4688 10.9417C15.4688 10.9417 15.9411 10.6861 16.5315 10.9417" stroke="black" stroke-width="0.9375" stroke-miterlimit="10" stroke-linecap="round" stroke-linejoin="round"/>
<path d="M9.43555 10.9417C9.43555 10.9417 9.90786 10.6861 10.4983 10.9417" stroke="black" stroke-width="0.9375" stroke-miterlimit="10" stroke-linecap="round" stroke-linejoin="round"/>
</svg>
