<svg width="32" height="32" viewBox="0 0 32 32" fill="none" xmlns="http://www.w3.org/2000/svg">
<path d="M4.875 8.09863H5.8125" stroke="black" stroke-width="0.9375" stroke-miterlimit="10"/>
<path d="M6.75 8.09863H7.6875" stroke="black" stroke-width="0.9375" stroke-miterlimit="10"/>
<path d="M24.3125 8.09863H25.25" stroke="black" stroke-width="0.9375" stroke-miterlimit="10"/>
<path d="M26.1875 8.09863H27.125" stroke="black" stroke-width="0.9375" stroke-miterlimit="10"/>
<path d="M32 31.5H26.7812" stroke="black" stroke-width="0.9375" stroke-miterlimit="10"/>
<path d="M25.8438 31.5H0" stroke="black" stroke-width="0.9375" stroke-miterlimit="10"/>
<path d="M2.25 31.5V29H29.75V31.5" stroke="black" stroke-width="0.9375" stroke-miterlimit="10"/>
<path d="M28.1875 14H3.8125V29H28.1875V14Z" stroke="black" stroke-width="0.9375" stroke-miterlimit="10"/>
<path d="M29.0842 12.0088V13.9996H2.91504V12.0088" stroke="black" stroke-width="0.9375" stroke-miterlimit="10"/>
<path d="M13.47 4.1875H6.15625" stroke="black" stroke-width="0.9375" stroke-miterlimit="10"/>
<path d="M5.21828 4.1875H1.98828V12.0094H9.77078" stroke="black" stroke-width="0.9375" stroke-miterlimit="10"/>
<path d="M22.7408 4.1875H30.0108V12.0094H16.832" stroke="black" stroke-width="0.9375" stroke-miterlimit="10"/>
<path d="M17.5625 16.125H5.6875V26.8125H17.5625V16.125Z" stroke="black" stroke-width="0.9375" stroke-miterlimit="10"/>
<path d="M26.3125 16.125H19.4375V26.8125H26.3125V16.125Z" stroke="black" stroke-width="0.9375" stroke-miterlimit="10"/>
<path d="M14.8012 20.2497H12.8747V18.3232H10.3747V20.2497H8.44824V22.7497H10.3747V24.6762H12.8747V22.7497H14.8012V20.2497Z" stroke="black" stroke-width="0.9375" stroke-miterlimit="10"/>
<path d="M21.5919 7.24997C23.136 5.70584 23.136 3.20222 21.5919 1.65809C20.0478 0.113969 17.5442 0.113969 16 1.65809L13.2041 4.45403L18.796 10.0459L21.5919 7.24997Z" stroke="black" stroke-width="0.9375" stroke-miterlimit="10"/>
<path d="M13.204 4.4541L10.4081 7.25004C8.86397 8.79416 8.86397 11.2978 10.4081 12.8419C11.9522 14.386 14.4558 14.386 16 12.8419L18.7959 10.046" stroke="black" stroke-width="0.9375" stroke-miterlimit="10"/>
</svg>
