<svg width="32" height="32" viewBox="0 0 32 32" fill="none" xmlns="http://www.w3.org/2000/svg">
<path d="M29.625 25.6871H28.5832V24.4069V16.7985C28.5832 15.345 27.4006 14.1624 25.9471 14.1624H20.5823C20.2214 13.3347 19.5217 12.7058 18.6384 12.4375C17.7355 12.1631 16.7676 12.3163 15.9998 12.8323C15.7446 12.6608 15.4639 12.527 15.1691 12.4375C14.3745 12.1961 13.5334 12.2786 12.8007 12.6697C12.1776 13.0025 11.6965 13.5246 11.4179 14.1625H6.05288C4.59938 14.1625 3.41681 15.345 3.41681 16.7986V24.4069V25.6871H2.375C2.02981 25.6871 1.75 25.9669 1.75 26.3121V31.3749C1.75 31.7201 2.02981 31.9999 2.375 31.9999H29.625C29.9702 31.9999 30.25 31.7201 30.25 31.3749V26.3121C30.25 25.9669 29.9702 25.6871 29.625 25.6871ZM4.66675 16.7986C4.66681 16.0342 5.28856 15.4125 6.05288 15.4125H11.8616C12.1459 15.4125 12.3944 15.2206 12.4663 14.9454C12.4727 14.9208 12.4792 14.8961 12.4864 14.8721C12.6308 14.3969 12.9516 14.0064 13.3896 13.7724C13.8277 13.5386 14.3307 13.4892 14.8059 13.6336C15.0937 13.721 15.3484 13.8716 15.563 14.0812C15.8056 14.3182 16.1929 14.3185 16.4358 14.082C16.9221 13.6084 17.6269 13.4367 18.2751 13.6336C18.8987 13.8231 19.3694 14.3134 19.5344 14.9454C19.6062 15.2206 19.8548 15.4126 20.1391 15.4126H25.9472C26.7114 15.4126 27.3333 16.0343 27.3333 16.7986V22.2096C26.9799 21.9983 26.5717 21.87 26.1354 21.8513V18.7235C26.1354 18.2066 25.7148 17.786 25.1979 17.786H17.9272C17.4102 17.786 16.9897 18.2066 16.9897 18.7235V21.8485H15.0104V18.7235C15.0104 18.2066 14.5898 17.786 14.0729 17.786H6.80212C6.28519 17.786 5.86462 18.2066 5.86462 18.7235V21.8513C5.42837 21.87 5.02019 21.9983 4.66675 22.2096V16.7986ZM14.0729 23.0984H17.9272H25.1979H26.0247C26.7462 23.0984 27.3333 23.6854 27.3333 24.4069V25.6871H4.66681V24.4069C4.66681 23.6854 5.25381 23.0984 5.97531 23.0984H6.80219H14.0729ZM7.11462 21.8484V19.0359H13.7603V21.8484H7.11462ZM18.2397 21.8484V19.0359H24.8854V21.8484H18.2397ZM29 30.7499H3V29.4915H24.9375C25.2827 29.4915 25.5625 29.2117 25.5625 28.8665C25.5625 28.5213 25.2827 28.2415 24.9375 28.2415H3V26.9371H4.04181H27.9582H29V30.7499Z" fill="black"/>
<path d="M27.6125 28.7446C27.605 28.7046 27.5925 28.6652 27.5769 28.6277C27.5613 28.5902 27.5419 28.554 27.5194 28.5196C27.4969 28.4858 27.4706 28.454 27.4419 28.4246C27.4131 28.3958 27.3812 28.3702 27.3469 28.3471C27.3131 28.3246 27.2769 28.3052 27.2388 28.2896C27.2013 28.274 27.1619 28.2621 27.1219 28.254C26.9188 28.2133 26.7031 28.2796 26.5581 28.4246C26.5294 28.454 26.5031 28.4858 26.4806 28.5196C26.4581 28.554 26.4387 28.5902 26.4231 28.6277C26.4075 28.6652 26.3956 28.7046 26.3875 28.7446C26.3794 28.7852 26.375 28.8258 26.375 28.8671C26.375 28.9077 26.3794 28.9483 26.3875 28.989C26.3956 29.029 26.4075 29.0683 26.4231 29.1058C26.4387 29.1433 26.4581 29.1796 26.4806 29.214C26.5031 29.2477 26.5294 29.2802 26.5581 29.309C26.6744 29.4252 26.8356 29.4921 27 29.4921C27.0406 29.4921 27.0819 29.4877 27.1219 29.4796C27.1619 29.4715 27.2013 29.4596 27.2388 29.444C27.2769 29.4283 27.3131 29.409 27.3469 29.3865C27.3812 29.364 27.4131 29.3377 27.4419 29.309C27.4706 29.2802 27.4969 29.2477 27.5194 29.214C27.5419 29.1796 27.5613 29.1433 27.5769 29.1058C27.5925 29.0683 27.605 29.029 27.6125 28.989C27.6206 28.9483 27.625 28.9077 27.625 28.8671C27.625 28.8258 27.6206 28.7852 27.6125 28.7446Z" fill="black"/>
<path d="M28.4846 0H21.9429H10.0573H3.51562C3.17044 0 2.89062 0.279813 2.89062 0.625V10.3734C2.89062 10.7186 3.1705 10.9984 3.51562 10.9984H4.17019H27.8666H28.4846C28.8297 10.9984 29.1096 10.7186 29.1096 10.3734V0.625C29.1096 0.279813 28.8297 0 28.4846 0ZM4.17019 9.74837H4.14062V1.25H9.43231V4.44963C9.43231 7.37138 7.07175 9.74837 4.17019 9.74837ZM7.99225 9.74837C9.62119 8.55687 10.6823 6.62569 10.6823 4.44963V1.25H15.3751V6.03237C15.3751 6.37756 15.6549 6.65737 16.0001 6.65737C16.3453 6.65737 16.6251 6.37756 16.6251 6.03237V1.25H21.3179V4.44963C21.3179 6.62569 22.385 8.55687 24.0231 9.74837H7.99225ZM27.8596 9.74837C24.941 9.74456 22.5679 7.36906 22.5679 4.44963V1.25H27.8596V9.74837Z" fill="black"/>
<path d="M16.6125 7.97213C16.605 7.93275 16.5925 7.89338 16.5769 7.85525C16.5613 7.81775 16.5419 7.7815 16.5194 7.74775C16.4969 7.71338 16.4706 7.6815 16.4419 7.65275C16.2969 7.50713 16.0813 7.44088 15.8781 7.4815C15.8381 7.48963 15.7987 7.5015 15.7612 7.51713C15.7231 7.53275 15.6869 7.55213 15.6531 7.57463C15.6187 7.59775 15.5869 7.624 15.5581 7.65275C15.5294 7.6815 15.5031 7.71338 15.4806 7.74775C15.4581 7.7815 15.4388 7.81775 15.4231 7.85525C15.4075 7.89338 15.395 7.93275 15.3875 7.97213C15.3794 8.01275 15.375 8.054 15.375 8.09463C15.375 8.259 15.4419 8.42025 15.5581 8.5365C15.5869 8.56525 15.6187 8.5915 15.6531 8.614C15.6869 8.6365 15.7231 8.65588 15.7612 8.6715C15.7987 8.68713 15.8381 8.699 15.8781 8.70713C15.9181 8.71525 15.9594 8.71963 16 8.71963C16.1644 8.71963 16.3256 8.65275 16.4419 8.5365C16.5581 8.42025 16.625 8.259 16.625 8.09463C16.625 8.054 16.6206 8.01275 16.6125 7.97213Z" fill="black"/>
</svg>
