<svg width="32" height="32" viewBox="0 0 32 32" fill="none" xmlns="http://www.w3.org/2000/svg">
<path d="M6.24508 17.803C6.19186 17.8562 6.14303 17.9119 6.09811 17.9697L5.46237 11.97C5.37106 11.1001 4.64254 10.4443 3.76754 10.4443C3.28708 10.4443 2.82614 10.6487 2.50387 11.0046C2.18112 11.3608 2.0234 11.8394 2.07077 12.3179L2.89254 20.5859C2.98776 21.5388 3.44528 22.4011 4.18014 23.0139L8.66833 26.754L8.23092 27.1914C8.13717 27.2852 8.08444 27.4124 8.08444 27.5449C8.08444 27.6775 8.13717 27.8047 8.23092 27.8984L11.186 30.8533C11.2802 30.9478 11.4077 30.9998 11.5395 30.9998C11.5605 30.9998 11.582 30.9985 11.603 30.9956C11.7568 30.9761 11.8925 30.8862 11.9707 30.7527L16 23.8845L20.0293 30.7527C20.1074 30.8862 20.2431 30.9761 20.3969 30.9956C20.4179 30.9985 20.4394 30.9998 20.4604 30.9998C20.5923 30.9998 20.7197 30.9478 20.8139 30.8533L23.769 27.8984C23.8628 27.8047 23.9155 27.6775 23.9155 27.5449C23.9155 27.4124 23.8628 27.2852 23.769 27.1914L23.3316 26.754L27.8198 23.0139C28.5547 22.4011 29.0122 21.5388 29.1074 20.5857L29.9292 12.3176C29.9765 11.8394 29.8188 11.3608 29.4961 11.0046C29.1738 10.6487 28.7129 10.4443 28.2324 10.4443C27.3574 10.4443 26.6289 11.1001 26.5376 11.9695L25.9018 17.9697C25.8569 17.9119 25.8081 17.856 25.7548 17.8027C25.0898 17.1387 23.9326 17.1394 23.2685 17.803L18.8242 22.2468L18.0976 21.5203C17.9023 21.325 17.5859 21.325 17.3906 21.5203L16 22.9106L14.6093 21.5203C14.414 21.325 14.0976 21.325 13.9023 21.5203L13.1757 22.2468L8.73141 17.803C8.06784 17.1392 6.91061 17.1382 6.24508 17.803ZM23.9756 18.51C24.2612 18.2236 24.7602 18.2236 25.0478 18.51C25.3393 18.8018 25.3432 19.2739 25.059 19.5703L22.2197 22.4099C22.0244 22.6052 22.0244 22.9216 22.2197 23.1169C22.415 23.3123 22.7314 23.3123 22.9267 23.1169L25.7548 20.2891C25.7607 20.2832 25.7666 20.2773 25.7724 20.2715L25.9907 20.053C26.4926 19.5508 26.8105 18.8857 26.8852 18.1799L27.5317 12.0745C27.5698 11.7153 27.8711 11.4443 28.2324 11.4443C28.434 11.4443 28.6196 11.5266 28.7548 11.676C28.8906 11.8254 28.9541 12.0183 28.934 12.2188L28.1123 20.4863C28.0434 21.177 27.7119 21.8018 27.1792 22.2458L22.6214 26.0439L19.5313 22.9539L23.9756 18.51ZM17.7441 22.5808L18.4706 23.3073L22.7085 27.5449L20.5644 29.6887L16.8935 23.4314L17.7441 22.5808ZM14.2558 22.5808L15.1064 23.4314L11.4355 29.6887L9.29147 27.5449L13.5292 23.3074L14.2558 22.5808ZM12.4687 22.9539L9.37851 26.0439L4.82077 22.2458C4.28805 21.8018 3.95651 21.177 3.88766 20.4866L3.06588 12.219C3.04586 12.0183 3.10934 11.8254 3.24508 11.676C3.38034 11.5266 3.56588 11.4443 3.76754 11.4443C4.12887 11.4443 4.43014 11.7153 4.46823 12.075L5.11471 18.1799C5.18942 18.8857 5.50729 19.5508 6.00924 20.053L6.22751 20.2715L6.24508 20.2891L9.07321 23.1169C9.26852 23.3123 9.58493 23.3123 9.78024 23.1169C9.97555 22.9216 9.97555 22.6052 9.78024 22.4099L6.94088 19.5703C6.6567 19.2739 6.66061 18.8018 6.95211 18.5103C7.23971 18.2234 7.73874 18.2236 8.02438 18.51L12.4687 22.9539Z" fill="black"/>
<path d="M16.0005 17.5752C20.5703 17.5752 24.2881 13.8574 24.2881 9.2876C24.2881 4.71777 20.5703 1 16.0005 1C11.4307 1 7.71289 4.71777 7.71289 9.2876C7.71289 13.8574 11.4307 17.5752 16.0005 17.5752ZM16.0005 2C20.019 2 23.2881 5.26929 23.2881 9.2876C23.2881 13.3059 20.019 16.5752 16.0005 16.5752C11.9819 16.5752 8.71289 13.3059 8.71289 9.2876C8.71289 5.26929 11.9819 2 16.0005 2Z" fill="black"/>
<path d="M11.4414 11.3875H14.2148V14.1609C14.2148 14.437 14.4385 14.6609 14.7148 14.6609H17.2861C17.5625 14.6609 17.7861 14.437 17.7861 14.1609V11.3875H20.5596C20.8359 11.3875 21.0596 11.1636 21.0596 10.8875V8.31641C21.0596 8.04028 20.8359 7.81641 20.5596 7.81641H17.7861V5.04297C17.7861 4.76685 17.5625 4.54297 17.2861 4.54297H14.7148C14.4385 4.54297 14.2148 4.76685 14.2148 5.04297V7.81641H11.4414C11.165 7.81641 10.9414 8.04028 10.9414 8.31641V10.8875C10.9414 11.1636 11.165 11.3875 11.4414 11.3875ZM11.9414 8.81641H14.7148C14.9912 8.81641 15.2148 8.59253 15.2148 8.31641V5.54297H16.7861V8.31641C16.7861 8.59253 17.0098 8.81641 17.2861 8.81641H20.0596V10.3875H17.2861C17.0098 10.3875 16.7861 10.6113 16.7861 10.8875V13.6609H15.2148V10.8875C15.2148 10.6113 14.9912 10.3875 14.7148 10.3875H11.9414V8.81641Z" fill="black"/>
<path d="M19.4033 6.95166C19.8125 6.95166 20.145 6.6189 20.145 6.20972C20.145 5.80054 19.8125 5.46777 19.4033 5.46777C18.9941 5.46777 18.6611 5.80054 18.6611 6.20972C18.6611 6.6189 18.9941 6.95166 19.4033 6.95166ZM19.4033 5.95166C19.5454 5.95166 19.6611 6.06738 19.6611 6.20972C19.6611 6.35205 19.5454 6.46777 19.4033 6.46777C19.2607 6.46777 19.145 6.35205 19.145 6.20972C19.145 6.06738 19.2607 5.95166 19.4033 5.95166Z" fill="black"/>
<path d="M12.9331 6.95166C13.3423 6.95166 13.6753 6.6189 13.6753 6.20972C13.6753 5.80054 13.3423 5.46777 12.9331 5.46777C12.5239 5.46777 12.1914 5.80054 12.1914 6.20972C12.1914 6.6189 12.5239 6.95166 12.9331 6.95166ZM12.9331 5.95166C13.0757 5.95166 13.1914 6.06738 13.1914 6.20972C13.1914 6.35205 13.0757 6.46777 12.9331 6.46777C12.791 6.46777 12.6753 6.35205 12.6753 6.20972C12.6753 6.06738 12.791 5.95166 12.9331 5.95166Z" fill="black"/>
<path d="M19.4033 11.7578C18.9941 11.7578 18.6611 12.0906 18.6611 12.4998C18.6611 12.9089 18.9941 13.2417 19.4033 13.2417C19.8125 13.2417 20.145 12.9089 20.145 12.4998C20.145 12.0906 19.8125 11.7578 19.4033 11.7578ZM19.4033 12.7578C19.2607 12.7578 19.145 12.6421 19.145 12.4998C19.145 12.3574 19.2607 12.2417 19.4033 12.2417C19.5454 12.2417 19.6611 12.3574 19.6611 12.4998C19.6611 12.6421 19.5454 12.7578 19.4033 12.7578Z" fill="black"/>
<path d="M12.9331 11.7578C12.5239 11.7578 12.1914 12.0906 12.1914 12.4998C12.1914 12.9089 12.5239 13.2417 12.9331 13.2417C13.3423 13.2417 13.6753 12.9089 13.6753 12.4998C13.6753 12.0906 13.3423 11.7578 12.9331 11.7578ZM12.9331 12.7578C12.791 12.7578 12.6753 12.6421 12.6753 12.4998C12.6753 12.3574 12.791 12.2417 12.9331 12.2417C13.0757 12.2417 13.1914 12.3574 13.1914 12.4998C13.1914 12.6421 13.0757 12.7578 12.9331 12.7578Z" fill="black"/>
</svg>
