<svg xmlns="http://www.w3.org/2000/svg" fill="none" viewBox="0 177.66719999999998 750.2490118577075 498.296" style="max-height: 500px" width="750.2490118577075" height="498.296">
<rect fill="#D9D9D9" height="630" width="763" y="165"/>
<rect fill="#FBE1DF" rx="8" height="630" width="763" y="165.115"/>
<path fill-opacity="0.1" fill="#D82519" d="M577.074 42.5487C553.863 36.3292 645.333 7.69507 622.305 16.4389C599.277 25.1828 578.935 40.9304 563.852 61.6905C548.769 82.4505 539.622 107.291 537.568 133.069C535.514 158.848 540.645 184.408 552.313 206.517C563.98 228.625 581.66 246.29 603.116 257.276C624.573 268.262 648.842 272.077 672.855 268.238C696.868 264.4 719.546 253.079 738.022 235.709C756.498 218.339 769.941 195.699 776.653 170.652L730.921 158.398C726.825 173.685 718.62 187.503 707.344 198.105C696.067 208.706 682.226 215.615 667.57 217.958C652.914 220.301 638.102 217.973 625.007 211.268C611.911 204.562 601.121 193.781 594 180.288C586.879 166.794 583.747 151.194 585 135.461C586.254 119.727 591.837 104.566 601.042 91.8958C610.248 79.2254 622.663 69.6141 636.718 64.2774C650.773 58.9408 549.685 88.0999 563.852 91.8959L577.074 42.5487Z"/>
</svg>