<svg width="32" height="29" viewBox="0 0 32 29" fill="none" xmlns="http://www.w3.org/2000/svg">
<path fill-rule="evenodd" clip-rule="evenodd" d="M13.4648 1.03328C8.8333 2.05455 5.11814 5.55629 3.90276 10.0462L3.60202 11.1578L2.64523 11.227C1.55008 11.3063 0.77884 11.7601 0.322778 12.5938C-0.107593 13.3805 -0.107593 18.5813 0.322778 19.3679C0.880765 20.388 1.51683 20.6757 3.35653 20.7405C6.38189 20.8471 6.32832 20.9401 6.32832 15.5752C6.32832 11.9329 6.35166 11.6429 6.74442 10.4064C8.89795 3.62491 17.4387 1.3802 22.5911 6.24139C23.8556 7.4346 24.8091 8.92319 25.3338 10.5236C25.6591 11.5157 25.6985 12.0837 25.7667 16.7592C25.8552 22.8193 25.7766 23.3242 24.5543 24.5463C23.6684 25.4324 22.5736 25.804 20.8496 25.804C19.7239 25.804 19.6352 25.7768 19.4524 25.3755C19.1054 24.6142 18.2956 24.4231 15.6863 24.4872L13.3529 24.5446L12.8631 25.0931C12.4386 25.5683 12.3733 25.7743 12.3733 26.6384C12.3733 28.7407 12.781 28.9944 16.1598 28.9944H18.6198L19.2075 28.4067C19.7689 27.8454 19.8491 27.8189 20.9958 27.8163C24.9281 27.8078 27.5869 25.558 27.7894 22.0679L27.8648 20.7665H28.8817C30.0597 20.7665 31.0816 20.3395 31.5998 19.6306C31.9012 19.2183 31.9405 18.8615 31.9838 16.1488C32.027 13.4417 31.9988 13.065 31.713 12.5386C31.2954 11.7692 30.4704 11.2992 29.3552 11.1953L28.4542 11.1113L28.0888 9.85193C26.8021 5.41776 22.9455 1.88126 18.4615 1.02321C16.9356 0.731368 14.815 0.735566 13.4648 1.03328ZM19.4238 10.8505C19.2841 10.9325 18.2291 12.03 17.0792 13.2895L14.9886 15.5797L13.835 14.4053C12.5553 13.1028 12.015 12.8717 11.2152 13.2853C10.5874 13.6099 10.3583 14.0136 10.3583 14.7954C10.3583 15.3245 10.5696 15.6239 12.148 17.3336C14.0389 19.3815 14.3017 19.5946 14.923 19.5852C15.5904 19.575 15.9516 19.2566 18.9038 16.0779C21.6734 13.0957 21.7767 12.9592 21.7767 12.2807C21.7767 11.3435 21.1604 10.6893 20.2845 10.6966C19.9507 10.6994 19.5633 10.7688 19.4238 10.8505Z" fill="#D82519"/>
</svg>
