<svg width="24" height="25" viewBox="0 0 24 25" fill="none" xmlns="http://www.w3.org/2000/svg">
<path d="M17.45 23.2847C16.32 23.2847 15.13 23.0147 13.9 22.4947C12.7 21.9847 11.49 21.2847 10.31 20.4347C9.14 19.5747 8.01 18.6147 6.94 17.5647C5.88 16.4947 4.92 15.3647 4.07 14.2047C3.21 13.0047 2.52 11.8047 2.03 10.6447C1.51 9.40467 1.25 8.20467 1.25 7.07467C1.25 6.29467 1.39 5.55467 1.66 4.86467C1.94 4.15467 2.39 3.49467 3 2.92467C3.77 2.16467 4.65 1.78467 5.59 1.78467C5.98 1.78467 6.38 1.87467 6.72 2.03467C7.11 2.21467 7.44 2.48467 7.68 2.84467L10 6.11467C10.21 6.40467 10.37 6.68467 10.48 6.96467C10.61 7.26467 10.68 7.56467 10.68 7.85467C10.68 8.23467 10.57 8.60467 10.36 8.95467C10.21 9.22467 9.98 9.51467 9.69 9.80467L9.01 10.5147C9.02 10.5447 9.03 10.5647 9.04 10.5847C9.16 10.7947 9.4 11.1547 9.86 11.6947C10.35 12.2547 10.81 12.7647 11.27 13.2347C11.86 13.8147 12.35 14.2747 12.81 14.6547C13.38 15.1347 13.75 15.3747 13.97 15.4847L13.95 15.5347L14.68 14.8147C14.99 14.5047 15.29 14.2747 15.58 14.1247C16.13 13.7847 16.83 13.7247 17.53 14.0147C17.79 14.1247 18.07 14.2747 18.37 14.4847L21.69 16.8447C22.06 17.0947 22.33 17.4147 22.49 17.7947C22.64 18.1747 22.71 18.5247 22.71 18.8747C22.71 19.3547 22.6 19.8347 22.39 20.2847C22.18 20.7347 21.92 21.1247 21.59 21.4847C21.02 22.1147 20.4 22.5647 19.68 22.8547C18.99 23.1347 18.24 23.2847 17.45 23.2847ZM5.59 3.28467C5.04 3.28467 4.53 3.52467 4.04 4.00467C3.58 4.43467 3.26 4.90467 3.06 5.41467C2.85 5.93467 2.75 6.48467 2.75 7.07467C2.75 8.00467 2.97 9.01467 3.41 10.0547C3.86 11.1147 4.49 12.2147 5.29 13.3147C6.09 14.4147 7 15.4847 8 16.4947C9 17.4847 10.08 18.4047 11.19 19.2147C12.27 20.0047 13.38 20.6447 14.48 21.1047C16.19 21.8347 17.79 22.0047 19.11 21.4547C19.62 21.2447 20.07 20.9247 20.48 20.4647C20.71 20.2147 20.89 19.9447 21.04 19.6247C21.16 19.3747 21.22 19.1147 21.22 18.8547C21.22 18.6947 21.19 18.5347 21.11 18.3547C21.08 18.2947 21.02 18.1847 20.83 18.0547L17.51 15.6947C17.31 15.5547 17.13 15.4547 16.96 15.3847C16.74 15.2947 16.65 15.2047 16.31 15.4147C16.11 15.5147 15.93 15.6647 15.73 15.8647L14.97 16.6147C14.58 16.9947 13.98 17.0847 13.52 16.9147L13.25 16.7947C12.84 16.5747 12.36 16.2347 11.83 15.7847C11.35 15.3747 10.83 14.8947 10.2 14.2747C9.71 13.7747 9.22 13.2447 8.71 12.6547C8.24 12.1047 7.9 11.6347 7.69 11.2447L7.57 10.9447C7.51 10.7147 7.49 10.5847 7.49 10.4447C7.49 10.0847 7.62 9.76467 7.87 9.51467L8.62 8.73467C8.82 8.53467 8.97 8.34467 9.07 8.17467C9.15 8.04467 9.18 7.93467 9.18 7.83467C9.18 7.75467 9.15 7.63467 9.1 7.51467C9.03 7.35467 8.92 7.17467 8.78 6.98467L6.46 3.70467C6.36 3.56467 6.24 3.46467 6.09 3.39467C5.93 3.32467 5.76 3.28467 5.59 3.28467ZM13.95 15.5447L13.79 16.2247L14.06 15.5247C14.01 15.5147 13.97 15.5247 13.95 15.5447Z" fill="#767676"/>
</svg>
