<svg width="32" height="33" viewBox="0 0 32 33" fill="none" xmlns="http://www.w3.org/2000/svg">
<path d="M11.3606 25.7854H10.6977C5.39468 25.7854 2.74316 24.4597 2.74316 17.8309V11.2021C2.74316 5.89907 5.39468 3.24756 10.6977 3.24756H21.3038C26.6068 3.24756 29.2583 5.89907 29.2583 11.2021V17.8309C29.2583 23.1339 26.6068 25.7854 21.3038 25.7854H20.6409C20.2299 25.7854 19.8322 25.9843 19.5803 26.3158L17.5917 28.9673C16.7167 30.134 15.2848 30.134 14.4098 28.9673L12.4212 26.3158C12.2091 26.0241 11.7318 25.7854 11.3606 25.7854Z" stroke="#12141D" stroke-width="1.70455" stroke-miterlimit="10" stroke-linecap="round" stroke-linejoin="round"/>
<path d="M10.6974 12.1699L8.0459 14.8214L10.6974 17.473" stroke="#12141D" stroke-width="1.70455" stroke-miterlimit="10" stroke-linecap="round" stroke-linejoin="round"/>
<path d="M21.3027 12.1699L23.9542 14.8214L21.3027 17.473" stroke="#12141D" stroke-width="1.70455" stroke-miterlimit="10" stroke-linecap="round" stroke-linejoin="round"/>
<path d="M17.3263 11.7324L14.6748 17.9105" stroke="#12141D" stroke-width="1.70455" stroke-miterlimit="10" stroke-linecap="round" stroke-linejoin="round"/>
</svg>
