<svg width="33" height="33" viewBox="0 0 33 33" fill="none" xmlns="http://www.w3.org/2000/svg">
<path d="M27.0617 19.1976C28.5261 19.1976 29.7132 18.0104 29.7132 16.546C29.7132 15.0817 28.5261 13.8945 27.0617 13.8945C25.5973 13.8945 24.4102 15.0817 24.4102 16.546C24.4102 18.0104 25.5973 19.1976 27.0617 19.1976Z" stroke="#12141D" stroke-width="1.70455" stroke-linecap="round" stroke-linejoin="round"/>
<path d="M27.0617 8.59063C28.5261 8.59063 29.7132 7.4035 29.7132 5.93911C29.7132 4.47472 28.5261 3.2876 27.0617 3.2876C25.5973 3.2876 24.4102 4.47472 24.4102 5.93911C24.4102 7.4035 25.5973 8.59063 27.0617 8.59063Z" stroke="#12141D" stroke-width="1.70455" stroke-linecap="round" stroke-linejoin="round"/>
<path d="M27.0617 29.803C28.5261 29.803 29.7132 28.6159 29.7132 27.1515C29.7132 25.6871 28.5261 24.5 27.0617 24.5C25.5973 24.5 24.4102 25.6871 24.4102 27.1515C24.4102 28.6159 25.5973 29.803 27.0617 29.803Z" stroke="#12141D" stroke-width="1.70455" stroke-linecap="round" stroke-linejoin="round"/>
<path d="M5.84976 19.1976C7.31415 19.1976 8.50127 18.0104 8.50127 16.546C8.50127 15.0817 7.31415 13.8945 5.84976 13.8945C4.38537 13.8945 3.19824 15.0817 3.19824 16.546C3.19824 18.0104 4.38537 19.1976 5.84976 19.1976Z" stroke="#12141D" stroke-width="1.70455" stroke-linecap="round" stroke-linejoin="round"/>
<path d="M8.50098 16.5454H24.4101" stroke="#12141D" stroke-width="1.70455" stroke-linecap="round" stroke-linejoin="round"/>
<path d="M24.4102 5.93994H19.1072C16.4556 5.93994 15.1299 7.2657 15.1299 9.91721V23.1748C15.1299 25.8263 16.4556 27.1521 19.1072 27.1521H24.4102" stroke="#12141D" stroke-width="1.70455" stroke-linecap="round" stroke-linejoin="round"/>
</svg>
