<svg width="80" height="80" viewBox="0 0 80 80" fill="none" xmlns="http://www.w3.org/2000/svg">
<rect width="80" height="80" rx="40" fill="#D82519" fill-opacity="0.1"/>
<g clip-path="url(#clip0_0_326)">
<path d="M40.0568 31.9172C40.0606 31.9173 40.0644 31.9173 40.0681 31.9173C40.4027 31.9173 40.6771 31.649 40.683 31.3131L40.7946 25.0841C40.8007 24.7443 40.5301 24.4639 40.1905 24.4578C40.1867 24.4578 40.183 24.4578 40.1792 24.4578C39.8446 24.4578 39.5703 24.7261 39.5643 25.0619L39.4527 31.291C39.4467 31.6307 39.7172 31.911 40.0568 31.9172Z" fill="#D82519"/>
<path d="M33.5592 32.3492C33.6446 32.6078 33.8851 32.7716 34.1433 32.7716C34.2072 32.7716 34.2723 32.7616 34.3364 32.7404C34.659 32.6338 34.8342 32.2859 34.7277 31.9632L33.0061 26.7507C32.8994 26.428 32.5518 26.2527 32.2289 26.3594C31.9062 26.466 31.7311 26.8139 31.8376 27.1366L33.5592 32.3492Z" fill="#D82519"/>
<path d="M28.1173 35.0379C28.2341 35.2242 28.4343 35.3262 28.6389 35.3262C28.7507 35.3262 28.8638 35.2958 28.9653 35.232C29.2532 35.0514 29.34 34.6717 29.1594 34.3839L26.0778 29.4736C25.8972 29.1856 25.5173 29.099 25.2297 29.2795C24.9419 29.4602 24.855 29.8399 25.0356 30.1276L28.1173 35.0379Z" fill="#D82519"/>
<path d="M23.4766 40.1358C23.6228 40.1358 23.7696 40.0839 23.8872 39.9785C24.1401 39.7516 24.1612 39.3627 23.9343 39.1097L20.0732 34.8046C19.8463 34.5517 19.4576 34.5304 19.2044 34.7574C18.9515 34.9843 18.9304 35.3732 19.1573 35.6262L23.0184 39.9314C23.1399 40.0668 23.3078 40.1358 23.4766 40.1358Z" fill="#D82519"/>
<path d="M45.6548 32.6967C45.727 32.7243 45.8011 32.7373 45.8741 32.7373C46.1218 32.7373 46.3553 32.5866 46.449 32.3414L48.4132 27.1967C48.5345 26.8793 48.3753 26.5237 48.0579 26.4025C47.7407 26.2812 47.3849 26.4403 47.2636 26.7578L45.2994 31.9025C45.1782 32.2199 45.3373 32.5755 45.6548 32.6967Z" fill="#D82519"/>
<path d="M50.9245 35.073C51.0313 35.1467 51.1531 35.1821 51.2737 35.1821C51.469 35.1821 51.6611 35.0893 51.7805 34.9166L55.0769 30.1456C55.2701 29.8661 55.2 29.4829 54.9205 29.2896C54.6407 29.0965 54.2577 29.1666 54.0645 29.4461L50.7681 34.217C50.5749 34.4966 50.645 34.8798 50.9245 35.073Z" fill="#D82519"/>
<path d="M60.3845 34.4537C60.2068 34.4537 60.0466 34.5293 59.9343 34.65L55.9462 38.7427C55.7089 38.986 55.714 39.3755 55.9574 39.6126C56.077 39.7292 56.2319 39.7872 56.3867 39.7872C56.5468 39.7872 56.7067 39.7251 56.8273 39.6014L60.8251 35.4988C60.9371 35.384 60.9998 35.2288 60.9998 35.0685C60.9998 34.7286 60.7243 34.4537 60.3845 34.4537Z" fill="#D82519"/>
<path d="M53.6888 39.8896C53.4264 39.6741 53.0386 39.7118 52.8229 39.9745C52.6072 40.237 52.6451 40.6246 52.9077 40.8404C54.4436 42.1023 55.7832 43.5782 56.8892 45.2272C56.9103 45.2586 56.9103 45.3007 56.8893 45.3319C54.5919 48.7569 51.3608 51.3411 47.6576 52.8381C49.5787 50.8794 50.7145 48.2122 50.7145 45.3758C50.7145 42.3592 49.4447 39.5645 47.3358 37.593C48.4898 38.0366 49.6047 38.5864 50.6653 39.2396C50.9545 39.418 51.3335 39.3278 51.5117 39.0384C51.69 38.7491 51.5998 38.3702 51.3105 38.192C47.937 36.1144 44.0493 35.0162 40.0678 35.0162C32.8955 35.0162 26.2253 38.5772 22.2245 44.5418C21.9239 44.99 21.9239 45.5691 22.2245 46.0173C23.0168 47.1985 23.9313 48.3065 24.9428 49.3105C25.0628 49.4295 25.2195 49.4891 25.3761 49.4891C25.5344 49.4891 25.6925 49.4285 25.8128 49.3072C26.0522 49.0661 26.0507 48.6765 25.8095 48.4371C24.8558 47.4905 23.9934 46.4457 23.2464 45.3318C23.2254 45.3006 23.2254 45.2587 23.2464 45.2273C25.6107 41.7024 28.9639 39.0681 32.8024 37.5928C30.6927 39.565 29.4211 42.3603 29.4211 45.3759C29.4211 48.2162 30.5619 50.8901 32.4906 52.851C30.8575 52.1906 29.3065 51.3116 27.8686 50.2238C27.5977 50.0189 27.2118 50.0723 27.0068 50.3434C26.8018 50.6143 26.8553 51.0002 27.1263 51.2052C30.8772 54.0426 35.3521 55.5423 40.0677 55.5423C47.2402 55.5423 53.9106 51.9816 57.9111 46.0174C58.2116 45.5692 58.2116 44.9903 57.9111 44.542C56.7382 42.793 55.3176 41.2279 53.6888 39.8896ZM36.1299 53.9311C32.8008 52.3955 30.6517 49.0423 30.6517 45.3758C30.6517 41.3719 33.1845 37.8055 36.9583 36.4858C37.9783 36.3278 39.0174 36.2467 40.0679 36.2467C41.1136 36.2467 42.1524 36.3273 43.1757 36.4855C46.9515 37.8055 49.4841 41.369 49.4841 45.3758C49.4841 49.0398 47.3419 52.385 44.0205 53.9233C42.7322 54.1791 41.4094 54.3117 40.0679 54.3117C38.7304 54.3117 37.4138 54.1828 36.1299 53.9311Z" fill="#D82519"/>
<path d="M44.356 47.9744C44.8637 47.1682 45.132 46.2363 45.132 45.2794C45.132 42.487 42.8603 40.2153 40.0679 40.2153C37.2756 40.2153 35.0039 42.487 35.0039 45.2794C35.0039 48.0717 37.2756 50.3434 40.0679 50.3434C40.6689 50.3434 41.2573 50.2391 41.8168 50.0332C42.1356 49.9159 42.299 49.5623 42.1817 49.2434C42.0644 48.9246 41.7112 48.7613 41.3918 48.8784C40.9689 49.0341 40.5234 49.1129 40.0679 49.1129C37.954 49.1129 36.2343 47.3931 36.2343 45.2794C36.2343 43.1656 37.9541 41.4458 40.0679 41.4458C42.1817 41.4458 43.9014 43.1656 43.9014 45.2794C43.9014 46.004 43.6985 46.7093 43.3147 47.3188C43.1336 47.6063 43.2199 47.9862 43.5075 48.1673C43.795 48.3482 44.1749 48.2621 44.356 47.9744Z" fill="#D82519"/>
</g>
<defs>
<clipPath id="clip0_0_326">
<rect width="42" height="42" fill="white" transform="translate(19 19)"/>
</clipPath>
</defs>
</svg>
