<svg width="28" height="24" viewBox="0 0 28 24" fill="none" xmlns="http://www.w3.org/2000/svg">
<path d="M25.2 0.898438H2.8C1.26 0.898438 0.014 2.15844 0.014 3.69844L0 20.4984C0 22.0384 1.26 23.2984 2.8 23.2984H25.2C26.74 23.2984 28 22.0384 28 20.4984V3.69844C28 2.15844 26.74 0.898438 25.2 0.898438ZM24.64 6.84843L14.742 13.0364C14.294 13.3164 13.706 13.3164 13.258 13.0364L3.36 6.84843C3.21962 6.76963 3.09669 6.66316 2.99864 6.53547C2.9006 6.40778 2.82949 6.26152 2.78961 6.10555C2.74972 5.94958 2.7419 5.78714 2.76662 5.62807C2.79133 5.46899 2.84807 5.31657 2.93339 5.18006C3.01872 5.04354 3.13085 4.92575 3.26302 4.83383C3.39518 4.7419 3.54462 4.67775 3.70229 4.64525C3.85997 4.61276 4.0226 4.61259 4.18034 4.64476C4.33808 4.67694 4.48765 4.74078 4.62 4.83244L14 10.6984L23.38 4.83244C23.5124 4.74078 23.6619 4.67694 23.8197 4.64476C23.9774 4.61259 24.14 4.61276 24.2977 4.64525C24.4554 4.67775 24.6048 4.7419 24.737 4.83383C24.8691 4.92575 24.9813 5.04354 25.0666 5.18006C25.1519 5.31657 25.2087 5.46899 25.2334 5.62807C25.2581 5.78714 25.2503 5.94958 25.2104 6.10555C25.1705 6.26152 25.0994 6.40778 25.0014 6.53547C24.9033 6.66316 24.7804 6.76963 24.64 6.84843Z" fill="#D82519"/>
</svg>
