<svg width="23" height="27" viewBox="0 0 23 27" fill="none" xmlns="http://www.w3.org/2000/svg">
<path d="M11.5445 26.6047C11.3015 26.6047 11.0752 26.5879 10.8657 26.5543C10.6554 26.5216 10.4618 26.4722 10.2851 26.4059C7.54517 25.3895 5.30243 23.5776 3.55685 20.9703C1.81127 18.3629 0.938477 15.4905 0.938477 12.3528V6.08863C0.938477 5.53623 1.09889 5.03907 1.41973 4.59715C1.73968 4.15523 2.15375 3.83484 2.66196 3.63598L10.6165 0.653024C10.9259 0.542545 11.2352 0.487305 11.5445 0.487305C11.8539 0.487305 12.1632 0.542545 12.4726 0.653024L20.4271 3.63598C20.9353 3.83484 21.3498 4.15523 21.6707 4.59715C21.9906 5.03907 22.1506 5.53623 22.1506 6.08863V12.3528C22.1506 15.4905 21.2778 18.3629 19.5322 20.9703C17.7866 23.5776 15.5439 25.3895 12.804 26.4059C12.6272 26.4722 12.4337 26.5216 12.2233 26.5543C12.0139 26.5879 11.7876 26.6047 11.5445 26.6047ZM11.5445 24.0195C13.6878 23.3566 15.4776 22.0477 16.9139 20.0926C18.3501 18.1367 19.1897 15.9545 19.4328 13.546H11.5445V3.10568L3.58999 6.08863V12.9494C3.58999 13.1041 3.61209 13.303 3.65628 13.546H11.5445V24.0195Z" fill="#12141D"/>
</svg>
