<svg width="24" height="25" viewBox="0 0 24 25" fill="none" xmlns="http://www.w3.org/2000/svg">
<path d="M23.9993 12.5255C23.9993 5.89829 18.6269 0.525871 11.9996 0.525871C5.37242 0.525871 0 5.89829 0 12.5255C0 18.5149 4.3881 23.4792 10.1247 24.3794V15.9942H7.07792V12.5255H10.1247V9.88185C10.1247 6.87444 11.9162 5.21323 14.6571 5.21323C15.97 5.21323 17.3432 5.4476 17.3432 5.4476V8.40064H15.8301C14.3395 8.40064 13.8746 9.32562 13.8746 10.2746V12.5255H17.2026L16.6706 15.9942H13.8746V24.3794C19.6112 23.4792 23.9993 18.5149 23.9993 12.5255Z" fill="#333333"/>
<path d="M16.6708 15.9949L17.2028 12.5262H13.8748V10.2753C13.8748 9.32633 14.3397 8.40135 15.8303 8.40135H17.3435V5.44831C17.3435 5.44831 15.9702 5.21395 14.6574 5.21395C11.9164 5.21395 10.1249 6.87515 10.1249 9.88256V12.5262H7.07812V15.9949H10.1249V24.3801C10.7358 24.476 11.362 24.5259 11.9999 24.5259C12.6377 24.5259 13.2639 24.476 13.8748 24.3801V15.9949H16.6708Z" fill="#F6F6F6"/>
</svg>
