<svg width="48" height="48" viewBox="0 0 48 48" fill="none" xmlns="http://www.w3.org/2000/svg">
<rect width="47.9993" height="48" rx="23.9996" fill="#F6F6F6"/>
<path d="M35.9993 23.9996C35.9993 17.3724 30.6269 12 23.9996 12C17.3724 12 12 17.3724 12 23.9996C12 29.989 16.3881 34.9533 22.1247 35.8535V27.4683H19.0779V23.9996H22.1247V21.356C22.1247 18.3486 23.9162 16.6874 26.6571 16.6874C27.97 16.6874 29.3432 16.9217 29.3432 16.9217V19.8748H27.8301C26.3395 19.8748 25.8746 20.7997 25.8746 21.7487V23.9996H29.2026L28.6706 27.4683H25.8746V35.8535C31.6112 34.9533 35.9993 29.989 35.9993 23.9996Z" fill="#333333"/>
<path d="M28.6706 27.469L29.2026 24.0004H25.8746V21.7494C25.8746 20.8005 26.3394 19.8755 27.8301 19.8755H29.3432V16.9224C29.3432 16.9224 27.97 16.6881 26.6571 16.6881C23.9161 16.6881 22.1247 18.3493 22.1247 21.3567V24.0004H19.0779V27.469H22.1247V35.8542C22.7356 35.9501 23.3618 36 23.9996 36C24.6375 36 25.2636 35.9501 25.8746 35.8542V27.469H28.6706Z" fill="#F6F6F6"/>
</svg>
