<svg width="64" height="64" viewBox="0 0 64 64" fill="none" xmlns="http://www.w3.org/2000/svg">
<path d="M60.9878 2.82339L54.3996 3.48221C53.6467 3.57633 53.082 4.04692 52.8937 4.61162C51.5761 4.89398 50.4467 5.64692 49.5055 6.5881L11.7643 48.941L2.44666 41.7881C2.07019 41.5057 1.41137 41.5057 1.12902 41.9763C0.846663 42.3528 0.940781 42.9175 1.31725 43.294C2.44666 44.2352 -2.82392 39.9999 12.5173 52.141C11.8584 53.0822 11.482 54.2116 11.482 55.4352C11.482 58.6352 14.0231 61.1763 17.2231 61.1763C20.4231 61.1763 22.9643 58.6352 22.9643 55.4352C22.9643 54.1175 22.4937 52.894 21.7408 51.9528L52.5173 23.5293C55.0584 21.1763 55.0584 17.3175 52.7055 14.8704L48.4702 10.6352L50.9173 7.90574C51.482 7.24692 52.329 6.77633 53.1761 6.49398C53.5525 6.96457 54.0231 7.1528 54.5878 7.1528C54.7761 7.1528 54.0231 7.24692 61.3643 6.49398C62.3996 6.39986 63.1525 5.45868 63.0584 4.42339C62.9643 3.48221 62.0231 2.72927 60.9878 2.82339ZM39.9996 32.6587L33.7878 27.1057L39.7173 20.4234L46.4937 26.541L39.9996 32.6587ZM31.4349 40.5646L25.882 35.9528L32.5643 28.5175L38.5878 33.8822L31.4349 40.5646ZM24.4702 46.9646L19.6702 42.8234L24.5643 37.3646L30.0231 41.8822L24.4702 46.9646ZM17.2231 49.694C15.9055 49.694 14.7761 50.1646 13.8349 50.8234L13.1761 50.1646L18.4467 44.2352L23.1525 48.2822L20.5173 50.7293C19.5761 50.0704 18.4467 49.694 17.2231 49.694ZM17.2231 59.294C15.0584 59.294 13.3643 57.5057 13.3643 55.4352C13.3643 53.2705 15.1525 51.5763 17.2231 51.5763C19.3878 51.5763 21.082 53.3646 21.082 55.4352C21.1761 57.5999 19.3878 59.294 17.2231 59.294ZM51.3878 16.094C53.082 17.7881 52.9878 20.5175 51.2937 22.1175L47.9055 25.3175L40.9408 19.1057L47.2467 12.0469L51.3878 16.094Z" fill="#D82519"/>
</svg>
