<svg width="48" height="48" viewBox="0 0 48 48" fill="none" xmlns="http://www.w3.org/2000/svg">
<rect width="48" height="48" rx="24" fill="#F6F6F6"/>
<path d="M19.0302 12.0839C17.7534 12.1442 16.8814 12.3479 16.1192 12.6474C15.3303 12.9549 14.6616 13.3674 13.9964 14.0351C13.3311 14.7028 12.9214 15.3719 12.6161 16.162C12.3207 16.9259 12.1205 17.7986 12.0641 19.0761C12.0077 20.3536 11.9952 20.7643 12.0015 24.023C12.0077 27.2817 12.0221 27.6902 12.084 28.9704C12.145 30.2469 12.348 31.1186 12.6475 31.8811C12.9555 32.67 13.3676 33.3384 14.0355 34.0039C14.7034 34.6694 15.3721 35.0782 16.1641 35.3839C16.9273 35.6789 17.8002 35.88 19.0775 35.9359C20.3547 35.9918 20.7659 36.0048 24.0237 35.9986C27.2815 35.9923 27.6916 35.9779 28.9716 35.9172C30.2515 35.8565 31.1186 35.652 31.8813 35.3539C32.6702 35.0453 33.3391 34.6339 34.0042 33.9658C34.6692 33.2976 35.0787 32.628 35.3837 31.8374C35.6794 31.0742 35.8803 30.2013 35.9357 28.925C35.9916 27.6441 36.0048 27.2352 35.9986 23.9769C35.9923 20.7187 35.9777 20.3102 35.917 19.0305C35.8563 17.7508 35.653 16.8818 35.3537 16.1188C35.0453 15.3299 34.6337 14.662 33.966 13.996C33.2983 13.33 32.6282 12.9208 31.8379 12.6165C31.0742 12.321 30.2018 12.1197 28.9245 12.0645C27.6472 12.0093 27.2361 11.9951 23.9771 12.0014C20.7181 12.0076 20.3101 12.0215 19.0302 12.0839ZM19.1703 33.7771C18.0003 33.7262 17.365 33.5318 16.9417 33.3691C16.381 33.1531 15.9817 32.892 15.5597 32.4742C15.1378 32.0563 14.8786 31.6555 14.6597 31.0961C14.4953 30.6727 14.2973 30.0381 14.2426 28.8681C14.1831 27.6036 14.1706 27.2239 14.1636 24.0201C14.1567 20.8164 14.1689 20.4372 14.2244 19.1721C14.2743 18.0031 14.4699 17.3671 14.6324 16.9439C14.8484 16.3826 15.1085 15.9839 15.5273 15.5623C15.9461 15.1406 16.3457 14.8809 16.9057 14.662C17.3286 14.4969 17.9631 14.3006 19.1327 14.2449C20.3982 14.1849 20.7774 14.1729 23.9807 14.1659C27.184 14.159 27.5642 14.171 28.8302 14.2267C29.9992 14.2775 30.6355 14.4712 31.0581 14.6347C31.619 14.8507 32.0181 15.1101 32.4398 15.5296C32.8615 15.9491 33.1214 16.3473 33.3403 16.9084C33.5057 17.3301 33.702 17.9644 33.7572 19.1347C33.8174 20.4002 33.8311 20.7796 33.8369 23.9827C33.8426 27.1857 33.8314 27.5661 33.7759 28.8307C33.7248 30.0007 33.5309 30.6362 33.3679 31.0601C33.1519 31.6205 32.8915 32.0201 32.4725 32.4415C32.0534 32.863 31.6543 33.1226 31.0941 33.3415C30.6717 33.5064 30.0364 33.7032 28.8679 33.7589C27.6023 33.8184 27.2231 33.8309 24.0186 33.8378C20.8141 33.8448 20.4361 33.8318 19.1706 33.7771M28.9531 17.5864C28.9535 17.8713 29.0385 18.1495 29.1971 18.3861C29.3558 18.6226 29.581 18.8068 29.8443 18.9154C30.1077 19.0239 30.3973 19.0519 30.6765 18.9959C30.9558 18.9398 31.2122 18.8022 31.4132 18.6004C31.6142 18.3986 31.7509 18.1418 31.806 17.8623C31.861 17.5828 31.8319 17.2933 31.7224 17.0304C31.6129 16.7675 31.4279 16.5429 31.1908 16.3851C30.9536 16.2274 30.675 16.1435 30.3902 16.144C30.0084 16.1448 29.6425 16.2972 29.373 16.5677C29.1035 16.8381 28.9524 17.2046 28.9531 17.5864ZM17.8386 24.012C17.8453 27.4152 20.6091 30.1677 24.0117 30.1613C27.4142 30.1548 30.1687 27.3912 30.1622 23.988C30.1557 20.5848 27.3911 17.8315 23.9881 17.8382C20.5851 17.8449 17.8321 20.6092 17.8386 24.012ZM20 24.0076C19.9985 23.2165 20.2315 22.4427 20.6698 21.784C21.108 21.1253 21.7317 20.6114 22.462 20.3072C23.1924 20.003 23.9965 19.9222 24.7727 20.075C25.549 20.2278 26.2625 20.6073 26.823 21.1656C27.3836 21.724 27.766 22.436 27.9218 23.2116C28.0777 23.9872 28.0001 24.7917 27.6988 25.5232C27.3975 26.2547 26.886 26.8804 26.2291 27.3213C25.5721 27.7621 24.7992 27.9983 24.0081 27.9998C23.4827 28.0009 22.9623 27.8985 22.4766 27.6985C21.9909 27.4985 21.5493 27.2047 21.1771 26.834C20.8049 26.4632 20.5094 26.0228 20.3074 25.5379C20.1054 25.0529 20.001 24.533 20 24.0076Z" fill="#333333"/>
</svg>
