<svg width="24" height="25" viewBox="0 0 24 25" fill="none" xmlns="http://www.w3.org/2000/svg">
<path d="M7.03017 0.609804C5.75336 0.670045 4.88143 0.873805 4.11918 1.17333C3.33029 1.48077 2.66165 1.89333 1.99636 2.56101C1.33107 3.22869 0.921389 3.89782 0.616106 4.6879C0.320663 5.45182 0.120501 6.32446 0.0641001 7.60199C0.00769954 8.87951 -0.00478059 9.29015 0.00145947 12.5489C0.00769954 15.8076 0.0220997 16.2161 0.0840203 17.4963C0.144981 18.7728 0.348023 19.6445 0.647546 20.407C0.955469 21.1959 1.36755 21.8643 2.03548 22.5298C2.70341 23.1953 3.37205 23.604 4.16406 23.9098C4.92727 24.2048 5.80016 24.4059 7.07745 24.4618C8.35474 24.5177 8.76587 24.5307 12.0237 24.5244C15.2815 24.5182 15.6916 24.5038 16.9715 24.4431C18.2515 24.3824 19.1186 24.1779 19.8813 23.8798C20.6702 23.5712 21.3391 23.1598 22.0042 22.4916C22.6692 21.8235 23.0787 21.1539 23.3837 20.3633C23.6794 19.6001 23.8803 18.7272 23.9357 17.4509C23.9916 16.17 24.0048 15.7611 23.9986 12.5028C23.9923 9.24456 23.9777 8.83607 23.917 7.55639C23.8563 6.2767 23.653 5.40766 23.3537 4.6447C23.0453 3.85582 22.6337 3.18789 21.966 2.52189C21.2983 1.85589 20.6282 1.44669 19.8379 1.14237C19.0742 0.846925 18.2018 0.645564 16.9245 0.590364C15.6472 0.535164 15.2361 0.521004 11.9771 0.527244C8.71811 0.533484 8.3101 0.547404 7.03017 0.609804ZM7.17033 22.303C6.00032 22.2521 5.36503 22.0577 4.94167 21.895C4.38102 21.679 3.98166 21.4179 3.55974 21C3.13781 20.5822 2.87861 20.1814 2.65973 19.622C2.49532 19.1986 2.29732 18.564 2.2426 17.394C2.18308 16.1295 2.1706 15.7498 2.16364 12.546C2.15668 9.34223 2.16892 8.96303 2.22436 7.69799C2.27428 6.52894 2.46988 5.89294 2.63237 5.46982C2.84837 4.90846 3.10853 4.50982 3.52734 4.08814C3.94614 3.66646 4.34574 3.40677 4.90567 3.18789C5.32855 3.02277 5.96312 2.82645 7.13265 2.77077C8.39818 2.71077 8.77739 2.69877 11.9807 2.69181C15.184 2.68485 15.5642 2.69685 16.8302 2.75253C17.9992 2.80341 18.6355 2.99709 19.0581 3.16053C19.619 3.37653 20.0181 3.63598 20.4398 4.0555C20.8615 4.47502 21.1214 4.87318 21.3403 5.4343C21.5057 5.85598 21.702 6.4903 21.7572 7.66055C21.8174 8.92607 21.8311 9.30551 21.8369 12.5086C21.8426 15.7116 21.8314 16.092 21.7759 17.3566C21.7248 18.5266 21.5309 19.1621 21.3679 19.586C21.1519 20.1464 20.8915 20.546 20.4725 20.9674C20.0534 21.3888 19.6543 21.6485 19.0941 21.8674C18.6717 22.0323 18.0364 22.2291 16.8679 22.2848C15.6023 22.3443 15.2231 22.3568 12.0186 22.3637C8.81411 22.3707 8.4361 22.3577 7.17057 22.303M16.9531 6.1123C16.9535 6.39713 17.0385 6.67542 17.1971 6.91197C17.3558 7.14852 17.581 7.33272 17.8443 7.44125C18.1077 7.54979 18.3973 7.5778 18.6765 7.52173C18.9558 7.46566 19.2122 7.32804 19.4132 7.12627C19.6142 6.9245 19.7509 6.66764 19.806 6.38818C19.861 6.10873 19.8319 5.81922 19.7224 5.55629C19.6129 5.29335 19.4279 5.06879 19.1908 4.91102C18.9536 4.75324 18.675 4.66933 18.3902 4.6699C18.0084 4.67066 17.6425 4.82304 17.373 5.09353C17.1035 5.36402 16.9524 5.73047 16.9531 6.1123ZM5.83856 12.5378C5.84528 15.9411 8.60915 18.6936 12.0117 18.6871C15.4142 18.6807 18.1687 15.9171 18.1622 12.5138C18.1557 9.11063 15.3911 6.35734 11.9881 6.36406C8.58515 6.37078 5.83208 9.13511 5.83856 12.5378ZM8.00002 12.5335C7.99846 11.7424 8.23153 10.9685 8.66976 10.3099C9.108 9.65119 9.73172 9.13725 10.462 8.83305C11.1924 8.52884 11.9965 8.44804 12.7727 8.60084C13.549 8.75365 14.2625 9.13321 14.823 9.69153C15.3836 10.2498 15.766 10.9618 15.9218 11.7375C16.0777 12.5131 16.0001 13.3175 15.6988 14.0491C15.3975 14.7806 14.886 15.4063 14.2291 15.8472C13.5721 16.288 12.7992 16.5241 12.0081 16.5257C11.4827 16.5268 10.9623 16.4244 10.4766 16.2244C9.99086 16.0243 9.54928 15.7306 9.17709 15.3598C8.80489 14.9891 8.50938 14.5487 8.30741 14.0638C8.10545 13.5788 8.001 13.0588 8.00002 12.5335Z" fill="#333333"/>
</svg>
