<svg width="33" height="33" viewBox="0 0 33 33" fill="none" xmlns="http://www.w3.org/2000/svg">
<path d="M16.5505 29.8028C23.8725 29.8028 29.8081 23.8671 29.8081 16.5452C29.8081 9.22322 23.8725 3.2876 16.5505 3.2876C9.22859 3.2876 3.29297 9.22322 3.29297 16.5452C3.29297 23.8671 9.22859 29.8028 16.5505 29.8028Z" stroke="#12141D" stroke-width="1.70455" stroke-linecap="round" stroke-linejoin="round"/>
<path d="M16.5909 22.5114C19.8858 22.5114 22.5568 19.8404 22.5568 16.5455C22.5568 13.2506 19.8858 10.5796 16.5909 10.5796C13.296 10.5796 10.625 13.2506 10.625 16.5455C10.625 19.8404 13.296 22.5114 16.5909 22.5114Z" stroke="#12141D" stroke-width="1.70455" stroke-linecap="round" stroke-linejoin="round"/>
<path d="M7.17773 7.17285L11.8709 11.8528" stroke="#12141D" stroke-width="1.70455" stroke-linecap="round" stroke-linejoin="round"/>
<path d="M7.17773 25.9182L11.8709 21.2383" stroke="#12141D" stroke-width="1.70455" stroke-linecap="round" stroke-linejoin="round"/>
<path d="M25.9373 25.9182L21.2441 21.2383" stroke="#12141D" stroke-width="1.70455" stroke-linecap="round" stroke-linejoin="round"/>
<path d="M25.9373 7.17285L21.2441 11.8528" stroke="#12141D" stroke-width="1.70455" stroke-linecap="round" stroke-linejoin="round"/>
</svg>
