<svg width="48" height="48" viewBox="0 0 48 48" fill="none" xmlns="http://www.w3.org/2000/svg">
<rect width="48" height="48" rx="24" fill="#F6F6F6"/>
<path d="M14.2778 12C12.7431 12 11.5 13.1933 11.5 14.6667V33.3333C11.5 34.8067 12.7431 36 14.2778 36H33.7222C35.2569 36 36.5 34.8067 36.5 33.3333V14.6667C36.5 13.1933 35.2569 12 33.7222 12H14.2778ZM14.2778 14.6667H33.7222V33.3333H14.2778V14.6667ZM18.1379 16.4219C16.9476 16.4219 16.2336 17.1088 16.2336 18.0234C16.2336 18.9381 16.9477 19.6224 18.0186 19.6224C19.2088 19.6224 19.9229 18.9381 19.9229 18.0234C19.9229 17.1088 19.2087 16.4219 18.1379 16.4219ZM16.3286 21.3333V30.6667H19.8333V21.3333H16.3286ZM22.725 21.3333V30.6667H26.2298V25.5651C26.2298 24.0464 27.3585 23.8281 27.6974 23.8281C28.0363 23.8281 28.9425 24.1544 28.9425 25.5651V30.6667H32.3333V25.5651C32.3333 22.6358 30.9774 21.3333 29.2816 21.3333C27.5857 21.3333 26.6812 21.8754 26.2298 22.6354V21.3333H22.725Z" fill="#333333"/>
</svg>
