<svg width="23" height="33" viewBox="0 0 23 33" fill="none" xmlns="http://www.w3.org/2000/svg">
<path d="M11.3133 15.8255C10.2524 15.8255 9.23499 15.4041 8.48485 14.6539C7.7347 13.9038 7.31328 12.8864 7.31328 11.8255C7.31328 10.7646 7.7347 9.74721 8.48485 8.99706C9.23499 8.24692 10.2524 7.82549 11.3133 7.82549C12.3741 7.82549 13.3916 8.24692 14.1417 8.99706C14.8918 9.74721 15.3133 10.7646 15.3133 11.8255C15.3133 12.3508 15.2098 12.8709 15.0088 13.3562C14.8078 13.8415 14.5131 14.2825 14.1417 14.6539C13.7703 15.0253 13.3293 15.32 12.844 15.521C12.3587 15.722 11.8386 15.8255 11.3133 15.8255ZM11.3133 0.625488C8.34285 0.625488 5.49409 1.80548 3.39368 3.90589C1.29328 6.0063 0.113281 8.85506 0.113281 11.8255C0.113281 20.2255 11.3133 32.6255 11.3133 32.6255C11.3133 32.6255 22.5133 20.2255 22.5133 11.8255C22.5133 8.85506 21.3333 6.0063 19.2329 3.90589C17.1325 1.80548 14.2837 0.625488 11.3133 0.625488Z" fill="#D82519"/>
</svg>
