<svg width="24" height="25" viewBox="0 0 24 25" fill="none" xmlns="http://www.w3.org/2000/svg">
<path d="M11.9999 14.7046C9.86988 14.7046 8.12988 12.9746 8.12988 10.8346C8.12988 8.69461 9.86988 6.97461 11.9999 6.97461C14.1299 6.97461 15.8699 8.70461 15.8699 10.8446C15.8699 12.9846 14.1299 14.7046 11.9999 14.7046ZM11.9999 8.47461C10.6999 8.47461 9.62988 9.53461 9.62988 10.8446C9.62988 12.1546 10.6899 13.2146 11.9999 13.2146C13.3099 13.2146 14.3699 12.1546 14.3699 10.8446C14.3699 9.53461 13.2999 8.47461 11.9999 8.47461Z" fill="#767676"/>
<path d="M11.9997 23.2947C10.5197 23.2947 9.02969 22.7347 7.86969 21.6247C4.91969 18.7847 1.65969 14.2547 2.88969 8.86467C3.99969 3.97467 8.26969 1.78467 11.9997 1.78467C11.9997 1.78467 11.9997 1.78467 12.0097 1.78467C15.7397 1.78467 20.0097 3.97467 21.1197 8.87467C22.3397 14.2647 19.0797 18.7847 16.1297 21.6247C14.9697 22.7347 13.4797 23.2947 11.9997 23.2947ZM11.9997 3.28467C9.08969 3.28467 5.34969 4.83467 4.35969 9.19467C3.27969 13.9047 6.23969 17.9647 8.91969 20.5347C10.6497 22.2047 13.3597 22.2047 15.0897 20.5347C17.7597 17.9647 20.7197 13.9047 19.6597 9.19467C18.6597 4.83467 14.9097 3.28467 11.9997 3.28467Z" fill="#767676"/>
</svg>
