<svg width="64" height="64" viewBox="0 0 64 64" fill="none" xmlns="http://www.w3.org/2000/svg">
<g clip-path="url(#clip0_558_5183)">
<path d="M29.9304 42.0707C29.9304 40.5648 28.7068 39.2472 27.1068 39.2472H18.5421C18.8245 38.5883 19.0127 37.6472 19.201 36.5178C20.1421 36.706 21.0833 36.6119 22.1186 36.2354C23.248 35.7648 24.1892 35.0119 25.0363 34.1648C26.5421 34.5413 32.5657 33.7883 32.9421 28.9883C33.0363 27.5766 35.2951 26.8236 35.2951 26.8236C35.6716 26.7295 35.8598 26.3531 35.9539 26.0707C36.048 25.7883 35.7657 25.3178 35.4833 25.1295C33.7892 24.0942 32.001 23.6236 30.3068 23.6236C26.0716 23.6236 23.248 26.8236 23.1539 31.8119C23.1539 32.2825 23.248 32.753 23.5304 33.1295C22.401 34.2589 20.8951 35.106 19.2951 34.7295C19.2951 33.1295 19.1068 31.2472 18.5421 29.1766C18.0716 27.6707 17.8833 26.0707 17.7892 24.5648C18.5421 24.4707 19.2951 24.1883 19.7657 23.6236C27.0127 16.0001 23.7186 7.34129 14.1186 4.80011C13.7421 4.70599 13.3657 4.80011 13.1774 5.08246C12.9892 5.36481 12.8951 5.74129 13.0833 6.11776C13.0833 6.11776 14.7774 9.60011 13.1774 11.3883C10.2598 14.6825 10.9186 19.0119 14.9657 23.6236C15.248 23.906 15.5304 24.0942 15.8127 24.2825C15.9068 26.0707 16.1892 27.953 16.6598 29.7413C17.1304 31.4354 17.3186 32.9413 17.3186 34.2589C15.7186 34.6354 14.3068 33.7883 13.1774 32.6589C13.4598 32.2825 13.5539 31.8119 13.5539 31.3413C13.4598 26.353 10.6363 23.153 6.40097 23.153C4.70685 23.153 2.91861 23.7178 1.22449 24.6589C0.942141 24.8472 0.753906 25.2236 0.753906 25.6001C0.753906 25.9766 1.03626 26.2589 1.41273 26.353C1.97744 26.5413 3.76567 27.3883 3.76567 28.5178C3.95391 31.6236 6.5892 33.6001 10.8245 33.7883C10.8245 33.7883 10.9186 33.7883 11.0127 33.7883C11.201 33.7883 11.4833 33.7883 11.6716 33.6942C13.1774 35.2942 15.0598 36.4236 17.2245 36.1413C17.0363 37.6472 16.6598 38.7766 16.3774 39.3413H6.96567C5.45979 39.3413 4.14214 40.5648 4.14214 42.1648C4.14214 43.4825 5.08332 44.706 6.40097 44.8942L9.03626 62.306C9.13038 62.7766 9.50685 63.153 9.97744 63.153C10.1657 63.153 24.6598 63.153 24.0951 63.153C24.5657 63.153 24.9421 62.7766 25.0363 62.306L27.6716 44.8942C28.9892 44.6119 29.9304 43.4825 29.9304 42.0707ZM30.401 25.506C31.248 25.506 32.0951 25.6942 32.9421 25.9766C32.0951 26.6354 31.1539 27.5766 31.0598 28.8942C30.8716 31.2472 28.7068 32.0942 26.5421 32.3766C27.5774 30.8707 28.2363 29.4589 28.2363 29.3648C28.4245 28.8942 28.2363 28.3295 27.7657 28.1413C27.2951 27.953 26.7304 28.1413 26.5421 28.6119C26.5421 28.6119 25.9774 29.8354 25.1304 31.2472C25.4127 27.6707 27.3892 25.506 30.401 25.506ZM5.83626 28.3295C5.74214 27.0119 4.80096 25.9766 3.95391 25.4119C4.80096 25.1295 5.74214 24.9413 6.49508 24.9413C9.50685 24.9413 11.4833 27.106 11.7657 30.6825C10.8245 29.3648 10.3539 28.1413 10.3539 28.1413C10.1657 27.6707 9.60096 27.4825 9.13038 27.6707C8.65979 27.8589 8.47155 28.4236 8.65979 28.8942C8.75391 28.9883 9.31861 30.4001 10.3539 31.906C8.1892 31.6236 6.02449 30.7766 5.83626 28.3295ZM14.6833 12.5178C16.0951 10.9178 15.9068 8.65893 15.5304 7.15305C22.3068 9.78834 24.2833 16.2825 18.5421 22.306C18.3539 22.4942 18.0716 22.5883 17.8833 22.6825C17.8833 18.6354 18.7304 15.4354 18.7304 15.4354C19.0127 14.2119 17.2245 13.7413 16.9421 14.9648C16.848 15.153 16.1892 17.9766 16.0951 21.6472C13.8363 19.0119 12.1421 15.5295 14.6833 12.5178ZM6.02449 42.0707C6.02449 41.6001 6.40097 41.1295 6.96567 41.1295H27.1068C27.5774 41.1295 28.048 41.506 28.048 42.0707C28.048 42.6354 27.6716 43.0119 27.1068 43.0119C18.0716 43.0119 16.001 43.0119 6.96567 43.0119C6.49508 43.0119 6.02449 42.6354 6.02449 42.0707ZM8.37744 44.8942H12.9892L13.7421 61.1766H10.8245L8.37744 44.8942ZM15.6245 61.1766L14.7774 44.8942H19.201L18.5421 61.1766H15.6245ZM23.3421 61.1766H20.4245L21.2716 44.8942H25.8833L23.3421 61.1766ZM59.6716 48.6589C59.7657 47.6236 59.6716 47.7178 59.6716 40.6589C59.6716 40.0942 59.2951 39.7178 58.7304 39.7178C56.4716 39.7178 54.6833 39.3413 53.1774 38.5883C53.3657 37.553 53.5539 36.5178 53.5539 35.5766C53.5539 35.106 53.1774 34.6354 52.5186 34.6354V10.8236L55.248 8.18834C56.5657 6.96481 56.3774 5.64717 56.3774 4.32952C56.3774 2.44717 54.7774 0.847168 52.7068 0.847168H47.0598C45.0833 0.847168 43.3892 2.35305 43.3892 4.32952C43.3892 5.55305 43.201 6.8707 44.5186 8.09423L47.248 10.8236V34.5413C46.4951 34.5413 46.2127 35.0119 46.2127 35.4825C46.2127 36.3295 46.3068 37.2707 46.5892 38.306C45.0833 39.0589 43.2951 39.4354 41.0363 39.6236C40.5657 39.6236 40.1892 40.0942 40.1892 40.5648V47.5295C40.1892 48.8472 40.3774 50.1648 40.7539 51.4825C38.401 52.706 38.2127 53.9295 35.1068 54.306C31.7186 54.7766 31.0598 54.5883 29.7421 56.6589L29.648 56.753C28.8951 57.9766 27.9539 59.0119 26.9186 59.8589C26.5421 60.1413 26.448 60.6119 26.7304 61.0825C26.9186 61.4589 27.3892 61.6472 27.8598 61.4589C29.1774 60.9883 31.1539 62.4942 33.2245 62.2119C34.7304 62.0236 35.6716 61.0825 36.7068 60.8942C37.0833 60.8001 37.3657 60.8001 38.1186 60.8001C39.1539 60.8001 40.0951 60.6119 40.7539 60.706C41.6951 60.9883 42.6363 62.1178 44.048 62.5883C47.3421 63.7178 50.2598 60.1413 51.8598 60.4236C52.4245 60.5177 54.6833 62.4001 58.7304 62.5883C60.6127 62.6825 61.648 62.0236 61.8363 60.1413C61.8363 59.0119 65.6951 52.706 59.6716 48.6589ZM51.6716 36.5178C51.4833 38.4942 50.5421 41.506 49.8833 43.4825C49.3186 41.6001 48.2833 38.4001 48.0951 36.5178C48.9421 36.5178 51.6716 36.5178 51.6716 36.5178ZM48.848 9.88246L45.8363 6.8707C45.1774 6.21187 45.2716 5.45893 45.2716 4.42364C45.2716 3.48246 46.1186 2.82364 47.0598 2.82364H52.801C53.7421 2.82364 54.5892 3.48246 54.5892 4.42364C54.5892 5.45893 54.7774 6.21187 54.0245 6.8707L51.0127 9.78834C50.8245 9.97658 50.7304 10.1648 50.7304 10.4472V34.7295H49.2245V10.5413C49.1304 10.2589 49.0363 10.0707 48.848 9.88246ZM41.9774 47.6236V41.6001C43.9539 41.4119 45.5539 41.0354 46.9657 40.3766C47.5304 42.6354 48.6598 46.0236 48.9421 47.0589C49.2245 47.906 50.448 47.906 50.7304 47.0589C51.1068 45.9295 52.1421 42.6354 52.7068 40.5648C54.1186 41.2236 55.8127 41.6001 57.7892 41.6942V47.5295C57.1304 47.5295 56.5657 48.0001 56.2833 48.1883C55.0598 49.4119 55.5304 48.4707 53.9304 48.0942C52.4245 47.7178 50.448 48.9413 49.2245 49.7883C45.3657 52.3295 45.5539 50.8236 42.9186 50.9178C42.8245 50.9178 42.7304 50.9178 42.5421 50.9178C42.1657 49.8825 41.9774 48.753 41.9774 47.6236ZM60.048 59.2001C59.4833 60.5178 60.3304 61.1766 58.6363 61.0825C52.2363 60.706 53.7421 57.0354 48.2833 60.1413C45.2716 61.8354 44.6127 61.3648 43.201 60.3295C40.7539 58.5413 40.1892 59.2001 38.0245 59.2001C36.4245 59.2001 36.1421 59.2001 34.3539 60.0472C32.1892 61.0825 32.2833 60.6119 29.648 59.953C31.8127 57.4119 31.1539 57.0354 32.848 56.753C36.9892 56.1883 37.2716 56.2825 39.9068 54.4001C44.9892 50.7295 43.8598 55.6236 50.0716 51.4825C54.5892 48.4707 53.0833 51.106 55.6245 50.8236C56.6598 50.7295 57.2245 49.8825 57.601 49.6001C58.3539 50.6354 63.3421 51.6707 60.048 59.2001Z" fill="#D82519"/>
</g>
<defs>
<clipPath id="clip0_558_5183">
<rect width="64" height="64" fill="white"/>
</clipPath>
</defs>
</svg>
