<svg width="80" height="80" viewBox="0 0 80 80" fill="none" xmlns="http://www.w3.org/2000/svg">
<rect width="80" height="80" rx="40" fill="#D82519" fill-opacity="0.1"/>
<path d="M57.8696 34.6943H48.3111C45.6585 32.0721 42.2688 30.1946 38.4841 29.4048C38.5604 26.3047 41.1042 23.8057 44.2225 23.8057H47.1597C47.5457 23.8057 47.8585 23.4928 47.8585 23.1069C47.8585 22.721 47.5457 22.4081 47.1597 22.4081H44.2225C40.4135 22.4081 37.2918 25.4065 37.0933 29.1671C36.2278 29.0506 35.3453 28.9893 34.4484 28.9893H34.1058C34.3966 23.6612 38.8229 19.4155 44.2224 19.4155H52.2695C52.6911 19.4155 53.0341 19.7586 53.0341 20.1801V21.6436C53.0341 22.0652 52.6911 22.4082 52.2695 22.4082H50.205C49.819 22.4082 49.5062 22.7211 49.5062 23.107C49.5062 23.4929 49.819 23.8057 50.205 23.8057H52.2695C53.4617 23.8057 54.4316 22.8358 54.4316 21.6436V20.1801C54.4316 18.9878 53.4617 18.0179 52.2695 18.0179H44.2224C38.0521 18.0179 32.9987 22.8901 32.7064 28.9892H29.4094C27.688 28.9892 26.2876 27.5888 26.2876 25.8675V18.3114C26.2877 17.1191 25.3179 16.1492 24.1256 16.1492H22.6622C21.47 16.1492 20.5 17.1191 20.5 18.3114V35.8473C20.5 36.2332 20.8128 36.5461 21.1988 36.5461C21.5847 36.5461 21.8975 36.2332 21.8975 35.8473V18.3114C21.8975 17.8898 22.2406 17.5467 22.6622 17.5467H24.1256C24.5472 17.5467 24.8902 17.8897 24.8902 18.3114V25.8675C24.8902 27.5238 25.7864 28.9739 27.1187 29.7608L29.3059 33.12L28.6804 39.592C28.5261 41.1884 27.8056 42.6811 26.6518 43.7951L25.0664 45.3258C24.7889 45.5938 24.781 46.0362 25.0491 46.3138C25.1862 46.4558 25.3689 46.5273 25.5518 46.5273C25.7265 46.5273 25.9015 46.4622 26.0371 46.3312L27.6225 44.8004C27.6418 44.7817 27.66 44.7621 27.6792 44.7432L28.2333 48.76C28.2816 49.1099 28.581 49.3634 28.9246 49.3634C28.9564 49.3634 28.9886 49.3613 29.0209 49.3568C29.4032 49.304 29.6705 48.9514 29.6176 48.5691L28.8822 43.237C29.538 42.1805 29.9501 40.9805 30.0713 39.7265L30.5283 34.9975L34.1334 40.534C35.187 42.1522 36.6183 43.4436 38.2925 44.316L40.3469 50.1638C40.4479 50.4513 40.7178 50.6311 41.0061 50.6311C41.0829 50.6311 41.1611 50.6184 41.2377 50.5914C41.6017 50.4635 41.7933 50.0647 41.6654 49.7006L40.0281 45.0402C40.3182 45.1332 40.6129 45.2156 40.9126 45.2855L43.6736 45.929C43.7269 45.9414 43.7803 45.9473 43.8328 45.9473C44.1502 45.9473 44.4375 45.7295 44.5127 45.407C44.6002 45.0312 44.3667 44.6556 43.9907 44.5679L41.2297 43.9244C38.7808 43.3536 36.6765 41.8787 35.3044 39.7715L35.1086 39.4707L41.4916 39.8589C41.5061 39.8598 41.5204 39.8602 41.5347 39.8602C41.9012 39.8602 42.2089 39.5747 42.2314 39.2039C42.2548 38.8187 41.9616 38.4874 41.5764 38.464L39.0355 38.3095L41.0249 36.7988C41.3323 36.5654 41.3922 36.127 41.1588 35.8197C40.9254 35.5123 40.4874 35.4523 40.1797 35.6857L36.896 38.1793L34.1594 38.0129L29.1902 30.3811C29.2628 30.3846 29.3359 30.3867 29.4094 30.3867H34.4484C44.5571 30.3867 52.7811 38.6106 52.7811 48.7192V49.5897C52.7811 49.9756 53.0938 50.2885 53.4798 50.2885C53.8657 50.2885 54.1786 49.9756 54.1786 49.5897V48.7192C54.1786 47.462 54.0589 46.2324 53.8331 45.04H56.4707C57.3696 45.04 58.1011 44.3085 58.1011 43.4095V41.9769C58.1011 41.0779 57.3696 40.3465 56.4707 40.3465H52.3111C52.1585 40.0222 51.9978 39.7023 51.8283 39.3879H57.8696C58.7685 39.3879 59.5 38.6564 59.5 37.7575V36.3248C59.5 35.4257 58.7685 34.6943 57.8696 34.6943ZM56.4707 41.7439C56.5991 41.7439 56.7036 41.8484 56.7036 41.9768V43.4094C56.7036 43.5378 56.5991 43.6424 56.4707 43.6424H53.5152C53.3429 42.9959 53.1385 42.3626 52.9039 41.7439H56.4707ZM58.1025 37.7574C58.1025 37.8857 57.9981 37.9903 57.8696 37.9903H50.9986C50.5685 37.3291 50.1 36.6953 49.5961 36.0918H57.8696C57.9981 36.0918 58.1025 36.1963 58.1025 36.3247V37.7574Z" fill="#D82519"/>
<path d="M20.5 61.7545C20.5 62.9105 21.4404 63.8508 22.5963 63.8508H24.1857C25.3415 63.8508 26.282 62.9105 26.282 61.7545V56.879C29.8548 60.4536 34.7887 62.6678 40.23 62.6678H48.6848C51.7141 62.6678 54.1787 60.2032 54.1787 57.1739V52.635C54.1787 52.2491 53.8658 51.9363 53.4799 51.9363C53.0939 51.9363 52.7812 52.2491 52.7812 52.635V57.1739C52.7812 59.4326 50.9435 61.2703 48.6848 61.2703H40.23C30.1215 61.2703 21.8975 53.0463 21.8975 42.9377V38.8926C21.8975 38.5067 21.5847 38.1938 21.1988 38.1938C20.8128 38.1938 20.5 38.5067 20.5 38.8926V61.7545ZM24.8845 61.7545C24.8845 62.1399 24.571 62.4533 24.1857 62.4533H22.5963C22.2109 62.4533 21.8975 62.1399 21.8975 61.7545V50.2305C22.6368 52.0824 23.6493 53.7964 24.8845 55.3236V61.7545Z" fill="#D82519"/>
</svg>
