<svg width="33" height="33" viewBox="0 0 33 33" fill="none" xmlns="http://www.w3.org/2000/svg">
<path d="M26.3754 22.5114C25.6673 22.515 24.9734 22.7098 24.3668 23.0751L20.5755 19.2828C21.1157 18.4721 21.4039 17.5197 21.4039 16.5455C21.4039 15.5713 21.1157 14.6188 20.5755 13.8081L23.108 11.2756C23.7487 11.5842 24.4779 11.656 25.1664 11.4785C25.855 11.3009 26.4585 10.8853 26.87 10.3054C27.2815 9.72549 27.4745 9.01863 27.4147 8.31005C27.355 7.60147 27.0464 6.93691 26.5435 6.43409C26.0407 5.93127 25.3762 5.62265 24.6676 5.5629C23.959 5.50315 23.2521 5.69612 22.6722 6.10763C22.0923 6.51914 21.6767 7.12264 21.4992 7.8112C21.3216 8.49976 21.3935 9.22896 21.7021 9.86961L19.1695 12.4021C18.3588 11.862 17.4064 11.5737 16.4322 11.5737C15.458 11.5737 14.5055 11.862 13.6948 12.4021L9.90249 8.6098C10.2676 8.00355 10.4624 7.30999 10.4663 6.60228C10.4663 5.81564 10.233 5.04668 9.79597 4.39262C9.35895 3.73856 8.73778 3.22878 8.01103 2.92775C7.28428 2.62672 6.48458 2.54796 5.71307 2.70142C4.94155 2.85489 4.23287 3.23369 3.67664 3.78992C3.12041 4.34615 2.74161 5.05483 2.58814 5.82635C2.43468 6.59786 2.51344 7.39756 2.81447 8.12431C3.1155 8.85106 3.62528 9.47223 4.27934 9.90926C4.9334 10.3463 5.70236 10.5795 6.48899 10.5795C7.19705 10.5759 7.89097 10.3811 8.49752 10.0158L12.2889 13.8081C11.7487 14.6188 11.4604 15.5713 11.4604 16.5455C11.4604 17.5197 11.7487 18.4721 12.2889 19.2828L8.49652 23.0751C7.89025 22.71 7.1967 22.5153 6.48899 22.5114C5.70236 22.5114 4.9334 22.7446 4.27934 23.1817C3.62528 23.6187 3.1155 24.2399 2.81447 24.9666C2.51344 25.6934 2.43468 26.4931 2.58814 27.2646C2.74161 28.0361 3.12041 28.7448 3.67664 29.301C4.23287 29.8572 4.94155 30.236 5.71307 30.3895C6.48458 30.543 7.28428 30.4642 8.01103 30.1632C8.73778 29.8621 9.35895 29.3524 9.79597 28.6983C10.233 28.0442 10.4663 27.2753 10.4663 26.4886C10.4626 25.7806 10.2678 25.0867 9.90249 24.4801L13.6948 20.6888C14.2236 21.0412 14.8154 21.2884 15.4379 21.4166V24.683C14.7744 24.9175 14.2153 25.3791 13.8592 25.986C13.5032 26.5929 13.3732 27.3062 13.4922 27.9997C13.6112 28.6933 13.9715 29.3224 14.5095 29.776C15.0475 30.2295 15.7285 30.4783 16.4322 30.4783C17.1358 30.4783 17.8169 30.2295 18.3548 29.776C18.8928 29.3224 19.2532 28.6933 19.3722 27.9997C19.4912 27.3062 19.3611 26.5929 19.0051 25.986C18.6491 25.3791 18.0899 24.9175 17.4265 24.683V21.4166C18.0489 21.2884 18.6407 21.0412 19.1695 20.6888L22.9619 24.4811C22.5967 25.0874 22.4019 25.7809 22.3981 26.4886C22.3981 27.2753 22.6313 28.0442 23.0684 28.6983C23.5054 29.3524 24.1266 29.8621 24.8533 30.1632C25.5801 30.4642 26.3798 30.543 27.1513 30.3895C27.9228 30.236 28.6315 29.8572 29.1877 29.301C29.7439 28.7448 30.1227 28.0361 30.2762 27.2646C30.4297 26.4931 30.3509 25.6934 30.0499 24.9666C29.7488 24.2399 29.2391 23.6187 28.585 23.1817C27.931 22.7446 27.162 22.5114 26.3754 22.5114ZM16.4322 13.5625C17.0221 13.5625 17.5989 13.7375 18.0894 14.0652C18.58 14.393 18.9623 14.8589 19.1881 15.4039C19.4138 15.949 19.4729 16.5488 19.3578 17.1274C19.2427 17.706 18.9586 18.2376 18.5414 18.6547C18.1243 19.0719 17.5928 19.356 17.0141 19.4711C16.4355 19.5862 15.8357 19.5271 15.2906 19.3013C14.7456 19.0756 14.2797 18.6932 13.9519 18.2027C13.6242 17.7122 13.4492 17.1354 13.4492 16.5455C13.45 15.7546 13.7645 14.9963 14.3238 14.4371C14.883 13.8778 15.6413 13.5633 16.4322 13.5625ZM4.50036 6.60228C4.50036 6.20896 4.61699 5.82448 4.8355 5.49745C5.05402 5.17042 5.3646 4.91553 5.72797 4.76501C6.09135 4.6145 6.4912 4.57512 6.87696 4.65185C7.26271 4.72858 7.61706 4.91798 7.89517 5.1961C8.17329 5.47421 8.36269 5.82855 8.43942 6.21431C8.51615 6.60007 8.47677 6.99992 8.32625 7.36329C8.17574 7.72667 7.92085 8.03725 7.59382 8.25577C7.26679 8.47428 6.88231 8.59091 6.48899 8.59091C5.96174 8.59039 5.45622 8.3807 5.0834 8.00787C4.71057 7.63504 4.50088 7.12953 4.50036 6.60228ZM6.48899 28.4773C6.09568 28.4773 5.7112 28.3606 5.38417 28.1421C5.05714 27.9236 4.80225 27.613 4.65173 27.2497C4.50122 26.8863 4.46184 26.4864 4.53857 26.1007C4.6153 25.7149 4.8047 25.3606 5.08281 25.0825C5.36093 24.8043 5.71527 24.6149 6.10103 24.5382C6.48679 24.4615 6.88664 24.5009 7.25001 24.6514C7.61339 24.8019 7.92397 25.0568 8.14248 25.3838C8.361 25.7108 8.47763 26.0953 8.47763 26.4886C8.4771 27.0159 8.26742 27.5214 7.89459 27.8942C7.52176 28.2671 7.01625 28.4768 6.48899 28.4773ZM26.3754 28.4773C25.982 28.4773 25.5976 28.3606 25.2705 28.1421C24.9435 27.9236 24.6886 27.613 24.5381 27.2497C24.3876 26.8863 24.3482 26.4864 24.4249 26.1007C24.5017 25.7149 24.6911 25.3606 24.9692 25.0825C25.2473 24.8043 25.6016 24.6149 25.9874 24.5382C26.3732 24.4615 26.773 24.5009 27.1364 24.6514C27.4998 24.8019 27.8103 25.0568 28.0288 25.3838C28.2474 25.7108 28.364 26.0953 28.364 26.4886C28.3632 27.0158 28.1534 27.5212 27.7807 27.8939C27.4079 28.2667 26.9025 28.4765 26.3754 28.4773Z" fill="#12141D"/>
</svg>
