<svg width="24" height="25" viewBox="0 0 24 25" fill="none" xmlns="http://www.w3.org/2000/svg">
<path d="M17 21.7847H7C3.35 21.7847 1.25 19.6847 1.25 16.0347V9.03467C1.25 5.38467 3.35 3.28467 7 3.28467H17C20.65 3.28467 22.75 5.38467 22.75 9.03467V16.0347C22.75 19.6847 20.65 21.7847 17 21.7847ZM7 4.78467C4.14 4.78467 2.75 6.17467 2.75 9.03467V16.0347C2.75 18.8947 4.14 20.2847 7 20.2847H17C19.86 20.2847 21.25 18.8947 21.25 16.0347V9.03467C21.25 6.17467 19.86 4.78467 17 4.78467H7Z" fill="#292D32"/>
<path d="M11.9998 13.4046C11.1598 13.4046 10.3098 13.1446 9.65978 12.6146L6.52978 10.1146C6.20978 9.85464 6.14978 9.38464 6.40978 9.06464C6.66978 8.74464 7.13978 8.68464 7.45978 8.94464L10.5898 11.4446C11.3498 12.0546 12.6398 12.0546 13.3998 11.4446L16.5298 8.94464C16.8498 8.68464 17.3298 8.73464 17.5798 9.06464C17.8398 9.38464 17.7898 9.86464 17.4598 10.1146L14.3298 12.6146C13.6898 13.1446 12.8398 13.4046 11.9998 13.4046Z" fill="#292D32"/>
</svg>
