<svg width="33" height="33" viewBox="0 0 33 33" fill="none" xmlns="http://www.w3.org/2000/svg">
<g clip-path="url(#clip0_558_1647)">
<path d="M28.9748 4.81275C28.6329 4.59157 28.2419 4.45777 27.8362 4.42309C27.4305 4.38842 27.0225 4.45393 26.6481 4.61388L14.3782 9.44627C14.0877 9.56449 13.777 9.62527 13.4634 9.62525H5.60831C4.94904 9.62525 4.31676 9.88714 3.85059 10.3533C3.38441 10.8195 3.12251 11.4518 3.12251 12.111V12.3099H0.636719V18.2758H3.12251V18.5343C3.13809 19.1832 3.40685 19.8003 3.87135 20.2536C4.33585 20.707 4.95924 20.9607 5.60831 20.9605L8.59126 27.2843C8.79325 27.7102 9.11125 28.0704 9.50874 28.3237C9.90624 28.577 10.3671 28.713 10.8384 28.7162H12.0913C12.7471 28.7109 13.3743 28.4467 13.8361 27.9811C14.298 27.5155 14.5572 26.8862 14.5572 26.2304V21.1991L26.6481 26.0315C26.9455 26.1498 27.2627 26.2106 27.5827 26.2105C28.0793 26.2025 28.5629 26.0505 28.9748 25.773C29.3019 25.5521 29.5717 25.2566 29.7619 24.9108C29.9521 24.565 30.0572 24.1788 30.0685 23.7843V6.86104C30.0667 6.45639 29.9661 6.05829 29.7755 5.70134C29.5849 5.34438 29.31 5.03935 28.9748 4.81275ZM12.0714 12.111V18.5343H5.60831V12.111H12.0714ZM12.0714 26.2304H10.8185L8.37251 20.9605H12.0714V26.2304ZM15.293 18.8326C15.0569 18.712 14.8107 18.6122 14.5572 18.5343V11.9718C14.8082 11.92 15.0544 11.8469 15.293 11.7531L27.5827 6.86104V23.7247L15.293 18.8326ZM30.1282 12.8071V17.7787C30.7875 17.7787 31.4197 17.5168 31.8859 17.0506C32.3521 16.5844 32.614 15.9521 32.614 15.2929C32.614 14.6336 32.3521 14.0013 31.8859 13.5351C31.4197 13.069 30.7875 12.8071 30.1282 12.8071Z" fill="#12141D"/>
</g>
<defs>
<clipPath id="clip0_558_1647">
<rect width="31.8182" height="31.8182" fill="white" transform="translate(0.636719 0.63623)"/>
</clipPath>
</defs>
</svg>
