<svg width="48" height="48" viewBox="0 0 48 48" fill="none" xmlns="http://www.w3.org/2000/svg">
<rect width="48" height="48" rx="24" fill="#F6F6F6"/>
<path d="M37.7742 17.1231C37.4436 15.8937 36.4695 14.9256 35.2324 14.5971C32.9904 14 24 14 24 14C24 14 15.0096 14 12.7676 14.5971C11.5306 14.9256 10.5564 15.8937 10.2258 17.1231C9.625 19.3512 9.625 24 9.625 24C9.625 24 9.625 28.6488 10.2258 30.8771C10.5564 32.1063 11.5306 33.0743 12.7676 33.403C15.0096 34 24 34 24 34C24 34 32.9904 34 35.2324 33.403C36.4695 33.0743 37.4436 32.1063 37.7742 30.8771C38.375 28.6488 38.375 24 38.375 24C38.375 24 38.375 19.3512 37.7742 17.1231Z" fill="#333333"/>
<path d="M20.167 28.2644L27.6812 24.0438L20.167 19.8229V28.2644Z" fill="#F6F6F6"/>
</svg>
