<svg width="30" height="21" viewBox="0 0 30 21" fill="none" xmlns="http://www.w3.org/2000/svg">
<path d="M28.7732 3.64894C28.4426 2.41959 27.4685 1.45152 26.2314 1.12298C23.9894 0.525879 14.999 0.525879 14.999 0.525879C14.999 0.525879 6.00865 0.525879 3.76658 1.12298C2.52963 1.45152 1.55539 2.41959 1.22479 3.64894C0.624023 5.87706 0.624023 10.5259 0.624023 10.5259C0.624023 10.5259 0.624023 15.1746 1.22479 17.403C1.55539 18.6322 2.52963 19.6002 3.76658 19.9289C6.00865 20.5259 14.999 20.5259 14.999 20.5259C14.999 20.5259 23.9894 20.5259 26.2314 19.9289C27.4685 19.6002 28.4426 18.6322 28.7732 17.403C29.374 15.1746 29.374 10.5259 29.374 10.5259C29.374 10.5259 29.374 5.87706 28.7732 3.64894Z" fill="#333333"/>
<path d="M11.166 14.79L18.6802 10.5695L11.166 6.34851V14.79Z" fill="#F6F6F6"/>
</svg>
