<svg width="60" height="60" viewBox="0 0 60 60" fill="none" xmlns="http://www.w3.org/2000/svg">
<path d="M21.9723 34.1324C20.8225 34.1311 19.7202 33.6738 18.9071 32.861C18.094 32.0481 17.6364 30.9459 17.6348 29.7962V5.10615C17.6541 3.96869 18.1195 2.88435 18.9307 2.08679C19.7419 1.28922 20.834 0.842285 21.9716 0.842285C23.1093 0.842285 24.2014 1.28922 25.0126 2.08679C25.8238 2.88435 26.2892 3.96869 26.3085 5.10615V29.7962C26.3072 30.9458 25.8499 32.048 25.037 32.8609C24.2241 33.6738 23.1219 34.1311 21.9723 34.1324ZM21.9723 2.7699C21.3526 2.77024 20.7585 3.01644 20.3202 3.45447C19.882 3.89249 19.6354 4.48653 19.6348 5.10615V29.7962C19.6489 30.4066 19.9013 30.9872 20.338 31.414C20.7747 31.8407 21.3611 32.0796 21.9716 32.0796C22.5822 32.0796 23.1686 31.8407 23.6053 31.414C24.042 30.9872 24.2944 30.4066 24.3085 29.7962V5.10615C24.3079 4.48675 24.0615 3.8929 23.6235 3.45491C23.1855 3.01692 22.5917 2.77057 21.9723 2.7699Z" fill="#D82519"/>
<path d="M25.3086 30.5824C25.0434 30.5824 24.789 30.477 24.6015 30.2895C24.4139 30.1019 24.3086 29.8476 24.3086 29.5824C24.3086 29.3171 24.4139 29.0628 24.6015 28.8753C24.789 28.6877 25.0434 28.5824 25.3086 28.5824C26.6282 28.5824 27.9349 28.3224 29.1541 27.8174C30.3733 27.3125 31.481 26.5723 32.4141 25.6392C33.3472 24.706 34.0874 23.5983 34.5924 22.3791C35.0974 21.1599 35.3573 19.8532 35.3573 18.5336C35.3573 17.214 35.0974 15.9073 34.5924 14.6881C34.0874 13.469 33.3472 12.3612 32.4141 11.4281C31.481 10.495 30.3733 9.75478 29.1541 9.24978C27.9349 8.74478 26.6282 8.48486 25.3086 8.48486C25.0434 8.48486 24.789 8.37951 24.6015 8.19197C24.4139 8.00443 24.3086 7.75008 24.3086 7.48486C24.3086 7.21965 24.4139 6.96529 24.6015 6.77776C24.789 6.59022 25.0434 6.48486 25.3086 6.48486C28.5041 6.48486 31.5688 7.75428 33.8283 10.0139C36.0879 12.2734 37.3573 15.3381 37.3573 18.5336C37.3573 21.7291 36.0879 24.7938 33.8283 27.0534C31.5688 29.3129 28.5041 30.5824 25.3086 30.5824Z" fill="#D82519"/>
<path d="M41.5416 24.8751H34.9854C34.7201 24.8751 34.4658 24.7698 34.2782 24.5822C34.0907 24.3947 33.9854 24.1404 33.9854 23.8751C33.9854 23.6099 34.0907 23.3556 34.2782 23.168C34.4658 22.9805 34.7201 22.8751 34.9854 22.8751H41.5416C41.8068 22.8751 42.0612 22.9805 42.2487 23.168C42.4362 23.3556 42.5416 23.6099 42.5416 23.8751C42.5416 24.1404 42.4362 24.3947 42.2487 24.5822C42.0612 24.7698 41.8068 24.8751 41.5416 24.8751ZM41.5416 17.8276H36.2266C35.9614 17.8276 35.707 17.7223 35.5195 17.5347C35.332 17.3472 35.2266 17.0929 35.2266 16.8276C35.2266 16.5624 35.332 16.3081 35.5195 16.1205C35.707 15.933 35.9614 15.8276 36.2266 15.8276H41.5416C41.8068 15.8276 42.0612 15.933 42.2487 16.1205C42.4362 16.3081 42.5416 16.5624 42.5416 16.8276C42.5416 17.0929 42.4362 17.3472 42.2487 17.5347C42.0612 17.7223 41.8068 17.8276 41.5416 17.8276Z" fill="#D82519"/>
<path d="M45.681 29.1887H42.4223C41.9246 29.1881 41.4474 28.9905 41.095 28.6392C40.7425 28.2879 40.5433 27.8114 40.541 27.3137V15.5C40.5433 15.0023 40.7425 14.5258 41.095 14.1745C41.4474 13.8232 41.9246 13.6257 42.4223 13.625H45.681C46.1787 13.6257 46.6559 13.8232 47.0083 14.1745C47.3608 14.5258 47.56 15.0023 47.5623 15.5V27.305C47.5623 27.8042 47.3641 28.2829 47.0114 28.6361C46.6587 28.9893 46.1802 29.1881 45.681 29.1887ZM42.541 27.1887H45.5623V15.625H42.541V27.1887Z" fill="#D82519"/>
<path d="M55.6362 27.6912C55.371 27.6912 55.1167 27.5859 54.9291 27.3984C54.7416 27.2108 54.6362 26.9565 54.6362 26.6912V17.7925C54.6324 17.6156 54.56 17.4471 54.4343 17.3226C54.3086 17.1981 54.1394 17.1272 53.9625 17.125H46.5625C46.2973 17.125 46.0429 17.0196 45.8554 16.8321C45.6679 16.6446 45.5625 16.3902 45.5625 16.125C45.5625 15.8598 45.6679 15.6054 45.8554 15.4179C46.0429 15.2304 46.2973 15.125 46.5625 15.125H53.9625C54.6714 15.1257 55.3511 15.4076 55.8524 15.9089C56.3537 16.4101 56.6356 17.0898 56.6362 17.7987V26.6975C56.6346 26.9616 56.5285 27.2144 56.3412 27.4006C56.1538 27.5868 55.9004 27.6913 55.6362 27.6912ZM49.91 27.6912H46.5625C46.2973 27.6912 46.0429 27.5859 45.8554 27.3984C45.6679 27.2108 45.5625 26.9565 45.5625 26.6912C45.5625 26.426 45.6679 26.1717 45.8554 25.9841C46.0429 25.7966 46.2973 25.6912 46.5625 25.6912H49.91C50.1752 25.6912 50.4296 25.7966 50.6171 25.9841C50.8046 26.1717 50.91 26.426 50.91 26.6912C50.91 26.9565 50.8046 27.2108 50.6171 27.3984C50.4296 27.5859 50.1752 27.6912 49.91 27.6912Z" fill="#D82519"/>
<path d="M55.6364 43.1077H49.9102C49.6449 43.1077 49.3906 43.0023 49.203 42.8148C49.0155 42.6272 48.9102 42.3729 48.9102 42.1077V26.6914C48.9102 26.4262 49.0155 26.1718 49.203 25.9843C49.3906 25.7968 49.6449 25.6914 49.9102 25.6914C50.1754 25.6914 50.4297 25.7968 50.6173 25.9843C50.8048 26.1718 50.9102 26.4262 50.9102 26.6914V41.1077H54.6364V26.6914C54.6364 26.4262 54.7418 26.1718 54.9293 25.9843C55.1168 25.7968 55.3712 25.6914 55.6364 25.6914C55.9016 25.6914 56.156 25.7968 56.3435 25.9843C56.531 26.1718 56.6364 26.4262 56.6364 26.6914V42.1077C56.6364 42.3729 56.531 42.6272 56.3435 42.8148C56.156 43.0023 55.9016 43.1077 55.6364 43.1077Z" fill="#D82519"/>
<path d="M37.9289 56.3226H8.85645C8.59123 56.3226 8.33688 56.2173 8.14934 56.0297C7.9618 55.8422 7.85645 55.5878 7.85645 55.3226C7.85645 55.0574 7.9618 54.803 8.14934 54.6155C8.33688 54.428 8.59123 54.3226 8.85645 54.3226H37.9289C38.6437 54.321 39.3288 54.0362 39.8341 53.5306C40.3394 53.0251 40.6239 52.3399 40.6252 51.6251V45.6326C40.6245 44.9167 40.3399 44.2304 39.8337 43.7242C39.3274 43.218 38.6411 42.9333 37.9252 42.9326H8.85645C8.59123 42.9326 8.33688 42.8273 8.14934 42.6397C7.9618 42.4522 7.85645 42.1978 7.85645 41.9326C7.85645 41.6674 7.9618 41.413 8.14934 41.2255C8.33688 41.038 8.59123 40.9326 8.85645 40.9326H37.9289C39.1751 40.9339 40.3698 41.4295 41.2509 42.3107C42.132 43.1918 42.6276 44.3865 42.6289 45.6326V51.6251C42.627 52.8708 42.1311 54.0648 41.25 54.9454C40.3689 55.826 39.1746 56.3213 37.9289 56.3226Z" fill="#D82519"/>
<path d="M46.6688 52.5352H41.625C41.3598 52.5352 41.1054 52.4299 40.9179 52.2423C40.7304 52.0548 40.625 51.8004 40.625 51.5352C40.625 51.27 40.7304 51.0156 40.9179 50.8281C41.1054 50.6406 41.3598 50.5352 41.625 50.5352H45.665V46.7202H41.625C41.3598 46.7202 41.1054 46.6149 40.9179 46.4273C40.7304 46.2398 40.625 45.9854 40.625 45.7202C40.625 45.455 40.7304 45.2006 40.9179 45.0131C41.1054 44.8256 41.3598 44.7202 41.625 44.7202H46.665C46.9302 44.7202 47.1846 44.8256 47.3721 45.0131C47.5596 45.2006 47.665 45.455 47.665 45.7202V51.5352C47.665 51.7998 47.5602 52.0536 47.3734 52.241C47.1867 52.4284 46.9333 52.5342 46.6688 52.5352Z" fill="#D82519"/>
<path d="M8.85645 59.2299C8.59123 59.2299 8.33688 59.1245 8.14934 58.937C7.9618 58.7495 7.85645 58.4951 7.85645 58.2299V39.0249C7.85645 38.7597 7.9618 38.5053 8.14934 38.3178C8.33688 38.1303 8.59123 38.0249 8.85645 38.0249C9.12166 38.0249 9.37602 38.1303 9.56355 38.3178C9.75109 38.5053 9.85645 38.7597 9.85645 39.0249V58.2299C9.85645 58.4951 9.75109 58.7495 9.56355 58.937C9.37602 59.1245 9.12166 59.2299 8.85645 59.2299Z" fill="#D82519"/>
<path d="M8.85625 53.4164H1.5C1.23478 53.4164 0.98043 53.311 0.792893 53.1235C0.605357 52.9359 0.5 52.6816 0.5 52.4164C0.5 52.1512 0.605357 51.8968 0.792893 51.7093C0.98043 51.5217 1.23478 51.4164 1.5 51.4164H8.85625C9.12147 51.4164 9.37582 51.5217 9.56336 51.7093C9.75089 51.8968 9.85625 52.1512 9.85625 52.4164C9.85625 52.6816 9.75089 52.9359 9.56336 53.1235C9.37582 53.311 9.12147 53.4164 8.85625 53.4164ZM8.85625 45.8389H1.5C1.23478 45.8389 0.98043 45.7335 0.792893 45.546C0.605357 45.3584 0.5 45.1041 0.5 44.8389C0.5 44.5737 0.605357 44.3193 0.792893 44.1318C0.98043 43.9442 1.23478 43.8389 1.5 43.8389H8.85625C9.12147 43.8389 9.37582 43.9442 9.56336 44.1318C9.75089 44.3193 9.85625 44.5737 9.85625 44.8389C9.85625 45.1041 9.75089 45.3584 9.56336 45.546C9.37582 45.7335 9.12147 45.8389 8.85625 45.8389Z" fill="#D82519"/>
<path d="M1.5 57.9087C1.23478 57.9087 0.98043 57.8033 0.792893 57.6158C0.605357 57.4283 0.5 57.1739 0.5 56.9087V40.3462C0.5 40.081 0.605357 39.8266 0.792893 39.6391C0.98043 39.4516 1.23478 39.3462 1.5 39.3462C1.76522 39.3462 2.01957 39.4516 2.20711 39.6391C2.39464 39.8266 2.5 40.081 2.5 40.3462V56.9087C2.5 57.1739 2.39464 57.4283 2.20711 57.6158C2.01957 57.8033 1.76522 57.9087 1.5 57.9087Z" fill="#D82519"/>
<path d="M58.5002 49.625H46.6689C46.4037 49.625 46.1494 49.5196 45.9618 49.3321C45.7743 49.1446 45.6689 48.8902 45.6689 48.625C45.6689 48.3598 45.7743 48.1054 45.9618 47.9179C46.1494 47.7304 46.4037 47.625 46.6689 47.625H58.5002C58.7654 47.625 59.0198 47.7304 59.2073 47.9179C59.3948 48.1054 59.5002 48.3598 59.5002 48.625C59.5002 48.8902 59.3948 49.1446 59.2073 49.3321C59.0198 49.5196 58.7654 49.625 58.5002 49.625Z" fill="#D82519"/>
<path d="M16.7852 56.3227C16.5199 56.3227 16.2656 56.2173 16.078 56.0298C15.8905 55.8422 15.7852 55.5879 15.7852 55.3227V51.7114C15.7852 51.4462 15.8905 51.1919 16.078 51.0043C16.2656 50.8168 16.5199 50.7114 16.7852 50.7114C17.0504 50.7114 17.3047 50.8168 17.4923 51.0043C17.6798 51.1919 17.7852 51.4462 17.7852 51.7114V55.3227C17.7852 55.5879 17.6798 55.8422 17.4923 56.0298C17.3047 56.2173 17.0504 56.3227 16.7852 56.3227Z" fill="#D82519"/>
<path d="M22.4238 56.3227C22.1586 56.3227 21.9043 56.2173 21.7167 56.0298C21.5292 55.8422 21.4238 55.5879 21.4238 55.3227V51.7114C21.4238 51.4462 21.5292 51.1919 21.7167 51.0043C21.9043 50.8168 22.1586 50.7114 22.4238 50.7114C22.689 50.7114 22.9434 50.8168 23.1309 51.0043C23.3185 51.1919 23.4238 51.4462 23.4238 51.7114V55.3227C23.4238 55.5879 23.3185 55.8422 23.1309 56.0298C22.9434 56.2173 22.689 56.3227 22.4238 56.3227Z" fill="#D82519"/>
<path d="M28.0615 56.3227C27.7963 56.3227 27.542 56.2173 27.3544 56.0298C27.1669 55.8422 27.0615 55.5879 27.0615 55.3227V51.7114C27.0615 51.4462 27.1669 51.1919 27.3544 51.0043C27.542 50.8168 27.7963 50.7114 28.0615 50.7114C28.3267 50.7114 28.5811 50.8168 28.7686 51.0043C28.9562 51.1919 29.0615 51.4462 29.0615 51.7114V55.3227C29.0615 55.5879 28.9562 55.8422 28.7686 56.0298C28.5811 56.2173 28.3267 56.3227 28.0615 56.3227Z" fill="#D82519"/>
<path d="M33.7002 56.3227C33.435 56.3227 33.1806 56.2173 32.9931 56.0298C32.8056 55.8422 32.7002 55.5879 32.7002 55.3227V51.7114C32.7002 51.4462 32.8056 51.1919 32.9931 51.0043C33.1806 50.8168 33.435 50.7114 33.7002 50.7114C33.9654 50.7114 34.2198 50.8168 34.4073 51.0043C34.5948 51.1919 34.7002 51.4462 34.7002 51.7114V55.3227C34.7002 55.5879 34.5948 55.8422 34.4073 56.0298C34.2198 56.2173 33.9654 56.3227 33.7002 56.3227Z" fill="#D82519"/>
</svg>
