<svg width="64" height="64" viewBox="0 0 64 64" fill="none" xmlns="http://www.w3.org/2000/svg">
<g clip-path="url(#clip0_757_2477)">
<path d="M62.6827 12.3592L33.5712 0.312273C33.0735 0.104211 32.5394 -0.00292969 32 -0.00292969C31.4606 -0.00292969 30.9265 0.104211 30.4288 0.312273L1.31733 12.3592C0.927236 12.5207 0.59383 12.7943 0.359327 13.1454C0.124824 13.4965 -0.000229551 13.9093 3.16331e-07 14.3315V17.0664C3.16331e-07 17.6322 0.224762 18.1748 0.624839 18.5749C1.02492 18.975 1.56754 19.1997 2.13333 19.1997V21.3331C2.13446 21.7059 2.2336 22.0718 2.42082 22.3942C2.60805 22.7166 2.87676 22.9841 3.2 23.1699V53.5293C2.57823 53.7492 2.03956 54.1557 1.65769 54.6934C1.27582 55.2311 1.0694 55.8736 1.06667 56.5331V57.8963C0.743423 58.082 0.474712 58.3495 0.287491 58.6719C0.10027 58.9943 0.00112452 59.3603 3.16331e-07 59.7331V61.8664C3.16331e-07 62.4322 0.224762 62.9748 0.624839 63.3749C1.02492 63.775 1.56754 63.9997 2.13333 63.9997H61.8667C62.4325 63.9997 62.9751 63.775 63.3752 63.3749C63.7752 62.9748 64 62.4322 64 61.8664V59.7331C63.9989 59.3603 63.8997 58.9943 63.7125 58.6719C63.5253 58.3495 63.2566 58.082 62.9333 57.8963V56.5331C62.9306 55.8736 62.7242 55.2311 62.3423 54.6934C61.9604 54.1557 61.4218 53.7492 60.8 53.5293V23.1699C61.1232 22.9841 61.392 22.7166 61.5792 22.3942C61.7664 22.0718 61.8655 21.7059 61.8667 21.3331V19.1997C62.4325 19.1997 62.9751 18.975 63.3752 18.5749C63.7752 18.1748 64 17.6322 64 17.0664V14.3315C64.0002 13.9093 63.8752 13.4965 63.6407 13.1454C63.4062 12.7943 63.0728 12.5207 62.6827 12.3592ZM10.6667 19.1997V21.3331H4.26667V19.1997H10.6667ZM58.6667 53.3331H54.4V23.4664H58.6667V53.3331ZM52.2667 23.1699V53.3331H11.7333V23.1699C12.0566 22.9841 12.3253 22.7166 12.5125 22.3942C12.6997 22.0718 12.7989 21.7059 12.8 21.3331V19.1997H51.2V21.3331C51.2011 21.7059 51.3003 22.0718 51.4875 22.3942C51.6747 22.7166 51.9434 22.9841 52.2667 23.1699ZM9.6 53.3331H5.33333V23.4664H9.6V53.3331ZM3.2 56.5331C3.2 56.2502 3.31238 55.9789 3.51242 55.7788C3.71246 55.5788 3.98377 55.4664 4.26667 55.4664H59.7333C60.0162 55.4664 60.2875 55.5788 60.4876 55.7788C60.6876 55.9789 60.8 56.2502 60.8 56.5331V57.5997H3.2V56.5331ZM2.13333 61.8664V59.7331H61.8667V61.8664H2.13333ZM59.7333 21.3331H53.3333V19.1997H59.7333V21.3331ZM2.13333 17.0664V14.3304L31.2448 2.28347C31.4841 2.18366 31.7408 2.13227 32 2.13227C32.2593 2.13227 32.5159 2.18366 32.7552 2.28347L61.8667 14.3315V17.0664H2.13333Z" fill="#D82519"/>
<path d="M33.7884 22.4968C33.638 22.1483 33.388 21.8519 33.0698 21.6448C32.7515 21.4378 32.3793 21.3293 31.9996 21.3331C31.619 21.3335 31.2467 21.4447 30.9281 21.653C30.6095 21.8613 30.3584 22.1579 30.2055 22.5064C29.2137 24.5182 28.0389 26.4346 26.6962 28.2312C23.9228 32.2152 21.0631 36.3379 21.35 41.2168C21.5064 43.9952 22.7424 46.6024 24.7943 48.4823C26.8461 50.3621 29.5513 51.3656 32.3327 51.2788C35.1141 51.1919 37.7515 50.0216 39.682 48.0174C41.6126 46.0132 42.6835 43.3339 42.6663 40.5512C42.6663 35.9486 39.9388 32.0243 37.301 28.2291C35.9563 26.4305 34.7804 24.5116 33.7884 22.4968ZM30.9084 48.9992C28.9493 48.7376 27.1406 47.8075 25.788 46.3661C24.4355 44.9248 23.6222 43.0607 23.4855 41.0888C23.2423 36.9438 25.8919 33.1326 28.454 29.4462C29.792 27.6376 30.9779 25.7214 31.9996 23.7171C33.0227 25.7216 34.2097 27.6382 35.5484 29.4472C38.0018 32.9672 40.533 36.6174 40.533 40.5512C40.5308 41.763 40.2707 42.9604 39.7698 44.0638C39.2688 45.1672 38.5387 46.1513 37.6278 46.9505C36.717 47.7497 35.6464 48.3458 34.4872 48.6991C33.3281 49.0523 32.107 49.1546 30.9052 48.9992H30.9084Z" fill="#D82519"/>
<path d="M35.1996 35.1997C35.1996 34.6339 34.9749 34.0913 34.5748 33.6912C34.1747 33.2912 33.6321 33.0664 33.0663 33.0664H30.9329C30.3671 33.0664 29.8245 33.2912 29.4244 33.6912C29.0244 34.0913 28.7996 34.6339 28.7996 35.1997V36.2664H27.7329C27.1671 36.2664 26.6245 36.4912 26.2244 36.8912C25.8244 37.2913 25.5996 37.8339 25.5996 38.3997V40.5331C25.5996 41.0989 25.8244 41.6415 26.2244 42.0416C26.6245 42.4416 27.1671 42.6664 27.7329 42.6664H28.7996V43.7331C28.7996 44.2989 29.0244 44.8415 29.4244 45.2416C29.8245 45.6416 30.3671 45.8664 30.9329 45.8664H33.0663C33.6321 45.8664 34.1747 45.6416 34.5748 45.2416C34.9749 44.8415 35.1996 44.2989 35.1996 43.7331V42.6664H36.2663C36.8321 42.6664 37.3747 42.4416 37.7748 42.0416C38.1749 41.6415 38.3996 41.0989 38.3996 40.5331V38.3997C38.3996 37.8339 38.1749 37.2913 37.7748 36.8912C37.3747 36.4912 36.8321 36.2664 36.2663 36.2664H35.1996V35.1997ZM36.2663 38.3997V40.5331H34.1329C33.85 40.5331 33.5787 40.6455 33.3787 40.8455C33.1787 41.0455 33.0663 41.3168 33.0663 41.5997V43.7331H30.9329V41.5997C30.9329 41.3168 30.8206 41.0455 30.6205 40.8455C30.4205 40.6455 30.1492 40.5331 29.8663 40.5331H27.7329V38.3997H29.8663C30.1492 38.3997 30.4205 38.2874 30.6205 38.0873C30.8206 37.8873 30.9329 37.616 30.9329 37.3331V35.1997H33.0663V37.3331C33.0663 37.616 33.1787 37.8873 33.3787 38.0873C33.5787 38.2874 33.85 38.3997 34.1329 38.3997H36.2663Z" fill="#D82519"/>
</g>
<defs>
<clipPath id="clip0_757_2477">
<rect width="64" height="64" fill="white"/>
</clipPath>
</defs>
</svg>
