<svg width="64" height="63" viewBox="0 0 64 63" fill="none" xmlns="http://www.w3.org/2000/svg">
<path d="M62.2416 32.961H43.6717C43.2042 32.961 42.7566 33.0562 42.3331 33.2266C43.2882 31.5457 43.9744 29.7525 44.3706 27.8944C44.3774 27.8634 44.3774 27.8326 44.3809 27.8019L51.8616 18.2726C51.7401 20.2731 52.7541 22.2214 54.5821 23.2457C55.4115 23.7104 56.3117 23.9337 57.201 23.9337C58.7896 23.9337 60.3431 23.2194 61.3916 21.8842C63.0267 19.8015 62.9029 16.883 61.0972 14.9462C59.4851 13.2162 56.9386 12.7734 54.8529 13.7905L53.0718 12.3919L55.2457 9.62311C55.4995 9.76886 55.803 9.80474 56.0834 9.70586C57.626 9.15774 59.1945 9.34011 60.8167 10.2559C60.9684 10.3409 61.1392 10.3857 61.3122 10.3857C61.3396 10.3857 61.367 10.3852 61.3947 10.3816C61.9534 10.3367 62.4722 10.0576 62.8195 9.61599C63.1655 9.17386 63.3127 8.60349 63.224 8.05011C63.1684 7.70149 62.9342 7.40799 62.6068 7.27574C59.2308 5.90899 56.3211 3.62561 54.1921 0.669988C53.9855 0.382863 53.6447 0.221738 53.2919 0.254738C52.7332 0.299613 52.2146 0.578988 51.8681 1.01986C51.5217 1.46049 51.3737 2.03061 51.462 2.58574C51.4936 2.78449 51.5844 2.96874 51.7222 3.11649C53.0062 4.48536 53.5486 5.94711 53.3798 7.58424C53.3492 7.88111 53.4572 8.16699 53.6595 8.37911L51.4857 11.1467L49.704 9.74799C50.1994 7.47849 49.1707 5.11811 47.099 3.95724C44.789 2.66299 41.9248 3.23624 40.2898 5.31911C38.6547 7.40161 38.7785 10.3201 40.5841 12.2574C41.6248 13.3731 43.0521 13.9551 44.4939 13.9551C45.0231 13.9551 45.5529 13.8704 46.0677 13.7102L43.5339 16.9385C42.6852 14.8689 41.3856 13.4649 39.6413 12.7781C37.0528 11.7599 33.6555 12.4429 30.0664 14.7017C27.935 15.5027 25.5022 15.5017 23.3709 14.7017C19.8225 12.4642 16.7901 11.7404 14.3564 12.5526C12.2409 13.257 10.6112 15.0907 9.51298 18.0016C9.50298 18.0285 9.49398 18.0551 9.48585 18.0826C7.97785 23.4161 8.52035 28.6141 11.0494 33.1239C10.4342 32.9637 9.84485 32.961 9.4386 32.961H1.75898C1.2021 32.961 0.750977 33.4119 0.750977 33.969V56.9521C0.750977 60.1481 3.35185 62.7497 6.5486 62.7497H57.4522C60.649 62.7497 63.2496 60.1481 63.2496 56.9521V33.969C63.2495 33.4119 62.7984 32.961 62.2416 32.961ZM58.4626 7.40699C57.6207 7.33224 56.7798 7.40874 55.9495 7.63524L55.4229 7.22236C55.4476 6.36011 55.3227 5.52724 55.05 4.72724C56.0931 5.73536 57.2369 6.63261 58.4626 7.40699ZM39.871 35.322C41.0715 42.604 38.9626 48.049 33.4301 51.9611V42.5402C33.4301 41.84 33.3224 41.1562 33.1124 40.4997C33.1881 40.4145 33.26 40.3254 33.3248 40.23L34.4882 39.0661L36.583 37.6562C36.6703 37.5969 36.7481 37.5251 36.8132 37.4419L39.9669 33.4252C39.7807 33.9319 39.7301 34.468 39.871 35.322ZM35.2147 30.801L35.8713 31.3159C36.0558 31.4604 36.2753 31.5315 36.493 31.5315C36.7918 31.5315 37.088 31.3991 37.2867 31.146C37.6305 30.7077 37.5542 30.074 37.1162 29.7297L36.4599 29.2149L36.8535 28.7134L37.5102 29.229C37.6946 29.374 37.9141 29.4436 38.1317 29.4436C38.4307 29.4436 38.7269 29.3112 38.9255 29.0584C39.2691 28.6201 39.1929 27.9861 38.7547 27.6429L38.0984 27.1272L38.4924 26.6255L39.1492 27.1414C39.3336 27.2859 39.553 27.3557 39.7707 27.3557C40.0696 27.3557 40.3657 27.2234 40.5644 26.9705C40.9082 26.5322 40.8319 25.8987 40.3937 25.555L39.7375 25.0394L40.1311 24.5379L40.788 25.0535C40.9724 25.198 41.1917 25.2681 41.4094 25.2681C41.7084 25.2681 42.0043 25.1355 42.2032 24.8826C42.5467 24.4444 42.4706 23.8109 42.0326 23.4676L41.3766 22.9525L41.7704 22.45L42.4263 22.9656C42.611 23.1106 42.8305 23.181 43.048 23.181C43.3471 23.181 43.6429 23.0486 43.8415 22.7957C44.1857 22.3582 44.1092 21.7242 43.6713 21.3807L43.0151 20.8649L43.4091 20.3634L44.1736 20.9632C44.3582 21.1077 44.5776 21.1786 44.7952 21.1786C45.0942 21.1786 45.3901 21.0462 45.589 20.7929C45.9328 20.3551 45.8566 19.7216 45.4186 19.3779L44.6539 18.777L45.0479 18.2755L45.7046 18.7904C45.889 18.9346 46.1084 19.0057 46.3262 19.0057C46.6251 19.0057 46.9212 18.8734 47.12 18.6202C47.4637 18.1822 47.3874 17.5485 46.9491 17.204L46.2932 16.6891L46.6869 16.1876L47.3435 16.7027C47.5277 16.8472 47.7472 16.9179 47.9649 16.9179C48.2639 16.9179 48.56 16.7855 48.7585 16.5324C49.1024 16.0944 49.026 15.4611 48.5878 15.1166L47.9321 14.6012L48.0891 14.401L50.7176 16.4655L35.8502 35.4042L33.2212 33.3412L33.5766 32.8881L34.2337 33.404C34.418 33.5482 34.6373 33.6194 34.8551 33.6194C35.1541 33.6194 35.4502 33.4872 35.6488 33.2339C35.9927 32.7956 35.9162 32.1621 35.4782 31.8176L34.8216 31.303L35.2147 30.801ZM54.081 15.7469L53.6937 16.2389L47.6005 11.4566L47.9876 10.9632L54.081 15.7469ZM31.7611 36.4969C31.795 36.441 31.8236 36.3816 31.846 36.3214L32.273 35.1595L34.3077 36.7571L33.2816 37.4482C33.2272 37.4839 33.1771 37.5261 33.1312 37.571L31.8249 38.8786C31.7687 38.9352 31.7195 38.9977 31.6782 39.0651C31.5474 39.2792 31.3055 39.3971 31.0527 39.3747C30.8036 39.3481 30.5879 39.179 30.5035 38.9429C30.4194 38.7077 30.4789 38.44 30.6556 38.2622C30.7115 38.2061 30.7604 38.1431 30.8014 38.0755L31.7611 36.4969ZM59.6226 16.3201C60.7461 17.5257 60.8234 19.3419 59.8057 20.639C58.7874 21.9364 57.0052 22.2914 55.5673 21.4869C54.4693 20.8719 53.8495 19.7207 53.8747 18.5217C54.2627 18.502 54.62 18.3245 54.8614 18.0171L56.085 16.4582C56.3325 16.1429 56.4102 15.751 56.341 15.3835C57.5005 15.0769 58.7701 15.4055 59.6226 16.3201ZM42.0587 10.8821C40.9351 9.67611 40.858 7.86011 41.8756 6.56374C42.8937 5.26761 44.6766 4.91211 46.1137 5.71611C47.2136 6.33236 47.8337 7.49199 47.8044 8.69586C47.4275 8.71736 47.0586 8.88261 46.8202 9.18611L45.5956 10.746C45.3485 11.0616 45.2713 11.4532 45.3406 11.8197C44.1816 12.127 42.9125 11.7976 42.0587 10.8821ZM11.4144 18.6736C12.2867 16.3816 13.4906 14.9654 14.994 14.4649C16.8431 13.8476 19.3271 14.5181 22.376 16.4582C22.4319 16.4934 22.4912 16.5236 22.5531 16.5476C25.2036 17.574 28.2337 17.574 30.8844 16.5476C30.9462 16.5237 31.0054 16.4934 31.0612 16.4582C34.0795 14.5389 36.937 13.8801 38.903 14.6545C40.3826 15.236 41.4394 16.6427 42.056 18.821L31.0126 32.8889C30.9475 32.9719 30.8959 33.0641 30.8594 33.1625L29.9877 35.5325L29.4536 36.4114C28.5972 36.029 27.6669 35.8286 26.7186 35.8286C23.0179 35.8286 20.0074 38.8399 20.0074 42.5402V51.9611C14.474 48.047 12.3665 42.6017 13.5664 35.322C13.7941 33.9421 13.5237 33.3896 12.9851 32.455L12.8631 32.2419C10.5587 28.1965 10.0581 23.5054 11.4144 18.6736ZM61.2337 56.9521C61.2337 59.0366 59.5373 60.7336 57.4521 60.7336H6.5486C4.46348 60.7336 2.7671 59.0366 2.7671 56.9521V34.9766H9.4386C10.7072 34.9766 11.1421 35.1685 11.4556 35.8802C10.4467 43.534 12.98 49.5377 19.019 53.7301C19.3449 53.9537 19.7222 54.0675 20.1019 54.0675C20.4096 54.0675 20.719 53.9927 21.0026 53.8416C21.6364 53.5064 22.0274 52.8524 22.0234 52.1426V42.5404C22.0234 39.9517 24.1297 37.845 26.7187 37.845C27.336 37.845 27.9399 37.972 28.5031 38.2036C28.4107 38.6695 28.4405 39.1594 28.605 39.6211C28.6579 39.7686 28.727 39.908 28.8039 40.0412L23.4852 46.8164C23.1416 47.2546 23.2179 47.8879 23.6556 48.2316C23.8404 48.3771 24.0596 48.4467 24.2774 48.4467C24.5765 48.4467 24.8722 48.3149 25.0712 48.0615L30.3899 41.2864C30.5377 41.3284 30.6887 41.3635 30.8447 41.3796C30.9357 41.3889 31.0261 41.394 31.1167 41.394C31.1665 41.394 31.2156 41.3866 31.2652 41.3847C31.3605 41.76 31.4142 42.1452 31.4142 42.5402V52.1376C31.4101 52.8535 31.8011 53.5062 32.4349 53.8415C32.7182 53.9926 33.0266 54.0664 33.3342 54.0664C33.7148 54.0664 34.0942 53.9526 34.4229 53.727C40.4086 49.5732 42.951 43.6312 42.0075 36.0671C42.4752 35.3469 43.0342 34.9765 43.6718 34.9765H61.2338L61.2337 56.9521ZM20.8745 18.0784C21.0752 17.5589 21.6586 17.3005 22.1784 17.5022C25.1069 18.6375 28.3314 18.6375 31.2587 17.5022C31.7767 17.3006 32.3617 17.5589 32.5625 18.0784C32.7636 18.5974 32.5057 19.1809 31.9869 19.3819C30.2885 20.0404 28.5036 20.3691 26.7186 20.3691C24.9336 20.3691 23.149 20.0402 21.4504 19.3819C20.9311 19.1809 20.6732 18.5974 20.8745 18.0784Z" fill="#D82519"/>
</svg>
