<svg width="64" height="65" viewBox="0 0 64 65" fill="none" xmlns="http://www.w3.org/2000/svg">
<g clip-path="url(#clip0_757_2315)">
<path d="M14.6025 29.75H13.79C11.7189 29.75 10.04 31.4289 10.04 33.5V33.8257C10.04 37.4472 12.9349 40.3926 16.5369 40.4739" stroke="#D82519" stroke-width="1.875" stroke-miterlimit="10" stroke-linecap="round" stroke-linejoin="round"/>
<path d="M46.623 29.75H47.4148C49.4859 29.75 51.1648 31.4289 51.1648 33.5V33.8257C51.1648 34.1417 51.1428 34.4527 51.1 34.757" stroke="#D82519" stroke-width="1.875" stroke-miterlimit="10" stroke-linecap="round" stroke-linejoin="round"/>
<path d="M24.6909 50.4375V54.331C24.6909 56.0493 23.4437 57.5134 21.7473 57.7865L13.1991 59.1629C10.6853 59.5676 8.55144 61.2264 7.53906 63.5625" stroke="#D82519" stroke-width="1.875" stroke-miterlimit="10" stroke-linecap="round" stroke-linejoin="round"/>
<path d="M45.3389 58.7319L48.0142 59.1627C50.528 59.5674 52.6619 61.2262 53.6742 63.5623" stroke="#D82519" stroke-width="1.875" stroke-miterlimit="10" stroke-linecap="round" stroke-linejoin="round"/>
<path d="M28.2275 39.1875C29.5883 39.6938 30.949 39.7276 32.3099 39.2891" stroke="#D82519" stroke-width="1.875" stroke-miterlimit="10" stroke-linecap="round" stroke-linejoin="round"/>
<path d="M22.8047 16.872C25.2537 15.4781 27.9849 14.6875 30.6069 14.6875C37.5444 14.6875 45.2826 20.1851 46.4757 27.8209C46.6209 28.7506 46.6342 29.6959 46.5502 30.6331C46.5041 31.1488 46.4417 31.7618 46.3812 32.0951L46.2572 32.779" stroke="#D82519" stroke-width="1.875" stroke-miterlimit="10" stroke-linecap="round" stroke-linejoin="round"/>
<path d="M32.4725 52.3893C31.8225 52.5998 31.1953 52.7182 30.607 52.7182C27.7203 52.7182 23.9011 49.8692 21.0148 47.2672C18.3537 44.8681 16.5661 41.6527 15.9267 38.1273L14.8327 32.0953C14.7711 31.7557 14.7106 31.1254 14.667 30.6037C14.5895 29.6758 14.6052 28.7406 14.7523 27.8212C15.2721 24.5716 16.9781 21.6993 19.3035 19.4761" stroke="#D82519" stroke-width="1.875" stroke-miterlimit="10" stroke-linecap="round" stroke-linejoin="round"/>
<path d="M41.349 27.8123C39.0755 27.104 36.4034 26.5624 33.8525 27.8123" stroke="#D82519" stroke-width="1.875" stroke-miterlimit="10" stroke-linecap="round" stroke-linejoin="round"/>
<path d="M19.8652 27.8123C22.1387 27.104 24.8109 26.5624 27.3617 27.8123" stroke="#D82519" stroke-width="1.875" stroke-miterlimit="10" stroke-linecap="round" stroke-linejoin="round"/>
<path d="M30.6019 44.0625C29.4194 44.9375 27.7194 44.869 26.458 44.2441" stroke="#D82519" stroke-width="1.875" stroke-miterlimit="10" stroke-linecap="round" stroke-linejoin="round"/>
<path d="M20.918 33.1035C22.6257 33.7493 24.3335 33.7493 26.0412 33.1035" stroke="#D82519" stroke-width="1.875" stroke-miterlimit="10" stroke-linecap="round" stroke-linejoin="round"/>
<path d="M38.9625 33.4768C37.6996 33.7055 36.4367 33.5811 35.1738 33.1035" stroke="#D82519" stroke-width="1.875" stroke-miterlimit="10" stroke-linecap="round" stroke-linejoin="round"/>
<path d="M54.3372 53.5786L61.1205 60.3619C61.8527 61.0941 61.8527 62.2812 61.1205 63.0135C60.7544 63.3796 60.2745 63.5627 59.7947 63.5627C59.315 63.5627 58.835 63.3797 58.469 63.0135L51.6777 56.2222" stroke="#D82519" stroke-width="1.875" stroke-miterlimit="10" stroke-linecap="round" stroke-linejoin="round"/>
<path d="M35.3963 55.774C32.508 53.3664 30.6699 49.7416 30.6699 45.6875C30.6699 38.4387 36.5462 32.5625 43.7949 32.5625C51.0437 32.5625 56.9199 38.4387 56.9199 45.6875C56.9199 52.9363 51.0437 58.8125 43.7949 58.8125C42.1464 58.8125 40.5689 58.5086 39.1153 57.9538" stroke="#D82519" stroke-width="1.875" stroke-miterlimit="10" stroke-linecap="round" stroke-linejoin="round"/>
<path d="M43.7949 55.0625C48.9726 55.0625 53.1699 50.8652 53.1699 45.6875C53.1699 40.5098 48.9726 36.3125 43.7949 36.3125C38.6173 36.3125 34.4199 40.5098 34.4199 45.6875C34.4199 50.8652 38.6173 55.0625 43.7949 55.0625Z" stroke="#D82519" stroke-width="1.875" stroke-miterlimit="10" stroke-linecap="round" stroke-linejoin="round"/>
<path d="M36.9277 52.0699L40.2215 49.5822C40.5632 49.3241 40.761 48.9181 40.7534 48.4899L40.7039 45.6875" stroke="#D82519" stroke-width="1.875" stroke-miterlimit="10" stroke-linecap="round" stroke-linejoin="round"/>
<path d="M46.1045 45.4611L47.8619 43.3316C48.1702 42.958 48.6562 42.78 49.133 42.8661L52.9252 43.5513" stroke="#D82519" stroke-width="1.875" stroke-miterlimit="10" stroke-linecap="round" stroke-linejoin="round"/>
<path d="M46.6973 49.8149L49.5223 53.1093" stroke="#D82519" stroke-width="1.875" stroke-miterlimit="10" stroke-linecap="round" stroke-linejoin="round"/>
<path d="M43.0898 36.3389L43.5932 42.6742" stroke="#D82519" stroke-width="1.875" stroke-miterlimit="10" stroke-linecap="round" stroke-linejoin="round"/>
<path d="M40.2461 41.654L43.2925 39.875" stroke="#D82519" stroke-width="1.875" stroke-miterlimit="10" stroke-linecap="round" stroke-linejoin="round"/>
<path d="M54.6191 59.1372L57.2441 56.5122" stroke="#D82519" stroke-width="1.875" stroke-miterlimit="10" stroke-linecap="round" stroke-linejoin="round"/>
<path d="M9.58301 46.836C10.205 47.0604 10.8664 47.2088 11.5554 47.2704C14.1154 47.4993 16.6613 46.82 18.5263 44.7168" stroke="#D82519" stroke-width="1.875" stroke-miterlimit="10" stroke-linecap="round" stroke-linejoin="round"/>
<path d="M58.8408 27.4386C58.6292 25.3165 57.6487 23.4211 56.1821 22.0343C55.6031 21.4868 55.3547 20.6678 55.55 19.8953C55.6981 19.3094 55.7771 18.6961 55.7771 18.0643C55.7771 15.4478 54.433 13.146 52.398 11.8096C51.9115 11.4901 51.5781 10.9915 51.4497 10.4239C50.6958 7.09075 47.7167 4.60187 44.1556 4.60187C44.0992 4.60187 44.043 4.6025 43.9868 4.60375C43.369 4.6175 42.7796 4.3625 42.3457 3.9225C40.8333 2.38887 38.7325 1.4375 36.4085 1.4375C34.717 1.4375 33.144 1.94175 31.8297 2.80737C31.0912 3.29375 30.1227 3.29375 29.3842 2.80737C28.0698 1.94175 26.4968 1.4375 24.8053 1.4375C22.4813 1.4375 20.3805 2.38888 18.8681 3.92237C18.4342 4.36237 17.8447 4.61737 17.227 4.60362C17.1708 4.60237 17.1146 4.60175 17.0582 4.60175C13.4971 4.60175 10.5181 7.09075 9.76408 10.4237C9.6357 10.9914 9.30233 11.49 8.81583 11.8095C6.78083 13.1459 5.4367 15.4476 5.4367 18.0641C5.4367 18.696 5.5157 19.3092 5.66383 19.8951C5.85908 20.6677 5.6107 21.4866 5.0317 22.0341C3.3682 23.6071 2.33008 25.8345 2.33008 28.3048C2.33008 30.6613 3.2752 32.7962 4.80658 34.3534C5.45245 35.0101 5.6147 35.9917 5.24745 36.8365C4.7997 37.8667 4.57695 39.0172 4.64258 40.2266C4.7252 41.7504 5.25308 43.1362 6.10095 44.2697" stroke="#D82519" stroke-width="1.875" stroke-miterlimit="10" stroke-linecap="round" stroke-linejoin="round"/>
<path d="M53.5449 36.9377C56.1453 35.5981 57.5889 33.6883 58.3009 31.7212" stroke="#D82519" stroke-width="1.875" stroke-miterlimit="10" stroke-linecap="round" stroke-linejoin="round"/>
<path d="M30.6074 14.5939V3.18506" stroke="#D82519" stroke-width="1.875" stroke-miterlimit="10" stroke-linecap="round" stroke-linejoin="round"/>
<path d="M10.8337 31.0623C8.98199 22.2663 12.8911 13.4158 20.834 9.52063C23.7032 8.1135 27.133 8.35238 29.743 10.1965C30.0582 10.4193 30.3576 10.5623 30.6067 10.5623C30.8267 10.5623 31.0871 10.4446 31.363 10.2564C34.0289 8.43701 37.4419 8.08938 40.3426 9.50463C48.3104 13.3919 52.2345 22.2526 50.3799 31.0623" stroke="#D82519" stroke-width="1.875" stroke-miterlimit="10" stroke-linecap="round" stroke-linejoin="round"/>
</g>
<defs>
<clipPath id="clip0_757_2315">
<rect width="64" height="64" fill="white" transform="translate(0 0.5)"/>
</clipPath>
</defs>
</svg>
