<svg width="32" height="32" viewBox="0 0 32 32" fill="none" xmlns="http://www.w3.org/2000/svg">
<g clip-path="url(#clip0_757_2682)">
<path fill-rule="evenodd" clip-rule="evenodd" d="M24.6096 24.3184C24.4166 24.3184 24.2602 24.162 24.2602 23.9691V14.2024C24.2602 14.0095 24.4166 13.8531 24.6096 13.8531C25.386 13.853 26.0177 13.2214 26.0177 12.4449V2.10695C26.0177 1.33037 25.386 0.698698 24.6096 0.698698H7.39C6.61357 0.698698 5.9819 1.33037 5.9819 2.10695L5.98197 12.4448C5.98197 13.2214 6.61357 13.8531 7.39 13.8531C7.58296 13.853 7.73946 14.0096 7.73946 14.2024V23.9691C7.73946 24.1619 7.58296 24.3185 7.39 24.3185C7.19711 24.3184 7.04069 24.162 7.04069 23.9691V14.5234C6.04465 14.356 5.2832 13.4878 5.2832 12.4449V2.10695C5.2832 0.944663 6.22831 0 7.39 0H24.6096C25.7713 0 26.7164 0.944663 26.7164 2.10695V12.4448C26.7164 13.4877 25.9549 14.356 24.9589 14.5234V23.9691C24.9589 24.1619 24.8025 24.3185 24.6096 24.3184ZM7.39 29.3429C7.19711 29.3429 7.04069 29.1865 7.04069 28.9936V25.1917C7.04069 24.9989 7.19711 24.8424 7.39 24.8424C7.58296 24.8423 7.73946 24.9989 7.73946 25.1917V28.9936C7.73946 29.1865 7.58296 29.343 7.39 29.3429ZM24.6096 29.3429C24.4166 29.3429 24.2602 29.1865 24.2602 28.9936V25.1917C24.2602 24.9989 24.4166 24.8424 24.6096 24.8424C24.8025 24.8423 24.9589 24.9989 24.9589 25.1917V28.9936C24.9589 29.1865 24.8025 29.343 24.6096 29.3429Z" fill="black"/>
<path fill-rule="evenodd" clip-rule="evenodd" d="M5.72875 29.3432C5.61345 29.3432 5.51608 29.4407 5.51608 29.5558V31.0891C5.51608 31.2041 5.61345 31.3017 5.72875 31.3017L26.271 31.3016C26.3862 31.3016 26.4836 31.2041 26.4836 31.0891L26.4837 29.5557C26.4837 29.4407 26.3862 29.3432 26.2709 29.3432L5.72875 29.3432ZM26.271 32.0003H5.72875C5.22619 32.0003 4.81738 31.5913 4.81738 31.0891L4.81746 29.5557C4.81746 29.0528 5.22619 28.6446 5.72875 28.6446L26.271 28.6445C26.7735 28.6445 27.1823 29.0528 27.1823 29.5558V31.0891C27.1823 31.5912 26.7735 32.0004 26.271 32.0003Z" fill="black"/>
<path fill-rule="evenodd" clip-rule="evenodd" d="M9.15297 2.8735C8.6693 2.8735 8.27577 3.26652 8.27577 3.75047L8.27585 10.9044C8.27585 11.3877 8.6693 11.7814 9.15289 11.7814H22.8476C23.3313 11.7814 23.7248 11.3877 23.7248 10.9044V3.75047C23.7248 3.26652 23.3313 2.8735 22.8476 2.8735H9.15297ZM22.8476 12.48H9.15297C8.28404 12.48 7.57715 11.7734 7.57715 10.9044V3.75047C7.57715 2.8814 8.28404 2.17488 9.15289 2.17488L22.8476 2.1748C23.7164 2.1748 24.4233 2.88148 24.4233 3.75047V10.9044C24.4233 11.7734 23.7164 12.48 22.8476 12.48Z" fill="black"/>
<path fill-rule="evenodd" clip-rule="evenodd" d="M15.9997 12.48C15.8068 12.48 15.6504 12.3235 15.6504 12.1306V2.52404C15.6504 2.33115 15.8067 2.1748 15.9997 2.1748C16.1926 2.17473 16.3489 2.33123 16.3489 2.52412L16.349 12.1306C16.349 12.3235 16.1926 12.48 15.9997 12.48Z" fill="black"/>
<path fill-rule="evenodd" clip-rule="evenodd" d="M10.0959 4.31679C9.99444 4.31679 9.90873 4.40271 9.90873 4.50392V5.73087C9.90873 5.83207 9.99444 5.918 10.0959 5.918L13.8299 5.91792C13.9313 5.91792 14.0171 5.83207 14.0171 5.73094V4.50392C14.0171 4.40271 13.9313 4.31686 13.8299 4.31686L10.0959 4.31679ZM13.8299 6.61655H10.0959C9.6074 6.61655 9.20996 6.21925 9.20996 5.73094L9.21003 4.50392C9.21003 4.01553 9.6074 3.61824 10.0959 3.61824L13.8299 3.61816C14.3184 3.61816 14.7157 4.01561 14.7157 4.50392V5.73087C14.7157 6.21925 14.3183 6.61662 13.8299 6.61655Z" fill="black"/>
<path fill-rule="evenodd" clip-rule="evenodd" d="M14.0094 8.07753H9.91767C9.72471 8.07753 9.56836 7.92111 9.56836 7.72822C9.56836 7.53459 9.72471 7.37891 9.91767 7.37891H14.0094C14.2024 7.37891 14.3588 7.53466 14.3588 7.72822C14.3588 7.92103 14.2024 8.07753 14.0094 8.07753Z" fill="black"/>
<path fill-rule="evenodd" clip-rule="evenodd" d="M14.0094 9.55702H9.91767C9.72471 9.55702 9.56836 9.4006 9.56836 9.20697C9.56836 9.01408 9.72471 8.8584 9.91767 8.8584H14.0094C14.2024 8.8584 14.3588 9.01416 14.3588 9.20697C14.3588 9.40053 14.2024 9.5571 14.0094 9.55702Z" fill="black"/>
<path fill-rule="evenodd" clip-rule="evenodd" d="M14.0094 11.0355H9.91767C9.72471 11.0355 9.56836 10.8791 9.56836 10.6862C9.56836 10.4933 9.72471 10.3369 9.91767 10.3369H14.0094C14.2024 10.3369 14.3588 10.4934 14.3588 10.6862C14.3588 10.879 14.2024 11.0355 14.0094 11.0355Z" fill="black"/>
<path fill-rule="evenodd" clip-rule="evenodd" d="M18.1701 4.31679C18.0687 4.31679 17.9828 4.40271 17.9828 4.50392L17.9829 5.73087C17.9829 5.83207 18.0687 5.918 18.1701 5.918L21.9041 5.91792C22.0056 5.91792 22.0912 5.83207 22.0912 5.73094L22.0913 4.50392C22.0913 4.40271 22.0055 4.31686 21.9041 4.31686L18.1701 4.31679ZM21.9041 6.61655H18.1701C17.6816 6.61655 17.2842 6.21925 17.2842 5.73094V4.50392C17.2842 4.01553 17.6816 3.61824 18.1701 3.61824L21.9041 3.61816C22.3925 3.61816 22.79 4.01561 22.79 4.50392V5.73087C22.79 6.21925 22.3925 6.61662 21.9041 6.61655Z" fill="black"/>
<path fill-rule="evenodd" clip-rule="evenodd" d="M22.0826 8.07753H17.9908C17.798 8.07753 17.6416 7.92111 17.6416 7.72822C17.6416 7.53459 17.798 7.37891 17.9908 7.37891H22.0826C22.2755 7.37891 22.4319 7.53466 22.4319 7.72822C22.4319 7.92103 22.2755 8.07753 22.0826 8.07753Z" fill="black"/>
<path fill-rule="evenodd" clip-rule="evenodd" d="M22.0826 9.55702H17.9908C17.798 9.55702 17.6416 9.4006 17.6416 9.20697C17.6416 9.01408 17.798 8.8584 17.9908 8.8584H22.0826C22.2755 8.8584 22.4319 9.01416 22.4319 9.20697C22.4319 9.40053 22.2755 9.5571 22.0826 9.55702Z" fill="black"/>
<path fill-rule="evenodd" clip-rule="evenodd" d="M22.0826 11.0355H17.9908C17.798 11.0355 17.6416 10.8791 17.6416 10.6862C17.6416 10.4933 17.798 10.3369 17.9908 10.3369H22.0826C22.2755 10.3369 22.4319 10.4934 22.4319 10.6862C22.4319 10.879 22.2755 11.0355 22.0826 11.0355Z" fill="black"/>
<path fill-rule="evenodd" clip-rule="evenodd" d="M10.8921 20.1092H13.7399V16.9354C13.7399 16.1501 13.101 15.5111 12.316 15.5111C11.5308 15.5111 10.8921 16.1501 10.8921 16.9354V20.1092ZM14.0892 20.8079H10.5427C10.3497 20.8079 10.1934 20.6514 10.1934 20.4586V16.9354C10.1934 15.7643 11.1456 14.8125 12.3159 14.8125C13.4863 14.8125 14.4385 15.7644 14.4385 16.9354V20.4585C14.4385 20.6513 14.2821 20.8079 14.0892 20.8079Z" fill="black"/>
<path fill-rule="evenodd" clip-rule="evenodd" d="M18.2612 20.1092H21.1089V16.9354C21.1089 16.1501 20.4702 15.5111 19.685 15.5111C18.9 15.5111 18.2611 16.1501 18.2611 16.9354L18.2612 20.1092ZM21.4583 20.8079H17.9118C17.7189 20.8079 17.5625 20.6514 17.5625 20.4586V16.9354C17.5625 15.7643 18.5146 14.8125 19.685 14.8125C20.8554 14.8125 21.8077 15.7644 21.8077 16.9354V20.4585C21.8077 20.6513 21.6513 20.8079 21.4583 20.8079Z" fill="black"/>
<path fill-rule="evenodd" clip-rule="evenodd" d="M9.55212 24.3181H5.41167C4.03236 24.3181 2.91017 23.196 2.91017 21.8168V17.9479C2.91017 17.7551 3.06659 17.5986 3.25955 17.5986C3.45244 17.5986 3.60886 17.7551 3.60886 17.948V21.8167C3.60886 22.8109 4.41763 23.6195 5.41167 23.6195H9.55212C10.5462 23.6195 11.3549 22.8109 11.3549 21.8168V20.458C11.3549 20.2651 11.5113 20.1087 11.7042 20.1087C11.8971 20.1087 12.0536 20.2652 12.0536 20.4581V21.8167C12.0536 23.1959 10.9314 24.3182 9.55212 24.3181ZM9.55212 25.5408H5.41167C3.35817 25.5408 1.6875 23.8699 1.6875 21.8168V17.9479C1.6875 17.7551 1.84392 17.5986 2.03689 17.5986C2.22985 17.5986 2.3862 17.7551 2.3862 17.948V21.8167C2.3862 23.4848 3.74344 24.8421 5.41167 24.8421L9.55212 24.8421C11.2204 24.8421 12.5776 23.4848 12.5776 21.8168V20.458C12.5776 20.2651 12.7339 20.1087 12.9269 20.1087C13.1199 20.1087 13.2762 20.2652 13.2762 20.4581L13.2763 21.8167C13.2763 23.8698 11.6055 25.5408 9.55212 25.5408Z" fill="black"/>
<path fill-rule="evenodd" clip-rule="evenodd" d="M1.66159 17.5985H3.74942V15.0492L2.60256 13.0929H1.66159V17.5985ZM4.0988 18.2972H1.31228C1.11931 18.2972 0.962891 18.1407 0.962891 17.9479V12.7436C0.962891 12.55 1.11931 12.3936 1.3122 12.3936H2.80268C2.9267 12.3936 3.04134 12.4598 3.10409 12.5668L4.40013 14.777C4.4315 14.8308 4.44811 14.892 4.44811 14.9538V17.9479C4.44811 18.1407 4.29169 18.2972 4.0988 18.2972Z" fill="black"/>
<path fill-rule="evenodd" clip-rule="evenodd" d="M2.05739 13.0931C1.86443 13.0931 1.70801 12.9367 1.70801 12.7438L1.70808 10.4171C1.70808 10.3247 1.74477 10.2359 1.81039 10.1704L2.6929 9.28757C2.82925 9.15153 3.05048 9.15153 3.1869 9.28765C3.32324 9.42436 3.32324 9.64567 3.1869 9.78179L2.40671 10.5619V12.7438C2.40671 12.9366 2.25028 13.0932 2.05739 13.0931Z" fill="black"/>
<path fill-rule="evenodd" clip-rule="evenodd" d="M26.5892 24.3181H22.4488C21.0694 24.3181 19.9472 23.196 19.9472 21.8168L19.9473 20.458C19.9473 20.2651 20.1036 20.1087 20.2966 20.1087C20.4895 20.1087 20.6459 20.2652 20.6459 20.4581V21.8167C20.6459 22.8109 21.4547 23.6195 22.4487 23.6195H26.5892C27.5832 23.6195 28.392 22.8109 28.392 21.8168V17.9479C28.392 17.7551 28.5484 17.5986 28.7412 17.5986C28.9342 17.5986 29.0907 17.7551 29.0907 17.948V21.8167C29.0907 23.1959 27.9685 24.3182 26.5892 24.3181ZM26.5892 25.5408H22.4488C20.3952 25.5408 18.7246 23.8699 18.7246 21.8168V20.458C18.7246 20.2651 18.881 20.1087 19.0739 20.1087C19.2668 20.1087 19.4232 20.2652 19.4232 20.4581V21.8167C19.4232 23.4848 20.7805 24.8421 22.4487 24.8421L26.5892 24.8421C28.2575 24.8421 29.6146 23.4848 29.6146 21.8168V17.9479C29.6146 17.7551 29.7711 17.5986 29.9639 17.5986C30.1568 17.5986 30.3133 17.7551 30.3133 17.948V21.8167C30.3133 23.8698 28.6426 25.5408 26.5892 25.5408Z" fill="black"/>
<path fill-rule="evenodd" clip-rule="evenodd" d="M28.2505 17.5985H30.3381V13.0929H29.397L28.2505 15.0492V17.5985ZM30.6874 18.2972H27.9011C27.7081 18.2972 27.5518 18.1407 27.5518 17.9479V14.9538C27.5518 14.892 27.5683 14.8308 27.5997 14.777L28.8958 12.5667C28.9585 12.4598 29.0731 12.3936 29.1969 12.3936H30.6874C30.8802 12.3936 31.0367 12.5501 31.0367 12.7436V17.9479C31.0367 18.1407 30.8802 18.2972 30.6874 18.2972Z" fill="black"/>
<path fill-rule="evenodd" clip-rule="evenodd" d="M29.9425 13.0931C29.7497 13.0931 29.5932 12.9367 29.5932 12.7438V10.5619L28.8133 9.78178C28.6768 9.64566 28.6768 9.42443 28.8132 9.28764C28.9496 9.15152 29.1711 9.15152 29.3072 9.28764L30.19 10.1703C30.2555 10.2358 30.2919 10.3247 30.2919 10.4171V12.7438C30.2919 12.9366 30.1354 13.0932 29.9425 13.0931Z" fill="black"/>
</g>
<defs>
<clipPath id="clip0_757_2682">
<rect width="32" height="32" fill="white"/>
</clipPath>
</defs>
</svg>
