<svg width="64" height="65" viewBox="0 0 64 65" fill="none" xmlns="http://www.w3.org/2000/svg">
<path d="M50.7466 35.374C43.7183 34.8301 43.23 27.4912 43.2139 27.2324V19.5988C48.387 16.0697 48.504 12.6704 48.4859 12.1357L48.4883 6.02441C48.4866 5.75973 48.3807 5.50637 48.1935 5.31921C48.0063 5.13205 47.753 5.02614 47.4883 5.02441H16.4058C16.2744 5.02438 16.1444 5.05022 16.023 5.10046C15.9017 5.15071 15.7914 5.22437 15.6986 5.31723C15.6057 5.4101 15.5321 5.52035 15.4818 5.64169C15.4316 5.76303 15.4057 5.89308 15.4058 6.02441L15.4097 12.0684C15.3956 12.2282 15.1695 15.8846 20.7862 19.6689L20.7876 27.1944C20.77 27.5069 20.2817 34.8458 13.2534 35.3897C4.47168 36.0713 4.01709 41.3965 4 41.6895V58.9756C4.00172 59.2404 4.1077 59.4938 4.29497 59.681C4.48224 59.8682 4.73572 59.974 5.00049 59.9756L59.0005 59.96C59.2656 59.9598 59.5198 59.8544 59.7072 59.6669C59.8946 59.4794 59.9999 59.2251 60 58.96L59.9976 41.6075C59.9829 41.3809 59.5283 36.0557 50.7466 35.374ZM17.4058 12.1543V7.02443H46.4878L46.4858 12.1543C46.4858 12.169 46.4873 12.2051 46.4883 12.2198C46.4893 12.249 46.5571 15.1914 41.3789 18.416C35.6963 21.9551 33.6743 22.251 32.0903 22.251C30.0635 22.2429 28.4842 22.0762 22.5127 18.4161C17.3345 15.1914 17.4023 12.249 17.4058 12.1543ZM34.8011 23.884C34.4747 25.7621 34.2705 27.6593 34.1896 29.5637C33.462 30.0015 32.8947 30.6619 32.5718 31.4473C32.2813 32.0185 32.1025 32.3174 31.938 32.3594C31.2118 31.6696 30.9618 30.1941 29.8132 29.6382C29.7323 27.7197 29.5289 25.8084 29.2041 23.9158C31.0386 24.4094 32.9723 24.3984 34.8011 23.884ZM6 57.9756L5.99658 41.7696C6.01172 41.6123 6.44287 37.9239 13.4077 37.3838C20.4448 36.8389 22.6187 30.5488 22.7861 27.2481V20.9208C24.0664 21.6947 25.3897 22.3951 26.7496 23.0186C26.8042 23.1615 26.891 23.2898 27.0034 23.3936C27.1294 23.7033 27.4961 24.9381 27.7799 29.1478C27.4118 29.1495 27.0446 29.184 26.6826 29.2509C23.5101 30.2982 23.6979 33.8282 23.7026 36.205C23.6601 38.5879 23.5805 43.0235 27.3584 43.2705C27.6226 43.3025 27.889 43.3118 28.1548 43.2983C28.1579 44.4262 28.1573 46.266 28.1592 48.0958C28.1609 50.0163 28.1595 51.9867 28.1609 53.5501C28.2636 56.2987 27.8437 56.1797 28.6641 57.9688L6 57.9756ZM33.8389 56.1055C33.8331 56.4661 33.7222 56.8172 33.5199 57.1157C33.3176 57.4143 33.0326 57.6473 32.6998 57.7863C32.367 57.9253 32.0009 57.9642 31.6463 57.8983C31.2917 57.8323 30.9641 57.6644 30.7036 57.415C29.8748 56.3822 30.2435 56.1603 30.161 54.4981H33.8389C33.8389 55.3925 33.8389 55.9969 33.8389 56.1055ZM33.8392 52.4981H30.1608C30.1605 51.4392 30.1602 50.2469 30.1598 49.0518H33.8403C33.8398 50.2462 33.8395 51.4387 33.8392 52.4981ZM33.8412 47.0518H30.1587C30.1576 45.1388 30.1558 43.4425 30.1532 42.5865C30.2703 42.4923 30.3797 42.3889 30.4804 42.2774C31.113 41.7366 31.3813 40.5414 31.9394 40.0849C32.0986 40.1338 32.2817 40.4405 32.5639 40.9932C32.8386 41.6517 33.2808 42.2268 33.8467 42.6613C33.8441 43.5162 33.8424 45.1768 33.8412 47.0518ZM34.3447 40.083C33.2472 37.466 30.6961 37.3747 29.5459 40.085C29.036 40.9531 29.0087 41.3817 27.5494 41.2803C25.9311 41.1738 25.6465 39.3516 25.7026 36.2188C25.6654 33.9395 25.6896 31.6612 27.1963 31.1885C28.558 31.0247 29.0412 31.2565 29.5361 32.3506C30.6997 35.1209 33.2939 34.9216 34.355 32.3524C34.4774 32.0742 34.6364 31.8135 34.8276 31.5772C35.2783 31.1084 35.665 31.0996 36.6953 31.1885C38.2053 31.6603 38.2302 33.9585 38.1889 36.2402C38.2431 39.3516 37.958 41.1738 36.2793 41.2861C34.9473 41.3742 34.8324 40.9569 34.3447 40.083ZM58 57.96L35.3365 57.9669C36.1586 56.1832 35.7353 56.2753 35.8395 53.4981C35.8391 50.462 35.8413 45.5788 35.8452 43.3112C40.0598 43.5554 40.3262 38.8577 40.1889 36.2177C40.1942 33.8357 40.3852 30.2989 37.2075 29.25C36.8814 29.1902 36.5509 29.1577 36.2194 29.1528C36.5039 24.9368 36.8701 23.7033 36.9956 23.3946C37.1206 23.2767 37.2125 23.1281 37.2624 22.9637C38.6176 22.3352 39.9369 21.6319 41.2142 20.8572L41.2153 27.2832C41.3813 30.5332 43.5552 36.8232 50.5923 37.3682C57.5572 37.9082 57.9883 41.5968 58 41.6739L58 57.96Z" fill="#D82519"/>
</svg>
