<svg width="46" height="57" viewBox="0 0 46 57" fill="none" xmlns="http://www.w3.org/2000/svg">
<path d="M44.7529 25.575L41.3398 19.1316C41.152 18.7811 41.0819 18.3795 41.1396 17.9861C41.5088 15.4343 40.4121 12.0027 39.9038 10.5974C40.903 9.20406 41.4628 7.54377 41.5112 5.82985C41.5192 5.59277 41.4427 5.36056 41.2953 5.1747C41.1479 4.98884 40.9392 4.86142 40.7065 4.8152L21.1909 0.934338C21.1268 0.921489 21.0615 0.914948 20.9961 0.914808C11.4239 0.706988 3.0751 9.34322 3.61197 18.9042C3.46868 22.5914 4.22148 26.2584 5.80587 29.591C7.39026 32.9235 9.759 35.8222 12.7091 38.0388C15.5697 39.9476 12.7591 44.2475 9.84621 44.0485L7.44483 44.0486C5.48095 44.0508 3.59815 44.8319 2.20944 46.2206C0.820719 47.6092 0.0394861 49.4919 0.0371094 51.4558V55.9148C0.0370752 56.0461 0.0629176 56.1762 0.11316 56.2975C0.163403 56.4189 0.237061 56.5291 0.329927 56.622C0.422792 56.7148 0.533045 56.7885 0.654386 56.8387C0.775727 56.889 0.905778 56.9148 1.03711 56.9148H40.9551C41.2215 56.913 41.4763 56.8057 41.6637 56.6165C41.8511 56.4272 41.9559 56.1714 41.9551 55.905L41.9092 51.3796C41.8828 49.4304 41.0915 47.5695 39.7059 46.1982C38.3204 44.8269 36.4514 44.0549 34.502 44.0486H29.3682C27.8784 44.0959 27.3632 41.7304 29.0352 41.613H34.4131C36.4126 41.6107 38.3296 40.8154 39.7435 39.4015C41.1574 37.9876 41.9527 36.0706 41.9551 34.071V29.9148C42.4778 29.9405 42.9981 29.8282 43.4636 29.5892C43.9292 29.3501 44.3235 28.9926 44.6071 28.5528C44.8907 28.1129 45.0535 27.6061 45.0791 27.0834C45.1047 26.5607 44.9922 26.0404 44.7529 25.575ZM5.67578 20.7312C4.51558 11.4273 11.3805 2.9453 20.8991 2.91486L39.4243 6.59938C39.3218 7.75509 38.8234 8.83995 38.0133 9.67052C37.9759 9.70438 35.42 12.5224 32.1655 12.8298C28.8898 13.1197 25.2145 15.0434 23.7497 17.9371C23.0917 17.6003 22.3584 17.4375 21.6196 17.4642C20.8809 17.491 20.1612 17.7064 19.5293 18.09C18.8974 18.4736 18.3741 19.0125 18.0094 19.6556C17.6448 20.2986 17.4507 21.0243 17.4459 21.7635C17.4733 23.9329 17.0765 27.0849 18.772 28.7471C16.9175 32.5518 15.1444 34.9419 13.3772 36.0191C11.0591 34.1841 9.16913 31.8656 7.83902 29.2252C6.5089 26.5849 5.77067 23.6862 5.67578 20.7312ZM39.9551 34.0711C39.9551 34.1251 39.9485 34.1775 39.947 34.2312H30.5957C28.6088 34.2335 26.7039 35.0238 25.2989 36.4287C23.8939 37.8336 23.1035 39.7384 23.1011 41.7254V54.9148H21.4048V40.3074C21.4071 38.2429 22.2281 36.2636 23.6879 34.8037C25.1477 33.3439 27.1269 32.5227 29.1914 32.5203H39.9551V34.0711ZM34.4131 39.6131H29.0352C28.2261 39.614 27.4505 39.9359 26.8785 40.508C26.3065 41.0801 25.9848 41.8557 25.9839 42.6648C25.9849 43.562 26.3418 44.4222 26.9762 45.0565C27.6107 45.6909 28.471 46.0477 29.3682 46.0486H34.5019C35.925 46.0532 37.2893 46.6168 38.3007 47.6178C39.3121 48.6188 39.8898 49.9772 39.9092 51.4001L39.9448 54.9148H25.1011V41.7254C25.1028 40.2687 25.6823 38.8721 26.7124 37.8422C27.7424 36.8122 29.139 36.2328 30.5957 36.2312H39.5164C39.091 37.2332 38.3805 38.088 37.4731 38.6893C36.5658 39.2906 35.5016 39.6119 34.4131 39.6131ZM42.9595 27.4519C42.8754 27.5941 42.7555 27.7116 42.6117 27.7929C42.4679 27.8741 42.3053 27.9162 42.1402 27.9148H40.9551C40.8237 27.9148 40.6937 27.9406 40.5724 27.9909C40.451 28.0411 40.3408 28.1148 40.2479 28.2076C40.155 28.3005 40.0814 28.4107 40.0311 28.5321C39.9809 28.6534 39.955 28.7835 39.9551 28.9148V30.5203H29.1914C26.5967 30.5233 24.1091 31.5554 22.2744 33.3902C20.4397 35.225 19.4077 37.7127 19.4048 40.3074V54.9148H2.03711V51.4558C2.0388 50.0221 2.60909 48.6477 3.62289 47.634C4.63668 46.6203 6.01118 46.0501 7.44483 46.0485H9.84619C14.0794 46.2181 17.6673 40.9625 14.9471 37.3775C16.8068 36.0373 18.5671 33.6436 20.3737 30.0175C22.6732 31.3654 26.0671 30.4552 26.0991 27.4175C26.0942 27.1555 25.9867 26.9059 25.7997 26.7223C25.6127 26.5387 25.3611 26.4359 25.099 26.4359C24.8369 26.4359 24.5853 26.5388 24.3984 26.7224C24.2114 26.906 24.1039 27.1557 24.0991 27.4177C24.0988 27.7406 23.9703 28.0501 23.742 28.2784C23.5137 28.5067 23.2042 28.6351 22.8813 28.6354C21.9705 28.6345 21.0972 28.2722 20.4531 27.6281C19.809 26.984 19.4467 26.1108 19.4458 25.1999V21.7634C19.4458 21.1464 19.6909 20.5546 20.1272 20.1182C20.5636 19.6819 21.1554 19.4368 21.7724 19.4368C22.3895 19.4368 22.9813 19.6819 23.4176 20.1182C23.854 20.5546 24.0991 21.1464 24.0991 21.7634C24.0991 21.8948 24.1249 22.0248 24.1751 22.1462C24.2254 22.2675 24.299 22.3778 24.3919 22.4706C24.4848 22.5635 24.595 22.6371 24.7164 22.6874C24.8377 22.7376 24.9678 22.7635 25.0991 22.7634C26.796 22.5954 25.9672 20.2549 25.3778 19.3802C26.0963 16.8217 29.6805 15.0376 32.351 14.822C34.5583 14.5231 36.6294 13.5834 38.308 12.1193C38.9627 13.9034 39.2525 15.8008 39.1601 17.699C39.0409 18.5125 39.1855 19.3428 39.5727 20.0681L42.9853 26.5105C43.064 26.6559 43.1031 26.8194 43.0985 26.9847C43.094 27.1499 43.046 27.3111 42.9595 27.4519Z" fill="#D82519"/>
</svg>
