<svg width="64" height="65" viewBox="0 0 64 65" fill="none" xmlns="http://www.w3.org/2000/svg">
<path d="M60.8 42.0998H54.4V39.9665C54.4 38.1992 52.9673 36.7665 51.2 36.7665H39.3813C39.0147 34.2505 37.3946 32.0932 35.0805 31.0396C35.1568 30.8233 35.1972 30.5959 35.2 30.3665V26.0113C36.9139 26.2997 38.6713 25.8788 40.0685 24.8451C41.4657 23.8115 42.3824 22.254 42.608 20.5308C44.8165 19.0215 46.0489 16.4462 45.8387 13.7796C45.6286 11.1129 44.008 8.76241 41.5904 7.61771C41.4844 5.71498 40.537 3.95814 39.0054 2.82422C37.4738 1.6903 35.5169 1.29698 33.6661 1.75105C31.8238 0.417133 29.4186 0.142116 27.3227 1.02571C25.2928 0.173771 22.9705 0.400269 21.1435 1.62838C20.8531 1.58675 20.56 1.56607 20.2667 1.56651C17.7518 1.5696 15.471 3.04284 14.4341 5.33398C11.6865 6.57513 10.1778 9.56557 10.8121 12.513C11.4464 15.4605 14.0517 17.5655 17.0667 17.5665H17.1552C17.6798 20.6439 20.3449 22.8959 23.4667 22.8998C24.4961 22.882 25.5193 22.7369 26.5131 22.4678C27.8635 24.7452 28.448 28.8316 28.6464 30.2545L28.7136 30.7089C28.735 30.8385 28.7678 30.9659 28.8117 31.0897C26.5525 32.1615 24.9789 34.292 24.6187 36.7665H12.8C11.0327 36.7665 9.6 38.1992 9.6 39.9665V42.0998H3.2C1.43269 42.0998 0 43.5325 0 45.2998V49.5665C0 51.3338 1.43269 52.7665 3.2 52.7665H9.6V54.8998C9.6 56.6672 11.0327 58.0998 12.8 58.0998H24.6187C25.1459 61.7711 28.2911 64.4968 32 64.4968C35.7089 64.4968 38.8541 61.7711 39.3813 58.0998H51.2C52.9673 58.0998 54.4 56.6672 54.4 54.8998V52.7665H60.8C62.5673 52.7665 64 51.3338 64 49.5665V45.2998C64 43.5325 62.5673 42.0998 60.8 42.0998ZM30.8267 30.3729L30.7659 29.9462C30.4981 28.0764 29.7867 23.1078 27.808 20.5756C27.606 20.3166 27.2959 20.1651 26.9675 20.1649C26.8642 20.1652 26.7614 20.1802 26.6624 20.2097C25.6283 20.5434 24.5527 20.7308 23.4667 20.7665C21.1274 20.7631 19.2257 18.8795 19.2 16.5404C19.2472 16.2017 19.1291 15.8609 18.8825 15.6241C18.6359 15.3872 18.2906 15.2829 17.9541 15.3436C17.6616 15.4002 17.3646 15.4302 17.0667 15.4332C14.9972 15.4298 13.2286 13.942 12.871 11.9037C12.5135 9.86537 13.6702 7.86437 15.6149 7.15691C15.9127 7.04915 16.1472 6.81467 16.2549 6.51691C16.8655 4.82675 18.4696 3.70032 20.2667 3.69985C20.5712 3.70102 20.8747 3.73681 21.1712 3.80651C21.4915 3.88046 21.828 3.80166 22.0821 3.59318C23.4348 2.5263 25.2879 2.35299 26.8149 3.15051C27.1336 3.31579 27.5128 3.31579 27.8315 3.15051C29.4219 2.31092 31.3657 2.54143 32.7157 3.72971C33.0056 3.9904 33.4146 4.0722 33.7824 3.94305C34.2381 3.78351 34.7172 3.70131 35.2 3.69985C37.5564 3.69985 39.4667 5.6101 39.4667 7.96651C39.471 8.02474 39.471 8.08322 39.4667 8.14145C39.3742 8.65816 39.6715 9.16533 40.1675 9.33718C42.1334 10.0287 43.5164 11.802 43.7083 13.8771C43.9003 15.9522 42.866 17.949 41.0603 18.9894C40.7425 19.1726 40.541 19.5061 40.5269 19.8726C40.4463 22.1642 38.5596 23.9772 36.2667 23.9665C35.677 23.9666 35.0935 23.8468 34.5515 23.6145C34.222 23.4741 33.844 23.5084 33.5452 23.7059C33.2464 23.9034 33.0667 24.2377 33.0667 24.5958V30.3665H32.0555C32.0373 30.3665 32.0192 30.3665 32 30.3665C31.9808 30.3665 31.9584 30.3665 31.9381 30.3665L30.8267 30.3729ZM32 32.4998C34.9455 32.4998 37.3333 34.8877 37.3333 37.8332C37.3333 40.7787 34.9455 43.1665 32 43.1665C29.0545 43.1665 26.6667 40.7787 26.6667 37.8332C26.6702 34.8891 29.0559 32.5034 32 32.4998ZM2.13333 49.5665V45.2998C2.13333 44.7107 2.6109 44.2332 3.2 44.2332H19.2C19.7891 44.2332 20.2667 44.7107 20.2667 45.2998V49.5665C20.2667 50.1556 19.7891 50.6332 19.2 50.6332H3.2C2.6109 50.6332 2.13333 50.1556 2.13333 49.5665ZM32 62.3665C29.0545 62.3665 26.6667 59.9787 26.6667 57.0332C26.6667 54.0877 29.0545 51.6998 32 51.6998C34.9455 51.6998 37.3333 54.0877 37.3333 57.0332C37.3298 59.9772 34.9441 62.363 32 62.3665ZM52.2667 54.8998C52.2667 55.4889 51.7891 55.9665 51.2 55.9665H39.3813C38.8541 52.2953 35.7089 49.5695 32 49.5695C28.2911 49.5695 25.1459 52.2953 24.6187 55.9665H12.8C12.2109 55.9665 11.7333 55.4889 11.7333 54.8998V52.7665H19.2C20.9673 52.7665 22.4 51.3338 22.4 49.5665V45.2998C22.4 43.5325 20.9673 42.0998 19.2 42.0998H11.7333V39.9665C11.7333 39.3774 12.2109 38.8998 12.8 38.8998H24.6187C25.1459 42.5711 28.2911 45.2968 32 45.2968C35.7089 45.2968 38.8541 42.5711 39.3813 38.8998H51.2C51.7891 38.8998 52.2667 39.3774 52.2667 39.9665V42.0998H44.8C43.0327 42.0998 41.6 43.5325 41.6 45.2998V49.5665C41.6 51.3338 43.0327 52.7665 44.8 52.7665H52.2667V54.8998ZM61.8667 49.5665C61.8667 50.1556 61.3891 50.6332 60.8 50.6332H44.8C44.2109 50.6332 43.7333 50.1556 43.7333 49.5665V45.2998C43.7333 44.7107 44.2109 44.2332 44.8 44.2332H60.8C61.3891 44.2332 61.8667 44.7107 61.8667 45.2998V49.5665Z" fill="#D82519"/>
<path d="M29.8665 38.9C30.4556 38.9 30.9331 38.4224 30.9331 37.8333C30.9331 37.2442 31.4107 36.7666 31.9998 36.7666C32.5889 36.7666 33.0665 36.2891 33.0665 35.7C33.0665 35.1109 32.5889 34.6333 31.9998 34.6333C30.2325 34.6333 28.7998 36.066 28.7998 37.8333C28.7998 38.4224 29.2774 38.9 29.8665 38.9Z" fill="#D82519"/>
<path d="M31.9998 53.8335C30.2325 53.8335 28.7998 55.2662 28.7998 57.0335C28.7998 57.6226 29.2774 58.1002 29.8665 58.1002C30.4556 58.1002 30.9331 57.6226 30.9331 57.0335C30.9331 56.4444 31.4107 55.9668 31.9998 55.9668C32.5889 55.9668 33.0665 55.4893 33.0665 54.9002C33.0665 54.3111 32.5889 53.8335 31.9998 53.8335Z" fill="#D82519"/>
<path d="M13.8665 48.5H14.9331C15.5222 48.5 15.9998 48.0225 15.9998 47.4334C15.9998 46.8443 15.5222 46.3667 14.9331 46.3667H13.8665C13.2774 46.3667 12.7998 46.8443 12.7998 47.4334C12.7998 48.0225 13.2774 48.5 13.8665 48.5Z" fill="#D82519"/>
<path d="M9.59994 46.3667H5.33327C4.74416 46.3667 4.2666 46.8443 4.2666 47.4334C4.2666 48.0225 4.74416 48.5 5.33327 48.5H9.59994C10.189 48.5 10.6666 48.0225 10.6666 47.4334C10.6666 46.8443 10.189 46.3667 9.59994 46.3667Z" fill="#D82519"/>
<path d="M58.6665 46.3667H57.5999C57.0108 46.3667 56.5332 46.8443 56.5332 47.4334C56.5332 48.0225 57.0108 48.5 57.5999 48.5H58.6665C59.2556 48.5 59.7332 48.0225 59.7332 47.4334C59.7332 46.8443 59.2556 46.3667 58.6665 46.3667Z" fill="#D82519"/>
<path d="M53.3333 46.3667H49.0667C48.4776 46.3667 48 46.8443 48 47.4334C48 48.0225 48.4776 48.5 49.0667 48.5H53.3333C53.9224 48.5 54.4 48.0225 54.4 47.4334C54.4 46.8443 53.9224 46.3667 53.3333 46.3667Z" fill="#D82519"/>
<path d="M32.9075 7.07221C33.2167 6.57088 33.061 5.91379 32.5598 5.60448C30.8812 4.60771 28.8185 4.50509 27.0494 5.33035C26.5592 5.60564 26.3669 6.21406 26.6097 6.72106C26.8525 7.22807 27.4471 7.45962 27.9688 7.25035C29.0827 6.73279 30.3794 6.79377 31.4398 7.41355C31.6073 7.5185 31.801 7.57397 31.9987 7.57355C32.368 7.57502 32.7118 7.38538 32.9075 7.07221Z" fill="#D82519"/>
<path d="M22.8811 6.60096C22.8811 6.01185 22.4036 5.53429 21.8145 5.53429C19.6939 5.48303 17.7428 6.68758 16.8385 8.60629C16.6241 9.14131 16.8736 9.7498 17.4018 9.98045C17.9299 10.2111 18.5458 9.98047 18.7926 9.45962C19.3661 8.32584 20.5445 7.62701 21.8145 7.66762C22.4036 7.66762 22.8811 7.19006 22.8811 6.60096Z" fill="#D82519"/>
<path d="M26.4798 16.4147C26.1984 16.4674 25.9129 16.496 25.6265 16.5C24.7159 16.5018 23.9024 15.9315 23.5934 15.0749C23.3955 14.5197 22.7849 14.23 22.2297 14.428C21.6745 14.6259 21.3848 15.2365 21.5828 15.7917C22.1958 17.4951 23.8108 18.6315 25.6212 18.6333C26.0345 18.63 26.4468 18.5903 26.8532 18.5149C27.4272 18.406 27.8068 17.8555 27.7045 17.2803C27.6023 16.705 27.0562 16.3191 26.4798 16.4147Z" fill="#D82519"/>
<path d="M38.0505 13.1209L38.7662 13.3684C39.1553 13.5128 39.4253 13.8699 39.4582 14.2836C39.4912 14.6974 39.2811 15.0926 38.9198 15.2969C38.4295 15.6002 38.269 16.2383 38.5574 16.7376C38.8458 17.2368 39.4788 17.4165 39.9865 17.1433C41.0704 16.5215 41.6933 15.3257 41.5814 14.0811C41.4695 12.8365 40.6434 11.7709 39.466 11.3524L38.7502 11.1038C38.1932 10.9112 37.5855 11.2066 37.3929 11.7636C37.2003 12.3206 37.4956 12.9283 38.0526 13.1209H38.0505Z" fill="#D82519"/>
</svg>
