<svg width="64" height="64" viewBox="0 0 64 64" fill="none" xmlns="http://www.w3.org/2000/svg">
<path d="M60.6316 36.2793C60.7423 35.8907 60.8052 35.49 60.8191 35.0861C60.8901 33.3986 60.2265 31.5145 58.5905 31.3662L55.0438 31.0912C54.7766 29.7188 53.5791 28.661 52.0003 28.4846L40.4002 27.2035V26.6687C40.3983 25.0588 39.8514 23.4971 38.8487 22.2376C37.846 20.9781 36.4465 20.0952 34.878 19.7325C35.4949 19.1718 35.9877 18.4884 36.3249 17.7261C36.662 16.9638 36.836 16.1394 36.8358 15.3058V10.4588C36.8346 9.40374 36.4148 8.39222 35.6687 7.64626C34.9225 6.9003 33.9108 6.48085 32.8558 6.47995H28.8165C27.7616 6.48111 26.7502 6.90068 26.0042 7.64661C25.2583 8.39254 24.8387 9.40391 24.8375 10.4588V15.306C24.8372 16.1395 25.0113 16.9639 25.3485 17.7262C25.6856 18.4886 26.1785 19.172 26.7954 19.7326C25.2269 20.0953 23.8274 20.9783 22.8247 22.2377C21.822 23.4972 21.2751 25.059 21.2731 26.6688V28.7081C20.975 28.7753 20.6831 28.8673 20.4002 28.9831C20.4074 28.8692 20.4121 28.7547 20.4121 28.639C20.4131 27.7371 20.1934 26.8488 19.7721 26.0513C19.3509 25.2539 18.7409 24.5717 17.9955 24.0642C17.25 23.5566 16.3917 23.2392 15.4954 23.1396C14.5991 23.0399 13.692 23.1611 12.8533 23.4926C12.0146 23.824 11.2697 24.3557 10.6836 25.0411C10.0976 25.7266 9.68813 26.545 9.49102 27.425C9.29391 28.305 9.31512 29.2199 9.5528 30.0899C9.79049 30.9598 10.2374 31.7584 10.8546 32.416H9.34688C8.67995 32.4167 8.04055 32.682 7.56894 33.1536C7.09734 33.6251 6.83204 34.2645 6.83125 34.9315V36.2778H6.55487C5.64696 36.2784 4.77633 36.6391 4.13401 37.2807C3.49168 37.9224 3.13011 38.7927 3.12862 39.7006V42.2517C3.12862 42.4838 3.22081 42.7063 3.38491 42.8704C3.549 43.0345 3.77156 43.1267 4.00362 43.1267H6.80288V43.5057C6.804 44.5277 7.21049 45.5076 7.93318 46.2303C8.65586 46.953 9.63571 47.3595 10.6578 47.3607H11.225V59.3648C11.2255 59.843 11.4157 60.3014 11.7538 60.6395C12.0919 60.9776 12.5503 61.1678 13.0285 61.1683H15.4059C15.884 61.1678 16.3424 60.9776 16.6805 60.6395C17.0186 60.3014 17.2088 59.843 17.2094 59.3648V47.361H49.916V59.3651C49.9166 59.8432 50.1068 60.3016 50.4449 60.6397C50.783 60.9778 51.2414 61.168 51.7195 61.1686H54.1C54.5781 61.168 55.0365 60.9778 55.3746 60.6397C55.7127 60.3016 55.9028 59.8432 55.9034 59.3651V47.361H56.4668C57.4893 47.3603 58.4698 46.954 59.1931 46.2313C59.9165 45.5086 60.3236 44.5285 60.3252 43.506V43.127H63.125C63.3571 43.127 63.5796 43.0348 63.7437 42.8707C63.9078 42.7066 64 42.484 64 42.252V39.7006C63.9984 38.8028 63.6447 37.9415 63.0148 37.3017C62.385 36.662 61.5293 36.2949 60.6316 36.2793ZM55.1 32.8512L58.4436 33.1102C58.646 33.1287 58.8753 33.5165 58.9889 34.0326C59.2315 35.1353 58.9158 36.1138 58.7093 36.2605C58.6593 36.262 58.6095 36.2678 58.5605 36.2778H55.1V32.8512ZM51.8069 30.2242C52.5499 30.3072 53.3498 30.7968 53.3498 31.6753V41.3765H27.725V29.1065C27.7199 28.9107 27.7587 28.7164 27.8385 28.5376C27.9183 28.3588 28.0371 28.2002 28.1863 28.0733C28.3332 27.9401 28.5077 27.8409 28.6974 27.7828C28.887 27.7247 29.0871 27.7091 29.2835 27.7371L51.8069 30.2242ZM26.5875 10.4588C26.5882 9.86799 26.8232 9.30154 27.241 8.88377C27.6588 8.46599 28.2253 8.23099 28.8161 8.23033H32.8554C33.4462 8.23099 34.0127 8.46599 34.4305 8.88377C34.8483 9.30154 35.0833 9.86799 35.084 10.4588V11.1H26.5875V10.4588ZM26.5875 15.306V12.8506H35.084V15.306C35.084 16.4327 34.6364 17.5132 33.8397 18.3099C33.043 19.1066 31.9625 19.5542 30.8358 19.5542C29.709 19.5542 28.6285 19.1066 27.8318 18.3099C27.0351 17.5132 26.5875 16.4327 26.5875 15.306ZM23.023 26.6685C23.0243 25.2458 23.5898 23.8818 24.5955 22.8756C25.6012 21.8694 26.9649 21.3031 28.3875 21.3011H33.2841C34.7068 21.3031 36.0706 21.8694 37.0762 22.8757C38.0819 23.882 38.6473 25.2462 38.6485 26.6688V27.0103L29.4766 25.9978C29.0375 25.9425 28.5916 25.9822 28.1691 26.114C27.7466 26.2458 27.3573 26.4668 27.0275 26.762C26.42 27.2882 26.0457 28.0337 25.9864 28.8352L24.2309 28.6988C23.8322 28.6238 23.4285 28.5778 23.0231 28.5613L23.023 26.6685ZM19.7886 31.5672C20.6078 30.4882 22.1235 30.0723 23.9478 30.426C23.9804 30.4322 24.0134 30.4367 24.0465 30.4393L25.9745 30.5893V36.2777H23.0966C21.3734 36.2751 20.064 35.63 19.5002 34.5027C19.2718 34.0347 19.1778 33.5125 19.2288 32.9942C19.2797 32.476 19.4737 31.982 19.789 31.5676L19.7886 31.5672ZM14.8848 24.8625C15.6318 24.8625 16.362 25.084 16.9832 25.499C17.6043 25.914 18.0884 26.5039 18.3743 27.1941C18.6601 27.8843 18.7349 28.6437 18.5892 29.3764C18.4434 30.109 18.0837 30.782 17.5554 31.3102C17.0272 31.8385 16.3542 32.1982 15.6215 32.3439C14.8889 32.4896 14.1294 32.4148 13.4393 32.1289C12.7491 31.843 12.1592 31.3589 11.7442 30.7378C11.3292 30.1166 11.1077 29.3864 11.1077 28.6393C11.1089 27.638 11.5072 26.678 12.2153 25.9699C12.9234 25.2619 13.8834 24.8636 14.8848 24.8625ZM8.5815 34.9315C8.58403 34.7293 8.66548 34.5361 8.80848 34.3931C8.95147 34.2501 9.14468 34.1687 9.34688 34.1662H17.5546C17.6306 34.5548 17.7585 34.9314 17.9349 35.286C18.1154 35.6454 18.3434 35.9791 18.6127 36.2778H8.5815V34.9315ZM4.87887 41.3765V39.7006C4.87987 39.2567 5.05688 38.8314 5.37108 38.5178C5.68528 38.2043 6.11101 38.0282 6.55487 38.0282H25.975V41.3765H4.87887ZM15.4587 59.3651C15.4579 59.3789 15.452 59.3919 15.4422 59.4017C15.4325 59.4115 15.4194 59.4173 15.4056 59.4182H13.0282C13.0144 59.4174 13.0014 59.4115 12.9916 59.4017C12.9817 59.3919 12.9759 59.3789 12.975 59.3651V47.361H15.4587V59.3651ZM54.1536 59.3651C54.1528 59.3789 54.1469 59.3919 54.1371 59.4017C54.1273 59.4115 54.1143 59.4173 54.1005 59.4182H51.7195C51.7057 59.4174 51.6926 59.4115 51.6828 59.4017C51.673 59.3919 51.6671 59.3789 51.6662 59.3651V47.361H54.1538L54.1536 59.3651ZM58.575 43.506C58.5739 44.0644 58.3513 44.5996 57.956 44.9942C57.5608 45.3887 57.0252 45.6104 56.4668 45.6106H10.6578C10.0998 45.6099 9.56484 45.388 9.17029 44.9934C8.77574 44.5989 8.55379 44.0639 8.55313 43.506V43.127H58.575V43.506ZM62.25 41.3765H55.1V38.0282H60.5742C61.0181 38.0283 61.4437 38.2044 61.7579 38.5179C62.072 38.8314 62.249 39.2568 62.25 39.7006V41.3765ZM63.125 4.07058H40.0554C39.8233 4.07058 39.6008 4.16277 39.4367 4.32686C39.2726 4.49096 39.1804 4.71352 39.1804 4.94558V19.5577C39.1804 19.7898 39.2726 20.0123 39.4367 20.1764C39.6008 20.3405 39.8233 20.4327 40.0554 20.4327H63.125C63.3571 20.4327 63.5796 20.3405 63.7437 20.1764C63.9078 20.0123 64 19.7898 64 19.5577V4.94583C64 4.8309 63.9774 4.71709 63.9335 4.6109C63.8895 4.50472 63.8251 4.40823 63.7438 4.32695C63.6626 4.24567 63.5661 4.1812 63.4599 4.13721C63.3537 4.09322 63.2399 4.07058 63.125 4.07058ZM62.25 18.6831H40.9305V5.82096H62.25V18.6831ZM41.7986 13.7116C41.7986 13.4795 41.8908 13.257 42.0549 13.0929C42.219 12.9288 42.4416 12.8366 42.6736 12.8366H45.579C45.8111 12.8366 46.0336 12.9288 46.1977 13.0929C46.3618 13.257 46.454 13.4795 46.454 13.7116C46.454 13.9436 46.3618 14.1662 46.1977 14.3303C46.0336 14.4944 45.8111 14.5866 45.579 14.5866H42.6738C42.5588 14.5866 42.445 14.564 42.3389 14.52C42.2327 14.476 42.1362 14.4116 42.055 14.3303C41.9737 14.2491 41.9092 14.1526 41.8652 14.0465C41.8213 13.9403 41.7986 13.8265 41.7986 13.7116ZM41.7986 16.6276C41.7986 16.3955 41.8908 16.173 42.0549 16.0089C42.219 15.8448 42.4416 15.7526 42.6736 15.7526H45.579C45.8111 15.7526 46.0336 15.8448 46.1977 16.0089C46.3618 16.173 46.454 16.3955 46.454 16.6276C46.454 16.8596 46.3618 17.0822 46.1977 17.2463C46.0336 17.4104 45.8111 17.5026 45.579 17.5026H42.6738C42.5588 17.5026 42.445 17.48 42.3389 17.436C42.2327 17.392 42.1362 17.3276 42.055 17.2463C41.9737 17.1651 41.9092 17.0686 41.8652 16.9625C41.8213 16.8563 41.7986 16.7425 41.7986 16.6276ZM8.56625 9.06995L4.28837 13.348C3.82525 13.8122 3.56516 14.4412 3.56516 15.097C3.56516 15.7528 3.82525 16.3818 4.28837 16.8461L4.82812 17.3858L4.26713 17.9468C4.18574 18.0282 4.1212 18.1248 4.0772 18.2311C4.0332 18.3374 4.01059 18.4513 4.01069 18.5664C4.01078 18.6815 4.03357 18.7954 4.07774 18.9016C4.12192 19.0079 4.18661 19.1044 4.26813 19.1856L5.43463 20.3481C5.66843 20.5842 5.9469 20.7713 6.25379 20.8987C6.56068 21.026 6.88986 21.091 7.22213 21.0898C7.85549 21.0914 8.46584 20.8525 8.92988 20.4215L9.71237 21.2038C9.8553 21.3467 10.0251 21.4599 10.2119 21.537C10.3987 21.6141 10.5989 21.6535 10.801 21.653C11.2114 21.6533 11.6053 21.4916 11.897 21.203L13.0293 20.0671C13.1737 19.924 13.2884 19.7538 13.3668 19.5662C13.4452 19.3787 13.4858 19.1775 13.4862 18.9742C13.4866 18.7709 13.4468 18.5695 13.3691 18.3817C13.2913 18.1938 13.1773 18.0232 13.0334 17.8796L12.2563 17.1025L13.3836 15.9751L14.1626 16.754C14.3056 16.8968 14.4753 17.01 14.6621 17.0871C14.849 17.1641 15.0492 17.2035 15.2513 17.203C15.6616 17.2033 16.0555 17.0416 16.3472 16.753L17.4794 15.6172C17.6238 15.4742 17.7386 15.304 17.817 15.1164C17.8955 14.9288 17.936 14.7276 17.9364 14.5243C17.9368 14.321 17.897 14.1197 17.8193 13.9318C17.7416 13.744 17.6275 13.5733 17.4836 13.4297L16.7065 12.6525L17.8356 11.5233L18.6086 12.2963C18.7508 12.4411 18.9203 12.556 19.1073 12.6345C19.2944 12.713 19.4952 12.7535 19.698 12.7536H19.7035C19.9066 12.7541 20.1078 12.7143 20.2954 12.6366C20.483 12.5588 20.6533 12.4446 20.7965 12.3006L21.934 11.1631C22.0776 11.0198 22.1915 10.8496 22.2692 10.6623C22.3469 10.4749 22.387 10.274 22.387 10.0712C22.387 9.86836 22.3469 9.66752 22.2692 9.48016C22.1915 9.2928 22.0776 9.12261 21.934 8.97933L21.1534 8.1987C21.5959 7.72021 21.836 7.08892 21.8231 6.43727C21.8103 5.78562 21.5456 5.16426 21.0845 4.70358L19.9188 3.53445C19.8375 3.453 19.7411 3.38835 19.6349 3.3442C19.5286 3.30006 19.4148 3.2773 19.2997 3.2772C19.0676 3.27722 18.8451 3.36939 18.6809 3.53345L18.1199 4.09458L17.58 3.5547C17.1157 3.09161 16.4867 2.83154 15.8309 2.83154C15.1752 2.83154 14.5462 3.09161 14.0819 3.5547L9.80387 7.83233L6.36938 4.3977C6.28803 4.31639 6.19146 4.2519 6.08519 4.20791C5.97892 4.16392 5.86502 4.1413 5.75 4.14133H0.875C0.642936 4.14133 0.420376 4.23352 0.256282 4.39761C0.0921872 4.56171 0 4.78427 0 5.01633C0 5.24839 0.0921872 5.47095 0.256282 5.63505C0.420376 5.79914 0.642936 5.89133 0.875 5.89133H5.3875L8.56625 9.06995ZM10.8046 19.82L10.1718 19.1875L11.0192 18.34L11.6508 18.9716L10.8046 19.82ZM15.2546 15.37L14.6217 14.737L15.4691 13.8896L16.1007 14.5212L15.2546 15.37ZM19.7046 10.9165L19.0732 10.2851L19.919 9.43933L20.5504 10.0707L19.7046 10.9165ZM19.298 5.39046L19.848 5.94146C19.9925 6.08685 20.0736 6.28352 20.0736 6.48852C20.0736 6.69352 19.9925 6.89019 19.848 7.03558L19.8464 7.03708L19.3013 7.5822L7.76963 19.1141C7.69748 19.1859 7.61188 19.2429 7.51771 19.2817C7.42355 19.3204 7.32266 19.3402 7.22083 19.34C7.119 19.3398 7.01821 19.3194 6.92423 19.2802C6.83026 19.241 6.74493 19.1837 6.67312 19.1115L6.125 18.5647L19.298 5.39046ZM15.3188 4.79195C15.4554 4.65814 15.639 4.5832 15.8302 4.5832C16.0214 4.5832 16.205 4.65814 16.3416 4.79195L16.8814 5.3317L6.06588 16.1481L5.52612 15.6085C5.39282 15.4716 5.31822 15.2881 5.31822 15.097C5.31822 14.906 5.39282 14.7224 5.52612 14.5856L15.3188 4.79195ZM47.5698 13.7113C47.5698 13.4793 47.6619 13.2567 47.826 13.0926C47.9901 12.9285 48.2127 12.8363 48.4448 12.8363H50.1875L51.3261 10.5006C51.4026 10.3437 51.5242 10.2132 51.6753 10.1259C51.8265 10.0386 52.0003 9.99858 52.1744 10.0109C52.3486 10.0232 52.515 10.0873 52.6524 10.1949C52.7898 10.3026 52.8919 10.4488 52.9455 10.615L53.9601 13.7536L54.5699 11.825C54.6245 11.6519 54.7317 11.5001 54.8764 11.3906C55.0212 11.2812 55.1964 11.2194 55.3778 11.2139C55.5592 11.2084 55.7378 11.2595 55.8889 11.36C56.04 11.4605 56.1561 11.6055 56.2211 11.775L57.1086 14.0825L57.1427 14.0423C57.2249 13.9455 57.3271 13.8676 57.4424 13.8142C57.5576 13.7609 57.6831 13.7332 57.8101 13.7332H60.5065C60.7386 13.7332 60.9611 13.8254 61.1252 13.9895C61.2893 14.1536 61.3815 14.3761 61.3815 14.6082C61.3815 14.8403 61.2893 15.0628 61.1252 15.2269C60.9611 15.391 60.7386 15.4832 60.5065 15.4832H58.2155L57.489 16.3397C57.3908 16.4556 57.2641 16.5439 57.1214 16.596C56.9787 16.648 56.8249 16.662 56.6751 16.6366C56.5254 16.6112 56.3848 16.5472 56.2673 16.451C56.1497 16.3548 56.0592 16.2296 56.0047 16.0878L55.485 14.7366L54.8037 16.8913C54.7479 17.0682 54.6372 17.2228 54.4877 17.3327C54.3382 17.4426 54.1577 17.5021 53.9721 17.5027H53.9694C53.7843 17.5027 53.604 17.4441 53.4544 17.3352C53.3048 17.2263 53.1935 17.0728 53.1366 16.8967L51.9479 13.2195L51.5211 14.0945C51.4493 14.2419 51.3374 14.3662 51.1983 14.4531C51.0592 14.54 50.8985 14.5861 50.7345 14.5861H48.4455C48.2135 14.5861 47.991 14.494 47.8269 14.33C47.6628 14.166 47.5705 13.9436 47.5704 13.7116L47.5698 13.7113ZM41.7986 7.87595C41.7986 7.64389 41.8908 7.42133 42.0549 7.25724C42.219 7.09314 42.4416 7.00095 42.6736 7.00095H45.579C45.8111 7.00095 46.0336 7.09314 46.1977 7.25724C46.3618 7.42133 46.454 7.64389 46.454 7.87595C46.454 8.10802 46.3618 8.33058 46.1977 8.49467C46.0336 8.65877 45.8111 8.75096 45.579 8.75096H42.6738C42.5588 8.75097 42.445 8.72835 42.3389 8.68439C42.2327 8.64042 42.1362 8.57597 42.055 8.49472C41.9737 8.41346 41.9092 8.317 41.8652 8.21083C41.8213 8.10466 41.7986 7.99087 41.7986 7.87595ZM41.7986 10.792C41.7986 10.5599 41.8908 10.3373 42.0549 10.1732C42.219 10.0091 42.4416 9.91695 42.6736 9.91695H45.579C45.8111 9.91695 46.0336 10.0091 46.1977 10.1732C46.3618 10.3373 46.454 10.5599 46.454 10.792C46.454 11.024 46.3618 11.2466 46.1977 11.4107C46.0336 11.5748 45.8111 11.667 45.579 11.667H42.6738C42.5588 11.667 42.445 11.6444 42.3389 11.6004C42.2327 11.5564 42.1362 11.492 42.055 11.4107C41.9737 11.3295 41.9092 11.233 41.8652 11.1268C41.8213 11.0207 41.7986 10.9069 41.7986 10.792Z" fill="#D82519"/>
</svg>
