<svg width="60" height="57" viewBox="0 0 60 57" fill="none" xmlns="http://www.w3.org/2000/svg">
<path d="M60 19.3301C60 14.1582 44.0527 4.22168 38.5879 3.15625C36.3105 1.41797 33.3477 0.5 30 0.5C26.6523 0.5 23.6895 1.41797 21.4121 3.15625C15.9473 4.22168 0 14.1582 0 19.3301C0 22.6353 2.4884 25.7823 7.01239 28.2393C7.14233 31.4838 9.77417 34.085 13 34.085C16.2373 34.085 20 31.4229 20 27.9902C20 24.5586 16.2373 21.8965 13 21.8965C12.0538 21.8965 11.1287 22.1338 10.2748 22.5726C9.14594 21.7825 8 20.6548 8 19.3301C8 17.0928 11.334 14.7822 16.7021 13.3008C16.8779 13.2529 17.0176 13.3145 17.0859 13.3564C17.1572 13.4004 17.2832 13.5029 17.3223 13.6982C17.8105 16.0996 19.1709 21.9502 21.2764 24.4014C21.7432 24.9443 22 25.6943 22 26.5137V35.8662C22 37.0234 22.6172 38.0977 23.6035 38.665L24.3906 39.127C24.7666 39.3438 25 39.7529 25 40.1963V51.4248C25 52.7656 25.5156 54.0371 26.4609 55.0127C27.3506 55.9082 28.5225 56.4336 29.7598 56.4941C29.8359 56.498 29.9121 56.5 29.9883 56.5C31.2119 56.499 32.3857 56.0195 33.3145 55.1348C34.3857 54.1152 35 52.6787 35 51.1953V40.1963C35 39.7529 35.2334 39.3438 35.6172 39.123L36.3887 38.6689C37.3828 38.0977 38 37.0234 38 35.8662V26.5137C38 25.6943 38.2568 24.9443 38.7236 24.4014C40.8291 21.9502 42.1895 16.0996 42.6777 13.6982C42.7168 13.5029 42.8428 13.4004 42.9141 13.3564C42.9824 13.3135 43.1211 13.251 43.2988 13.3008C48.666 14.7822 52 17.0928 52 19.3301C52 19.4189 51.9961 19.5068 51.9785 19.5957C51.9697 19.6396 51.9648 19.6904 51.9619 19.7393C51.959 19.7539 51.957 19.7686 51.9551 19.7803C51.9492 19.8232 51.9336 19.8691 51.9053 19.999C51.8623 20.123 51.8193 20.2373 51.7734 20.3467C51.7148 20.4814 51.6494 20.6172 51.5439 20.7803C51.4814 20.8838 51.4111 20.9873 51.332 21.0918C51.249 21.2012 51.1582 21.3105 51.0928 21.3848C51.0869 21.3906 51.0811 21.3975 51.0742 21.4033C51.0469 21.4297 51.0215 21.457 50.9971 21.4854C50.8896 21.6113 50.7656 21.7275 50.6416 21.8447C50.5146 21.9658 50.3779 22.0879 50.2285 22.2051C50.0775 22.3245 49.9248 22.4453 49.7321 22.5758C48.8808 22.1365 47.9512 21.8965 47 21.8965C43.7627 21.8965 40 24.5586 40 27.9902C40 31.4229 43.7627 34.085 47 34.085C50.2258 34.085 52.8577 31.4838 52.9876 28.2393C57.5116 25.7823 60 22.6353 60 19.3301ZM18 27.9902C18 30.1953 15.251 32.085 13 32.085C10.7939 32.085 9 30.248 9 27.9902C9 27.9297 8.99512 27.873 9.00488 27.8174C9.01074 27.7803 9.01562 27.7432 9.01758 27.7061C9.09656 26.4324 9.74274 25.2908 10.791 24.5708C11.4591 24.1297 12.2227 23.8965 13 23.8965C15.251 23.8965 18 25.7852 18 27.9902ZM47 32.085C44.749 32.085 42 30.1953 42 27.9902C42 25.7852 44.749 23.8965 47 23.8965C47.7803 23.8965 48.5469 24.1309 49.2051 24.5674C50.2559 25.2871 50.9033 26.4307 50.9824 27.7061C50.9844 27.7412 50.9893 27.7822 50.9951 27.8174C51.0049 27.873 51 27.9297 51 27.9902C51 30.248 49.2061 32.085 47 32.085ZM52.7061 26.1074C52.6695 25.9914 52.6214 25.8804 52.5782 25.7673C52.5453 25.6815 52.5179 25.5936 52.4813 25.5095C52.4138 25.3543 52.3349 25.2051 52.2548 25.0565C52.2293 25.0093 52.2088 24.9595 52.1821 24.9131C51.9604 24.5268 51.6967 24.1648 51.3926 23.834C51.417 23.8145 51.4414 23.7949 51.4658 23.7764C51.6611 23.623 51.8447 23.46 52.0186 23.2959C52.1846 23.1387 52.3486 22.9795 52.4941 22.8115C52.5117 22.7949 52.5273 22.7783 52.541 22.7627C52.6816 22.6074 52.8115 22.4512 52.9268 22.2979C53.0498 22.1357 53.1592 21.9756 53.2393 21.8408C53.3896 21.6094 53.5059 21.3779 53.6133 21.1318C53.6807 20.9697 53.7373 20.8203 53.8174 20.582C53.8359 20.5127 53.8457 20.4668 53.8379 20.4824C53.8867 20.3193 53.9297 20.1387 53.9453 19.9766C53.9463 19.9629 53.9482 19.9482 53.9502 19.9346C53.9863 19.7334 54 19.5322 54 19.3301C54 16.0566 50.293 13.1572 43.8311 11.373C43.1709 11.1904 42.4551 11.291 41.8682 11.6523C41.2754 12.0156 40.8564 12.6162 40.7168 13.2998C39.9834 16.915 38.6758 21.3867 37.2061 23.0986C36.4287 24.0029 36 25.2158 36 26.5137V35.8662C36 36.3096 35.7666 36.7197 35.3828 36.9404L34.6113 37.3945C33.6172 37.9658 33 39.04 33 40.1963V51.1953C33 52.1338 32.6123 53.042 31.9355 53.6865C31.3496 54.2451 30.625 54.5332 29.8574 54.4961C29.1191 54.46 28.416 54.1426 27.8887 53.6123C27.3154 53.0205 27 52.2441 27 51.4248V40.1963C27 39.04 26.3828 37.9658 25.3965 37.3984L24.6094 36.9365C24.2334 36.7197 24 36.3096 24 35.8662V26.5137C24 25.2158 23.5713 24.0029 22.7939 23.0986C21.3242 21.3867 20.0166 16.915 19.2832 13.2998C19.1436 12.6162 18.7246 12.0156 18.1318 11.6523C17.7363 11.4092 17.2832 11.2842 16.8271 11.2842C16.6064 11.2842 16.3848 11.3135 16.1699 11.373C9.70703 13.1572 6 16.0566 6 19.3301C6 20.4951 6.4834 22.1582 8.61133 23.8291C8.45923 23.9943 8.3172 24.1674 8.18518 24.3473C8.16125 24.3799 8.14215 24.4156 8.1189 24.4487C8.01318 24.5989 7.91052 24.7513 7.81909 24.9103C7.78149 24.9758 7.75183 25.0453 7.71674 25.1121C7.64801 25.2429 7.57782 25.3729 7.5188 25.5086C7.4798 25.5981 7.45032 25.6918 7.41565 25.7833C7.37482 25.8913 7.32867 25.9969 7.29395 26.1074C3.86816 24.0957 2 21.7188 2 19.3301C2 15.9014 16.874 5.84668 21.9775 5.08789C22.1523 5.06152 22.3164 4.99023 22.4551 4.87988C24.4004 3.32324 27.0098 2.5 30 2.5C32.9902 2.5 35.5996 3.32324 37.5449 4.87988C37.6836 4.99023 37.8477 5.06152 38.0225 5.08789C43.126 5.84668 58 15.9014 58 19.3301C58 21.7188 56.1318 24.0957 52.7061 26.1074Z" fill="#D82519"/>
<path d="M30.4043 8.49802L30 8.49997L29.5957 8.49802C28.2686 8.49021 26.9004 8.47946 25.8877 9.48532C25.0361 10.3301 24.6396 11.7236 24.6396 13.8701C24.6396 17.8404 26.1357 24.8832 29 26.2553V33.5C29 34.0527 29.4473 34.5 30 34.5C30.5527 34.5 31 34.0527 31 33.5V26.2553C33.8643 24.8832 35.3604 17.8404 35.3604 13.8701C35.3604 11.7236 34.9639 10.3301 34.1123 9.48532C33.0996 8.47946 31.7334 8.49021 30.4043 8.49802ZM30 24.5097C28.8252 24.5097 26.6396 19.041 26.6396 13.8701C26.6396 12.3349 26.8604 11.3369 27.2969 10.9043C27.6582 10.5449 28.2832 10.4961 29.2461 10.4961C29.3535 10.4961 29.4648 10.497 29.5811 10.498L30 10.5L30.4189 10.498C31.5762 10.4843 32.3008 10.5049 32.7031 10.9043C33.1396 11.3369 33.3604 12.3349 33.3604 13.8701C33.3604 19.041 31.1748 24.5097 30 24.5097Z" fill="#D82519"/>
</svg>
