<svg width="33" height="32" viewBox="0 0 33 32" fill="none" xmlns="http://www.w3.org/2000/svg">
<g clip-path="url(#clip0_757_2665)">
<path d="M5.69263 7.85352C5.73905 7.89996 5.79416 7.9368 5.85482 7.96193C5.91548 7.98707 5.98049 8 6.04615 8C6.11181 8 6.17682 7.98707 6.23748 7.96193C6.29814 7.9368 6.35325 7.89996 6.39967 7.85352L8.2533 6H8.79615V5H8.2533C8.12191 4.99964 7.99175 5.02534 7.87037 5.07563C7.74898 5.12592 7.63878 5.1998 7.54615 5.29297L6.04615 6.79285L4.39966 5.14649C4.30584 5.05303 4.17877 5.00061 4.04634 5.00073C3.91392 5.00086 3.78695 5.05352 3.69331 5.14716C3.59966 5.24081 3.547 5.36777 3.54688 5.5002C3.54675 5.63263 3.59917 5.7597 3.69263 5.85352L5.69263 7.85352Z" fill="black"/>
<path d="M13.2959 21.25V4.25C13.2959 3.78587 13.1115 3.34075 12.7833 3.01256C12.4551 2.68437 12.01 2.5 11.5459 2.5C11.0818 2.5 10.6366 2.68437 10.3085 3.01256C9.98027 3.34075 9.7959 3.78587 9.7959 4.25V21.25H10.7959V4.25C10.7959 4.05109 10.8749 3.86032 11.0156 3.71967C11.1562 3.57902 11.347 3.5 11.5459 3.5C11.7448 3.5 11.9356 3.57902 12.0762 3.71967C12.2169 3.86032 12.2959 4.05109 12.2959 4.25V21.25H13.2959Z" fill="black"/>
<path d="M26.5459 26.25V22.75C26.5453 22.2198 26.3344 21.7114 25.9594 21.3365C25.5845 20.9615 25.0761 20.7506 24.5459 20.75H21.0459C20.5157 20.7506 20.0073 20.9615 19.6324 21.3365C19.2574 21.7114 19.0465 22.2198 19.0459 22.75V26.25C19.0459 26.3826 19.0986 26.5098 19.1924 26.6035C19.2861 26.6973 19.4133 26.75 19.5459 26.75H26.0459C26.1785 26.75 26.3057 26.6973 26.3994 26.6035C26.4932 26.5098 26.5459 26.3826 26.5459 26.25ZM25.5459 25.75H20.0459V22.75C20.0462 22.4849 20.1517 22.2307 20.3391 22.0432C20.5266 21.8558 20.7808 21.7503 21.0459 21.75H24.5459C24.811 21.7503 25.0652 21.8558 25.2527 22.0432C25.4401 22.2307 25.5456 22.4849 25.5459 22.75V25.75Z" fill="black"/>
<path d="M29.7959 18.5C29.1994 18.5007 28.6275 18.738 28.2057 19.1598C27.7839 19.5816 27.5466 20.1535 27.5459 20.75V31C27.5462 31.2651 27.6517 31.5193 27.8391 31.7068C28.0266 31.8942 28.2808 31.9997 28.5459 32H31.0459C31.311 31.9997 31.5652 31.8942 31.7527 31.7068C31.9401 31.5193 32.0456 31.2651 32.0459 31V20.75C32.0452 20.1535 31.8079 19.5816 31.3861 19.1598C30.9643 18.738 30.3924 18.5007 29.7959 18.5ZM28.5459 31V20.75C28.5459 20.4185 28.6776 20.1005 28.912 19.8661C29.1464 19.6317 29.4644 19.5 29.7959 19.5C30.1274 19.5 30.4454 19.6317 30.6798 19.8661C30.9142 20.1005 31.0459 20.4185 31.0459 20.75L31.0465 31H28.5459Z" fill="black"/>
<path d="M1.0459 32H3.5459C3.81102 31.9997 4.0652 31.8942 4.25267 31.7068C4.44014 31.5193 4.5456 31.2651 4.5459 31V26.75H18.1331C18.0757 26.5895 18.0462 26.4204 18.0459 26.25V25.75H4.5459V23.25H18.0459V22.75C18.0469 22.5824 18.062 22.4151 18.0911 22.25H4.5459V16.25C4.5459 15.6533 4.30885 15.081 3.88689 14.659C3.46493 14.2371 2.89264 14 2.2959 14C1.69916 14 1.12687 14.2371 0.704908 14.659C0.282951 15.081 0.0458984 15.6533 0.0458984 16.25L0.0458984 31C0.0462015 31.2651 0.151656 31.5193 0.339126 31.7068C0.526597 31.8942 0.780775 31.9997 1.0459 32ZM1.0459 16.25C1.0459 15.9185 1.17759 15.6005 1.41201 15.3661C1.64644 15.1317 1.96438 15 2.2959 15C2.62742 15 2.94536 15.1317 3.17978 15.3661C3.4142 15.6005 3.5459 15.9185 3.5459 16.25L3.54651 31H1.0459V16.25Z" fill="black"/>
<path d="M13.6126 31.7499C13.6453 31.807 13.689 31.8571 13.7411 31.8973C13.7932 31.9374 13.8527 31.967 13.9162 31.9841C13.9797 32.0013 14.046 32.0057 14.1113 31.9972C14.1765 31.9887 14.2394 31.9674 14.2964 31.9345C14.3534 31.9016 14.4033 31.8578 14.4434 31.8056C14.4834 31.7534 14.5127 31.6938 14.5297 31.6302C14.5466 31.5666 14.5509 31.5003 14.5421 31.4351C14.5334 31.3699 14.5119 31.307 14.4788 31.2501L13.325 29.2501C13.3169 29.236 13.3051 29.2251 13.2957 29.212V27.75H12.2957V29H10.7957V27.75H9.79574V29.212C9.78637 29.2251 9.77459 29.236 9.76644 29.2501L8.61263 31.2501C8.57957 31.307 8.55806 31.3699 8.54934 31.4351C8.54061 31.5003 8.54485 31.5666 8.56179 31.6302C8.57874 31.6937 8.60807 31.7534 8.6481 31.8056C8.68813 31.8578 8.73807 31.9016 8.79507 31.9345C8.85206 31.9674 8.91498 31.9887 8.98022 31.9972C9.04547 32.0057 9.11175 32.0013 9.17528 31.9841C9.2388 31.967 9.29831 31.9374 9.35041 31.8972C9.4025 31.857 9.44614 31.807 9.47884 31.7499L10.4884 30H12.6031L13.6126 31.7499Z" fill="black"/>
<path d="M17.0459 17C17.4436 16.9996 17.8249 16.8414 18.1061 16.5602C18.3873 16.279 18.5455 15.8977 18.5459 15.5V14.894C18.7685 14.7968 18.958 14.6368 19.0912 14.4336C19.2243 14.2305 19.2955 13.9929 19.2959 13.75V10.75C19.295 10.2406 19.1215 9.74649 18.8037 9.34837C18.4859 8.95025 18.0425 8.67162 17.5459 8.55794V7.70704L19.3994 5.85352C19.4928 5.75968 19.5451 5.63265 19.5449 5.50028C19.5447 5.36792 19.4921 5.24103 19.3985 5.14744C19.3049 5.05384 19.178 5.00118 19.0456 5.00101C18.9133 5.00083 18.7862 5.05315 18.6924 5.14649L17.0459 6.79285L15.5459 5.29297C15.4533 5.1998 15.3431 5.12592 15.2217 5.07563C15.1003 5.02534 14.9701 4.99964 14.8387 5H14.2959V6H14.8389L16.5459 7.70704V8.55794C16.0493 8.67162 15.6059 8.95025 15.2881 9.34837C14.9703 9.74649 14.7968 10.2406 14.7959 10.75V13.75C14.7963 13.9929 14.8675 14.2305 15.0006 14.4336C15.1338 14.6368 15.3233 14.7968 15.5459 14.894V15.5C15.5463 15.8977 15.7045 16.279 15.9857 16.5602C16.2669 16.8414 16.6482 16.9996 17.0459 17ZM17.5459 15.5C17.5459 15.6326 17.4932 15.7598 17.3995 15.8536C17.3057 15.9473 17.1785 16 17.0459 16C16.9133 16 16.7861 15.9473 16.6923 15.8536C16.5986 15.7598 16.5459 15.6326 16.5459 15.5V15H17.5459V15.5ZM15.7959 10.75C15.7959 10.4185 15.9276 10.1005 16.162 9.86612C16.3964 9.6317 16.7144 9.5 17.0459 9.5C17.3774 9.5 17.6954 9.6317 17.9298 9.86612C18.1642 10.1005 18.2959 10.4185 18.2959 10.75V11H15.7959V10.75ZM15.7959 12H18.2959V13.75C18.2958 13.8163 18.2694 13.8798 18.2226 13.9267C18.1757 13.9736 18.1122 13.9999 18.0459 14H16.0459C15.9796 13.9999 15.9161 13.9736 15.8692 13.9267C15.8224 13.8798 15.796 13.8163 15.7959 13.75V12Z" fill="black"/>
<path d="M31.0459 0H24.5459C24.2808 0.000303046 24.0266 0.105757 23.8391 0.293228C23.6517 0.480699 23.5462 0.734877 23.5459 1V7.5C23.5462 7.76512 23.6517 8.0193 23.8391 8.20677C24.0266 8.39424 24.2808 8.4997 24.5459 8.5H31.0459C31.311 8.4997 31.5652 8.39424 31.7527 8.20677C31.9401 8.0193 32.0456 7.76512 32.0459 7.5V1C32.0456 0.734877 31.9401 0.480699 31.7527 0.293228C31.5652 0.105757 31.311 0.000303046 31.0459 0ZM28.2959 1H31.0459L31.0461 3.75H28.2959V1ZM27.2959 7.5H24.5459V4.75H27.2959V7.5ZM27.2959 3.75H24.5459V1H27.2959V3.75ZM28.2959 7.5V4.75H31.0462L31.0465 7.5H28.2959Z" fill="black"/>
<path d="M26.2959 28.75V28.25C26.2959 28.1174 26.2432 27.9902 26.1495 27.8964C26.0557 27.8027 25.9285 27.75 25.7959 27.75C25.6633 27.75 25.5361 27.8027 25.4423 27.8964C25.3486 27.9902 25.2959 28.1174 25.2959 28.25V28.75C25.2959 28.8826 25.3486 29.0098 25.4423 29.1036C25.5361 29.1973 25.6633 29.25 25.7959 29.25C25.9285 29.25 26.0557 29.1973 26.1495 29.1036C26.2432 29.0098 26.2959 28.8826 26.2959 28.75Z" fill="black"/>
<path d="M24.2959 28.75V28.25C24.2959 28.1174 24.2432 27.9902 24.1495 27.8964C24.0557 27.8027 23.9285 27.75 23.7959 27.75C23.6633 27.75 23.5361 27.8027 23.4423 27.8964C23.3486 27.9902 23.2959 28.1174 23.2959 28.25V28.75C23.2959 28.8826 23.3486 29.0098 23.4423 29.1036C23.5361 29.1973 23.6633 29.25 23.7959 29.25C23.9285 29.25 24.0557 29.1973 24.1495 29.1036C24.2432 29.0098 24.2959 28.8826 24.2959 28.75Z" fill="black"/>
<path d="M22.2959 28.75V28.25C22.2959 28.1174 22.2432 27.9902 22.1495 27.8964C22.0557 27.8027 21.9285 27.75 21.7959 27.75C21.6633 27.75 21.5361 27.8027 21.4423 27.8964C21.3486 27.9902 21.2959 28.1174 21.2959 28.25V28.75C21.2959 28.8826 21.3486 29.0098 21.4423 29.1036C21.5361 29.1973 21.6633 29.25 21.7959 29.25C21.9285 29.25 22.0557 29.1973 22.1495 29.1036C22.2432 29.0098 22.2959 28.8826 22.2959 28.75Z" fill="black"/>
<path d="M20.2959 28.75V28.25C20.2959 28.1174 20.2432 27.9902 20.1495 27.8964C20.0557 27.8027 19.9285 27.75 19.7959 27.75C19.6633 27.75 19.5361 27.8027 19.4423 27.8964C19.3486 27.9902 19.2959 28.1174 19.2959 28.25V28.75C19.2959 28.8826 19.3486 29.0098 19.4423 29.1036C19.5361 29.1973 19.6633 29.25 19.7959 29.25C19.9285 29.25 20.0557 29.1973 20.1495 29.1036C20.2432 29.0098 20.2959 28.8826 20.2959 28.75Z" fill="black"/>
</g>
<defs>
<clipPath id="clip0_757_2665">
<rect width="32" height="32" fill="white" transform="translate(0.0458984)"/>
</clipPath>
</defs>
</svg>
