<svg width="62" height="64" viewBox="0 0 62 64" fill="none" xmlns="http://www.w3.org/2000/svg">
<path d="M59.6975 40.248C56.9344 35.4623 50.8249 33.8244 46.0383 36.5881L40.961 39.5194V28.6649C40.961 27.323 40.5173 25.9914 39.7111 24.9151L33.4615 16.5825V13.0343C34.9163 12.5183 35.9614 11.129 35.9614 9.49938V3.74975C35.9611 1.68212 34.279 0 32.2114 0H9.71252C7.64489 0 5.96264 1.68212 5.96264 3.74975V9.4995C5.96264 11.1289 7.00777 12.5184 8.46252 13.0344V16.5826L2.21239 24.9158C1.40664 25.9915 0.962891 27.323 0.962891 28.6649V52.8724C0.962891 56.3185 3.76652 59.122 7.21252 59.122H27.3003C30.1029 63.8199 36.1461 65.3921 40.8833 62.6569L56.0378 53.9072C60.7821 51.1675 62.4745 45.0599 59.6975 40.248ZM8.46252 3.74975C8.46252 3.0605 9.02327 2.49975 9.71239 2.49975H32.2113C32.9005 2.49975 33.4613 3.0605 33.4613 3.74975V9.4995C33.4613 10.1888 32.9005 10.7494 32.2113 10.7494H9.71252C9.02327 10.7494 8.46264 10.1886 8.46264 9.4995L8.46252 3.74975ZM4.21289 26.4149L10.7124 17.7491C10.8746 17.5329 10.9624 17.2696 10.9624 16.9991V13.2494H30.9614V15.7493H19.712C19.0218 15.7493 18.462 16.309 18.462 16.9993C18.462 17.6895 19.0218 18.2493 19.712 18.2493H31.5864L37.7105 26.4145C38.1108 26.9489 38.3594 27.5883 38.4345 28.2488H3.48939C3.56439 27.5881 3.81302 26.9488 4.21289 26.4149ZM7.21264 56.6221C5.14502 56.6221 3.46289 54.94 3.46289 52.8724V51.61H26.1723C25.7759 53.2306 25.7785 54.9616 26.2324 56.6222H7.21264V56.6221ZM27.1526 49.1225H3.46277V30.7484H38.461V40.9625L30.8836 45.3377C29.3038 46.2504 28.0268 47.5495 27.1526 49.1225ZM39.6335 60.4919C36.0464 62.5632 31.4626 61.3383 29.3899 57.7486C27.3073 54.1244 28.5694 49.5614 32.1339 47.5025L38.9185 43.5853L46.4181 56.5746L39.6335 60.4919ZM54.7878 51.7424L48.5831 55.3247L41.0834 42.3351L47.2881 38.7531C50.8776 36.6809 55.4598 37.908 57.5325 41.4977C59.6144 45.1055 58.3484 49.6862 54.7878 51.7424Z" fill="#D82519"/>
</svg>
