<svg width="64" height="65" viewBox="0 0 64 65" fill="none" xmlns="http://www.w3.org/2000/svg">
<path d="M42.7549 6.68701H40.6038C32.8918 6.68701 26.6218 12.9577 26.6218 20.6691V44.3312C26.6218 44.5078 26.6282 44.6825 26.6352 44.8579C26.6166 44.991 26.6243 45.1241 26.6557 45.2534C27.1318 52.5366 33.2022 58.3139 40.6038 58.3139H42.7549C50.1565 58.3139 56.2269 52.5366 56.7037 45.2541C56.7344 45.1248 56.7421 44.9904 56.7242 44.856C56.7306 44.6819 56.737 44.5078 56.737 44.3318V37.2643C56.737 36.6729 56.2531 36.1885 55.6618 36.1885C55.0704 36.1885 54.5968 36.6621 54.5859 37.2432V37.2643V44.3312C54.5859 44.3382 54.5853 44.3446 54.5853 44.3523C45.9062 48.8355 37.4506 48.8355 28.7728 44.3516C28.7728 44.3452 28.7722 44.3382 28.7722 44.3312V37.0173C30.888 37.896 33.0333 38.296 35.1658 38.296C42.4099 38.296 49.4787 33.7673 54.5859 28.4515V28.6601C54.5859 29.2515 55.0704 29.7353 55.6618 29.7353C56.2531 29.7353 56.737 29.2515 56.737 28.6601V20.6691C56.7376 12.9577 50.4669 6.68701 42.7549 6.68701ZM41.6797 49.8339C45.8934 49.8339 50.1078 48.8528 54.2986 46.8918C53.1152 52.1757 48.383 56.1533 42.7549 56.1622H40.6038C34.9763 56.1533 30.2442 52.1763 29.0602 46.8918C33.2522 48.8528 37.4659 49.8339 41.6797 49.8339ZM28.7728 34.6569V20.6691C28.783 14.1622 34.097 8.84829 40.6038 8.83805H42.7549C49.2618 8.84829 54.5757 14.1622 54.5859 20.6691V25.2451C48.3645 32.5411 38.0515 39.1728 28.7728 34.6569ZM56.7376 32.9622C56.7376 33.5536 56.2538 34.0374 55.6624 34.0374C55.071 34.0374 54.5866 33.5536 54.5866 32.9622C54.5866 32.3709 55.071 31.8864 55.6624 31.8864C56.2531 31.8864 56.7376 32.3709 56.7376 32.9622ZM41.6797 10.9891C36.3421 10.9891 31.9997 15.3309 31.9997 20.6691C31.9997 26.0067 36.3414 30.3491 41.6797 30.3491C47.0173 30.3491 51.3597 26.0067 51.3597 20.6691C51.3597 15.3309 47.0173 10.9891 41.6797 10.9891ZM45.9664 26.8496C45.9734 26.7619 45.9818 26.6742 45.9818 26.5846C45.9818 24.5091 44.0522 22.8201 41.6797 22.8201C39.3066 22.8201 37.3776 24.5091 37.3776 26.5846C37.3776 26.6742 37.3859 26.7619 37.393 26.8496C35.4365 25.4883 34.1514 23.2265 34.1514 20.6691C34.1514 16.831 37.041 13.6598 40.7568 13.2029C41.0493 14.2147 41.7238 14.8899 42.4413 15.6073C42.6442 15.8089 42.7555 16.079 42.7555 16.367C42.7555 16.9603 42.2736 17.4422 41.6803 17.4422C41.0858 17.4422 40.6045 17.9235 40.6045 18.5181C40.6045 19.1126 41.0858 19.5933 41.6803 19.5933C43.4595 19.5933 44.9066 18.1456 44.9066 16.367C44.9066 15.5037 44.5706 14.6928 43.937 14.0617C43.6285 13.7526 43.3962 13.5145 43.2195 13.3001C46.6346 14.0131 49.2086 17.0461 49.2086 20.6697C49.2086 23.2272 47.9229 25.4883 45.9664 26.8496ZM41.6797 28.1981C41.5939 28.1981 41.5101 28.1929 41.4269 28.1853C40.3754 28.088 39.5286 27.3955 39.5286 26.5853C39.5286 25.7104 40.5142 24.9718 41.6797 24.9718C42.8458 24.9718 43.8307 25.7104 43.8307 26.5853C43.8307 27.3961 42.984 28.0886 41.9318 28.1853C41.8493 28.1929 41.7648 28.1981 41.6797 28.1981ZM23.3955 48.6333H22.3203V43.2553V23.8953C22.3203 22.2198 21.0358 20.8387 19.3994 20.6845L18.5238 17.1817C18.4042 16.7024 17.9741 16.367 17.4806 16.367H16.943V7.76221C16.943 7.16765 16.4618 6.68701 15.8672 6.68701C15.2733 6.68701 14.792 7.16765 14.792 7.76221V16.367H14.2544C13.761 16.367 13.3309 16.703 13.2112 17.1817L12.3357 20.6845C10.6992 20.8387 9.41471 22.2192 9.41471 23.8953V43.2553V48.6333H8.33951C7.74559 48.6333 7.26367 49.1145 7.26367 49.7091C7.26367 50.303 7.74495 50.7843 8.33951 50.7843H10.4906H14.7926V56.1622H11.5658C10.9718 56.1622 10.4906 56.6435 10.4906 57.2381C10.4906 57.8326 10.9718 58.3133 11.5658 58.3133H15.8678H20.1706C20.7645 58.3133 21.2458 57.8326 21.2458 57.2381C21.2458 56.6435 20.7645 56.1622 20.1706 56.1622H16.9437V50.7843H21.2458H23.3968C23.9907 50.7843 24.4726 50.303 24.4726 49.7091C24.4707 49.1145 23.9894 48.6333 23.3955 48.6333ZM15.8666 18.5181H16.6397L17.1773 20.6691H14.5546L15.0922 18.5181H15.8666ZM11.5638 23.8953C11.5638 23.3021 12.0464 22.8201 12.6397 22.8201H13.1773H18.5546H19.0922C19.6854 22.8201 20.168 23.3021 20.168 23.8953V42.1801H16.9411H14.7901H11.5632L11.5638 23.8953ZM11.5638 44.3312H14.7907V48.6333H11.5638V44.3312ZM16.9418 44.3312H20.1686V48.6333H16.9418V44.3312ZM15.8666 38.9533V26.047C15.8666 25.4525 16.3485 24.9712 16.9424 24.9712C17.5363 24.9712 18.0182 25.4525 18.0182 26.047V38.9533C18.0182 39.5478 17.5363 40.0291 16.9424 40.0291C16.3485 40.0291 15.8666 39.5478 15.8666 38.9533Z" fill="#D82519"/>
</svg>
