<svg width="64" height="64" viewBox="0 0 64 64" fill="none" xmlns="http://www.w3.org/2000/svg">
<path d="M34.1328 54.5357L41.5442 61.8207C42.3539 62.6166 43.4439 63.0627 44.5793 63.0627H48.2574C49.5239 63.0627 50.4354 61.8463 50.0799 60.6307L47.8596 53.0403C48.6577 53.1431 49.4774 53.1764 50.3132 53.1328C57.3806 52.7631 62.9981 46.8868 63.0622 39.8099C63.1086 34.6952 60.3027 30.2323 56.1391 27.9132C55.3279 22.1791 50.9058 17.6059 45.2471 16.5701" stroke="#D82519" stroke-width="1.875" stroke-miterlimit="10" stroke-linecap="round" stroke-linejoin="round"/>
<path d="M3.9595 28.5229C1.9545 30.9831 0.801373 34.1651 0.950373 37.6193C1.25487 44.6838 7.07162 50.3527 14.1412 50.4876C16.5362 50.5332 18.7916 49.9528 20.756 48.9001C22.6349 50.6082 25.131 51.6495 27.8704 51.6495C28.8819 51.6495 29.859 51.5045 30.7854 51.2395" stroke="#D82519" stroke-width="1.875" stroke-miterlimit="10" stroke-linecap="round" stroke-linejoin="round"/>
<path d="M36.3208 18.3991C33.8752 15.893 30.1325 14.137 26.3542 14.137C20.3153 14.137 15.205 18.1121 13.4966 23.5882C11.2402 23.7383 9.13596 24.4441 7.31934 25.57" stroke="#D82519" stroke-width="1.875" stroke-miterlimit="10" stroke-linecap="round" stroke-linejoin="round"/>
<path d="M46.4392 8.28028L53.0471 1.67241C54.0269 0.692531 55.6157 0.692531 56.5956 1.67241C57.5754 2.65228 57.5754 4.24103 56.5956 5.22091L38.0717 23.7448C37.5999 24.2165 36.8349 24.2165 36.3632 23.7448L33.6689 21.0505L43.1918 11.5277" stroke="#D82519" stroke-width="1.875" stroke-miterlimit="10" stroke-linecap="round" stroke-linejoin="round"/>
<path d="M36.321 23.7022L33.6693 21.0505L23.4111 31.3088C22.7852 31.9347 23.2016 33.006 24.086 33.0449L27.4851 33.1942C29.0052 33.2609 30.47 32.6964 31.5318 31.6345C32.4408 30.7255 32.9776 29.5298 33.0785 28.2675C33.1546 27.316 33.5933 26.4298 34.2682 25.7548L36.321 23.7022Z" stroke="#D82519" stroke-width="1.875" stroke-miterlimit="10" stroke-linecap="round" stroke-linejoin="round"/>
<path d="M20.7556 48.8999C17.9335 46.4022 17.4146 41.7916 18.9071 38.5996" stroke="#D82519" stroke-width="1.875" stroke-miterlimit="10" stroke-linecap="round" stroke-linejoin="round"/>
<path d="M17.4184 27.9474C17.2314 27.5945 24.9381 38.4285 45.795 37.7283" stroke="#D82519" stroke-width="1.875" stroke-miterlimit="10" stroke-linecap="round" stroke-linejoin="round" stroke-dasharray="4.12 4.12"/>
<path d="M30.7852 51.2391C32.2994 50.6142 35.5545 48.8997 37.1023 45.7812" stroke="#D82519" stroke-width="1.875" stroke-miterlimit="10" stroke-linecap="round" stroke-linejoin="round"/>
<path d="M56.1386 27.9131C56.5542 31.8082 56.3837 36.935 49.8438 41.174" stroke="#D82519" stroke-width="1.875" stroke-miterlimit="10" stroke-linecap="round" stroke-linejoin="round"/>
<path d="M43.1924 26.6931C43.1924 26.6931 43.5091 32.1115 49.8443 31.9915" stroke="#D82519" stroke-width="1.875" stroke-miterlimit="10" stroke-linecap="round" stroke-linejoin="round"/>
<path d="M23.2637 43.1714C23.2637 44.7743 24.7857 47.9508 28.2788 47.1661" stroke="#D82519" stroke-width="1.875" stroke-miterlimit="10" stroke-linecap="round" stroke-linejoin="round"/>
<path d="M13.4673 33.1997C13.3417 35.0163 11.9187 38.9605 6.70996 39.316" stroke="#D82519" stroke-width="1.875" stroke-miterlimit="10" stroke-linecap="round" stroke-linejoin="round"/>
</svg>
