<svg width="64" height="64" viewBox="0 0 64 64" fill="none" xmlns="http://www.w3.org/2000/svg">
<path d="M61.097 24.4152C61.097 21.4668 59.5848 18.8728 57.2948 17.3626C57.9222 16.4538 58.2904 15.3524 58.2904 14.1645C58.2904 11.0512 55.7666 8.52745 52.6533 8.52745C52.2154 8.52745 51.7897 8.57906 51.3805 8.67363C50.2288 4.22499 46.1879 0.939453 41.3792 0.939453C37.2205 0.939453 33.6381 3.39809 32.0001 6.94005C30.3621 3.39809 26.7797 0.939453 22.621 0.939453C17.8124 0.939453 13.7715 4.22499 12.6197 8.67363C12.2105 8.57906 11.7848 8.52745 11.3469 8.52745C8.23361 8.52745 5.70983 11.0512 5.70983 14.1645C5.70983 15.3524 6.07812 16.4538 6.70558 17.3626C4.41556 18.8728 2.90332 21.4668 2.90332 24.4152C2.90332 26.9916 4.05867 29.297 5.87794 30.8457C5.19798 31.9729 4.80627 33.2935 4.80627 34.7059C4.80627 38.8392 8.15707 42.19 12.2904 42.19C14.792 42.19 17.0053 40.9615 18.3643 39.0761C19.7257 40.9981 21.9655 42.254 24.5001 42.254C28.4936 42.254 31.7581 39.139 32.0001 35.2064C32.2421 39.139 35.5066 42.254 39.5002 42.254C42.0347 42.254 44.2746 40.9982 45.6359 39.0761C46.9948 40.9615 49.2082 42.19 51.7098 42.19C55.8431 42.19 59.1939 38.8392 59.1939 34.7059C59.1939 33.2936 58.8022 31.9729 58.1223 30.8457C59.9417 29.297 61.097 26.9917 61.097 24.4152Z" stroke="#D82519" stroke-width="1.87902" stroke-miterlimit="10"/>
<path d="M32 30.0522V35.6893" stroke="#D82519" stroke-width="1.87902" stroke-miterlimit="10"/>
<path d="M32 6.93994V28.2052" stroke="#D82519" stroke-width="1.87902" stroke-miterlimit="10"/>
<path d="M32 18.85C32 14.6867 35.3688 11.3179 39.5321 11.3179" stroke="#D82519" stroke-width="1.87902" stroke-miterlimit="10"/>
<path d="M51.374 8.64551C49.4837 9.09873 47.9658 10.5096 47.3623 12.3365" stroke="#D82519" stroke-width="1.87902" stroke-miterlimit="10"/>
<path d="M48.927 15.9593C48.927 13.3648 46.8239 11.2617 44.2295 11.2617" stroke="#D82519" stroke-width="1.87902" stroke-miterlimit="10"/>
<path d="M45.1689 33.5735C48.4106 32.7391 50.806 29.7964 50.806 26.2942C50.806 24.9251 50.44 23.6416 49.8005 22.5361" stroke="#D82519" stroke-width="1.87902" stroke-miterlimit="10"/>
<path d="M40.4776 36.5634C38.8783 33.6227 39.3986 29.8641 41.961 27.4769C42.9627 26.5437 44.1514 25.9366 45.3961 25.6509" stroke="#D82519" stroke-width="1.87902" stroke-miterlimit="10"/>
<path d="M46.1084 20.6572C46.9655 21.7982 48.3299 22.5361 49.8667 22.5361C51.4035 22.5361 52.7679 21.7982 53.625 20.6572" stroke="#D82519" stroke-width="1.87902" stroke-miterlimit="10"/>
<path d="M40.5156 29.3233C38.8065 28.355 37.6533 26.5198 37.6533 24.4154C37.6533 22.9713 38.1962 21.6541 39.0891 20.6567" stroke="#D82519" stroke-width="1.87902" stroke-miterlimit="10"/>
<path d="M32.0155 18.85C32.0155 14.6867 28.6467 11.3179 24.4834 11.3179" stroke="#D82519" stroke-width="1.87902" stroke-miterlimit="10"/>
<path d="M12.6426 8.64551C14.5329 9.09873 16.0508 10.5096 16.6543 12.3365" stroke="#D82519" stroke-width="1.87902" stroke-miterlimit="10"/>
<path d="M15.0889 15.9593C15.0889 13.3648 17.192 11.2617 19.7864 11.2617" stroke="#D82519" stroke-width="1.87902" stroke-miterlimit="10"/>
<path d="M18.847 33.5735C15.6053 32.7391 13.21 29.7964 13.21 26.2942C13.21 24.9251 13.576 23.6416 14.2155 22.5361" stroke="#D82519" stroke-width="1.87902" stroke-miterlimit="10"/>
<path d="M23.5377 36.5634C25.137 33.6227 24.6167 29.8641 22.0542 27.4769C21.0526 26.5437 19.8639 25.9366 18.6191 25.6509" stroke="#D82519" stroke-width="1.87902" stroke-miterlimit="10"/>
<path d="M17.9072 20.6572C17.0501 21.7982 15.6857 22.5361 14.1489 22.5361C12.6121 22.5361 11.2477 21.7982 10.3906 20.6572" stroke="#D82519" stroke-width="1.87902" stroke-miterlimit="10"/>
<path d="M23.501 29.3233C25.21 28.355 26.3632 26.5198 26.3632 24.4154C26.3632 22.9713 25.8203 21.6541 24.9274 20.6567" stroke="#D82519" stroke-width="1.87902" stroke-miterlimit="10"/>
<path d="M7.79883 40.6934C8.79433 44.8241 12.5138 47.893 16.9502 47.893C20.8381 47.893 24.1756 45.5358 25.6113 42.1725" stroke="#D82519" stroke-width="1.87902" stroke-miterlimit="10"/>
<path d="M56.4434 40.6934C55.4479 44.8241 51.7284 47.893 47.292 47.893C43.4041 47.893 40.0666 45.5358 38.6309 42.1725" stroke="#D82519" stroke-width="1.87902" stroke-miterlimit="10"/>
<path d="M22.6211 45.9927L24.8802 47.1347C26.952 48.1821 28.2582 50.306 28.2582 52.6275V63.9998" stroke="#D82519" stroke-width="1.87902" stroke-miterlimit="10"/>
<path d="M35.8125 58.2373V63.9996" stroke="#D82519" stroke-width="1.87902" stroke-miterlimit="10"/>
<path d="M41.4496 45.9927L39.1905 47.1347C37.1187 48.1821 35.8125 50.306 35.8125 52.6275V56.3585" stroke="#D82519" stroke-width="1.87902" stroke-miterlimit="10"/>
<path d="M17.1006 7.81406C18.2465 5.94456 20.3088 4.69727 22.6622 4.69727" stroke="#D82519" stroke-width="1.87902" stroke-miterlimit="10" stroke-dasharray="1.88 1.88"/>
</svg>
