<svg width="58" height="57" viewBox="0 0 58 57" fill="none" xmlns="http://www.w3.org/2000/svg">
<path d="M13.653 56.6184C6.23514 56.6184 0.200195 50.5834 0.200195 43.1657C0.200195 35.7478 6.23514 29.7129 13.653 29.7129C21.0707 29.7129 27.1054 35.7478 27.1054 43.1657C27.1054 50.5834 21.0707 56.6184 13.653 56.6184ZM13.653 31.7129C7.33786 31.7129 2.2002 36.8506 2.2002 43.1657C2.2002 49.4807 7.33786 54.6184 13.653 54.6184C19.9675 54.6184 25.1053 49.4807 25.1053 43.1657C25.1054 36.8506 19.9676 31.7129 13.653 31.7129Z" fill="#D82519"/>
<path d="M13.6524 49.7595C10.016 49.7595 7.05762 46.8013 7.05762 43.1652C7.05762 39.529 10.016 36.5708 13.6524 36.5708C17.2885 36.5708 20.2467 39.529 20.2467 43.1652C20.2467 46.8013 17.2885 49.7595 13.6524 49.7595ZM13.6524 38.5711C11.1187 38.5711 9.05762 40.6321 9.05762 43.1654C9.05762 45.6985 11.1187 47.7595 13.6524 47.7595C16.1856 47.7595 18.2466 45.6985 18.2466 43.1654C18.2467 40.632 16.1857 38.5711 13.6524 38.5711Z" fill="#D82519"/>
<path d="M13.6524 5.9524C13.1 5.9524 12.6523 5.50465 12.6523 4.95233V1.3819C12.6523 0.82958 13.1 0.381836 13.6524 0.381836C14.2047 0.381836 14.6525 0.82958 14.6525 1.3819V4.95246C14.6525 5.50465 14.2047 5.9524 13.6524 5.9524Z" fill="#D82519"/>
<path d="M19.9337 8.5541C19.6779 8.5541 19.4219 8.45643 19.2266 8.26111C18.8359 7.87045 18.8359 7.23762 19.2266 6.84696L21.7514 4.32229C22.142 3.93163 22.7749 3.93163 23.1655 4.32229C23.5562 4.71294 23.5562 5.34578 23.1655 5.73643L20.6407 8.26111C20.4454 8.45643 20.1897 8.5541 19.9337 8.5541Z" fill="#D82519"/>
<path d="M26.1053 14.8346H22.5352C21.9828 14.8346 21.5352 14.3869 21.5352 13.8345C21.5352 13.2821 21.9828 12.8345 22.5352 12.8345H26.1053C26.6576 12.8345 27.1053 13.2821 27.1053 13.8345C27.1052 14.3869 26.6575 14.8346 26.1053 14.8346Z" fill="#D82519"/>
<path d="M22.4585 23.64C22.2025 23.64 21.9467 23.5424 21.7514 23.347L19.2266 20.8222C18.8359 20.4316 18.8359 19.7989 19.2266 19.4082C19.6172 19.0176 20.2501 19.0176 20.6407 19.4082L23.1655 21.9329C23.5562 22.3236 23.5562 22.9564 23.1655 23.347C22.9702 23.5424 22.7143 23.64 22.4585 23.64Z" fill="#D82519"/>
<path d="M13.6524 27.2874C13.1 27.2874 12.6523 26.8397 12.6523 26.2873V22.7169C12.6523 22.1645 13.1 21.7168 13.6524 21.7168C14.2047 21.7168 14.6525 22.1645 14.6525 22.7169V26.2873C14.6525 26.8397 14.2047 27.2874 13.6524 27.2874Z" fill="#D82519"/>
<path d="M4.84759 23.64C4.59172 23.64 4.33598 23.5424 4.14065 23.347C3.74999 22.9564 3.74999 22.3236 4.14065 21.9329L6.66532 19.4082C7.05598 19.0176 7.68881 19.0176 8.07946 19.4082C8.47012 19.7989 8.47012 20.4316 8.07946 20.8222L5.55466 23.347C5.35934 23.5424 5.10359 23.64 4.84759 23.64Z" fill="#D82519"/>
<path d="M4.77056 14.8346H1.20026C0.647811 14.8346 0.200195 14.3869 0.200195 13.8345C0.200195 13.2821 0.647811 12.8345 1.20026 12.8345H4.77069C5.32314 12.8345 5.77075 13.2821 5.77075 13.8345C5.77063 14.3869 5.32301 14.8346 4.77056 14.8346Z" fill="#D82519"/>
<path d="M7.37226 8.55397C7.11626 8.55397 6.86052 8.45631 6.66519 8.26098L4.14065 5.73643C3.74999 5.34578 3.74999 4.71294 4.14065 4.32229C4.5313 3.93163 5.16401 3.93163 5.55466 4.32229L8.07946 6.84696C8.47012 7.23762 8.47012 7.87045 8.07946 8.26111C7.88401 8.45631 7.62814 8.55397 7.37226 8.55397Z" fill="#D82519"/>
<path d="M13.6524 27.2812C10.2073 27.2812 6.76228 25.97 4.13994 23.3472C-1.10524 18.102 -1.10524 9.56732 4.13994 4.32226C9.38449 -0.923176 17.92 -0.923176 23.1648 4.32226C28.4099 9.56732 28.4099 18.102 23.1648 23.3472C20.5424 25.97 17.0974 27.2812 13.6524 27.2812ZM13.6524 2.38754C10.7194 2.38754 7.78679 3.50396 5.55396 5.73654C1.08868 10.2018 1.08868 17.4676 5.55396 21.9331C10.0199 26.3982 17.2849 26.3982 21.7507 21.9331C26.216 17.4677 26.216 10.2018 21.7507 5.73654C19.5179 3.50396 16.5853 2.38754 13.6524 2.38754Z" fill="#D82519"/>
<path d="M13.6531 18.8211C12.3208 18.8211 11.0689 18.3024 10.1272 17.3605C8.18287 15.4167 8.18287 12.2533 10.1272 10.3088C11.0689 9.36693 12.3208 8.84814 13.6531 8.84814C14.9847 8.84814 16.2366 9.36693 17.1784 10.3088C18.1208 11.2506 18.6396 12.5029 18.6396 13.8346C18.6396 15.1666 18.1204 16.4191 17.1784 17.3605C16.2368 18.3025 14.9847 18.8211 13.6531 18.8211ZM13.6531 10.8498C12.8881 10.8498 12.1233 11.1408 11.5412 11.7229C10.3773 12.8873 10.3773 14.782 11.5412 15.9464C12.705 17.1098 14.6 17.1105 15.7644 15.9464C16.3287 15.3824 16.6396 14.6323 16.6396 13.8346C16.6396 13.0369 16.3287 12.2869 15.7644 11.7229C15.1824 11.1408 14.4175 10.8498 13.6531 10.8498Z" fill="#D82519"/>
<path d="M8.96295 32.6283C8.41051 32.6283 7.96289 32.1806 7.96289 31.6282V25.3736C7.96289 24.8213 8.41051 24.3735 8.96295 24.3735C9.51527 24.3735 9.96302 24.8213 9.96302 25.3736V31.6282C9.96302 32.1806 9.51515 32.6283 8.96295 32.6283Z" fill="#D82519"/>
<path d="M18.3428 32.6283C17.7904 32.6283 17.3428 32.1806 17.3428 31.6282V25.3736C17.3428 24.8213 17.7904 24.3735 18.3428 24.3735C18.8952 24.3735 19.3428 24.8213 19.3428 25.3736V31.6282C19.3428 32.1806 18.8952 32.6283 18.3428 32.6283Z" fill="#D82519"/>
<path d="M44.3473 56.6184C36.9295 56.6184 30.8945 50.5834 30.8945 43.1657C30.8945 35.7478 36.9295 29.7129 44.3473 29.7129C51.7652 29.7129 57.7997 35.7477 57.7997 43.1657C57.7997 50.5834 51.7652 56.6184 44.3473 56.6184ZM44.3473 31.7129C38.0323 31.7129 32.8945 36.8506 32.8945 43.1657C32.8945 49.4807 38.0323 54.6184 44.3473 54.6184C50.6621 54.6184 55.7996 49.4807 55.7996 43.1657C55.7996 36.8506 50.6621 31.7129 44.3473 31.7129Z" fill="#D82519"/>
<path d="M44.3476 49.7595C40.7111 49.7595 37.7529 46.8013 37.7529 43.1652C37.7529 39.529 40.7111 36.5708 44.3476 36.5708C47.9837 36.5708 50.9421 39.529 50.9421 43.1652C50.9421 46.8013 47.9837 49.7595 44.3476 49.7595ZM44.3476 38.5711C41.814 38.5711 39.7529 40.6321 39.7529 43.1654C39.7529 45.6985 41.814 47.7595 44.3476 47.7595C46.881 47.7595 48.9419 45.6985 48.9419 43.1654C48.9419 40.632 46.881 38.5711 44.3476 38.5711Z" fill="#D82519"/>
<path d="M44.3477 5.9524C43.7953 5.9524 43.3477 5.50465 43.3477 4.95233V1.3819C43.3477 0.82958 43.7953 0.381836 44.3477 0.381836C44.9002 0.381836 45.3478 0.82958 45.3478 1.3819V4.95246C45.3478 5.50465 44.9002 5.9524 44.3477 5.9524Z" fill="#D82519"/>
<path d="M38.0667 8.55397C37.811 8.55397 37.555 8.45631 37.3597 8.26098L34.835 5.73643C34.4443 5.34578 34.4443 4.71294 34.835 4.32229C35.2256 3.93163 35.8585 3.93163 36.2491 4.32229L38.7738 6.84696C39.1645 7.23762 39.1645 7.87045 38.7738 8.26111C38.5785 8.45631 38.3227 8.55397 38.0667 8.55397Z" fill="#D82519"/>
<path d="M35.4652 14.8346H31.8946C31.3423 14.8346 30.8945 14.3869 30.8945 13.8345C30.8945 13.2821 31.3423 12.8345 31.8946 12.8345H35.4652C36.0175 12.8345 36.4652 13.2821 36.4652 13.8345C36.4652 14.3869 36.0175 14.8346 35.4652 14.8346Z" fill="#D82519"/>
<path d="M35.5421 23.64C35.2861 23.64 35.0303 23.5424 34.835 23.347C34.4443 22.9564 34.4443 22.3236 34.835 21.9329L37.3595 19.4082C37.7502 19.0176 38.383 19.0176 38.7737 19.4082C39.1643 19.7989 39.1643 20.4316 38.7737 20.8222L36.249 23.347C36.0538 23.5424 35.7979 23.64 35.5421 23.64Z" fill="#D82519"/>
<path d="M44.3477 27.2874C43.7953 27.2874 43.3477 26.8397 43.3477 26.2873V22.7169C43.3477 22.1645 43.7953 21.7168 44.3477 21.7168C44.9002 21.7168 45.3478 22.1645 45.3478 22.7169V26.2873C45.3478 26.8397 44.9002 27.2874 44.3477 27.2874Z" fill="#D82519"/>
<path d="M53.1527 23.64C52.8969 23.64 52.6409 23.5424 52.4456 23.347L49.9209 20.8222C49.5303 20.4316 49.5303 19.7989 49.9209 19.4082C50.3116 19.0176 50.9444 19.0176 51.3351 19.4082L53.8597 21.9329C54.2504 22.3236 54.2504 22.9564 53.8597 23.347C53.6644 23.5424 53.4085 23.64 53.1527 23.64Z" fill="#D82519"/>
<path d="M56.7996 14.8346H53.2296C52.6772 14.8346 52.2295 14.3869 52.2295 13.8345C52.2295 13.2821 52.6772 12.8345 53.2296 12.8345H56.7996C57.3521 12.8345 57.7997 13.2821 57.7997 13.8345C57.7997 14.3869 57.3521 14.8346 56.7996 14.8346Z" fill="#D82519"/>
<path d="M50.628 8.5541C50.372 8.5541 50.1162 8.45643 49.9209 8.26111C49.5303 7.87045 49.5303 7.23762 49.9209 6.84696L52.4456 4.32229C52.8362 3.93163 53.4691 3.93163 53.8597 4.32229C54.2504 4.71294 54.2504 5.34578 53.8597 5.73643L51.3351 8.26111C51.1397 8.45643 50.8839 8.5541 50.628 8.5541Z" fill="#D82519"/>
<path d="M44.3476 27.2812C40.9026 27.2812 37.4575 25.97 34.8352 23.3472C29.5901 18.102 29.5901 9.56732 34.8352 4.32226C40.0798 -0.923176 48.6153 -0.923176 53.8601 4.32226C59.1051 9.56732 59.1051 18.102 53.8601 23.3472C51.2377 25.97 47.7926 27.2812 44.3476 27.2812ZM44.3476 2.38754C41.4146 2.38754 38.4821 3.50396 36.2493 5.73654C31.7839 10.2018 31.7839 17.4676 36.2493 21.9331C40.7151 26.3982 47.9801 26.3982 52.4459 21.9331C56.9113 17.4677 56.9113 10.2018 52.4459 5.73654C50.2131 3.50396 47.2806 2.38754 44.3476 2.38754Z" fill="#D82519"/>
<path d="M44.3473 18.8211C43.0153 18.8211 41.7632 18.3024 40.8214 17.3605C38.8772 15.4167 38.8772 12.2533 40.8214 10.3088C41.7632 9.36693 43.0153 8.84814 44.3473 8.84814C45.679 8.84814 46.9311 9.36693 47.8727 10.3088C48.815 11.2506 49.3337 12.5029 49.3337 13.8346C49.3337 15.1666 48.8145 16.4191 47.8727 17.3605C46.9311 18.3025 45.679 18.8211 44.3473 18.8211ZM42.2356 11.7229C41.0714 12.8873 41.0714 14.782 42.2356 15.9464C43.3992 17.1098 45.2941 17.1105 46.4588 15.9464C47.0228 15.3824 47.3338 14.6323 47.3338 13.8346C47.3338 13.0369 47.0229 12.2869 46.4588 11.7229C45.2946 10.5584 43.3997 10.5591 42.2356 11.7229Z" fill="#D82519"/>
<path d="M49.0382 32.6283C48.4857 32.6283 48.0381 32.1806 48.0381 31.6282V25.3736C48.0381 24.8213 48.4857 24.3735 49.0382 24.3735C49.5905 24.3735 50.0382 24.8213 50.0382 25.3736V31.6282C50.0382 32.1806 49.5903 32.6283 49.0382 32.6283Z" fill="#D82519"/>
<path d="M39.6573 32.6283C39.105 32.6283 38.6572 32.1806 38.6572 31.6282V25.3736C38.6572 24.8213 39.105 24.3735 39.6573 24.3735C40.2097 24.3735 40.6574 24.8213 40.6574 25.3736V31.6282C40.6574 32.1806 40.2097 32.6283 39.6573 32.6283Z" fill="#D82519"/>
<path d="M32.1768 41.5211H25.8223C25.2699 41.5211 24.8223 41.0734 24.8223 40.5211C24.8223 39.9686 25.2699 39.521 25.8223 39.521H32.1768C32.7292 39.521 33.1768 39.9686 33.1768 40.5211C33.1768 41.0733 32.7292 41.5211 32.1768 41.5211Z" fill="#D82519"/>
<path d="M32.1768 46.8097H25.8223C25.2699 46.8097 24.8223 46.362 24.8223 45.8096C24.8223 45.2572 25.2699 44.8096 25.8223 44.8096H32.1768C32.7292 44.8096 33.1768 45.2572 33.1768 45.8096C33.1768 46.3618 32.7292 46.8097 32.1768 46.8097Z" fill="#D82519"/>
</svg>
