<svg width="64" height="64" viewBox="0 0 64 64" fill="none" xmlns="http://www.w3.org/2000/svg">
<path d="M16.824 35.4614L13.6371 38.6484C12.5279 39.7577 10.887 40.1451 9.39877 39.6489L8.47127 39.3398C5.47239 38.3402 2.23102 39.9609 1.23139 42.9598C0.545768 45.0166 1.08114 47.2841 2.61414 48.8169L4.79452 50.9973C5.07152 51.2743 5.19177 51.6714 5.11489 52.0554C4.73427 53.9583 5.32989 55.9256 6.70214 57.2978C8.07439 58.6701 10.0416 59.2657 11.9445 58.8851C12.3286 58.8082 12.7256 58.9284 13.0026 59.2054L15.183 61.3858C16.716 62.9188 18.9835 63.4541 21.0403 62.7686C24.0391 61.7689 25.6598 58.5276 24.6603 55.5287L24.3511 54.6012C23.855 53.1129 24.2424 51.4722 25.3516 50.3629L28.5385 47.1761" stroke="#D82519" stroke-width="1.875" stroke-miterlimit="10" stroke-linecap="round" stroke-linejoin="round"/>
<path d="M39.1085 7.50879C39.157 7.83041 39.2338 8.15216 39.3402 8.47116L39.6493 9.39866C40.1454 10.8869 39.758 12.5277 38.6488 13.6369L35.4619 16.8238" stroke="#D82519" stroke-width="1.875" stroke-miterlimit="10" stroke-linecap="round" stroke-linejoin="round"/>
<path d="M47.1761 28.5383C47.1762 28.5385 47.1762 28.5385 47.1761 28.5383ZM47.1761 28.5383L50.3631 25.3515C51.4724 24.2422 53.1132 23.8548 54.6014 24.351L55.5289 24.6601C58.5277 25.6597 61.7691 24.039 62.7687 21.0401C63.4542 18.9833 62.919 16.7158 61.386 15.183C59.2372 13.0342 56.323 11.8271 53.2842 11.8271C52.6705 11.8271 52.173 11.3296 52.173 10.7158C52.173 7.67709 50.9659 4.76271 48.8171 2.61409C47.2842 1.08109 45.0167 0.545838 42.96 1.23134C41.798 1.61871 40.8429 2.34259 40.167 3.25871" stroke="#D82519" stroke-width="1.875" stroke-miterlimit="10" stroke-linecap="round" stroke-linejoin="round"/>
<path d="M21.6463 45.4603C20.8513 45.4603 20.0564 45.1571 19.4498 44.5506C18.2368 43.3376 18.2368 41.3707 19.4498 40.1577L40.1582 19.4493C41.3713 18.2363 43.338 18.2363 44.551 19.4493C45.764 20.6623 45.764 22.6292 44.551 23.8423L23.8427 44.5506C23.2362 45.1571 22.4412 45.4603 21.6463 45.4603Z" stroke="#D82519" stroke-width="1.875" stroke-miterlimit="10" stroke-linecap="round" stroke-linejoin="round"/>
<path d="M39.1226 20.4846L35.4619 16.8238C34.6531 16.0151 33.342 16.0151 32.5333 16.8238L31.1939 18.1632C30.9368 18.4203 30.8334 18.7937 30.9215 19.1465L32.8294 26.7778" stroke="#D82519" stroke-width="1.875" stroke-miterlimit="10" stroke-linecap="round" stroke-linejoin="round"/>
<path d="M34.5859 33.8069L36.4142 41.1199C36.5118 41.5103 36.9979 41.6451 37.2826 41.3604L47.1757 31.4673C47.9844 30.6586 47.9844 29.3474 47.1757 28.5387L43.5149 24.8779" stroke="#D82519" stroke-width="1.875" stroke-miterlimit="10" stroke-linecap="round" stroke-linejoin="round"/>
<path d="M18.2167 31.1406L16.8243 32.533C16.0156 33.3418 16.0156 34.6529 16.8243 35.4616L20.4851 39.1224" stroke="#D82519" stroke-width="1.875" stroke-miterlimit="10" stroke-linecap="round" stroke-linejoin="round"/>
<path d="M29.4133 30.1933L27.5851 22.8803C27.4874 22.4899 27.0013 22.3552 26.7167 22.6398L21.3096 28.0469" stroke="#D82519" stroke-width="1.875" stroke-miterlimit="10" stroke-linecap="round" stroke-linejoin="round"/>
<path d="M24.8779 43.5154L28.5387 47.1762C29.3474 47.9849 30.6586 47.9849 31.4673 47.1762L32.8067 45.8368C33.0638 45.5797 33.1672 45.2064 33.0791 44.8535L31.1712 37.2222" stroke="#D82519" stroke-width="1.875" stroke-miterlimit="10" stroke-linecap="round" stroke-linejoin="round"/>
</svg>
