<svg width="64" height="64" viewBox="0 0 64 64" fill="none" xmlns="http://www.w3.org/2000/svg">
<g clip-path="url(#clip0_757_2469)">
<path d="M23.5705 9.46228C23.5017 9.20616 23.334 8.98784 23.1043 8.85535C22.8745 8.72286 22.6016 8.68704 22.3455 8.75578L20.7682 9.18078C20.3844 8.28493 19.8275 7.47367 19.1294 6.79356C18.4313 6.11345 17.6058 5.57786 16.7002 5.21753L17.146 3.55603C17.2147 3.29987 17.1788 3.02689 17.0463 2.79716C16.9138 2.56743 16.6954 2.39976 16.4392 2.33103C16.183 2.26231 15.9101 2.29816 15.6803 2.4307C15.4506 2.56324 15.2829 2.78162 15.2142 3.03778L14.7592 4.73453C12.8811 4.52399 10.9942 5.04696 9.49247 6.19428L8.07722 4.77853C7.98475 4.68396 7.87445 4.60867 7.75268 4.55702C7.63092 4.50537 7.50012 4.47839 7.36786 4.47764C7.2356 4.47688 7.10451 4.50238 6.98216 4.55264C6.85982 4.6029 6.74867 4.67693 6.65513 4.77045C6.5616 4.86397 6.48755 4.97511 6.43727 5.09744C6.38698 5.21977 6.36147 5.35086 6.36219 5.48313C6.36292 5.61539 6.38988 5.74619 6.44151 5.86796C6.49314 5.98973 6.56841 6.10005 6.66297 6.19253L8.07672 7.60628C6.9117 9.13872 6.38507 11.0626 6.60722 12.9748L4.79072 13.4618C4.66387 13.4958 4.54498 13.5545 4.44081 13.6345C4.33665 13.7144 4.24925 13.8142 4.18362 13.9279C4.118 14.0417 4.07542 14.1672 4.05832 14.2974C4.04122 14.4276 4.04993 14.5599 4.08397 14.6868C4.15952 14.9386 4.32842 15.152 4.55614 15.2834C4.78385 15.4148 5.05316 15.4542 5.30897 15.3935L7.10747 14.9113C7.83374 16.6817 9.2165 18.1027 10.9665 18.877L10.5085 20.5943C10.4402 20.8505 10.4765 21.1234 10.6094 21.3529C10.7423 21.5824 10.961 21.7497 11.2172 21.818C11.4735 21.883 11.7451 21.8453 11.9739 21.7129C12.2028 21.5805 12.3708 21.3639 12.4422 21.1093L12.8892 19.4328C13.8671 19.5722 14.8628 19.5164 15.819 19.2685C16.7751 19.0205 17.6726 18.5855 18.4595 17.9885L19.769 19.2998C19.9598 19.481 20.2129 19.5821 20.4761 19.5821C20.7393 19.5821 20.9924 19.481 21.1832 19.2998C21.2761 19.2069 21.3497 19.0967 21.4 18.9754C21.4503 18.854 21.4761 18.724 21.4761 18.5927C21.4761 18.4613 21.4503 18.3313 21.4 18.21C21.3497 18.0886 21.2761 17.9784 21.1832 17.8855C21.1832 17.8855 19.8727 16.5748 19.8682 16.571C21.0483 15.0107 21.5631 13.0469 21.3002 11.1083L22.865 10.6875C23.121 10.6185 23.3391 10.4507 23.4714 10.221C23.6037 9.99121 23.6393 9.71831 23.5705 9.46228ZM12.448 17.2968C11.5528 17.023 10.7417 16.5266 10.0906 15.854C9.43957 15.1814 8.96977 14.3546 8.72522 13.451C8.42906 12.2963 8.52307 11.076 8.99261 9.98017C9.46215 8.88438 10.2809 7.9746 11.3212 7.39252C12.3616 6.81044 13.5653 6.58872 14.7448 6.76189C15.9243 6.93506 17.0134 7.4934 17.8426 8.34996C18.6718 9.20653 19.1944 10.3132 19.3292 11.4977C19.4639 12.6823 19.2032 13.8781 18.5876 14.899C17.9721 15.9199 17.0362 16.7086 15.9257 17.1423C14.8152 17.576 13.5925 17.6303 12.448 17.2968Z" fill="#D82519"/>
<path d="M14.7369 13.595L14.5119 13.6525C14.255 13.7182 14.0347 13.8833 13.8995 14.1115C13.7643 14.3396 13.7252 14.6121 13.7909 14.869C13.8623 15.1224 14.0285 15.3387 14.2549 15.4729C14.4814 15.6071 14.7509 15.6491 15.0074 15.59L15.2324 15.5325C15.3607 15.5009 15.4814 15.4442 15.5876 15.3657C15.6938 15.2872 15.7835 15.1885 15.8513 15.0752C15.9191 14.9618 15.9639 14.8362 15.9829 14.7055C16.0019 14.5748 15.9948 14.4416 15.9621 14.3136C15.9293 14.1857 15.8716 14.0655 15.7921 13.96C15.7127 13.8545 15.6131 13.7657 15.4992 13.6989C15.3852 13.6321 15.2592 13.5885 15.1283 13.5707C14.9974 13.5528 14.8646 13.5611 14.7369 13.595Z" fill="#D82519"/>
<path d="M16.4644 9.49718C16.3716 9.40429 16.2613 9.33059 16.14 9.28031C16.0186 9.23002 15.8886 9.20412 15.7572 9.2041C15.6259 9.20408 15.4958 9.22993 15.3744 9.28017C15.2531 9.33041 15.1428 9.40407 15.0499 9.49693C14.957 9.58979 14.8833 9.70004 14.833 9.82138C14.7828 9.94272 14.7569 10.0728 14.7568 10.2041C14.7568 10.3355 14.7827 10.4655 14.8329 10.5869C14.8831 10.7083 14.9568 10.8185 15.0497 10.9114L15.3117 11.1732C15.5023 11.3548 15.7554 11.456 16.0187 11.456C16.2819 11.456 16.5351 11.3548 16.7257 11.1732C16.9131 10.9857 17.0185 10.7313 17.0185 10.4662C17.0185 10.201 16.9131 9.94671 16.7257 9.75918L16.4644 9.49718Z" fill="#D82519"/>
<path d="M11.5181 10.4948C11.3913 10.4604 11.259 10.4514 11.1288 10.4682C10.9985 10.4849 10.8728 10.5272 10.7589 10.5926C10.645 10.6579 10.5451 10.7451 10.4648 10.849C10.3846 10.953 10.3256 11.0718 10.2913 11.1985L10.2311 11.4213C10.1967 11.548 10.1877 11.6803 10.2045 11.8105C10.2213 11.9408 10.2636 12.0665 10.3289 12.1804C10.3943 12.2943 10.4815 12.3942 10.5854 12.4744C10.6894 12.5546 10.8082 12.6136 10.9349 12.6479C11.0617 12.6822 11.194 12.6912 11.3242 12.6744C11.4545 12.6576 11.5801 12.6154 11.694 12.55C11.8079 12.4846 11.9078 12.3975 11.9881 12.2935C12.0683 12.1895 12.1272 12.0708 12.1616 11.944L12.2221 11.7215C12.2564 11.5947 12.2654 11.4624 12.2486 11.3322C12.2318 11.2019 12.1895 11.0762 12.1242 10.9623C12.0588 10.8484 11.9716 10.7485 11.8676 10.6682C11.7636 10.588 11.6448 10.5291 11.5181 10.4948Z" fill="#D82519"/>
<path d="M21.748 30.497C21.5959 30.5095 21.4432 30.4832 21.3039 30.4208C21.1647 30.3583 21.0436 30.2616 20.9517 30.1397L16.3207 24H4.091C1.7205 24 0 22.4135 0 20.228V4.237C0 1.9 1.83525 0 4.091 0H24.159C26.4148 0 28.25 1.9 28.25 4.237V20.228C28.25 22.4135 26.5295 24 24.159 24H22.75V29.5375C22.7336 29.7939 22.6216 30.0348 22.436 30.2125C22.2504 30.3902 22.0049 30.4918 21.748 30.497ZM4.091 2C2.9575 2 2 3.025 2 4.237V20.228C2 21.5345 3.08 22 4.091 22H16.819C16.9738 22 17.1265 22.0359 17.2651 22.105C17.4037 22.1741 17.5243 22.2744 17.6175 22.398L20.75 26.55V23C20.75 22.7348 20.8554 22.4804 21.0429 22.2929C21.2304 22.1054 21.4848 22 21.75 22H24.159C25.17 22 26.25 21.5345 26.25 20.228V4.237C26.25 3.025 25.2925 2 24.159 2H4.091Z" fill="#D82519"/>
<path d="M60.0375 40.9557C61.2034 40.4287 62.1951 39.5806 62.8967 38.5107C63.5983 37.4407 63.9808 36.1931 63.9994 34.9138C64.0179 33.6344 63.6718 32.3763 63.0016 31.2864C62.3313 30.1965 61.3646 29.32 60.2145 28.7594C59.1023 25.2041 57.0083 22.0354 54.1738 19.6182C51.3393 17.201 47.8796 15.6337 44.1932 15.0969L46.839 7.82844C46.9269 7.5791 46.9136 7.30522 46.8019 7.06558C46.6902 6.82595 46.489 6.63966 46.2415 6.54669L45.6047 6.31494L46.6895 3.34269C46.7777 3.09322 46.7645 2.8191 46.6527 2.57927C46.5409 2.33944 46.3395 2.15305 46.0917 2.06019L40.5917 0.0601873C40.3395 -0.0285536 40.0624 -0.0136748 39.8212 0.101562C39.5799 0.216799 39.3942 0.422991 39.3047 0.674937L38.2797 3.64994L37.6597 3.42494C37.5363 3.38002 37.4053 3.35985 37.2741 3.36558C37.1429 3.37131 37.0141 3.40283 36.8951 3.45834C36.776 3.51384 36.6691 3.59225 36.5804 3.68908C36.4917 3.78591 36.4229 3.89927 36.378 4.02269L28.737 25.0142C28.6492 25.2636 28.6626 25.5374 28.7744 25.777C28.8861 26.0166 29.0873 26.2029 29.3347 26.2959L29.8387 26.4794L28.6102 29.8544C28.5195 30.1036 28.5315 30.3787 28.6435 30.6191C28.7556 30.8594 28.9585 31.0454 29.2077 31.1362L34.9032 33.2092C35.1526 33.2968 35.4264 33.2833 35.6659 33.1716C35.9055 33.0598 36.0918 32.8588 36.185 32.6114L37.4137 29.2349L37.9177 29.4184C38.1672 29.5052 38.4406 29.4913 38.6799 29.3797C38.9193 29.2681 39.1057 29.0676 39.1995 28.8207L41.5437 22.3804C43.9283 22.4099 46.2523 23.1359 48.2297 24.4689C50.2071 25.802 51.7517 27.684 52.6735 29.8834C52.0061 30.502 51.4711 31.2494 51.1009 32.0807C50.7307 32.9119 50.533 33.8096 50.5197 34.7195C50.5065 35.6293 50.678 36.5324 51.0238 37.3741C51.3696 38.2157 51.8826 38.9785 52.5317 39.6162C51.7665 41.2844 50.6388 42.7609 49.2308 43.9381C47.8229 45.1154 46.17 45.9639 44.3927 46.4217C43.5302 45.7041 42.4457 45.3075 41.3237 45.2996C40.2017 45.2916 39.1116 45.6727 38.239 46.3779C35.48 45.6326 33.0692 43.9447 31.425 41.6072L38.8802 44.3207C39.1296 44.4078 39.4032 44.3941 39.6426 44.2825C39.882 44.1709 40.0684 43.9702 40.162 43.7232L41.3232 40.5317C41.3681 40.4082 41.3883 40.2772 41.3825 40.1459C41.3768 40.0147 41.3452 39.8859 41.2896 39.7669C41.2341 39.6478 41.1556 39.5409 41.0587 39.4522C40.9619 39.3635 40.8484 39.2948 40.725 39.2499L14.8925 29.8477C14.6432 29.7595 14.3692 29.7727 14.1295 29.8844C13.8898 29.9961 13.7035 30.1975 13.6107 30.4452L12.45 33.6367C12.3593 33.8859 12.3712 34.1609 12.4833 34.4013C12.5953 34.6417 12.7983 34.8277 13.0475 34.9184L22.0475 38.1934C22.745 41.8611 24.4648 45.2571 27.0085 47.9898C29.5523 50.7225 32.8166 52.6807 36.425 53.6387V58.3467H13.6787C13.4135 58.3467 13.1592 58.452 12.9716 58.6396C12.7841 58.8271 12.6787 59.0815 12.6787 59.3467V62.9999C12.6787 63.2652 12.7841 63.5195 12.9716 63.707C13.1592 63.8946 13.4135 63.9999 13.6787 63.9999H59.6075C59.8727 63.9999 60.1271 63.8946 60.3146 63.707C60.5021 63.5195 60.6075 63.2652 60.6075 62.9999V59.3467C60.6075 59.0815 60.5021 58.8271 60.3146 58.6396C60.1271 58.452 59.8727 58.3467 59.6075 58.3467H52.075L48.6875 52.8827C51.3257 51.8277 53.7053 50.2161 55.6641 48.1578C57.6228 46.0995 59.1145 43.6429 60.0375 40.9557ZM40.8637 2.28719L44.4672 3.59769L43.725 5.63094L40.1577 4.33269L40.8637 2.28719ZM34.6465 30.9872L30.8302 29.5984L31.717 27.1617L35.5332 28.5504L34.6465 30.9872ZM37.661 27.1964L30.9572 24.7567L37.914 5.64469L44.6175 8.08444L37.661 27.1964ZM51.813 24.9192C49.3314 22.2375 45.9078 20.6208 42.2602 20.4082L43.4932 17.0207C46.6637 17.406 49.6718 18.6388 52.2008 20.5893C54.7299 22.5398 56.6865 25.1359 57.8647 28.1044C57.6647 28.0867 57.4632 28.0759 57.259 28.0759C56.2522 28.0748 55.258 28.3005 54.3505 28.7364C53.7143 27.3363 52.8576 26.0474 51.813 24.9187V24.9192ZM57.259 30.0749C58.1967 30.075 59.1133 30.3531 59.8929 30.8741C60.6725 31.395 61.2801 32.1355 61.6389 33.0018C61.9977 33.8681 62.0916 34.8214 61.9086 35.741C61.7257 36.6607 61.2741 37.5054 60.611 38.1684C59.948 38.8314 59.1032 39.2829 58.1836 39.4659C57.2639 39.6488 56.3107 39.5549 55.4444 39.196C54.5781 38.8372 53.8377 38.2295 53.3167 37.4499C52.7958 36.6702 52.5177 35.7536 52.5177 34.8159C52.5191 33.5589 53.0191 32.3538 53.908 31.465C54.7968 30.5762 56.002 30.0763 57.259 30.0749ZM54.1765 40.8079C55.1291 41.3012 56.1863 41.5584 57.259 41.5579C57.397 41.5579 57.534 41.5527 57.6692 41.5444C56.726 43.7403 55.3493 45.7231 53.6215 47.3742C51.8937 49.0253 49.8504 50.3106 47.614 51.1532L45.7325 48.1184C47.5629 47.5378 49.2557 46.5902 50.7075 45.3333C52.1594 44.0765 53.3397 42.5368 54.1765 40.8084V40.8079ZM15.1482 32.0689L39.1 40.7872L38.625 42.0999L14.671 33.3809L15.1482 32.0689ZM24.275 39.0052L28.5127 40.5477C29.3276 42.305 30.4921 43.8777 31.9351 45.1698C33.3782 46.462 35.0695 47.4464 36.9057 48.0629C36.5905 48.7151 36.4263 49.43 36.4255 50.1544V51.5627C33.4922 50.6894 30.8333 49.0752 28.7051 46.8758C26.5769 44.6763 25.0512 41.9657 24.275 39.0052ZM58.6075 61.9999H14.6787V60.3467H58.6075V61.9999ZM38.425 58.3467V50.1544C38.4251 49.5334 38.6275 48.9294 39.0017 48.4338C39.3759 47.9382 39.9014 47.5781 40.4987 47.408C41.0959 47.2379 41.7323 47.2671 42.3115 47.4911C42.8906 47.7152 43.381 48.1219 43.7082 48.6497L49.7202 58.3467H38.425Z" fill="#D82519"/>
</g>
<defs>
<clipPath id="clip0_757_2469">
<rect width="64" height="64" fill="white"/>
</clipPath>
</defs>
</svg>
