<svg width="64" height="65" viewBox="0 0 64 65" fill="none" xmlns="http://www.w3.org/2000/svg">
<path d="M18.5801 21.1453H20.6446V18.9032C20.9677 19.0178 21.315 19.0807 21.6768 19.0807C22.0387 19.0807 22.386 19.0177 22.7091 18.9032V25.2743H24.7736V15.984C24.7736 14.2765 23.3845 12.8872 21.6768 12.8872C19.9692 12.8872 18.5801 14.2765 18.5801 15.984V21.1453ZM21.6768 14.9518C22.246 14.9518 22.7091 15.415 22.7091 15.9841C22.7091 16.5532 22.246 17.0163 21.6768 17.0163C21.1077 17.0163 20.6446 16.5532 20.6446 15.9841C20.6446 15.415 21.1077 14.9518 21.6768 14.9518Z" fill="#D82519"/>
<path d="M16.1198 8.75828H18.5809V6.69366H16.1198C16.0904 6.69366 16.061 6.69503 16.0316 6.69528L16.4855 4.87953L14.4828 4.37891L13.854 6.89403C12.8481 7.07191 11.8759 7.36641 10.9546 7.76666L11.3351 5.86403L9.31077 5.45903L8.58039 9.11091C6.69502 10.46 5.16727 12.3185 4.21289 14.5453L6.11039 15.3585C7.82864 11.3489 11.7576 8.75828 16.1198 8.75828Z" fill="#D82519"/>
<path d="M57.217 43.5102L52.3613 42.5391L53.3325 47.3948C53.6401 48.9324 55.0015 50.0484 56.5696 50.0484C58.3898 50.0484 59.8707 48.5676 59.8707 46.7473C59.8708 45.1791 58.7547 43.8176 57.217 43.5102ZM56.5696 47.9839C55.9821 47.9839 55.4722 47.5658 55.357 46.9897L54.9932 45.1707L56.8122 45.5344C57.3882 45.6497 57.8065 46.1597 57.8065 46.7471C57.8063 47.4291 57.2515 47.9839 56.5696 47.9839Z" fill="#D82519"/>
<path d="M57.9425 39.9728L50.1354 38.7718L45.4194 32.1693V28.7016L50.1354 22.0991L57.9425 20.8981C61.4524 20.358 64 17.3887 64 13.8374C64 9.89825 60.7954 6.6935 56.8561 6.6935C54.8826 6.6935 52.9984 7.432 51.5503 8.77287C50.1023 10.1137 49.2215 11.936 49.0701 13.9038L48.5412 20.7794L43.856 27.3388H38.5812L30.9678 20.6769V15.984C30.9678 7.44613 24.0216 0.5 15.4839 0.5C6.94613 0.5 0 7.44613 0 15.9839C0 21.5623 2.041 26.9306 5.74713 31.0998L7.91087 33.534C6.79737 34.9504 6.19362 36.687 6.19362 38.5165V39.1259C6.19362 40.3049 6.35787 41.4775 6.68175 42.6114C7.72787 46.2721 8.25813 50.059 8.25813 53.8665V55.9328C8.25813 60.6568 12.1015 64.5001 16.8255 64.5001C18.8693 64.5001 20.8495 63.7676 22.4011 62.4376L26.3735 59.0327C27.376 59.8345 28.4965 60.4944 29.7092 60.9795L30.1399 61.1517L30.5999 62.5316C30.9924 63.709 32.09 64.5001 33.3311 64.5001H38.4116C39.999 64.5001 41.2905 63.2086 41.2905 61.6213C41.2905 60.4373 40.5801 59.388 39.4809 58.9482L35.825 57.4859L31.9282 50.3419C30.4706 47.6697 27.7015 45.9901 24.6684 45.9225C24.7375 45.5836 24.774 45.2371 24.774 44.887C24.774 44.1989 24.6376 43.5423 24.3921 42.9414L26.119 41.7902H30.9678C33.2445 41.7902 35.0967 39.938 35.0967 37.6613C35.0967 37.0819 34.9764 36.5304 34.76 36.0295L38.506 33.5322H43.8559L48.5411 40.0916L49.07 46.9673C49.2214 48.935 50.1021 50.7571 51.5501 52.0981C52.9981 53.439 54.8824 54.1775 56.8559 54.1775C60.7951 54.1775 63.9997 50.9728 63.9997 47.0336C64 43.4823 61.4524 40.5129 57.9425 39.9728ZM51.1286 14.0619C51.3572 11.0878 53.8731 8.758 56.8561 8.758C59.6569 8.758 61.9355 11.0366 61.9355 13.8374C61.9355 16.3622 60.1241 18.4736 57.6285 18.8575L50.6774 19.9269L51.1286 14.0619ZM30.9678 23.7153V23.42L37.1613 28.8394V31.9476L33.4896 34.3954C32.7914 33.855 31.9169 33.5322 30.9678 33.5322C30.1329 33.5322 29.297 33.7295 28.5506 34.103L27.7621 34.4972L23.6904 33.3867L23.7951 33.3553C25.8839 32.7286 27.676 31.4726 28.9779 29.7231C30.2796 27.9734 30.9678 25.8959 30.9678 23.7153ZM2.0645 15.9839C2.0645 8.58438 8.08438 2.5645 15.4839 2.5645C22.8834 2.5645 28.9032 8.58438 28.9032 15.9839V23.7153C28.9032 27.2755 26.6121 30.3549 23.202 31.378L19.927 32.3605L18.5888 31.9956C17.3051 31.6455 15.9798 31.468 14.6493 31.468C13.037 31.468 11.4441 31.7265 9.9145 32.2362L9.6095 32.3379L8.837 31.4689L9.32213 31.0646C12.582 28.348 14.4515 24.3564 14.4515 20.113V19.0807H12.3871C11.2487 19.0807 10.3226 18.1545 10.3226 17.0163C10.3226 15.878 11.2489 14.9517 12.3871 14.9517H14.4516V12.8871H12.3871C10.1104 12.8871 8.25813 14.7394 8.25813 17.0161C8.25813 19.2785 10.0869 21.1215 12.3439 21.1449C12.0712 24.3832 10.5224 27.377 8.0005 29.4784L7.46488 29.9249L7.29012 29.7284C3.92037 25.9372 2.0645 21.0561 2.0645 15.9839ZM30.116 51.3307L34.3685 59.127L38.7139 60.8652C39.0249 60.9896 39.2259 61.2865 39.2259 61.6214C39.2259 62.0703 38.8606 62.4357 38.4115 62.4357H33.331C32.9799 62.4357 32.6695 62.212 32.5585 61.879L31.7956 59.5908L30.476 59.0629C27.947 58.0512 25.8832 56.1522 24.6651 53.716L22.8185 54.6394C23.3633 55.7289 24.051 56.7275 24.8569 57.6136L21.0574 60.8704C19.8796 61.8796 18.3766 62.4356 16.8253 62.4356C13.2396 62.4356 10.3224 59.5185 10.3224 55.9328V53.8665C10.3224 49.8671 9.76538 45.8896 8.66663 42.0441C8.39538 41.0947 8.25788 40.1129 8.25788 39.1258V38.5164C8.25788 36.9871 8.82562 35.5457 9.85975 34.4304L10.5671 34.1945C11.8859 33.7551 13.2591 33.5321 14.649 33.5321C15.7961 33.5321 16.9386 33.6851 18.0452 33.9869L27.9796 36.6963L29.4739 35.9492C29.935 35.7185 30.4515 35.5966 30.9675 35.5966C31.1724 35.5966 31.37 35.6276 31.5569 35.6835L25.4936 39.7257H15.7273C14.3766 39.7257 13.0242 39.4064 11.8161 38.8025L10.8929 40.6491C12.3151 41.3602 13.8994 41.7513 15.4891 41.7869C14.8379 42.6506 14.4513 43.7244 14.4513 44.887C14.4513 46.8623 15.5784 48.6001 17.2361 49.4658L14.2929 52.041C13.0815 53.101 12.3866 54.6321 12.3866 56.2419H14.4511C14.4511 55.2275 14.8889 54.2626 15.6523 53.5946L20.2489 49.5728C21.4199 48.5481 22.9216 47.9839 24.4776 47.9839C26.8296 47.9839 28.9899 49.2662 30.116 51.3307ZM22.4306 46.172C21.1775 46.4836 20.0042 47.0791 19.0045 47.9234C17.5811 47.6391 16.5161 46.3752 16.5161 44.8871C16.5161 43.1796 17.9054 41.7904 19.6129 41.7904C21.3204 41.7904 22.7096 43.1796 22.7096 44.8871C22.7096 45.3337 22.6135 45.7711 22.4306 46.172ZM33.0322 37.6613C33.0322 38.7996 32.106 39.7257 30.9678 39.7257H29.2157L32.9824 37.2147C33.0143 37.3587 33.0322 37.5079 33.0322 37.6613ZM43.3549 31.4678H39.2259V29.4032H43.3549V31.4678ZM56.8561 52.1129C53.8731 52.1129 51.3573 49.7831 51.1285 46.809L50.6772 40.944L57.6284 42.0134C60.1241 42.3972 61.9355 44.5085 61.9355 47.0335C61.9355 49.8344 59.6569 52.1129 56.8561 52.1129Z" fill="#D82519"/>
<path d="M59.8706 14.1239C59.8706 12.3036 58.3897 10.8228 56.5695 10.8228C55.0013 10.8228 53.64 11.9388 53.3325 13.4764L52.3613 18.3321L57.217 17.361C58.7545 17.0535 59.8706 15.6921 59.8706 14.1239ZM56.8118 15.3365L54.9928 15.7003L55.3566 13.8813C55.4718 13.3051 55.9817 12.887 56.5692 12.887C57.2512 12.887 57.8058 13.4419 57.8058 14.1236C57.8061 14.7114 57.3879 15.2214 56.8118 15.3365Z" fill="#D82519"/>
</svg>
