<svg width="64" height="65" viewBox="0 0 64 65" fill="none" xmlns="http://www.w3.org/2000/svg">
<path d="M20 20.25C18.7594 20.25 17.75 21.2594 17.75 22.5H22.25C22.25 21.2594 21.2406 20.25 20 20.25Z" fill="#D82519"/>
<path d="M26 20.25C24.7594 20.25 23.75 21.2594 23.75 22.5H28.25C28.25 21.2594 27.2406 20.25 26 20.25Z" fill="#D82519"/>
<path d="M23 28.75C24.2426 28.75 25.25 27.7426 25.25 26.5C25.25 25.2574 24.2426 24.25 23 24.25C21.7574 24.25 20.75 25.2574 20.75 26.5C20.75 27.7426 21.7574 28.75 23 28.75Z" fill="#D82519"/>
<path d="M56.7562 13.8888C56.4281 13.4831 55.9406 13.25 55.4194 13.25H52V15.75H54.4538L52.6156 24.3269C52.2531 26.0206 50.7325 27.25 49 27.25C47.2675 27.25 45.7469 26.0206 45.3844 24.3269L43.5462 15.75H46V13.25H42.5806C42.0587 13.25 41.5713 13.4825 41.2438 13.8888C40.9156 14.2944 40.79 14.82 40.8994 15.33L42.9394 24.8512C43.2356 26.2331 44.0038 27.4837 45.1031 28.3725C45.8744 28.9962 46.7862 29.4219 47.7494 29.6213V48C47.7494 49.2406 46.74 50.25 45.4994 50.25C44.2587 50.25 43.2494 49.2406 43.2494 48V46C43.2494 43.6363 41.5131 41.6706 39.2494 41.31V23.5C39.2494 19.1594 37.5594 15.0787 34.49 12.0094C31.4213 8.94 27.3406 7.25 23 7.25C18.6594 7.25 14.5787 8.94 11.5094 12.0094C8.44 15.0787 6.75 19.1594 6.75 23.5V41.5C6.75 45.8406 8.44 49.9212 11.5094 52.9906C14.5787 56.06 18.6594 57.75 23 57.75C27.3406 57.75 31.4212 56.06 34.4906 52.9906C37.0044 50.4769 38.5931 47.285 39.0856 43.8275C40.0431 44.0862 40.75 44.9619 40.75 46V48C40.75 50.6194 42.8806 52.75 45.5 52.75C48.1194 52.75 50.25 50.6194 50.25 48V29.6206C51.2138 29.4212 52.125 28.9956 52.8963 28.3719C53.9956 27.4831 54.7638 26.2325 55.06 24.8506L57.1 15.3294C57.21 14.8194 57.0844 14.2944 56.7562 13.8888ZM23 9.75C29.4469 9.75 34.8712 14.2094 36.3512 20.2056C35.5756 22.3575 33.9619 24.0681 32.6087 25.2038C33.0275 23.9994 33.25 22.7419 33.25 21.5C33.25 18.7838 32.1569 16.3625 30.1719 14.6819C28.3188 13.1138 25.7719 12.25 23 12.25C20.2281 12.25 17.6812 13.1138 15.8281 14.6819C13.8431 16.3625 12.75 18.7838 12.75 21.5C12.75 23.1562 13.1462 24.84 13.8756 26.3906C13.0481 25.8737 12.27 25.2962 11.5856 24.6162C10.4706 23.5081 9.79563 22.3631 9.47188 21.03C10.6394 14.6225 16.2613 9.75 23 9.75ZM22.2794 14.7738C22.4756 14.9444 22.6225 15.14 22.6963 15.3369C22.7813 15.565 22.7644 15.8219 22.6537 15.9906C22.55 16.1494 22.3275 16.2631 22.1462 16.2481C22.1119 16.2456 22.0894 16.2381 22.0837 16.2356C22.0931 16.24 22.1262 16.2606 22.1619 16.3031L20.2431 17.9062C20.6413 18.3831 21.2644 18.6875 21.9513 18.7406C22.0269 18.7463 22.1019 18.7494 22.1775 18.7494C23.1937 18.7494 24.1831 18.2194 24.7463 17.3581C25.1981 16.6669 25.35 15.8081 25.1844 14.98H25.185C28.5487 15.7219 30.75 18.1969 30.75 21.5C30.75 25.6306 27.4356 30.25 23 30.25C18.5644 30.25 15.25 25.6306 15.25 21.5C15.25 17.7387 18.1044 15.0506 22.2794 14.7738ZM23 55.25C16.0056 55.25 10.2144 50.0006 9.35875 43.235C10.5581 44.2138 11.9781 44.9725 13.3894 45.6738C15.3962 46.6706 17.8944 47.9112 18.8644 50.0225L21.1362 48.9787C19.7975 46.0656 16.7369 44.545 14.5019 43.435C12.3381 42.36 10.1587 41.1506 9.25062 39.2356V25.7794C9.43187 25.985 9.62187 26.1888 9.82375 26.3888C11.755 28.3081 14.1144 29.445 16.3969 30.545L16.4062 30.5494C18.1975 31.4125 20.0412 32.3013 21.4487 33.6656C19.9894 35.4369 19.0763 37.3437 18.7663 39.3044L21.2356 39.695C21.7244 36.6062 24.1094 34.2081 26.0238 32.7406C27.1669 31.8644 28.3694 31.1056 29.6431 30.3019C31.0463 29.4162 32.4975 28.5012 33.8475 27.4212C34.7562 26.695 35.8113 25.7194 36.7506 24.5169V32.4206C36.5788 33.7563 35.6637 35.2269 34.1662 36.5687L35.835 38.4306C36.1312 38.165 36.4419 37.865 36.7506 37.5331V41.25H32.0625C31.5275 39.515 29.9088 38.25 28.0006 38.25C25.6569 38.25 23.7506 40.1562 23.7506 42.5C23.7506 44.8438 25.6569 46.75 28.0006 46.75C29.9094 46.75 31.5275 45.485 32.0625 43.75H36.5669C35.4888 50.2656 29.8156 55.25 23 55.25ZM29.75 42.5C29.75 43.465 28.965 44.25 28 44.25C27.035 44.25 26.25 43.465 26.25 42.5C26.25 41.535 27.035 40.75 28 40.75C28.965 40.75 29.75 41.535 29.75 42.5Z" fill="#D82519"/>
</svg>
