<svg width="64" height="65" viewBox="0 0 64 65" fill="none" xmlns="http://www.w3.org/2000/svg">
<path d="M34.74 17.8771C39.2208 17.8771 42.866 14.2318 42.866 9.751C42.866 5.27025 39.2208 1.625 34.74 1.625C32.5694 1.625 30.5287 2.47025 28.994 4.00513C27.4592 5.54 26.614 7.58063 26.614 9.75113C26.614 14.2319 30.2593 17.8771 34.74 17.8771ZM30.2314 5.2425C31.4357 4.03825 33.0369 3.375 34.74 3.375C38.2558 3.375 41.116 6.23525 41.116 9.751C41.116 13.2668 38.2558 16.1271 34.74 16.1271C31.2243 16.1271 28.364 13.2669 28.364 9.75113C28.3639 8.048 29.0271 6.44675 30.2314 5.2425ZM58.8584 51.6372H47.9077V49.1216L55.8556 43.1991C58.9748 40.8749 59.7719 36.2031 57.6705 32.5635L48.4486 16.5906C47.5181 14.979 45.4499 14.4249 43.8384 15.3554L35.0444 20.4325C34.2423 20.8956 33.6611 21.6794 33.4482 22.5841L29.622 37.2165H18.0268C16.0681 37.2165 14.4607 38.7457 14.3337 40.6729H7.76713C4.10475 40.673 1.125 43.6526 1.125 47.3151V53.0822C1.125 53.5655 1.51675 53.9572 2 53.9572H5.65275C6.68288 57.2635 9.77225 59.6705 13.4131 59.6705C17.054 59.6705 20.1434 57.2635 21.1735 53.9572H24.8261C25.3094 53.9572 25.7011 53.5655 25.7011 53.0822V47.3151C25.7011 46.3857 25.5012 45.4656 25.1246 44.6208H32.5466C34.2866 44.6208 35.6251 43.3541 36.2186 41.1457L38.4066 33.0062L42.4873 40.074L38.5197 44.5218H35.535C34.3632 44.5218 33.41 45.475 33.41 46.6468V48.2365H29.1291C28.6459 48.2365 28.2541 48.6282 28.2541 49.1115V62.5C28.2541 62.9832 28.6459 63.375 29.1291 63.375H47.0326C47.5159 63.375 47.9076 62.9832 47.9076 62.5V59.6705H58.8582C61.073 59.6705 62.8749 57.8686 62.8749 55.6539C62.8749 53.4391 61.0731 51.6372 58.8584 51.6372ZM2.875 52.2072V47.3151C2.875 44.6175 5.06963 42.423 7.76713 42.423H14.6453C14.8698 42.9258 15.203 43.3692 15.6151 43.724C14.9142 43.5264 14.1763 43.4183 13.413 43.4183C11.2425 43.4183 9.20187 44.2635 7.667 45.7984C6.13212 47.3332 5.28687 49.3739 5.28687 51.5444C5.28687 51.7678 5.29837 51.9884 5.31612 52.2072H2.875ZM13.4131 57.9205C9.89738 57.9205 7.03713 55.0602 7.03713 51.5445C7.03713 49.8414 7.70025 48.2401 8.90462 47.0359C10.1089 45.8316 11.71 45.1684 13.4131 45.1684C16.9289 45.1684 19.7891 48.0286 19.7891 51.5444C19.7891 55.0601 16.9289 57.9205 13.4131 57.9205ZM23.9511 47.3151V52.2072H21.5099C21.5276 51.9884 21.5391 51.7678 21.5391 51.5444C21.5391 48.6055 19.9709 46.0261 17.6274 44.5989C17.7586 44.613 17.8918 44.6208 18.0268 44.6208H23.1362C23.6706 45.4215 23.9511 46.345 23.9511 47.3151ZM44.319 39.7469L39.0485 30.6181L40.3078 25.9336C40.4333 25.467 40.1566 24.987 39.6899 24.8615C39.2235 24.736 38.7432 25.0126 38.6177 25.4794L34.5288 40.6915C34.2615 41.6856 33.7006 42.8708 32.5466 42.8708H18.0266C16.9502 42.8708 16.0745 41.9951 16.0745 40.9186C16.0745 39.8421 16.9501 38.9665 18.0266 38.9665H30.2975C30.6955 38.9665 31.0434 38.6979 31.144 38.3129L35.1441 23.0154C35.1463 23.0073 35.1482 22.9991 35.1501 22.9909C35.2531 22.5453 35.5262 22.1749 35.9191 21.9479L44.7131 16.8708C45.489 16.4226 46.4848 16.6896 46.9329 17.4655L56.1548 33.4384C57.8198 36.3221 57.2289 39.9931 54.8097 41.7959L46.1668 48.2364H42.7518V46.6466C42.7518 45.5516 41.9189 44.6478 40.8535 44.5341L44.2141 40.7666C44.4656 40.4851 44.5079 40.0739 44.319 39.7469ZM35.16 46.6468C35.16 46.4435 35.3317 46.2718 35.535 46.2718H40.6269C40.8336 46.2718 41.0019 46.44 41.0019 46.6468V48.2365H35.16V46.6468ZM46.1576 61.625H30.0041V49.9865H46.1576V61.625ZM58.8584 57.9205H47.9077V53.3872H58.8584C60.1083 53.3872 61.125 54.404 61.125 55.6539C61.125 56.9037 60.1081 57.9205 58.8584 57.9205ZM12.6905 31.8306C18.9674 31.8306 24.0739 26.724 24.0739 20.4473C24.0739 14.1705 18.9674 9.06375 12.6905 9.06375C6.41363 9.06375 1.30712 14.1704 1.30712 20.4471C1.30712 26.7239 6.41363 31.8306 12.6905 31.8306ZM12.6905 10.8138C18.0024 10.8138 22.3239 15.1352 22.3239 20.4471C22.3239 25.759 18.0024 30.0805 12.6905 30.0805C7.37863 30.0805 3.05713 25.759 3.05713 20.4471C3.05713 15.1352 7.37863 10.8138 12.6905 10.8138ZM10.0732 23.0645V27.0386C10.0732 27.5219 10.465 27.9136 10.9482 27.9136H14.4327C14.916 27.9136 15.3077 27.5219 15.3077 27.0386V23.0645H19.2819C19.7651 23.0645 20.1569 22.6728 20.1569 22.1895V18.705C20.1569 18.2217 19.7651 17.83 19.2819 17.83H15.3077V13.8558C15.3077 13.3725 14.916 12.9808 14.4327 12.9808H10.9482C10.465 12.9808 10.0732 13.3725 10.0732 13.8558V17.83H6.099C5.61575 17.83 5.224 18.2217 5.224 18.705V22.1895C5.224 22.6728 5.61575 23.0645 6.099 23.0645H10.0732ZM6.974 19.58H10.9482C11.4315 19.58 11.8232 19.1882 11.8232 18.705V14.7308H13.5577V18.705C13.5577 19.1882 13.9495 19.58 14.4327 19.58H18.4069V21.3145H14.4327C13.9495 21.3145 13.5577 21.7063 13.5577 22.1895V26.1636H11.8232V22.1895C11.8232 21.7063 11.4315 21.3145 10.9482 21.3145H6.974V19.58ZM25.7011 62.4999C25.7011 62.9831 25.3094 63.3749 24.8261 63.3749H2C1.51675 63.3749 1.125 62.9831 1.125 62.4999C1.125 62.0166 1.51675 61.6249 2 61.6249H24.8261C25.3094 61.6249 25.7011 62.0167 25.7011 62.4999ZM34.6296 55.8058C34.6296 55.3225 35.0214 54.9308 35.5046 54.9308H37.2059V53.2295C37.2059 52.7462 37.5976 52.3545 38.0809 52.3545C38.5641 52.3545 38.9559 52.7462 38.9559 53.2295V54.9308H40.6572C41.1405 54.9308 41.5322 55.3225 41.5322 55.8058C41.5322 56.289 41.1405 56.6808 40.6572 56.6808H38.9559V58.382C38.9559 58.8652 38.5641 59.257 38.0809 59.257C37.5976 59.257 37.2059 58.8652 37.2059 58.382V56.6808H35.5046C35.0214 56.6808 34.6296 56.289 34.6296 55.8058Z" fill="#D82519"/>
</svg>
