<svg width="64" height="65" viewBox="0 0 64 65" fill="none" xmlns="http://www.w3.org/2000/svg">
<g clip-path="url(#clip0_757_2305)">
<path fill-rule="evenodd" clip-rule="evenodd" d="M23.346 43.5658C22.581 43.5658 21.816 43.2418 20.502 42.6028C20.0429 42.3778 19.4849 42.0988 18.8099 41.7838C18.5939 43.0978 18.2159 44.6008 17.5589 45.8428L23.499 49.9289L29.1331 45.8698C28.4761 44.6188 28.0981 43.1068 27.8731 41.7928C27.1981 42.1078 26.64 42.3778 26.19 42.6028C24.876 43.2418 24.111 43.5658 23.346 43.5658ZM43.5063 17.8524C44.0283 17.4024 44.0823 16.6104 43.6323 16.0884C43.1733 15.5664 42.3903 15.5124 41.8683 15.9714C41.8593 15.9714 40.4013 17.2674 38.8442 15.9894L38.6822 15.8814C36.7382 14.7024 36.7472 11.8673 38.7182 10.7153C39.2042 10.4273 39.4382 9.84228 39.2852 9.29327C39.2132 9.05927 39.1862 8.81626 39.1862 8.57326C39.1862 7.17824 40.3023 6.02622 41.6793 5.96322C41.7423 5.96322 41.8053 5.96322 41.8683 5.95422C42.1293 5.91822 42.9213 5.91822 43.3983 6.31423C43.6953 6.54823 43.8663 6.92624 43.9203 7.46624C43.9833 8.15925 44.6043 8.65426 45.2793 8.59126C45.9633 8.52826 46.4674 7.91625 46.4044 7.23224C46.2154 5.25221 45.0903 4.14519 43.7223 3.68618C45.3693 2.21916 48.0514 3.35318 48.0604 5.64822V20.7144C48.0514 22.1635 46.9174 23.3425 45.4593 23.3425C44.2713 23.3425 43.2273 22.5415 42.9303 21.3985C42.7863 20.8495 42.3003 20.4714 41.7423 20.4624C40.7433 20.4444 39.8703 19.8504 39.4562 19.0044C41.7243 19.4364 43.4973 17.8614 43.5063 17.8524ZM56.7635 15.9714C56.2415 15.5124 55.4585 15.5664 54.9995 16.0884C54.5495 16.6104 54.6035 17.4024 55.1255 17.8524C55.1345 17.8614 56.9075 19.4364 59.1756 19.0044C58.7525 19.8504 57.8885 20.4444 56.8805 20.4624C56.3225 20.4714 55.8365 20.8495 55.7015 21.3895C55.3955 22.5415 54.3605 23.3425 53.1725 23.3425C51.7234 23.3425 50.5714 22.1725 50.5624 20.7235V5.63922C50.5444 4.19919 51.7504 3.02917 53.1725 3.02917C53.8295 3.02917 54.4415 3.27218 54.9095 3.68618C53.5325 4.14519 52.4074 5.25221 52.2184 7.23224C52.1554 7.96125 52.7315 8.60026 53.4695 8.60026C54.1085 8.60026 54.6485 8.11425 54.7115 7.46624C54.7655 6.92624 54.9275 6.54823 55.2245 6.30523C55.7105 5.92722 56.4935 5.91822 56.7545 5.95422C56.8085 5.96322 56.8625 5.96322 56.9165 5.96322C58.6085 5.99022 59.8056 7.70025 59.3466 9.29327C59.1846 9.84228 59.4186 10.4273 59.9136 10.7153C61.8756 11.8673 61.8936 14.7114 59.9406 15.8814C59.8776 15.9264 59.8056 15.9714 59.7516 16.0254C58.2125 17.2494 56.7725 15.9714 56.7635 15.9714ZM53.5955 38.3367H50.5624V41.3698C50.5624 42.0628 50.0044 42.6208 49.3114 42.6208C48.6274 42.6208 48.0604 42.0628 48.0604 41.3698V38.3367H45.0363C44.3433 38.3367 43.7853 37.7787 43.7853 37.0947C43.7853 36.4017 44.3433 35.8437 45.0363 35.8437H48.0604V32.8106C48.0604 32.1176 48.6274 31.5596 49.3114 31.5596C50.0044 31.5596 50.5624 32.1176 50.5624 32.8106V35.8437H53.5955C54.2885 35.8437 54.8465 36.4017 54.8465 37.0947C54.8465 37.7787 54.2885 38.3367 53.5955 38.3367ZM49.3114 47.3099C43.6773 47.3099 39.0962 42.7288 39.0962 37.0947C39.0962 31.4606 43.6773 26.8705 49.3114 26.8705C54.9455 26.8705 59.5356 31.4606 59.5356 37.0947C59.5356 42.7288 54.9455 47.3099 49.3114 47.3099ZM49.3114 29.3726C45.0543 29.3726 41.5983 32.8376 41.5983 37.0947C41.5983 41.3428 45.0543 44.8078 49.3114 44.8078C53.5685 44.8078 57.0335 41.3428 57.0335 37.0947C57.0335 32.8376 53.5685 29.3726 49.3114 29.3726ZM45.9363 15.3864C44.9193 15.3864 43.9563 14.9814 43.2453 14.2883C42.4623 14.7294 41.5533 14.8824 40.6713 14.7294C39.9873 14.6124 39.5372 13.9643 39.6542 13.2803C39.7803 12.5963 40.4283 12.1463 41.1033 12.2633C42.1833 12.4523 43.1283 11.2913 42.5163 10.2383C42.1743 9.64428 42.3813 8.87927 42.9753 8.53726C43.5783 8.18625 44.3433 8.39326 44.6853 8.99627C45.3063 10.0673 45.3513 11.3273 44.9103 12.3983C45.2163 12.7583 45.7023 12.9473 46.1884 12.8573C46.8634 12.7403 47.5114 13.1993 47.6374 13.8743C47.7544 14.5584 47.2954 15.2064 46.6204 15.3234C46.3864 15.3594 46.1614 15.3864 45.9363 15.3864ZM52.6865 15.3864C52.4614 15.3864 52.2364 15.3594 52.0114 15.3234C51.3274 15.2064 50.8774 14.5584 50.9944 13.8743C51.1114 13.1993 51.7594 12.7403 52.4434 12.8573C52.9295 12.9473 53.4155 12.7583 53.7215 12.3983C53.2625 11.2913 53.3435 10.0313 53.9465 8.98727C54.2885 8.39326 55.0535 8.18625 55.6475 8.53726C56.2505 8.87927 56.4485 9.64428 56.1065 10.2383C55.5215 11.2643 56.4125 12.4613 57.5195 12.2633C58.2035 12.1463 58.8515 12.6053 58.9686 13.2803C59.0946 13.9643 58.6355 14.6124 57.9605 14.7294C57.0785 14.8824 56.1605 14.7294 55.3865 14.2883C54.6755 14.9814 53.7125 15.3864 52.6865 15.3864ZM53.1725 25.8445C51.6334 25.8445 50.2474 25.1605 49.3114 24.0805C46.9084 26.8525 42.3723 26.2675 40.8063 22.8655C38.3492 22.3795 36.5222 20.0934 36.6932 17.5194C34.0742 15.3144 34.0832 11.2823 36.7112 9.08627C36.4412 6.45823 38.2592 4.07319 40.7883 3.56018C42.3093 0.122129 46.8904 -0.498881 49.3114 2.29116C51.7414 -0.498881 56.3135 0.122129 57.8435 3.56018C60.3636 4.07319 62.1816 6.45823 61.9206 9.08627C64.5396 11.2823 64.5486 15.3144 61.9386 17.5194C62.1006 20.0934 60.2736 22.3795 57.8165 22.8655C56.9975 24.6565 55.1975 25.8445 53.1725 25.8445ZM12.9508 55.014H7.88375C7.19974 55.014 6.63273 54.456 6.63273 53.763C6.63273 53.07 7.19974 52.5119 7.88375 52.5119H12.9508C13.6348 52.5119 14.2019 53.07 14.2019 53.763C14.2019 54.456 13.6348 55.014 12.9508 55.014ZM27.3061 64.4731H27.2791H1.34965C0.665642 64.4731 0.0986328 63.9061 0.0986328 63.2221V54.708C0.0986328 49.3169 4.4817 44.9338 9.86378 44.9338H15.2099C15.9839 43.6558 16.3349 41.6398 16.4789 40.4428C11.9788 37.1757 11.8258 32.1806 11.6728 27.3296C11.6638 27.0955 11.6548 26.8615 11.6458 26.6275C9.60278 21.3355 11.7898 15.5034 11.8798 15.2514C12.1858 14.4594 13.4548 14.0543 14.2649 13.8473C13.9048 13.3613 13.6348 12.9833 13.6168 12.9563C13.2028 12.3803 13.3648 11.5523 13.9588 11.1743C16.3979 9.61728 19.2149 8.78926 22.095 8.78926C26.478 8.78926 30.6091 10.7243 33.1381 13.9733C35.7392 17.2854 36.5312 21.7495 35.3882 26.5375C35.2082 31.7126 35.0102 37.0317 30.2131 40.4518C30.3571 41.6488 30.7081 43.6558 31.4731 44.9428L37.1612 44.9338C42.5523 44.9338 46.9264 49.3169 46.9264 54.708V63.2221C46.9264 63.9061 46.3684 64.4731 45.6843 64.4731H27.3331H27.3061ZM26.28 61.9711L28.9531 49.0739L24.246 52.4669C23.814 52.7729 23.238 52.7819 22.806 52.4849L17.7119 48.9839L20.4029 61.9711H26.28ZM31.8511 47.4359L28.8361 61.9711H35.9642V58.011C35.9642 57.318 36.5222 56.76 37.2152 56.76C37.9082 56.76 38.4662 57.318 38.4662 58.011V61.9711H44.4333V54.708C44.4333 50.6939 41.1753 47.4359 37.1612 47.4359H31.8511ZM17.8469 61.9711L14.8409 47.4359H9.86378C5.85872 47.4359 2.60067 50.6939 2.60067 54.708V61.9711H8.56776V58.011C8.56776 57.318 9.12577 56.76 9.81878 56.76C10.5028 56.76 11.0698 57.318 11.0698 58.011V61.9711H17.8469ZM18.4229 38.7417C18.8639 39.0027 19.2959 39.2547 19.7999 39.4977C20.538 39.8307 21.123 40.1188 21.6 40.3528C22.482 40.7848 23.058 41.0728 23.346 41.0728C23.625 41.0728 24.21 40.7848 25.083 40.3528C25.56 40.1188 26.154 39.8307 26.8831 39.4977C32.3011 36.9867 32.6701 32.4056 32.8681 27.0685C28.8631 24.6565 26.55 22.3885 25.308 20.9125C24.642 21.6145 23.832 22.0195 23.13 22.2265C21.915 25.2595 17.5319 26.7625 14.1749 27.4196C14.3279 32.2886 14.4899 36.2307 18.4229 38.7417ZM14.0849 16.5294C13.7068 17.7174 12.7078 21.4705 13.7248 24.9625C16.1549 24.4855 20.475 23.1895 20.925 20.9125C21.033 20.3544 21.474 19.9404 22.041 19.9044C22.239 19.8864 23.589 19.6884 24.012 18.2844C24.327 17.2044 25.785 17.0784 26.316 18.0504C26.325 18.0774 27.9451 20.9755 33.2551 24.3685C33.7502 20.9305 33.0391 17.8974 31.1761 15.5124C29.1061 12.8663 25.713 11.2913 22.095 11.2913C20.1329 11.2913 18.2159 11.7503 16.4609 12.6233C16.7939 13.0643 17.1629 13.5593 17.4689 13.9553C18.0809 14.7294 17.5769 15.8814 16.5959 15.9714C15.7409 16.0434 14.6519 16.2774 14.0849 16.5294Z" fill="#D82519"/>
</g>
<defs>
<clipPath id="clip0_757_2305">
<rect width="64" height="64" fill="white" transform="translate(0 0.5)"/>
</clipPath>
</defs>
</svg>
