<svg width="64" height="64" viewBox="0 0 64 64" fill="none" xmlns="http://www.w3.org/2000/svg">
<g clip-path="url(#clip0_757_2105)">
<path d="M14.0878 41.3792C13.5096 40.8212 12.7525 40.486 11.9508 40.4331C11.149 40.3801 10.3545 40.6128 9.70794 41.0899C9.22663 41.4593 8.86294 41.9606 8.661 42.5327L6.40097 40.2733V33.0667C6.40388 32.6487 6.32282 32.2343 6.16262 31.8483C6.00241 31.4622 5.76632 31.1122 5.46833 30.819C5.14133 30.4817 4.74276 30.2222 4.30204 30.0595C3.86131 29.8969 3.38969 29.8353 2.92198 29.8793C2.11089 29.9686 1.36219 30.3569 0.821981 30.9685C0.281774 31.5801 -0.0111685 32.371 0.000325875 33.1869V44.6166C0.000304718 44.7566 0.0278697 44.8953 0.0814467 45.0247C0.135024 45.1541 0.213564 45.2717 0.312581 45.3707L10.6671 55.7276V62.9336C10.6671 63.2164 10.7794 63.4877 10.9794 63.6877C11.1794 63.8876 11.4507 64 11.7335 64H20.2675C20.4076 64.0001 20.5463 63.9726 20.6757 63.919C20.8052 63.8654 20.9228 63.7869 21.0219 63.6879C21.121 63.5888 21.1996 63.4713 21.2532 63.3418C21.3068 63.2124 21.3344 63.0737 21.3344 62.9336V50.1335C21.334 49.8769 21.2416 49.629 21.074 49.4348L14.0878 41.3792ZM19.2005 61.8666H12.8004V55.2857C12.8005 55.1456 12.7729 55.0069 12.7192 54.8775C12.6655 54.748 12.5868 54.6305 12.4876 54.5316L2.13368 44.1771V33.1869C2.12353 32.9056 2.21632 32.6304 2.39463 32.4127C2.57295 32.195 2.82455 32.0498 3.10226 32.0044C3.26003 31.9914 3.41872 32.0135 3.56694 32.0692C3.71515 32.1248 3.84921 32.2125 3.95949 32.3261C4.05792 32.4225 4.13588 32.5378 4.18872 32.6651C4.24157 32.7923 4.2682 32.9289 4.26703 33.0667V40.7146C4.26701 40.8546 4.29458 40.9933 4.34815 41.1227C4.40173 41.2521 4.48027 41.3697 4.57929 41.4687L12.0027 48.8921C12.1326 49.0224 12.294 49.1168 12.4711 49.1661C12.6483 49.2155 12.8352 49.2182 13.0137 49.174C13.1922 49.1297 13.3563 49.0401 13.4899 48.9137C13.6235 48.7872 13.7221 48.6284 13.7761 48.4526L13.8191 48.3142C13.8764 48.1288 13.882 47.9313 13.8353 47.7429C13.7885 47.5546 13.6913 47.3826 13.554 47.2454L11.0341 44.7256C10.8868 44.576 10.7724 44.3971 10.6986 44.2005C10.6247 44.0039 10.5929 43.794 10.6052 43.5844C10.6107 43.4294 10.6497 43.2775 10.7196 43.139C10.7895 43.0006 10.8885 42.879 11.01 42.7825C11.218 42.6227 11.4735 42.5369 11.7358 42.5386C12.0285 42.5316 12.3127 42.637 12.53 42.8332L19.2005 50.5312V61.8666ZM61.0798 29.8793C60.6382 29.8425 60.1937 29.8974 59.7744 30.0407C59.355 30.184 58.9698 30.4125 58.6431 30.7119C58.3163 31.0113 58.055 31.375 57.8757 31.7803C57.6963 32.1855 57.6027 32.6235 57.6009 33.0667V40.2733L55.3408 42.5327C55.1385 41.9596 54.7737 41.4579 54.2909 41.0887C53.6364 40.5988 52.826 40.3637 52.0109 40.4273C51.1958 40.491 50.4316 40.849 49.861 41.4345L42.9278 49.4348C42.76 49.6289 42.6675 49.8769 42.6674 50.1335V62.9336C42.6673 63.0737 42.6948 63.2124 42.7484 63.3418C42.802 63.4712 42.8805 63.5888 42.9795 63.6878C43.0786 63.7869 43.1962 63.8654 43.3256 63.919C43.455 63.9725 43.5937 64.0001 43.7338 64H52.2672C52.4073 64.0001 52.546 63.9726 52.6754 63.919C52.8049 63.8654 52.9225 63.7869 53.0216 63.6879C53.1207 63.5888 53.1993 63.4713 53.2529 63.3418C53.3065 63.2124 53.3341 63.0737 53.3341 62.9336V55.7276L63.6887 45.3731C63.7878 45.2741 63.8664 45.1566 63.92 45.0272C63.9736 44.8977 64.0011 44.759 64.0009 44.619V33.1892C64.013 32.373 63.7204 31.5816 63.1803 30.9695C62.6401 30.3575 61.8912 29.9688 61.0798 29.8793ZM61.867 44.1771L51.513 54.5316C51.414 54.6306 51.3355 54.7482 51.2819 54.8776C51.2283 55.007 51.2008 55.1457 51.2008 55.2857V61.8666H44.8007V50.5312L51.4211 42.8874C51.6264 42.6837 51.8982 42.5609 52.1867 42.5414C52.4752 42.5219 52.7611 42.6071 52.9918 42.7814C53.1136 42.8778 53.213 42.9996 53.2831 43.1382C53.3532 43.2769 53.3923 43.4291 53.3978 43.5844C53.4098 43.7943 53.3776 44.0044 53.3033 44.201C53.229 44.3977 53.1143 44.5766 52.9665 44.7262L50.4467 47.246C50.3094 47.3832 50.2121 47.5552 50.1654 47.7435C50.1187 47.9318 50.1243 48.1294 50.1815 48.3148L50.224 48.4532C50.278 48.629 50.3766 48.7878 50.5102 48.9142C50.6438 49.0407 50.8078 49.1303 50.9863 49.1746C51.1648 49.2188 51.3518 49.2161 51.5289 49.1667C51.7061 49.1173 51.8675 49.0229 51.9973 48.8927L59.4208 41.4693C59.5199 41.3704 59.5985 41.2528 59.6521 41.1234C59.7057 40.994 59.7332 40.8552 59.733 40.7152V33.0667C59.7352 32.919 59.7677 32.7733 59.8284 32.6386C59.8892 32.5039 59.9769 32.3832 60.0862 32.2838C60.1955 32.1844 60.324 32.1085 60.4638 32.0607C60.6036 32.013 60.7517 31.9944 60.899 32.0062C61.1765 32.0519 61.4278 32.1971 61.6059 32.4148C61.7839 32.6325 61.8766 32.9076 61.8664 33.1886L61.867 44.1771ZM53.0737 38.3844C53.3763 38.4214 53.6833 38.3938 53.9744 38.3035C54.2656 38.2133 54.5343 38.0623 54.7629 37.8607C54.9841 37.666 55.1615 37.4266 55.2834 37.1583C55.4053 36.8899 55.4688 36.5988 55.4699 36.3041V24.6976C55.4699 17.9411 50.2458 12.2163 43.3178 11.3826L37.4639 10.6756C37.314 10.6567 37.1619 10.6703 37.0177 10.7154C36.8735 10.7605 36.7408 10.8362 36.6285 10.9372C36.5157 11.0372 36.4254 11.1601 36.3635 11.2976C36.3017 11.4351 36.2697 11.5841 36.2697 11.7349V16.625L33.0694 13.4252V0H30.9313V13.4252L27.7316 16.625V11.7349C27.7316 11.584 27.6997 11.4348 27.6379 11.2971C27.576 11.1594 27.4857 11.0364 27.3729 10.9362C27.26 10.836 27.1272 10.7608 26.9832 10.7157C26.8391 10.6706 26.6872 10.6565 26.5373 10.6744L20.6828 11.3814C13.7555 12.218 8.53138 17.9429 8.53138 24.6994V36.3059C8.53254 36.6006 8.59614 36.8917 8.71801 37.16C8.83987 37.4283 9.01723 37.6677 9.23837 37.8624C9.46697 38.0641 9.73568 38.215 10.0268 38.3053C10.318 38.3956 10.6249 38.4232 10.9275 38.3862L19.3201 37.374C21.6081 37.1278 23.7269 36.0528 25.2769 34.3519C26.8268 32.651 27.7008 30.4417 27.7339 28.1407V19.642L32.0006 15.3771L36.2673 19.6438V28.1407C36.3007 30.4414 37.1749 32.6504 38.7248 34.3509C40.2747 36.0515 42.3934 37.1262 44.6811 37.3723L53.0737 38.3844ZM25.6006 18.7583L20.5797 23.7791L22.088 25.2874L25.6006 21.7748V28.1407C25.5673 29.9198 24.8842 31.6252 23.6802 32.9354C22.4762 34.2456 20.8344 35.0699 19.0644 35.2531L10.6671 36.3041V24.6976C10.6671 19.0193 15.0858 14.2047 20.9403 13.4983L25.6006 12.9362V18.7583ZM38.4007 28.1407V21.7778L41.9133 25.2903L43.4215 23.7821L38.4007 18.7613V12.9368L43.0604 13.4989C48.9172 14.2059 53.3341 19.0199 53.3341 24.6982L53.3294 36.2658L44.9362 35.2531C43.1664 35.0698 41.5247 34.2454 40.3208 32.9352C39.1169 31.6251 38.4339 29.9197 38.4007 28.1407Z" fill="#D82519"/>
</g>
<defs>
<clipPath id="clip0_757_2105">
<rect width="64" height="64" fill="white"/>
</clipPath>
</defs>
</svg>
