<svg width="58" height="59" viewBox="0 0 58 59" fill="none" xmlns="http://www.w3.org/2000/svg">
<path d="M35.735 58.3002H8.82521C6.26239 58.3002 4.17676 55.7451 4.17676 52.6049C4.17676 52.0685 4.61145 51.6338 5.14789 51.6338C5.68434 51.6338 6.11903 52.0685 6.11903 52.6049C6.11903 54.6395 7.35794 56.3578 8.82521 56.3578H35.735C37.2017 56.3578 38.4406 54.6394 38.4406 52.6049C38.4406 52.0685 38.8753 51.6338 39.4117 51.6338C39.9481 51.6338 40.3828 52.0685 40.3828 52.6049C40.3828 55.7451 38.298 58.3002 35.735 58.3002Z" fill="#D82519"/>
<path d="M11.9003 39.8872C8.86404 39.8872 6.39453 37.4173 6.39453 34.3809C6.39453 31.345 8.86404 28.875 11.9003 28.875C14.9366 28.875 17.4062 31.3451 17.4062 34.3809C17.4064 37.4173 14.9366 39.8872 11.9003 39.8872ZM11.9003 30.8174C9.9354 30.8174 8.33667 32.4161 8.33667 34.381C8.33667 36.346 9.9354 37.9451 11.9003 37.9451C13.8655 37.9451 15.464 36.346 15.464 34.381C15.464 32.416 13.8655 30.8174 11.9003 30.8174Z" fill="#D82519"/>
<path d="M16.4351 48.8417H7.36567C6.82922 48.8417 6.39453 48.407 6.39453 47.8707C6.39453 47.3343 6.82922 46.8996 7.36567 46.8996H15.464V44.622H7.36567C6.82922 44.622 6.39453 44.1873 6.39453 43.6508C6.39453 43.1144 6.82922 42.6797 7.36567 42.6797H16.4351C16.9716 42.6797 17.4062 43.1144 17.4062 43.6508V47.8707C17.4064 48.4069 16.9716 48.8417 16.4351 48.8417Z" fill="#D82519"/>
<path d="M42.9387 48.8415H21.7132C21.1769 48.8415 20.7422 48.4068 20.7422 47.8704V29.1323C20.7422 28.5958 21.1769 28.1611 21.7132 28.1611H42.9387C43.475 28.1611 43.9097 28.5958 43.9097 29.1323V47.8704C43.9098 48.4066 43.475 48.8415 42.9387 48.8415ZM22.6843 46.8992H41.9675V30.1034H22.6843V46.8992Z" fill="#D82519"/>
<path d="M28.1373 43.7086C27.7184 43.6911 27.3854 43.4586 27.2405 43.1107L25.726 39.4731H21.7132C21.1769 39.4731 20.7422 39.0384 20.7422 38.5019C20.7422 37.9655 21.1769 37.5308 21.7132 37.5308H26.3741C26.7663 37.5308 27.1198 37.7668 27.2708 38.1288L28.2367 40.4497L31.465 34.2682C31.6456 33.9222 32.0143 33.7215 32.4036 33.7497C32.7921 33.7808 33.1244 34.0413 33.248 34.4113L34.7047 38.7908L35.7137 37.9734C35.8868 37.8334 36.103 37.7567 36.3253 37.7567H42.9388C43.4751 37.7567 43.9098 38.1914 43.9098 38.7279C43.9098 39.2643 43.4751 39.699 42.9388 39.699H36.6688L34.8373 41.1829C34.59 41.3836 34.26 41.4497 33.9535 41.3604C33.6477 41.271 33.405 41.0374 33.304 40.7349L32.1271 37.1963L28.9982 43.1871C28.8299 43.5087 28.4977 43.7086 28.1373 43.7086Z" fill="#D82519"/>
<path d="M16.4359 25.2751H7.36567C6.82922 25.2751 6.39453 24.8404 6.39453 24.3041V22.0404C6.39453 20.6925 7.49072 19.5957 8.83895 19.5957H14.9617C16.3099 19.5957 17.407 20.6924 17.407 22.0404V24.3041C17.407 24.8404 16.9723 25.2751 16.4359 25.2751ZM8.33667 23.3329H15.4647V22.0405C15.4647 21.7635 15.2395 21.5382 14.9616 21.5382H8.83895C8.56196 21.5382 8.33667 21.7636 8.33667 22.0405V23.3329Z" fill="#D82519"/>
<path d="M14.3867 21.5378H9.41632C8.88 21.5378 8.44531 21.1031 8.44531 20.5667V15.9056C8.44531 15.3693 8.88 14.9346 9.41632 14.9346H14.3867C14.923 14.9346 15.3577 15.3693 15.3577 15.9056V20.5667C15.3577 21.1031 14.923 21.5378 14.3867 21.5378ZM10.3875 19.5956H13.4156V16.8768H10.3875V19.5956Z" fill="#D82519"/>
<path d="M51.2295 23.7632H45.4663C44.9298 23.7632 44.4951 23.3286 44.4951 22.7921V8.21137C44.4951 7.67492 44.9298 7.24023 45.4663 7.24023H51.2295C51.7658 7.24023 52.2005 7.67492 52.2005 8.21137V22.7921C52.2005 23.3286 51.7658 23.7632 51.2295 23.7632ZM46.4374 21.821H50.2583V9.18251H46.4374V21.821Z" fill="#D82519"/>
<path d="M53.7961 29.5894H42.9391C42.4027 29.5894 41.968 29.1547 41.968 28.6183V26.2985C41.968 25.7339 41.5089 25.2749 40.9445 25.2749H40.3177C39.7814 25.2749 39.3467 24.8402 39.3467 24.3039V10.7936C39.3467 8.83422 40.9407 7.24023 42.8997 7.24023H53.7961C55.7559 7.24023 57.3499 8.83422 57.3499 10.7936V26.036C57.35 27.9953 55.7559 29.5894 53.7961 29.5894ZM43.9103 27.647H53.7962C54.6847 27.647 55.4077 26.9243 55.4077 26.0359V10.7936C55.4077 9.90519 54.6847 9.18251 53.7962 9.18251H42.8998C42.0114 9.18251 41.2889 9.90507 41.2889 10.7936V23.3525C42.7624 23.524 43.9103 24.7797 43.9103 26.2985V27.647Z" fill="#D82519"/>
<path d="M40.9449 53.5763H3.61602C1.98095 53.5763 0.650391 52.246 0.650391 50.611V26.2988C0.650391 24.6633 1.98108 23.333 3.61602 23.333H40.945C42.5801 23.333 43.9107 24.6633 43.9107 26.2988V50.611C43.9107 52.246 42.58 53.5763 40.9449 53.5763ZM3.61602 25.2752C3.05154 25.2752 2.59253 25.7342 2.59253 26.2988V50.611C2.59253 51.1749 3.05167 51.6341 3.61602 51.6341H40.945C41.5094 51.6341 41.9685 51.1749 41.9685 50.611V26.2988C41.9685 25.7342 41.5094 25.2752 40.945 25.2752H3.61602Z" fill="#D82519"/>
<path d="M11.9008 16.8768C11.3644 16.8768 10.9297 16.4421 10.9297 15.9057V13.5753C10.9297 10.8521 13.1452 8.6362 15.8688 8.6362H26.4377C28.09 8.6362 29.4345 7.29181 29.4345 5.63933C29.4345 2.916 31.6499 0.700195 34.3737 0.700195H44.3802C47.1039 0.700195 49.3193 2.916 49.3193 5.63933V8.21136C49.3193 8.74781 48.8846 9.1825 48.3482 9.1825C47.8117 9.1825 47.377 8.74781 47.377 8.21136V5.63933C47.377 3.98685 46.0327 2.64247 44.3802 2.64247H34.3737C32.7212 2.64247 31.3768 3.98685 31.3768 5.63933C31.3768 8.36266 29.1612 10.5785 26.4377 10.5785H15.8688C14.2165 10.5785 12.872 11.923 12.872 13.5753V15.9057C12.872 16.4421 12.4373 16.8768 11.9008 16.8768Z" fill="#D82519"/>
</svg>
