<svg width="40" height="40" viewBox="0 0 40 40" fill="none" xmlns="http://www.w3.org/2000/svg">
<mask id="mask0_5_6" style="mask-type:alpha" maskUnits="userSpaceOnUse" x="0" y="0" width="40" height="40">
<path d="M34.1663 26.6667V30.8333C34.1663 34.05 31.5497 36.6667 28.333 36.6667H11.6663C8.44967 36.6667 5.83301 34.05 5.83301 30.8333V29.75C5.83301 27.1333 7.96634 25 10.583 25H32.4997C33.4163 25 34.1663 25.75 34.1663 26.6667Z" fill="#333333"/>
<path d="M25.833 3.33398H14.1663C7.49967 3.33398 5.83301 5.00066 5.83301 11.6673V24.3007C7.09967 23.184 8.76634 22.5007 10.583 22.5007H32.4997C33.4163 22.5007 34.1663 21.7507 34.1663 20.834V11.6673C34.1663 5.00066 32.4997 3.33398 25.833 3.33398ZM21.6663 17.9173H13.333C12.6497 17.9173 12.083 17.3507 12.083 16.6673C12.083 15.984 12.6497 15.4173 13.333 15.4173H21.6663C22.3497 15.4173 22.9163 15.984 22.9163 16.6673C22.9163 17.3507 22.3497 17.9173 21.6663 17.9173ZM26.6663 12.084H13.333C12.6497 12.084 12.083 11.5173 12.083 10.834C12.083 10.1507 12.6497 9.58398 13.333 9.58398H26.6663C27.3497 9.58398 27.9163 10.1507 27.9163 10.834C27.9163 11.5173 27.3497 12.084 26.6663 12.084Z" fill="#333333"/>
</mask>
<g mask="url(#mask0_5_6)">
<rect x="-6" y="-6" width="46" height="50" fill="#D82519"/>
</g>
</svg>
