<svg width="27" height="24" viewBox="0 0 27 24" fill="none" xmlns="http://www.w3.org/2000/svg">
<mask id="mask0_3_38" style="mask-type:alpha" maskUnits="userSpaceOnUse" x="0" y="0" width="27" height="24">
<g clip-path="url(#clip0_3_38)">
<path d="M19.2533 0C16.84 0 14.68 1.17333 13.3333 2.97333C11.9867 1.17333 9.82667 0 7.41333 0C3.32 0 0 3.33333 0 7.45333C0 9.04 0.253333 10.5067 0.693333 11.8667C2.8 18.5333 9.29333 22.52 12.5067 23.6133C12.96 23.7733 13.7067 23.7733 14.16 23.6133C17.3733 22.52 23.8667 18.5333 25.9733 11.8667C26.4133 10.5067 26.6667 9.04 26.6667 7.45333C26.6667 3.33333 23.3467 0 19.2533 0Z" fill="#333333"/>
</g>
</mask>
<g mask="url(#mask0_3_38)">
<rect x="-6" y="-6" width="41" height="34" fill="#D82519"/>
</g>
<defs>
<clipPath id="clip0_3_38">
<rect width="27" height="24" fill="white"/>
</clipPath>
</defs>
</svg>
