<svg width="64" height="65" viewBox="0 0 64 65" fill="none" xmlns="http://www.w3.org/2000/svg">
<g clip-path="url(#clip0_757_2160)">
<path d="M28.742 37.3622C28.5376 36.3113 28.1061 35.2987 27.4568 34.3542L26.6052 33.1155L25.7546 34.3552C24.5964 36.043 22.6857 37.0515 20.6449 37.0515C18.4545 37.0515 16.4705 35.9232 15.336 34.0342L14.4514 32.5591L13.5667 34.0342C12.4333 35.9232 10.4483 37.0515 8.25783 37.0515C6.21705 37.0515 4.30634 36.043 3.14815 34.3552L2.29757 33.1155L1.44596 34.3542C0.796666 35.2997 0.36415 36.3113 0.159763 37.3632C-0.70527 41.8102 2.0457 46.0724 6.4235 47.0654C6.89628 47.1717 7.22557 47.5826 7.22557 48.0636V64.5002H21.6772V48.0636C21.6772 47.5826 22.0065 47.1717 22.4782 47.0644C26.856 46.0713 29.607 41.8091 28.742 37.3622ZM22.022 45.0515C20.6036 45.3735 19.6127 46.6112 19.6127 48.0636V62.4357H9.29009V48.0636C9.29009 46.6112 8.29912 45.3735 6.88079 45.0515C3.59718 44.3062 1.53576 41.102 2.18712 37.7565C2.25318 37.419 2.35228 37.0845 2.48338 36.7562C4.01215 38.2541 6.07873 39.115 8.25783 39.115C10.6723 39.115 12.8989 38.0889 14.4514 36.3124C16.0039 38.0889 18.2305 39.115 20.6449 39.115C22.824 39.115 24.8906 38.2541 26.4204 36.7562C26.5515 37.0845 26.6506 37.419 26.7167 37.7565C27.367 41.102 25.3056 44.3062 22.022 45.0515Z" fill="#D82519"/>
<path d="M12.3825 44.3213L10.6152 45.3886C11.0983 46.1897 11.3543 47.1146 11.3543 48.0632V49.0738H13.4188V48.0632C13.4188 46.7378 13.0607 45.4444 12.3825 44.3213Z" fill="#D82519"/>
<path d="M13.419 51.0498H11.3545V59.3388H13.419V51.0498Z" fill="#D82519"/>
<path d="M63.9991 18.0484C63.9991 8.372 56.1271 0.5 46.4507 0.5C36.7743 0.5 28.9023 8.372 28.9023 18.0484C28.9023 26.6667 35.1516 33.8378 43.354 35.3067V39.7258H41.2894V59.3387C41.2894 62.1846 43.6048 64.5 46.4507 64.5C49.2967 64.5 51.612 62.1846 51.612 59.3387V39.7258H49.5475V35.3067C57.7498 33.8378 63.9991 26.6667 63.9991 18.0484ZM49.5475 59.3387C49.5475 61.0461 48.1581 62.4355 46.4507 62.4355C44.7434 62.4355 43.354 61.0461 43.354 59.3387V41.7903H49.5475V59.3387ZM45.4185 39.7258V35.5441C45.7622 35.5648 46.1018 35.5968 46.4507 35.5968C46.7996 35.5968 47.1392 35.5648 47.483 35.5441V39.7258H45.4185ZM46.4507 33.5323C37.9129 33.5323 30.9669 26.5862 30.9669 18.0484C30.9669 9.51058 37.9129 2.56452 46.4507 2.56452C54.9885 2.56452 61.9346 9.51058 61.9346 18.0484C61.9346 26.5862 54.9885 33.5323 46.4507 33.5323Z" fill="#D82519"/>
<path d="M46.4506 4.62891C39.0514 4.62891 33.0312 10.649 33.0312 18.0483C33.0312 25.4475 39.0514 31.4676 46.4506 31.4676C48.8093 31.4676 51.1298 30.8462 53.1603 29.6715L52.128 27.8846C50.4093 28.8777 48.447 29.4031 46.4506 29.4031C40.19 29.4031 35.0958 24.3089 35.0958 18.0483C35.0958 11.7876 40.19 6.69342 46.4506 6.69342C52.7112 6.69342 57.8054 11.7876 57.8054 18.0483C57.8054 20.8178 56.7969 23.4852 54.9667 25.559L56.5151 26.9246C58.6787 24.473 59.87 21.3205 59.87 18.0483C59.87 10.649 53.8498 4.62891 46.4506 4.62891Z" fill="#D82519"/>
<path d="M55.7414 15.984C55.7414 14.2766 54.352 12.8872 52.6446 12.8872C50.9373 12.8872 49.5479 14.2766 49.5479 15.984C49.5479 16.5321 49.6965 17.0648 49.97 17.5324C49.6965 18 49.5479 18.5326 49.5479 19.0808C49.5479 20.7881 50.9373 22.1775 52.6446 22.1775C54.352 22.1775 55.7414 20.7881 55.7414 19.0808C55.7414 18.5326 55.5928 18 55.3192 17.5324C55.5928 17.0648 55.7414 16.5321 55.7414 15.984ZM53.3177 18.3097C53.4519 18.4273 53.6769 18.6833 53.6769 19.0808C53.6769 19.6495 53.2134 20.113 52.6446 20.113C52.0759 20.113 51.6124 19.6495 51.6124 19.0808C51.6124 18.6833 51.8374 18.4273 51.9716 18.3097C52.1956 18.1135 52.3246 17.8307 52.3246 17.5324C52.3246 17.234 52.1956 16.9512 51.9716 16.7551C51.8374 16.6374 51.6124 16.3814 51.6124 15.984C51.6124 15.4152 52.0759 14.9517 52.6446 14.9517C53.2134 14.9517 53.6769 15.4152 53.6769 15.984C53.6769 16.3814 53.4519 16.6374 53.3177 16.7551C53.0937 16.9512 52.9646 17.234 52.9646 17.5324C52.9646 17.8307 53.0937 18.1135 53.3177 18.3097Z" fill="#D82519"/>
<path d="M40.2579 14.9517C38.5506 14.9517 37.1611 16.3411 37.1611 18.0484C37.1611 19.7558 38.5506 21.1452 40.2579 21.1452C41.9653 21.1452 43.3547 19.7558 43.3547 18.0484C43.3547 16.3411 41.9653 14.9517 40.2579 14.9517ZM40.2579 19.0807C39.6891 19.0807 39.2256 18.6172 39.2256 18.0484C39.2256 17.4797 39.6891 17.0162 40.2579 17.0162C40.8267 17.0162 41.2902 17.4797 41.2902 18.0484C41.2902 18.6172 40.8267 19.0807 40.2579 19.0807Z" fill="#D82519"/>
<path d="M22.448 17.3175C22.001 17.2185 21.6769 16.8014 21.6769 16.3255V0.5H7.22528V16.3255C7.22528 16.8004 6.90115 17.2185 6.45522 17.3175C2.05573 18.2972 -0.708654 22.5625 0.160507 27.027C0.8067 30.3508 3.49367 32.9594 6.84747 33.5188C9.74089 34.0009 12.5837 32.9625 14.4521 30.8319C16.0181 32.6166 18.2684 33.6355 20.657 33.6355C21.1195 33.6355 21.5871 33.5973 22.0568 33.5188C25.4106 32.9594 28.0975 30.3508 28.7437 27.027C29.6108 22.5625 26.8464 18.2972 22.448 17.3175ZM26.7153 26.6326C26.2405 29.076 24.1842 31.0703 21.7151 31.4822C19.1602 31.9095 16.6581 30.7586 15.3357 28.5547L14.4511 27.0796L13.5664 28.5547C12.2441 30.7596 9.73883 31.9095 7.18709 31.4822C4.71793 31.0703 2.6627 29.076 2.18683 26.6326C1.53341 23.2747 3.60515 20.0675 6.90425 19.3325C8.28644 19.0239 9.2898 17.7594 9.2898 16.3255V2.56452H19.6124V16.3255C19.6124 17.7594 20.6157 19.0239 21.999 19.3325C25.297 20.0675 27.3698 23.2737 26.7153 26.6326Z" fill="#D82519"/>
<path d="M13.419 4.62891H11.3545V6.54994H13.419V4.62891Z" fill="#D82519"/>
<path d="M11.3547 8.5249V16.3257C11.3547 18.7195 9.67214 20.8315 7.35266 21.3476C7.19369 21.3837 7.03575 21.4292 6.87988 21.4849L7.57356 23.4297C7.64995 23.4028 7.72633 23.3801 7.80375 23.3626C11.0574 22.6379 13.4192 19.6785 13.4192 16.3257V8.5249H11.3547Z" fill="#D82519"/>
<path d="M43.3546 9.79053H41.29V11.855H43.3546V9.79053Z" fill="#D82519"/>
<path d="M47.4835 58.3066H45.4189V60.3712H47.4835V58.3066Z" fill="#D82519"/>
<path d="M47.4835 15.9839H45.4189V18.0484H47.4835V15.9839Z" fill="#D82519"/>
<path d="M47.4835 25.2744H45.4189V27.3389H47.4835V25.2744Z" fill="#D82519"/>
</g>
<defs>
<clipPath id="clip0_757_2160">
<rect width="64" height="64" fill="white" transform="translate(0 0.5)"/>
</clipPath>
</defs>
</svg>
