<svg width="28" height="28" viewBox="0 0 28 28" fill="none" xmlns="http://www.w3.org/2000/svg">
<path d="M13.9993 25.4911C13.7855 25.4911 13.5863 25.4764 13.402 25.4468C13.2169 25.418 13.0466 25.3745 12.891 25.3161C10.4799 24.4217 8.50629 22.8273 6.97018 20.5328C5.43407 18.2384 4.66602 15.7106 4.66602 12.9495V7.43698C4.66602 6.95087 4.80718 6.51337 5.08952 6.12448C5.37107 5.73559 5.73546 5.45365 6.18268 5.27865L13.1827 2.65365C13.4549 2.55642 13.7271 2.50781 13.9993 2.50781C14.2716 2.50781 14.5438 2.55642 14.816 2.65365L21.816 5.27865C22.2632 5.45365 22.628 5.73559 22.9104 6.12448C23.1919 6.51337 23.3327 6.95087 23.3327 7.43698V12.9495C23.3327 15.7106 22.5646 18.2384 21.0285 20.5328C19.4924 22.8273 17.5188 24.4217 15.1077 25.3161C14.9521 25.3745 14.7818 25.418 14.5967 25.4468C14.4123 25.4764 14.2132 25.4911 13.9993 25.4911ZM13.9993 23.2161C15.8855 22.6328 17.4605 21.4809 18.7243 19.7605C19.9882 18.0393 20.7271 16.1189 20.941 13.9995H13.9993V4.81198L6.99935 7.43698V13.4745C6.99935 13.6106 7.01879 13.7856 7.05768 13.9995H13.9993V23.2161Z" fill="#12141D"/>
</svg>
