<svg width="28" height="28" viewBox="0 0 28 28" fill="none" xmlns="http://www.w3.org/2000/svg">
<path d="M23.3333 16.3346C24.622 16.3346 25.6667 15.29 25.6667 14.0013C25.6667 12.7126 24.622 11.668 23.3333 11.668C22.0447 11.668 21 12.7126 21 14.0013C21 15.29 22.0447 16.3346 23.3333 16.3346Z" stroke="#12141D" stroke-width="1.5" stroke-linecap="round" stroke-linejoin="round"/>
<path d="M23.3333 6.9987C24.622 6.9987 25.6667 5.95403 25.6667 4.66536C25.6667 3.3767 24.622 2.33203 23.3333 2.33203C22.0447 2.33203 21 3.3767 21 4.66536C21 5.95403 22.0447 6.9987 23.3333 6.9987Z" stroke="#12141D" stroke-width="1.5" stroke-linecap="round" stroke-linejoin="round"/>
<path d="M23.3333 25.6667C24.622 25.6667 25.6667 24.622 25.6667 23.3333C25.6667 22.0447 24.622 21 23.3333 21C22.0447 21 21 22.0447 21 23.3333C21 24.622 22.0447 25.6667 23.3333 25.6667Z" stroke="#12141D" stroke-width="1.5" stroke-linecap="round" stroke-linejoin="round"/>
<path d="M4.66732 16.3346C5.95598 16.3346 7.00065 15.29 7.00065 14.0013C7.00065 12.7126 5.95598 11.668 4.66732 11.668C3.37865 11.668 2.33398 12.7126 2.33398 14.0013C2.33398 15.29 3.37865 16.3346 4.66732 16.3346Z" stroke="#12141D" stroke-width="1.5" stroke-linecap="round" stroke-linejoin="round"/>
<path d="M7 14H21" stroke="#12141D" stroke-width="1.5" stroke-linecap="round" stroke-linejoin="round"/>
<path d="M21.0007 4.66797H16.334C14.0007 4.66797 12.834 5.83464 12.834 8.16797V19.8346C12.834 22.168 14.0007 23.3346 16.334 23.3346H21.0007" stroke="#12141D" stroke-width="1.5" stroke-linecap="round" stroke-linejoin="round"/>
</svg>
