<svg width="64" height="64" viewBox="0 0 64 64" fill="none" xmlns="http://www.w3.org/2000/svg">
<path d="M28.8787 12.1928C26.719 12.7394 26.5018 15.2121 28.2978 16.7661C26.528 17.6926 26.8359 19.879 28.329 21.1451C26.5607 22.0393 26.7975 24.218 28.297 25.5156C26.4682 26.4757 26.8527 28.7753 28.4943 30.0256C26.5494 30.851 26.7466 33.1178 28.2974 34.4599C26.4628 35.422 26.8574 37.7244 28.4942 38.9706C26.5467 39.7956 26.7497 42.0658 28.297 43.4047C26.3983 44.4015 26.8838 46.86 28.6886 48.0692C25.8454 49.0195 26.9793 53.2578 30.8193 53.6352C31.5971 53.713 32.4011 53.713 33.1793 53.6352C36.9445 53.2652 38.2326 49.0451 35.3092 48.0698C37.1133 46.8617 37.6016 44.4013 35.7014 43.4049C37.2408 42.073 37.4607 39.7981 35.5039 38.971C37.14 37.7259 37.5362 35.4191 35.7009 34.4602C37.2409 33.1276 37.4609 30.8551 35.5037 30.026C37.1359 28.7834 37.5396 26.4796 35.7016 25.5156C37.1954 24.2229 37.4453 22.0406 35.6695 21.1451C37.1769 19.867 37.462 17.6873 35.7002 16.7665C37.4415 15.2604 37.3476 12.7568 35.1206 12.1924C37.1441 10.9808 37.707 8.27077 35.5006 7.33854C36.365 6.68177 36.9126 5.73995 36.9126 4.69271C36.9126 3.84618 35.6326 3.84566 35.6326 4.69271C35.6326 5.84271 34.5243 6.81937 33.0543 6.96437C32.3543 7.03271 31.6443 7.03271 30.9443 6.96437C29.4743 6.81937 28.366 5.84271 28.366 4.69271C28.366 3.84618 27.086 3.84566 27.086 4.69271C27.086 5.73979 27.6335 6.68146 28.4976 7.33818C26.2858 8.27547 26.861 10.9853 28.8787 12.1928ZM33.0543 25.3002C32.3543 25.3685 31.6443 25.3685 30.9443 25.3002C29.4743 25.1552 28.366 24.1794 28.366 23.0294C28.366 22.5273 29.016 22.0173 29.8043 22.1527C33.4588 22.7548 34.393 21.647 35.3268 22.4402C35.441 22.5369 35.6326 22.7419 35.6326 23.0294C35.6326 24.1794 34.5243 25.1552 33.0543 25.3002ZM33.0543 20.9052C32.3543 20.9735 31.6443 20.9735 30.9443 20.9052C29.4743 20.7602 28.366 19.7835 28.366 18.6335C28.366 18.0404 29.1396 17.6427 29.8043 17.7569C33.4588 18.359 34.393 17.2512 35.3268 18.0444C35.441 18.141 35.6326 18.3469 35.6326 18.6335C35.6326 19.7835 34.5243 20.7602 33.0543 20.9052ZM35.6326 50.091C35.6326 51.241 34.5243 52.2169 33.0543 52.3619C32.3543 52.4302 31.6443 52.4302 30.9443 52.3619C29.4743 52.2169 28.366 51.241 28.366 50.091C28.366 49.4979 29.1396 49.1002 29.8043 49.2144C33.4588 49.8165 34.393 48.7087 35.3268 49.5019C35.441 49.5985 35.6326 49.8044 35.6326 50.091ZM33.0543 47.5435C32.3543 47.6119 31.6443 47.6119 30.9443 47.5435C29.4743 47.3985 28.366 46.4219 28.366 45.2719C28.366 44.7758 29.0091 44.2607 29.8051 44.396C33.4409 44.9958 34.3927 43.892 35.3268 44.6827C35.441 44.7794 35.6326 44.9852 35.6326 45.2719C35.6326 46.4219 34.5243 47.3985 33.0543 47.5435ZM33.0543 43.1894C32.3543 43.2577 31.6443 43.2577 30.9443 43.1894C29.4743 43.0444 28.366 42.0685 28.366 40.9185C28.366 40.4165 29.016 39.9065 29.8043 40.0419C33.4588 40.644 34.393 39.5362 35.3268 40.3294C35.441 40.426 35.6326 40.631 35.6326 40.9185C35.6326 42.0685 34.5243 43.0444 33.0543 43.1894ZM33.0543 38.5985C32.3543 38.6669 31.6443 38.6669 30.9443 38.5985C29.4743 38.4535 28.366 37.4777 28.366 36.3277C28.366 35.7357 29.137 35.3365 29.8043 35.451C31.261 35.691 32.7376 35.691 34.1943 35.451C34.9971 35.3127 35.6326 35.8349 35.6326 36.3277C35.6326 37.4777 34.5243 38.4535 33.0543 38.5985ZM33.0543 34.2452C32.3543 34.3135 31.6443 34.3135 30.9443 34.2452C29.4743 34.1002 28.366 33.1235 28.366 31.9735C28.366 31.3804 29.1396 30.9827 29.8043 31.0969C33.4588 31.699 34.393 30.5912 35.3268 31.3844C35.441 31.481 35.6326 31.6869 35.6326 31.9735C35.6326 33.1235 34.5243 34.1002 33.0543 34.2452ZM33.0543 29.6544C32.3543 29.7227 31.6443 29.7227 30.9443 29.6544C29.4743 29.5094 28.366 28.5327 28.366 27.3827C28.366 26.7846 29.1429 26.3943 29.8051 26.5069C33.448 27.1078 34.396 26.0029 35.3268 26.7935C35.441 26.8902 35.6326 27.096 35.6326 27.3827C35.6326 28.5327 34.5243 29.5085 33.0543 29.6544ZM35.6326 14.2794C35.6326 15.4294 34.5243 16.4052 33.0543 16.551C32.3543 16.6194 31.6443 16.6194 30.9443 16.551C29.4743 16.406 28.366 15.4294 28.366 14.2794C28.366 13.7853 29.0063 13.2677 29.8051 13.4035C33.4572 14.0059 34.3885 12.8967 35.3268 13.691C35.441 13.7877 35.6326 13.9927 35.6326 14.2794ZM29.8051 8.41187C33.448 9.01276 34.3922 7.90471 35.3268 8.69854C35.441 8.79521 35.6326 9.00104 35.6326 9.28771C35.6326 10.4377 34.5243 11.4135 33.0543 11.5594C32.3543 11.6277 31.6443 11.6277 30.9443 11.5594C29.4743 11.4144 28.366 10.4377 28.366 9.28771C28.366 8.68957 29.1429 8.29929 29.8051 8.41187Z" fill="#D82519"/>
<path d="M28.5706 54.637C28.7702 53.8144 27.5265 53.5125 27.3272 54.3354L26.8047 56.4845C26.4355 58.0005 27.4526 59.3504 28.8947 59.3504H35.1072C36.5608 59.3504 37.5631 57.989 37.1972 56.4854L36.6747 54.3354C36.4748 53.5098 35.2321 53.8159 35.4314 54.637L35.9539 56.787C36.1096 57.4323 35.7725 58.0704 35.1072 58.0704H28.8947C28.2341 58.0704 27.8906 57.4396 28.0481 56.787L28.5706 54.637Z" fill="#D82519"/>
<path d="M41.3585 8.47446C40.6212 8.4556 38.9463 8.49239 38.5544 9.11779C38.2594 9.59112 37.761 10.0336 37.5902 9.98279C36.6958 9.76952 36.3726 11.2661 37.6177 11.2661C38.546 11.2661 39.2802 10.3328 39.556 9.92612C40.1043 9.69606 41.3705 9.77739 41.5269 9.74612C42.3394 9.59529 42.901 9.24029 43.1944 8.68946C43.6085 7.91112 43.2802 7.10112 43.2119 6.95279C42.665 5.97323 41.2058 5.92487 40.2727 6.48779C39.9237 6.69533 39.3348 6.68306 38.8219 6.30946C38.4019 6.00112 37.9385 5.78696 37.9194 5.77779C37.153 5.42532 36.6147 6.58526 37.3844 6.94112C37.3877 6.94279 37.7527 7.11196 38.066 7.34196C38.9762 8.00779 40.1162 8.06342 40.9285 7.58696C41.1552 7.44946 41.5719 7.35779 41.8794 7.43862C42.031 7.47946 42.0702 7.53612 42.0694 7.52779C42.264 8.09382 41.9443 8.35189 41.3585 8.47446Z" fill="#D82519"/>
<path d="M49.9301 59.3995L50.1634 57.8128C50.2459 57.2486 50.0018 56.6803 49.5418 56.367C45.7101 53.7395 41.7193 54.367 40.2534 54.7295L39.4914 52.9681C40.4267 52.4289 41.0184 52.5138 41.2293 52.6945C41.6352 53.1185 42.1912 52.7925 42.5862 52.3552C46.3658 52.3063 46.817 52.5447 47.7351 51.9186C49.555 50.68 47.7948 47.8685 45.8576 48.8786C45.7443 48.9386 45.6459 48.9953 45.5693 49.0411H43.1319C42.6874 47.7459 41.0779 47.8755 39.8001 48.4503C39.5683 48.4299 39.12 48.3571 39.0684 48.1253C39.5093 47.142 40.4651 47.382 40.6518 47.4411C40.9861 47.5506 41.7134 47.504 42.193 47.0684C43.2534 47.1591 45.0548 46.7947 46.0926 46.5603C46.9751 46.3753 47.5543 45.9828 47.8143 45.3953C48.1734 44.5853 47.7343 43.7961 47.6393 43.6445C46.8676 42.6345 45.5801 42.9961 44.9909 43.337C44.4368 43.6803 43.0494 43.6981 42.3993 43.6781C42.3471 43.6023 42.2985 43.5236 42.2343 43.4578C41.7284 42.9403 41.0693 42.9795 40.9318 42.9911C40.3318 43.1036 39.8551 43.0503 39.5609 42.8428C39.3002 42.6579 39.2336 42.3873 39.2268 42.3871C39.2219 42.1715 39.2496 41.895 39.3993 41.7811C39.5934 41.6336 40.0209 41.6853 40.2193 41.7378C40.8757 42.0335 41.5513 42.0361 42.0343 41.5079C42.2642 41.5344 41.49 41.5606 45.8226 41.1795C47.3652 41.007 48.2984 39.5681 47.8834 38.5203C47.6901 38.0311 47.3776 37.6786 46.9818 37.5011C46.2301 37.1636 45.2826 37.5153 44.7701 38.0161C44.5484 38.2328 43.4226 38.362 42.4026 38.2911C42.3873 38.2904 42.3748 38.2969 42.3598 38.2971C42.272 38.1087 42.1646 37.9383 42.0209 37.8011C41.4276 37.2353 40.6509 37.3836 40.5893 37.3986C39.6034 37.5761 39.2484 37.3345 39.1843 37.147C39.1934 36.8495 39.2701 36.6386 39.4134 36.5195C39.6734 36.3053 40.1659 36.3403 40.2743 36.3578C40.9047 36.5295 41.5308 36.4856 42.01 36.0315C47.2669 35.493 46.5183 35.6169 46.7745 35.5338C49.2192 35.1217 48.8785 32.3616 47.1468 31.9986C46.3676 31.842 45.7693 32.2711 45.4301 32.687C44.2609 32.8025 42.7445 32.9512 42.402 32.9815C41.991 32.1448 41.1181 31.9802 40.2784 32.227C39.6976 32.3045 39.4551 32.2061 39.4093 32.1411C39.3243 32.0245 39.3909 31.6495 39.5059 31.3686C40.0376 30.912 40.7559 31.2011 40.7826 31.212C41.1278 31.3706 41.6455 31.297 42.0631 30.8471C43.3615 30.9904 44.7353 30.9243 45.8401 30.2345C47.6919 29.0758 45.8753 25.9527 43.7034 27.642L42.3085 27.7082C42.2201 27.5885 42.1223 27.479 42.0059 27.3903C41.3801 26.912 40.6526 27.122 40.6409 27.1311C39.5359 27.3503 39.3251 26.7853 39.2884 26.6203C39.2618 26.4645 39.2343 26.1861 39.3509 26.0695C39.4918 25.9286 39.8826 25.907 40.1309 25.9411C41.0349 26.2261 41.819 25.9563 42.0978 25.0832C48.2079 25.2815 45.4639 19.9423 43.0943 21.9378C41.5643 21.9552 41.5864 21.9011 41.3689 21.983C41.0256 21.7385 40.4264 21.5537 40.0676 21.7703C39.7626 21.9561 39.5034 22.0378 39.3759 21.9761C39.1426 21.8717 38.9692 21.1355 39.1243 20.9345C39.2184 20.812 39.4476 20.7586 39.5676 20.7478C40.3656 20.8507 41.1036 20.7238 41.5228 20.0403C43.08 20.3465 44.464 19.9388 45.6876 19.042C46.1193 18.7245 46.3676 18.2336 46.3684 17.6961C46.3684 16.3895 44.9299 15.5153 43.6984 16.3278L43.2368 16.7211C41.7887 16.78 40.9571 16.7839 40.7361 16.8282C40.2059 16.5788 39.5397 16.6377 39.0676 16.772C38.9968 16.7309 38.8935 16.6219 38.812 16.5038C39.1581 16.2332 39.4228 15.9308 39.5584 15.7595C40.1597 15.5161 41.7963 15.5839 41.8859 15.5686C42.8459 15.417 43.4884 15.0378 43.7968 14.4411C44.1951 13.6703 43.8368 12.902 43.7593 12.7545C43.1051 11.7403 41.4584 11.842 40.5668 12.3003C40.1364 12.5287 39.369 12.5165 38.7309 12.1103C38.2584 11.8095 37.7393 11.6003 37.7176 11.5911C36.925 11.2801 36.46 12.4643 37.2409 12.7795C37.2451 12.7811 37.6734 12.9545 38.0434 13.1903C39.0753 13.8468 40.3125 13.8745 41.1543 13.4378C41.6568 13.1795 42.5143 13.1853 42.6476 13.3853C42.6493 13.3878 42.7618 13.6561 42.6601 13.8536C42.5576 14.0511 42.2259 14.2111 41.7443 14.2945C41.0007 14.2686 39.0473 14.2901 38.6109 14.8911C38.3693 15.2286 37.7359 15.8578 37.3559 15.7736C36.4387 15.5782 36.1171 17.2402 37.6412 17.0368C37.9174 17.6113 38.7029 18.2419 39.3176 18.0345C39.6884 17.907 40.1651 17.8961 40.2093 17.9686C40.4443 18.4653 40.5901 19.1778 40.4343 19.3895C40.2976 19.5743 39.6821 19.4661 39.5968 19.4661C39.5059 19.4303 38.6359 19.4845 38.1201 20.1403C37.1912 21.3185 38.2213 24.2061 40.5409 22.9736C40.8166 23.0741 40.7968 23.4686 40.8309 23.5936C40.9626 24.1003 40.9484 24.6653 40.8534 24.767C40.8526 24.7661 40.7551 24.8003 40.4843 24.7103C40.4568 24.7011 40.4284 24.6945 40.4001 24.6886C36.9983 24.0438 37.1641 29.1358 40.9468 28.3728C40.9484 28.3711 41.1293 28.327 41.2334 28.4103C41.3459 28.5011 41.4576 28.7928 41.4459 29.3428C41.3676 29.5936 41.2309 29.8653 41.1309 29.9761C40.4909 29.7553 39.3643 29.6736 38.5168 30.5436C38.4709 30.5911 38.4326 30.6445 38.4034 30.7036C38.3351 30.8378 37.7601 32.0445 38.3709 32.8903C38.7634 33.4345 39.4834 33.6353 40.5126 33.487C40.5982 33.475 41.0314 33.3202 41.2093 33.4611C41.2926 33.527 41.3709 33.772 41.3176 34.2445C41.3085 34.3298 41.3503 34.9304 41.1234 35.117C41.0076 35.2111 40.7534 35.1603 40.5709 35.1136C40.4518 35.0886 39.3826 34.8936 38.6068 35.5261C38.2859 35.7878 37.9034 36.292 37.9059 37.2661C37.9151 37.3695 37.9901 37.9053 38.5268 38.3153C39.0568 38.7186 39.8243 38.837 40.8393 38.6536C40.8384 38.6528 41.0318 38.6278 41.1368 38.727C41.4252 39.0024 41.2276 39.9633 41.2276 40.0903C41.2309 40.3295 41.1484 40.6111 41.0843 40.6545C41.0834 40.6536 40.9834 40.6836 40.6368 40.5261C40.5151 40.487 39.4226 40.1645 38.6326 40.7553C38.3084 40.9986 37.9251 41.4861 37.9509 42.4853C38.0913 43.5975 39.2164 44.6081 41.0809 44.2603C41.0884 44.2603 41.2284 44.2545 41.3243 44.3586C41.4443 44.4886 41.4901 44.7836 41.4501 45.167C41.4333 45.3263 41.5687 45.8696 41.3643 46.0995C41.2843 46.1886 41.1193 46.2086 40.9676 46.1995C40.1334 45.9636 38.5226 46.0003 37.8401 47.7445C37.7223 48.0462 37.7836 48.5972 38.1026 49.0036C38.4601 49.4595 39.0651 49.7061 39.9009 49.7378C40.0101 49.7461 40.1176 49.7186 40.2151 49.6695C40.5946 49.4771 41.7086 49.0923 41.9159 49.4495C41.9918 49.8678 42.0926 50.9903 41.6684 51.4861C40.9626 51.1603 39.4951 50.9678 37.3059 53.037C36.687 53.6198 37.5743 54.5481 38.1843 53.967C38.2721 53.884 38.3504 53.8239 38.4347 53.7498L39.3018 55.7536C39.4351 56.062 39.7868 56.2128 40.1018 56.1036C40.1468 56.087 44.6401 54.5578 48.8193 57.4228C48.9939 57.5418 48.8422 57.7458 48.6634 59.2128C48.5395 60.0523 49.8073 60.2347 49.9301 59.3995ZM43.8968 17.8403L44.4634 17.3511C44.8926 17.0667 45.3408 17.7091 44.9301 18.0103C44.2243 18.5277 43.1133 19.0513 41.7553 18.7828C41.7273 18.5232 41.6731 18.2769 41.6061 18.0591C43.4434 17.9534 43.6057 18.0873 43.8968 17.8403ZM43.8043 23.0211C44.0421 22.7833 44.2357 22.6529 44.4418 22.9186C44.5284 23.0303 44.5943 23.1953 44.4134 23.3395C44.1126 23.5801 43.4773 23.8396 42.1709 23.8049C42.1254 23.456 42.0808 23.3423 42.0631 23.2178C43.181 23.1678 43.4912 23.3428 43.8043 23.0211ZM44.3818 28.742C44.3968 28.7278 44.5301 28.6086 44.7251 28.4878C45.0043 28.3128 45.1884 28.5345 45.2534 28.6386C45.3293 28.7603 45.4176 28.9886 45.1609 29.1495C44.5767 29.5143 43.7303 29.6647 42.7012 29.6127C42.7397 29.4273 42.7247 29.233 42.7062 28.9706C43.8131 28.8802 44.094 29.0038 44.3818 28.742ZM45.8493 33.9311C46.0534 33.9111 46.2384 33.7878 46.3418 33.6111C46.3443 33.607 46.5901 33.187 46.8851 33.252C47.3241 33.3427 47.552 34.1929 46.4501 34.3003C46.3032 34.3147 42.6784 34.6795 42.5855 34.6888C42.6099 34.3954 42.5884 34.3547 42.5968 34.2485C42.9299 34.2185 43.753 34.1396 45.8493 33.9311ZM45.6643 38.932C45.8884 38.7128 46.2984 38.5978 46.4568 38.6686C46.5384 38.7053 46.6293 38.8286 46.6934 38.992C46.7819 39.213 46.3849 39.8286 45.6918 39.9061L42.505 40.2011C42.5052 40.196 42.5398 39.9031 42.5566 39.582C43.3255 39.6181 44.9716 39.6068 45.6643 38.932ZM45.6476 44.4353C45.6543 44.4303 46.3434 44.057 46.5793 44.357C46.5482 44.4423 47.1214 45.0351 45.8201 45.3095C44.7489 45.552 43.4888 45.763 42.7539 45.8106C42.7784 45.4431 42.7285 45.344 42.7333 44.9618C43.4153 44.9706 44.8535 44.9275 45.6476 44.4353ZM46.4501 50.0136C46.8443 49.8078 47.0818 50.1628 47.1259 50.237C47.1959 50.3536 47.3259 50.6495 47.0143 50.8603C46.5448 51.1826 46.3349 51.0466 43.1903 51.0753C43.2382 50.8245 43.2578 50.5711 43.2622 50.3211C46.6062 50.2725 45.5787 50.4684 46.4501 50.0136Z" fill="#D82519"/>
<path d="M23.0698 7.58612C23.8608 8.05604 24.9857 8.03347 25.9339 7.34195C26.2473 7.11195 26.6123 6.94195 26.6156 6.94029C27.3798 6.58605 26.8528 5.42605 26.0798 5.77779C26.0606 5.78695 25.5981 6.00112 25.1781 6.30862C24.6616 6.6861 24.0697 6.69488 23.7289 6.48862C22.7953 5.93079 21.3483 5.93883 20.7581 7.01112C20.7189 7.10112 20.3906 7.91112 20.8048 8.68945C21.0981 9.24029 21.6598 9.59528 22.4723 9.74612C22.6347 9.77565 23.9355 9.71189 24.4431 9.92529C25.7927 11.921 27.4023 11.3462 27.1831 10.452C27.0989 10.1086 26.7539 9.90112 26.4089 9.98279C26.2281 10.0353 25.7398 9.59112 25.4448 9.11779C25.0525 8.49185 23.3743 8.4548 22.6406 8.47445C21.5677 8.25122 21.9555 7.65562 21.9089 7.57029C22.064 7.31916 22.7449 7.39072 23.0698 7.58612Z" fill="#D82519"/>
<path d="M14.4605 56.3663C13.9988 56.6813 13.7546 57.2488 13.8371 57.813L14.0705 59.3997C14.1938 60.2385 15.4608 60.0504 15.3371 59.213C15.155 57.7185 15.0073 57.5434 15.183 57.4222C19.3421 54.5722 23.8563 56.0888 23.9013 56.1038C24.2155 56.213 24.5655 56.0613 24.6996 55.7538L25.5659 53.7501C25.8336 53.9857 25.9754 54.1422 26.2555 54.1422C26.8276 54.1422 27.118 53.4359 26.6946 53.0372C24.5046 50.968 23.0363 51.1622 22.3321 51.4863C21.9155 51.003 21.998 49.923 22.0846 49.4497C22.2911 49.0941 23.4122 49.4814 23.788 49.6697C23.8846 49.7188 24.0021 49.7497 24.1005 49.738C24.9363 49.7063 25.5413 49.4597 25.8988 49.0038C26.2186 48.5964 26.278 48.0437 26.1613 47.7447C25.4771 46.0005 23.8663 45.9638 23.033 46.1997C22.8846 46.2097 22.7163 46.1897 22.6363 46.0997C22.5021 45.9488 22.4996 45.5697 22.5405 45.3647C22.5835 45.1551 22.4504 44.6036 22.6763 44.3588C22.7563 44.2722 22.8763 44.2613 22.858 44.2547C26.0447 44.8185 26.8076 41.8361 25.368 40.7555C24.5788 40.1672 23.4863 40.488 23.2855 40.5572C23.023 40.6805 22.9205 40.6547 22.918 40.6555C22.853 40.6113 22.7705 40.3297 22.7738 40.0947C22.7762 39.9748 22.5767 39.0125 22.8605 38.7305C22.9671 38.6247 23.1713 38.6563 23.1863 38.6588C27.4322 39.4155 26.6482 34.4027 23.3896 35.123C23.248 35.1622 22.9938 35.2113 22.878 35.1172C22.7271 34.9938 22.6688 34.6005 22.6855 34.3688C22.693 34.2431 22.5966 33.6172 22.7905 33.4622C22.9664 33.3191 23.402 33.4751 23.488 33.4872C24.5163 33.6347 25.238 33.4347 25.6305 32.8905C26.2405 32.0438 25.6655 30.838 25.5971 30.703C25.568 30.6447 25.5296 30.5913 25.4838 30.5438C24.6363 29.6738 23.5096 29.7555 22.8696 29.9763C22.7696 29.8655 22.6338 29.5938 22.5555 29.343C22.543 28.793 22.6555 28.5005 22.768 28.4105C22.873 28.3272 23.053 28.373 23.1096 28.3863C26.7801 29.1219 27.0269 24.0395 23.6013 24.6888C23.484 24.713 23.3543 24.7747 23.2021 24.7747C23.1646 24.7747 23.1546 24.773 23.1555 24.7722C23.0521 24.6638 23.0388 24.0997 23.1696 23.5938C23.2056 23.4621 23.1822 23.0712 23.4613 22.9747C26.3703 24.5264 27.4105 19.492 24.4071 19.4663C24.3838 19.4772 24.343 19.4688 24.3121 19.473C23.8538 19.5388 23.6246 19.4697 23.5671 19.3897C23.4105 19.178 23.5571 18.4655 23.7705 18.0113C23.8363 17.8963 24.313 17.9072 24.6805 18.0338C25.2914 18.2424 26.0761 17.621 26.3594 17.0369C26.5181 17.0581 26.6356 17.085 26.9146 17.0255C27.2605 16.9513 27.4805 16.6105 27.4063 16.2647C27.3313 15.9188 26.9913 15.7005 26.6455 15.7738C26.3013 15.848 25.6921 15.3088 25.3888 14.8897C24.948 14.2909 23.0062 14.2696 22.2563 14.2947C21.7796 14.2122 21.4488 14.0547 21.3438 13.8597C21.2471 13.678 21.3338 13.4372 21.3255 13.4372C21.5113 13.1838 22.3505 13.183 22.8421 13.4355C23.6777 13.8724 24.9168 13.8534 25.9588 13.1905C26.328 12.9547 26.7563 12.7813 26.7605 12.7797C27.0888 12.6472 27.2471 12.2747 27.1155 11.9472C26.9846 11.6188 26.613 11.4622 26.2838 11.5913C26.2621 11.6005 25.743 11.8097 25.2713 12.1105C24.6317 12.5162 23.8689 12.5304 23.4321 12.2997C22.5421 11.8422 20.8938 11.7397 20.2071 12.8172C20.1646 12.9022 19.8063 13.6705 20.2046 14.4422C20.5121 15.038 21.1555 15.4172 22.1138 15.5688C22.2969 15.595 23.827 15.5138 24.4421 15.7605C24.5781 15.9318 24.8427 16.2337 25.1884 16.504C25.1068 16.6221 25.0031 16.7311 24.9338 16.7722C24.4699 16.6416 23.8151 16.5837 23.2817 16.8323C23.0266 16.7741 23.6737 16.8411 20.7621 16.7213L20.2371 16.2797C19.653 15.8988 18.8838 15.9197 18.3196 16.3347C17.4078 17.0064 17.4002 18.3697 18.3138 19.0422C19.564 19.9595 20.9509 20.3409 22.4787 20.0405C23.3992 21.5417 25.2309 19.9838 24.8938 21.5005C24.8771 21.608 24.7738 21.9072 24.6271 21.9763C24.4971 22.033 24.2396 21.9572 23.933 21.7705C23.5729 21.5531 22.9762 21.7406 22.635 21.9837C22.4171 21.9006 22.4033 21.9549 20.9071 21.938C18.4933 19.9476 15.8321 25.2828 21.9035 25.0834C22.1854 25.9655 22.9759 26.2229 23.8721 25.9413C24.0805 25.9105 24.4946 25.9172 24.6488 26.0688C24.7671 26.1847 24.7396 26.4647 24.7155 26.6072C24.6763 26.7855 24.4621 27.3497 23.428 27.1488C22.8702 26.9706 22.1421 27.0985 21.6924 27.7084L20.298 27.6422C20.208 27.5722 20.0896 27.4863 19.9505 27.3997C19.153 26.9063 18.1688 27.1463 17.6613 27.9613C16.7744 29.3854 18.0042 31.2806 21.9354 30.8475C22.3449 31.2908 22.8395 31.3684 23.213 31.2147C23.2455 31.2013 23.963 30.9138 24.4946 31.3688C24.6105 31.6513 24.6771 32.0255 24.5921 32.1413C24.5455 32.2063 24.3046 32.3047 23.7221 32.2272C22.9012 31.9817 22.0147 32.1341 21.5984 32.9815C21.2557 32.9515 19.7397 32.8024 18.5713 32.6872C18.2313 32.2713 17.6355 31.8388 16.8546 31.9988C15.1303 32.3579 14.7707 35.1209 17.2272 35.5341C17.4876 35.6183 16.7137 35.4911 21.9913 36.0317C22.4599 36.4758 23.0685 36.5364 23.6821 36.368C23.833 36.3405 24.3263 36.3055 24.5871 36.5197C24.7396 36.6463 24.8171 36.878 24.8196 37.1505C24.8196 37.1505 24.7821 37.233 24.698 37.2972C24.4738 37.4672 24.003 37.5055 23.4363 37.4038C23.3488 37.3838 22.5746 37.2347 21.9805 37.8013C21.8367 37.9384 21.7292 38.1089 21.6414 38.2975C21.6262 38.2972 21.6134 38.2907 21.598 38.2913C20.5838 38.3613 19.4521 38.233 19.2313 38.0172C18.718 37.5155 17.7688 37.1638 17.0205 37.5005C16.623 37.6788 16.3105 38.0313 16.1163 38.5213C15.712 39.5496 16.6137 41.0045 18.1905 41.1813C22.5004 41.5598 21.7315 41.5351 21.9665 41.5081C22.4485 42.036 23.1242 42.034 23.7813 41.738C24.99 41.4207 24.9787 42.4611 24.4396 42.843C24.1471 43.0505 23.6738 43.103 23.0046 42.983C22.9355 42.9772 22.273 42.9388 21.7663 43.458C21.7021 43.5238 21.6535 43.6025 21.6014 43.6783C20.9307 43.6989 19.5635 43.68 18.9938 43.3272C18.4213 42.9963 17.133 42.6363 16.3188 43.7088C16.2671 43.7963 15.828 44.5855 16.1871 45.3963C16.4471 45.9838 17.0263 46.3755 17.8988 46.558C18.9418 46.7938 20.7481 47.1597 21.8088 47.0685C22.2839 47.4953 23.0305 47.5456 23.3488 47.4413C23.4638 47.4038 24.4713 47.1055 24.9321 48.1222C24.8912 48.3541 24.4342 48.4305 24.2013 48.4505C23.7696 48.2563 22.638 47.8272 21.7746 48.143C21.3247 48.3075 21.0005 48.6572 20.8687 49.0413H18.4313C18.3555 48.9955 18.2571 48.9388 18.1421 48.8788C16.2 47.8703 14.4507 50.683 16.2646 51.9188C17.1928 52.5517 17.6489 52.3015 21.4152 52.3555C21.7987 52.7796 22.3144 53.0962 22.7546 52.7122C22.9751 52.5184 23.5715 52.4303 24.509 52.969L23.748 54.7297C22.283 54.3663 18.2905 53.7405 14.4605 56.3663ZM19.0713 18.0105C18.8558 17.8525 18.8616 17.5258 19.0788 17.3655C19.2138 17.2655 19.3996 17.2613 19.4721 17.303C20.0177 17.7272 20.1374 17.9785 20.4963 17.993L22.3928 18.0593C22.3268 18.2748 22.2725 18.5214 22.2447 18.7832C20.8831 19.0513 19.7755 18.5271 19.0713 18.0105ZM19.588 23.3397C19.4071 23.1955 19.4721 23.0305 19.5588 22.918C19.7657 22.6531 19.9589 22.7831 20.1946 23.0188C20.5022 23.3434 20.8334 23.1692 21.9377 23.218C21.9165 23.3655 21.8767 23.4431 21.8297 23.8057C20.5222 23.8427 19.8872 23.581 19.588 23.3397ZM18.8405 29.1497C18.583 28.9888 18.6721 28.7605 18.748 28.6388C18.8121 28.5347 18.9905 28.3097 19.2755 28.488C19.4713 28.6088 19.6046 28.728 19.618 28.7405C19.901 29.0022 20.1428 28.8768 21.295 28.9707C21.251 29.5986 21.2974 29.526 21.3005 29.6131C20.2699 29.6657 19.4231 29.5153 18.8405 29.1497ZM17.5513 34.3005C16.4436 34.1928 16.6837 33.3416 17.1163 33.2522C17.3946 33.1913 17.6563 33.6063 17.6563 33.6063C17.7588 33.7897 17.9438 33.9105 18.1521 33.9313C20.2479 34.1397 21.0707 34.2187 21.4038 34.2487C21.4118 34.3494 21.3928 34.4226 21.4151 34.6889C21.3224 34.6796 17.6985 34.3149 17.5513 34.3005ZM18.3213 39.908C17.6113 39.8281 17.2205 39.2122 17.3071 38.9922C17.3713 38.8288 17.4621 38.7055 17.5446 38.668C17.7013 38.6022 18.113 38.7138 18.3371 38.933C19.0284 39.608 20.6769 39.6191 21.4449 39.5823C21.4616 39.904 21.4962 40.1963 21.4964 40.2015L18.3213 39.908ZM17.4071 44.3888C17.7013 44.0805 18.3346 44.4247 18.3363 44.4255C19.1439 44.9251 20.5848 44.9706 21.2673 44.9621C21.2722 45.347 21.2221 45.4355 21.2464 45.8074C20.505 45.7603 19.2457 45.5505 18.1713 45.3072C17.5308 45.1732 17.1536 44.9483 17.4071 44.3888ZM16.9855 50.8605C16.6755 50.6497 16.8046 50.3538 16.8755 50.2363C16.9188 50.1638 17.1596 49.8088 17.5505 50.0138C17.9079 50.1995 17.9801 50.3213 18.2455 50.3213H20.7385C20.743 50.5715 20.7626 50.8251 20.8107 51.076C17.7586 51.047 17.4765 51.195 16.9855 50.8605Z" fill="#D82519"/>
</svg>
