<svg width="60" height="53" viewBox="0 0 60 53" fill="none" xmlns="http://www.w3.org/2000/svg">
<path d="M6 24C6 22.9391 6.42143 21.9217 7.17157 21.1716C7.92172 20.4214 8.93913 20 10 20H13V18H10C8.40919 18.0016 6.88399 18.6342 5.75911 19.7591C4.63424 20.884 4.00159 22.4092 4 24V27H6V24Z" fill="#D82519"/>
<path d="M19.0005 37.0001C18.1837 37.0775 17.3626 36.9054 16.6457 36.5065C15.9287 36.1077 15.3495 35.5009 14.9845 34.7661C14.8495 32.1901 12.5445 29.3051 11.3585 27.9861C12.4722 26.5819 13.3476 25.0042 13.9495 23.3161L12.0495 22.6841C11.4457 24.3885 10.5081 25.9554 9.29147 27.2931C7.09624 29.6522 5.91453 32.7787 6.00047 36.0001H8.00047C7.95249 33.6711 8.66324 31.3897 10.0255 29.5001C11.2405 30.8901 13.0005 33.2801 13.0005 35.0001C13.0005 37.5431 10.3195 40.2671 10.2925 40.2941L11.7075 41.7071C12.9043 40.4665 13.8572 39.0119 14.5165 37.4191C15.7539 38.5002 17.3586 39.066 19.0005 39.0001V37.0001Z" fill="#D82519"/>
<path d="M16 43H14V45H16V43Z" fill="#D82519"/>
<path d="M20 43H18V45H20V43Z" fill="#D82519"/>
<path d="M6 29H4V31H6V29Z" fill="#D82519"/>
<path d="M26.5058 23.9559C25.7576 23.9494 25.0265 23.7317 24.3965 23.328C23.7665 22.9243 23.2633 22.3509 22.9448 21.6739L21.0508 22.3159C21.3875 23.1538 21.9174 23.9003 22.5974 24.4945C23.2775 25.0886 24.0883 25.5137 24.9638 25.7349C23.9516 26.6909 22.8018 27.4898 21.5528 28.1049L22.4468 29.8949C28.8118 26.7119 29.9358 21.4199 29.9798 21.1949L28.0208 20.7949C27.719 21.9345 27.205 23.0069 26.5058 23.9559Z" fill="#D82519"/>
<path d="M25 13V10H23V13H22V15H23C23.5304 15 24.0391 14.7893 24.4142 14.4142C24.7893 14.0391 25 13.5304 25 13Z" fill="#D82519"/>
<path d="M59.0004 34.9999H24.3004C24.1209 34.7493 23.9223 34.513 23.7064 34.2929L23.6874 34.2739L26.4474 32.8999C29.0481 31.514 31.0123 29.1764 31.9294 26.3759L33.6774 21.9999H39.0004C39.2657 21.9999 39.52 21.8946 39.7076 21.707C39.8951 21.5195 40.0004 21.2651 40.0004 20.9999V16.9999C40.0004 16.7347 39.8951 16.4804 39.7076 16.2928C39.52 16.1053 39.2657 15.9999 39.0004 15.9999H36.4144L38.7074 13.7069C38.8949 13.5194 39.0002 13.2651 39.0002 12.9999C39.0002 12.7348 38.8949 12.4805 38.7074 12.2929L35.7074 9.29292C35.5199 9.10545 35.2656 9.00014 35.0004 9.00014C34.7353 9.00014 34.481 9.10545 34.2934 9.29292L31.0004 12.5859L29.2864 10.8719L30.7814 8.62492L34.7814 3.62492C34.8747 3.50845 34.9408 3.37258 34.9748 3.22726C35.0087 3.08194 35.0097 2.93086 34.9777 2.78511C34.9457 2.63935 34.8814 2.50261 34.7897 2.38492C34.6979 2.26722 34.581 2.17155 34.4474 2.10492L30.4474 0.104925C30.2428 0.00264195 30.0092 -0.0263501 29.7857 0.0227867C29.5622 0.0719235 29.3624 0.196217 29.2194 0.374925L25.5204 4.99992H24.8204L23.9804 0.799925C23.9539 0.667241 23.9007 0.541324 23.8241 0.429799C23.7475 0.318273 23.649 0.22346 23.5346 0.151098C23.4203 0.0787361 23.2925 0.030332 23.1589 0.00881631C23.0253 -0.0126994 22.8887 -0.00687918 22.7574 0.0259248L18.7574 1.02592C18.5067 1.08847 18.2899 1.24565 18.1525 1.46451C18.0151 1.68337 17.9678 1.94693 18.0204 2.19992L18.8704 6.45092L16.0004 8.13192V2.99992C16.0004 2.73471 15.8951 2.48035 15.7076 2.29282C15.52 2.10528 15.2657 1.99992 15.0004 1.99992H11.0004C10.7352 1.99992 10.4809 2.10528 10.2933 2.29282C10.1058 2.48035 10.0004 2.73471 10.0004 2.99992V7.58593L8.70745 6.29292C8.51992 6.10545 8.26561 6.00014 8.00045 6.00014C7.73528 6.00014 7.48097 6.10545 7.29345 6.29292L4.29345 9.29292C4.10598 9.48045 4.00066 9.73476 4.00066 9.99992C4.00066 10.2651 4.10598 10.5194 4.29345 10.7069L7.83045 14.2439C5.6116 14.7396 3.6275 15.9756 2.20444 17.7487C0.781387 19.5218 0.00411099 21.7264 0.00044608 23.9999V29.9999C-0.0180778 32.6174 0.540524 35.2068 1.6365 37.5839C2.73248 39.961 4.3389 42.0673 6.34145 43.7529L14.3614 50.7689C15.3268 51.5866 16.5465 52.043 17.8114 52.0599C18.1522 52.0602 18.4919 52.023 18.8244 51.9489C19.5047 51.7961 20.1395 51.4851 20.6772 51.0412C21.2149 50.5973 21.6405 50.033 21.9194 49.3939C21.9194 49.3939 25.0244 42.1439 25.0804 41.9999H59.0004C59.2657 41.9999 59.52 41.8946 59.7076 41.707C59.8951 41.5195 60.0004 41.2651 60.0004 40.9999V35.9999C60.0004 35.7347 59.8951 35.4804 59.7076 35.2928C59.52 35.1053 59.2657 34.9999 59.0004 34.9999ZM30.2934 14.7069C30.481 14.8944 30.7353 14.9997 31.0004 14.9997C31.2656 14.9997 31.5199 14.8944 31.7074 14.7069L35.0004 11.4139L36.5864 12.9999L33.2934 16.2929C33.1536 16.4328 33.0584 16.6109 33.0199 16.8049C32.9813 16.9988 33.0011 17.1999 33.0768 17.3826C33.1524 17.5653 33.2806 17.7214 33.445 17.8313C33.6094 17.9412 33.8027 17.9999 34.0004 17.9999H38.0004V19.9999H33.0004C32.8005 19.9999 32.605 20.0597 32.4394 20.1719C32.2738 20.284 32.1456 20.4432 32.0714 20.6289L30.0514 25.6839C29.3091 28.005 27.6962 29.948 25.5514 31.1049L22.2004 32.7829L20.0004 30.5829V18.9999H23.0004C24.5223 18.9981 25.9867 18.4181 27.0969 17.3772C28.2072 16.3364 28.8805 14.9125 28.9804 13.3939L30.2934 14.7069ZM19.0004 8.61792L20.4474 7.89493C20.6445 7.79656 20.8035 7.63591 20.8999 7.43792C20.9962 7.23993 21.0246 7.01566 20.9804 6.79992L20.1674 2.73492L22.2254 2.22092L23.0204 6.19992C23.0666 6.4258 23.1893 6.6288 23.3679 6.77459C23.5464 6.92037 23.7699 6.99997 24.0004 6.99992H26.0004C26.1504 6.99998 26.2985 6.96631 26.4337 6.90139C26.5689 6.83648 26.6877 6.74199 26.7814 6.62492L30.2814 2.25592L32.4524 3.34192L29.1734 7.44193L27.1734 10.4419C27.0619 10.6067 27.0016 10.8009 27.0004 10.9999V12.9999C27.0004 14.0608 26.579 15.0782 25.8289 15.8284C25.0787 16.5785 24.0613 16.9999 23.0004 16.9999H20.0004V14.9999C20.0004 14.7347 19.8951 14.4804 19.7076 14.2928C19.52 14.1053 19.2657 13.9999 19.0004 13.9999V8.61792ZM6.41445 9.99992L8.00045 8.41392L10.2934 10.7069C10.4333 10.8467 10.6115 10.9419 10.8054 10.9805C10.9994 11.0191 11.2004 10.9993 11.3831 10.9236C11.5658 10.8479 11.722 10.7198 11.8318 10.5554C11.9417 10.391 12.0004 10.1977 12.0004 9.99992V3.99992H14.0004V9.99992C14.0004 10.181 14.0495 10.3586 14.1426 10.5139C14.2356 10.6692 14.3691 10.7964 14.5287 10.8818C14.6883 10.9672 14.8681 11.0077 15.049 10.9989C15.2298 10.9901 15.4048 10.9324 15.5554 10.8319L17.0004 9.86792V13.9999H10.4144L6.41445 9.99992ZM20.0944 48.5769C19.9436 48.9328 19.71 49.2475 19.4131 49.495C19.1163 49.7425 18.7646 49.9156 18.3874 49.9999C17.9055 50.0883 17.4099 50.0666 16.9375 49.9366C16.4651 49.8065 16.0283 49.5715 15.6594 49.2489L7.64045 42.2309C5.85875 40.7324 4.42953 38.8594 3.45466 36.7452C2.47978 34.6311 1.98325 32.3279 2.00045 29.9999V23.9999C2.00283 21.8789 2.84645 19.8455 4.34622 18.3457C5.846 16.8459 7.87945 16.0023 10.0004 15.9999H18.0004V30.9999C18.0005 31.2651 18.1059 31.5194 18.2934 31.7069L21.5864 34.9999H20.0004C19.7352 34.9999 19.4809 35.1053 19.2933 35.2928C19.1058 35.4804 19.0004 35.7347 19.0004 35.9999C19.0025 37.2493 19.3941 38.4669 20.1208 39.4832C20.8474 40.4995 21.8729 41.2639 23.0544 41.6699L20.0944 48.5769ZM32.0004 39.9999H25.0004C24.1138 39.9988 23.2526 39.7037 22.5516 39.1608C21.8506 38.618 21.3494 37.858 21.1264 36.9999H32.0004V39.9999ZM36.0004 39.9999H34.0004V36.9999H36.0004V39.9999ZM58.0004 39.9999H38.0004V36.9999H58.0004V39.9999Z" fill="#D82519"/>
</svg>
