<svg width="40" height="40" viewBox="0 0 40 40" fill="none" xmlns="http://www.w3.org/2000/svg">
<path d="M35.5003 36.6669C35.2003 36.6669 34.9003 36.5503 34.6836 36.3336L31.5836 33.2336C31.1336 32.7836 31.1336 32.0503 31.5836 31.5836C32.0336 31.1336 32.7669 31.1336 33.2336 31.5836L36.3336 34.6836C36.7836 35.1336 36.7836 35.8669 36.3336 36.3336C36.1003 36.5503 35.8003 36.6669 35.5003 36.6669Z" fill="#292D32"/>
<path d="M19.1663 3.33398C10.433 3.33398 3.33301 10.434 3.33301 19.1673C3.33301 27.9007 10.433 35.0007 19.1663 35.0007C27.8997 35.0007 34.9997 27.9007 34.9997 19.1673C34.9997 10.434 27.8997 3.33398 19.1663 3.33398ZM23.6663 20.7507H20.7497V23.6673C20.7497 24.3507 20.183 24.9173 19.4997 24.9173C18.8163 24.9173 18.2497 24.3507 18.2497 23.6673V20.7507H15.333C14.6497 20.7507 14.083 20.184 14.083 19.5007C14.083 18.8173 14.6497 18.2507 15.333 18.2507H18.2497V15.334C18.2497 14.6507 18.8163 14.084 19.4997 14.084C20.183 14.084 20.7497 14.6507 20.7497 15.334V18.2507H23.6663C24.3497 18.2507 24.9163 18.8173 24.9163 19.5007C24.9163 20.184 24.3497 20.7507 23.6663 20.7507Z" fill="#292D32"/>
</svg>
