<svg width="120" height="42" viewBox="0 0 120 42" fill="none" xmlns="http://www.w3.org/2000/svg">
<g clip-path="url(#clip0_305_802)">
<path d="M16.1552 0.027937L17.5669 0.449466C4.72159 0.3943 -0.785166 16.6911 8.94819 24.8939C13.138 28.426 18.7947 28.7174 23.6437 26.3735C16.4466 32.3541 5.0243 29.2252 1.2956 20.8314C-2.84047 11.521 3.38203 1.08035 13.4704 0.027937C14.3177 -0.0597637 15.2909 0.0930053 16.1552 0.027937Z" fill="#D82519"/>
<path d="M104.6 12.8489H101.28C101.209 12.8489 100.737 12.095 100.296 11.8588C96.7027 9.92935 93.8496 13.948 95.482 17.3627C96.748 20.0093 101.399 19.8508 102.057 16.794H97.9588V14.5407H104.882V17.7107C104.882 18.7631 102.627 20.8056 101.678 21.2781C95.5994 24.2967 89.4759 17.9936 92.5129 12.0002C94.9515 7.188 103.389 7.24033 104.599 12.8518L104.6 12.8489Z" fill="#333333"/>
<path d="M84.1841 8.62109H78.6038V21.8625H84.6084C85.8631 21.8625 88.074 20.6262 88.9128 19.6756C92.4435 15.6669 89.7304 8.62109 84.1841 8.62109ZM86.1616 18.2003C85.9494 18.3912 84.8192 19.0462 84.6084 19.0462H81.7115V11.2974H84.0426C84.5094 11.2974 85.7966 11.9353 86.1686 12.2776C87.62 13.6115 87.6383 16.865 86.1616 18.2003Z" fill="#333333"/>
<path d="M70.8295 13.1985C71.0346 10.8249 69.0812 8.62109 66.6652 8.62109H60.519V21.8625H63.556C63.5716 21.8625 63.7682 21.6673 63.7682 21.6517V16.7914C64.0059 16.8268 64.3963 16.7122 64.5872 16.8211C64.8829 16.988 66.8717 21.2443 67.3003 21.8625H70.8324L67.8689 16.7193C69.449 16.0375 70.6711 15.036 70.8295 13.1985ZM63.7682 14.6781V11.2974H66.5237C66.8971 11.2974 67.4686 11.9962 67.5492 12.3866C68.074 14.9285 65.5053 14.6654 63.7682 14.6781Z" fill="#333333"/>
<path d="M31.346 8.76102C31.0659 8.42436 28.4094 8.73273 27.8054 8.61108L22.7952 21.8638H25.975C26.3895 21.4988 26.5974 19.6175 26.9822 19.4888L31.8934 19.4605L32.6855 21.8638H36.0762L31.346 8.76102ZM27.7404 17.0742L29.2963 12.2846C29.4901 12.3002 29.5198 12.4911 29.5835 12.6298C30.1705 13.9113 30.6274 15.712 30.9895 17.0742H27.7404Z" fill="#333333"/>
<path d="M46.9553 12.2861H43.5646C43.4925 12.2861 43.5067 11.3992 42.822 11.1247C40.9138 10.3623 39.4399 12.3002 41.7243 13.487C43.8575 14.5946 47.2962 14.736 47.2424 17.9852C47.1519 23.3194 37.4695 23.3109 37.2078 17.9215H40.5277C40.6818 17.9215 40.7964 18.5255 40.9011 18.6769C42.3255 20.7322 45.8732 18.1267 42.4854 16.6739C40.3551 15.7616 37.4454 15.6286 37.2233 12.6199C36.8202 7.14851 46.8902 6.92643 46.9567 12.2861H46.9553Z" fill="#333333"/>
<path d="M21.3834 8.62109V11.1573H16.5797V13.9751H20.8176C20.6846 14.6201 20.9463 15.4816 20.9322 16.0516C20.9279 16.1846 20.8332 16.3699 20.7469 16.3699H16.5783V19.3277H21.382V21.8639H13.5413C13.5257 21.8639 13.3291 21.6673 13.3291 21.6531V8.62109H21.382H21.3834Z" fill="#333333"/>
<path d="M114.915 8.62109V11.1573H110.182C110.166 11.1573 109.97 11.354 109.97 11.3681V13.7629C109.97 13.7785 110.166 13.9737 110.182 13.9737H114.35V16.3685H109.971V19.1155C109.971 19.131 110.168 19.3262 110.183 19.3262H114.916V21.8625H106.863V8.62109H114.916H114.915Z" fill="#333333"/>
<path d="M58.8231 8.62109V11.1573H55.291V21.8639H52.254C52.2385 21.8639 52.0418 21.6673 52.0418 21.6531V11.1573H48.5098V8.62109H58.8231Z" fill="#333333"/>
<path d="M76.0606 8.62109H72.9529V21.8639H76.0606V8.62109Z" fill="#333333"/>
<path d="M73.8002 27.2884C73.9276 26.8782 75.3378 26.9277 75.1412 27.7807C75.8032 26.8796 76.7608 26.7509 77.7157 27.328C78.1527 27.5925 78.1839 28.0466 78.6011 28.0621C79.0552 26.7792 80.7753 26.6278 81.5717 27.7099C81.7301 27.9249 82.1361 28.9222 82.1361 29.1202V33.5576H81.0044C80.9761 32.1827 81.0709 30.6493 80.8304 29.2942C80.5617 27.775 78.6026 28.3097 78.6026 29.6832V33.5576H77.4709C77.1654 31.9563 77.6803 30.0637 76.973 28.6322C76.3789 27.9943 75.0705 28.6718 75.0705 29.4017V33.5576H73.7988V27.2884H73.8002Z" fill="#333333"/>
<path d="M99.0891 27.4991C98.6251 27.427 97.9094 27.6038 97.4935 27.5019C97.4284 27.4864 97.0465 26.7989 96.509 26.6221C93.8949 25.7635 92.8256 29.338 94.0831 31.1528C94.7903 32.1741 95.987 32.4372 97.0225 31.7059C97.253 31.5432 97.4001 31.1811 97.4935 31.1585C97.908 31.0566 98.6265 31.2349 99.0891 31.1627C97.0635 36.0047 91.7251 33.4698 92.1678 28.6972C92.5596 24.4692 97.7043 23.1947 99.0891 27.4977V27.4991Z" fill="#333333"/>
<path d="M104.245 27.7814C101.198 25.0995 98.6379 29.5326 100.248 32.3319C101.054 33.7323 102.947 34.3236 104.108 32.9939C104.471 32.8369 104.254 33.4904 104.317 33.5583C104.361 33.605 105.241 33.523 105.447 33.5569V27.0755C104.561 27.1251 104.254 26.7445 104.245 27.7814ZM102.555 32.2937C100.624 32.3164 100.299 28.6061 102.449 28.3698C104.425 28.152 104.802 32.2669 102.555 32.2937Z" fill="#333333"/>
<path d="M67.7121 26.8767C67.5819 25.9389 66.6441 24.9629 65.6751 24.9629H63.5562C63.542 24.9629 63.344 25.1581 63.344 25.1737V33.5561H64.7571V30.3155C67.0161 30.3551 68.0162 29.0749 67.7121 26.8767ZM64.7571 28.9066V26.5118C67.0656 26.0903 66.927 29.1697 64.7571 28.9066Z" fill="#333333"/>
<path d="M88.6344 30.7396C88.7885 28.4636 86.8139 25.9429 84.4615 27.3532C81.5617 29.093 83.1941 34.9591 86.8308 33.5205C87.3952 33.297 88.1831 32.3578 88.3486 31.7906C88.4264 31.5246 88.3062 31.6081 88.1435 31.5854C86.7714 31.3931 87.0119 32.0989 86.207 32.3394C85.1716 32.6492 84.1065 31.8245 84.255 30.7396H88.6344ZM87.2212 29.6122H84.255C84.6355 27.8058 86.9638 27.7464 87.2212 29.6122Z" fill="#333333"/>
<path d="M114.913 30.7387C115.294 25.6379 108.828 25.744 109.402 30.9509C109.756 34.1435 113.669 34.8168 114.772 31.6539C113.439 31.0938 113.151 32.5536 111.913 32.4036C111.185 32.3145 110.53 31.4743 110.675 30.7387H114.913ZM113.642 29.6113H110.675C111.026 27.7725 113.281 27.7894 113.642 29.6113Z" fill="#333333"/>
<path d="M106.578 27.0769C107.399 27.1292 107.879 26.7445 107.709 27.7813C108.159 27.4574 108.473 26.9651 109.12 27.0769C109.063 27.3612 109.216 28.1547 109.103 28.3273C109.067 28.3811 108.337 28.4942 108.05 28.8988C107.933 29.0643 107.708 29.6725 107.708 29.8253V33.5582H106.578V27.0783V27.0769Z" fill="#333333"/>
<path d="M68.4307 27.0765C69.3204 27.0921 69.4477 26.8106 69.4916 27.7824C69.8933 27.7739 70.2144 26.8361 70.8311 27.0765C70.7816 27.4118 70.9429 28.0907 70.7675 28.351C70.6543 28.5179 70.1946 28.5194 69.9866 28.699C69.8862 28.7853 69.5609 29.4643 69.5609 29.5421V33.5565H68.4307V27.0765Z" fill="#333333"/>
<path d="M72.67 27.0762H71.5398V33.5561H72.67V27.0762Z" fill="#333333"/>
<path d="M110.251 38.0641C110.107 38.3584 109.907 40.1081 109.824 40.176C109.807 40.1902 109.402 40.2369 109.401 40.1011L110.18 36.0909L110.674 35.9508L110.392 37.7812H112.441C112.808 37.7812 112.869 36.0187 112.939 35.9508C112.978 35.9126 113.362 35.9706 113.5 35.9508C113.23 36.4742 112.81 40.0303 112.651 40.1774C112.636 40.1916 112.244 40.1916 112.23 40.1774C112.005 39.9624 112.801 38.0641 112.299 38.0641H110.251Z" fill="#333333"/>
<path d="M72.7959 35.9664C72.7308 35.9155 72.2216 35.9169 72.1268 35.9749L69.8438 40.176C70.6161 40.3613 70.65 39.0755 71.0673 38.9312C71.2809 38.8577 72.7379 38.8633 72.827 38.9906C73.0873 39.3669 72.6841 40.3344 73.5159 40.176C73.3419 39.647 72.9614 36.1008 72.7959 35.9664ZM71.2569 38.4842C71.6628 37.9552 71.8609 37.2394 72.2117 36.6963C72.3008 36.5576 72.1975 36.4431 72.5271 36.5152L72.67 38.4871L71.2569 38.4842Z" fill="#333333"/>
<path d="M77.4044 37.0673C77.0451 37.0927 76.7438 37.377 76.5556 37.3671C76.475 37.3629 76.4934 37.1125 76.4708 37.097C76.2954 36.9767 76.161 37.1635 76.0917 37.3205C75.9941 37.544 75.2076 41.1651 75.3547 41.3038C75.3703 41.3193 75.7607 41.3193 75.7762 41.3052C75.8342 41.2514 75.9615 39.9798 76.0606 39.7549C76.3887 39.694 76.4651 40.0717 76.7254 40.1509C78.4355 40.6658 79.2814 36.9414 77.4044 37.0673ZM76.98 39.8836C75.7465 39.8892 76.2543 37.6302 77.1512 37.3799C78.4228 37.0248 78.1937 39.8793 76.98 39.8836Z" fill="#333333"/>
<path d="M109.262 35.9512C109.267 36.7886 107.046 36.1761 106.86 36.3727C106.812 36.4236 106.81 37.5468 106.719 37.7816H108.838V38.2045H106.578C106.459 38.4775 106.227 40.1099 106.15 40.1764C106.094 40.2259 105.723 40.3008 105.725 39.9656C105.729 38.7958 106.473 37.4095 106.463 36.1888L106.648 35.9512H109.262Z" fill="#333333"/>
<path d="M105.589 35.9512C105.504 36.8225 103.788 36.1096 103.32 36.4364C103.122 36.575 103.036 37.5029 103.046 37.783H105.165V38.2059H102.904C102.782 38.4789 102.555 40.1127 102.477 40.1778C102.46 40.1919 102.06 40.2358 102.054 40.1056L102.904 35.9512H105.589Z" fill="#333333"/>
<path d="M87.2919 37.0645C85.0046 37.0729 85.2153 41.226 87.5578 40.018C88.009 39.786 88.5395 38.8821 87.8577 39.1933C87.7346 39.2485 87.6879 39.5229 87.5422 39.6163C86.6893 40.1594 86.0542 39.7577 86.0909 38.769H88.282C88.6753 38.769 88.613 37.0602 87.2919 37.0645ZM88.0699 38.3446C87.5536 38.2993 86.9425 38.4125 86.4417 38.346C86.2946 38.3262 86.139 38.3814 86.2338 38.1367C86.6426 37.0885 88.1448 37.0447 88.0699 38.3446Z" fill="#333333"/>
<path d="M96.5047 37.1083C95.2443 37.3983 94.7535 39.82 96.2232 40.1481C98.4836 40.6531 99.1145 36.5086 96.5047 37.1083ZM96.0761 39.7648C95.1651 39.1764 96.4283 36.5213 97.4991 37.5383C98.3365 38.3333 97.161 40.4664 96.0761 39.7648Z" fill="#333333"/>
<path d="M82.2392 37.1095C80.6097 37.4405 80.372 40.718 82.7046 40.1097C84.2266 39.7137 84.4077 36.671 82.2392 37.1095ZM82.0723 39.899C80.9661 39.7419 81.4131 37.5537 82.3821 37.3811C84.0116 37.0911 83.4967 40.0998 82.0723 39.899Z" fill="#333333"/>
<path d="M91.6006 38.0648C91.1579 38.0733 91.1833 37.5513 90.7575 37.4156C89.4618 37.0039 88.8522 40.2786 90.3685 39.8754C90.8396 39.7509 90.9655 38.6476 91.4563 39.2615C90.1988 41.4045 88.1011 39.5416 89.4166 37.6489C90.0206 36.7804 91.694 36.7776 91.5992 38.0648H91.6006Z" fill="#333333"/>
<path d="M100.785 35.9534C100.355 36.3975 99.7129 36.2052 99.7949 37.0779L100.359 37.2873C100.226 37.5645 99.785 37.4372 99.6789 37.5235C99.4823 37.6833 99.3281 39.774 99.1032 40.0951C99.0099 40.2281 98.693 40.1998 98.6676 40.1757C98.5247 40.0442 99.2857 37.8955 99.2164 37.5772C99.1669 37.3467 98.6732 37.4782 98.8076 37.0779C99.6591 37.1953 99.2489 36.9082 99.4357 36.365C99.6224 35.8218 100.3 35.7568 100.787 35.952L100.785 35.9534Z" fill="#333333"/>
<path d="M93.0137 37.0791C93.0603 37.1216 93.3984 37.0381 93.438 37.0791C93.4522 37.0947 93.455 37.4865 93.438 37.5007C93.3857 37.5502 92.9528 37.4384 92.8779 37.5077C92.7972 37.5827 92.5313 39.5121 92.5794 39.6805C92.6275 39.8488 92.9642 39.7087 93.0123 39.7568C93.2386 39.9846 92.9698 40.2675 92.5242 40.1741C91.5327 39.9662 92.4578 38.3664 92.4592 37.7029C92.4592 37.4398 92.1791 37.495 92.1621 37.4314C92.0178 36.8981 92.4337 37.1668 92.5568 37.0551C92.7265 36.9023 92.5469 36.1158 93.1523 36.0918C93.2513 36.3011 92.9741 37.0424 93.0123 37.0777L93.0137 37.0791Z" fill="#333333"/>
<path d="M69.1364 41.4466C68.7771 41.5159 68.8874 41.3773 68.7814 41.1736C67.9072 39.4959 68.5522 36.8833 70.1252 35.8125C69.9724 36.3896 69.4815 36.8607 69.251 37.4053C68.6668 38.7872 68.804 40.0264 69.1364 41.4466Z" fill="#333333"/>
<path d="M114.628 35.953C114.676 35.9926 114.899 36.9926 114.915 37.1482C115.039 38.3676 114.847 39.5713 114.099 40.5629L113.219 41.4456C113.415 40.867 113.851 40.4342 114.092 39.8514C114.606 38.6024 114.652 37.2303 114.208 35.953C114.323 35.9685 114.587 35.9204 114.628 35.953Z" fill="#333333"/>
<path d="M85.2436 37.0799C85.3808 37.21 84.6368 40.4054 84.4911 40.7689C84.0611 41.8482 83.1459 41.2937 83.4061 41.025C83.4684 40.9599 83.8616 41.1438 84.1233 40.5412C84.3525 40.015 84.6905 37.2001 84.8207 37.0784C84.8362 37.0643 85.2281 37.0657 85.2422 37.0784L85.2436 37.0799Z" fill="#333333"/>
<path d="M79.8741 37.0799L79.8769 37.6428C80.2687 37.3981 80.4455 36.9497 81.0057 37.0799V37.5014C79.3889 37.2835 79.7468 39.3092 79.3139 40.0843C79.2319 40.2328 78.9277 40.2145 78.8881 40.1777C78.7821 40.0772 79.4172 37.466 79.4865 37.3246C79.5798 37.1322 79.6393 37.0346 79.8755 37.0799H79.8741Z" fill="#333333"/>
<path d="M72.67 26.3732H71.5383V24.9629C72.8652 24.789 72.7081 25.26 72.67 26.3732Z" fill="#333333"/>
<path d="M117.457 8.38742C116.055 8.38742 114.913 7.2459 114.913 5.8441C114.913 4.4423 116.055 3.30078 117.457 3.30078C118.858 3.30078 120 4.4423 120 5.8441C120 7.2459 118.858 8.38742 117.457 8.38742ZM117.457 3.58369C116.21 3.58369 115.196 4.5979 115.196 5.8441C115.196 7.0903 116.21 8.10452 117.457 8.10452C118.703 8.10452 119.717 7.0903 119.717 5.8441C119.717 4.5979 118.703 3.58369 117.457 3.58369Z" fill="#333333"/>
<path d="M116.357 5.15917H115.81V4.9668H117.131V5.15917H116.584V6.65999H116.357V5.15917Z" fill="#333333"/>
<path d="M118.834 5.93912C118.834 5.62509 118.837 5.30541 118.844 5.12718H118.836C118.764 5.4016 118.489 6.12866 118.295 6.66194H118.094C117.947 6.22909 117.664 5.41291 117.588 5.12435H117.581C117.594 5.31955 117.599 5.69582 117.599 5.98721V6.66335H117.387V4.96875H117.722C117.915 5.49495 118.15 6.17251 118.208 6.38894H118.212C118.251 6.22626 118.53 5.48081 118.728 4.96875H119.054V6.66335H118.834V5.94194V5.93912Z" fill="#333333"/>
</g>
<defs>
<clipPath id="clip0_305_802">
<rect width="120" height="41.464" fill="white"/>
</clipPath>
</defs>
</svg>
